<svg id="analysis" xmlns="http://www.w3.org/2000/svg" width="48.495" height="48.495" viewBox="0 0 48.495 48.495">
  <g id="Group_298" data-name="Group 298">
    <g id="Group_297" data-name="Group 297">
      <path id="Path_806" data-name="Path 806" d="M48.218,8.9,39.6.277A.947.947,0,0,0,38.929,0H10.8A2.845,2.845,0,0,0,7.956,2.842V4.647A12.532,12.532,0,0,0,0,16.3a.947.947,0,0,0,.947.947H12.511a.947.947,0,0,0,.947-.947V4.736a.947.947,0,0,0-.947-.947,12.506,12.506,0,0,0-2.661.286V2.842a.948.948,0,0,1,.947-.947H37.982V7.672a2.845,2.845,0,0,0,2.842,2.842H46.6v35.14a.948.948,0,0,1-.947.947H10.8a.948.948,0,0,1-.947-.947V37.539a.947.947,0,1,0-1.894,0v8.114A2.845,2.845,0,0,0,10.8,48.5H45.654A2.845,2.845,0,0,0,48.5,45.654V9.565A.947.947,0,0,0,48.218,8.9ZM11.564,5.725v9.628H1.936A10.635,10.635,0,0,1,11.564,5.725ZM40.823,8.619a.948.948,0,0,1-.947-.947V3.234l5.386,5.386Z"/>
    </g>
  </g>
  <g id="Group_300" data-name="Group 300" transform="translate(7.956 33.151)">
    <g id="Group_299" data-name="Group 299">
      <path id="Path_807" data-name="Path 807" d="M85.617,350.278a.946.946,0,1,0,.278.67A.954.954,0,0,0,85.617,350.278Z" transform="translate(-84 -350)"/>
    </g>
  </g>
  <g id="Group_302" data-name="Group 302" transform="translate(3.393 7.181)">
    <g id="Group_301" data-name="Group 301">
      <path id="Path_808" data-name="Path 808" d="M48.33,75.819a.947.947,0,0,0-.947.947V87.383H36.766a.947.947,0,0,0-.947.947A12.511,12.511,0,1,0,48.33,75.819Zm.947,1.936a10.569,10.569,0,0,1,5.857,2.431l-5.857,5.857ZM48.33,98.947a10.631,10.631,0,0,1-10.575-9.67H48.33A.944.944,0,0,0,49,89h0l7.474-7.474A10.612,10.612,0,0,1,48.33,98.947Z" transform="translate(-35.819 -75.819)"/>
    </g>
  </g>
  <g id="Group_304" data-name="Group 304" transform="translate(14.577 29.893)">
    <g id="Group_303" data-name="Group 303">
      <path id="Path_809" data-name="Path 809" d="M180.821,315.605a2.841,2.841,0,0,0-2.617,3.949l-5.457,5.457a2.837,2.837,0,0,0-2.454-.013l-3.624-3.624a2.842,2.842,0,1,0-5.226.156l-3.476,3.476a2.842,2.842,0,1,0,1.341,1.338l3.456-3.456a2.832,2.832,0,0,0,2.661-.077l3.521,3.521a2.842,2.842,0,1,0,5.13.027l5.406-5.406a2.841,2.841,0,1,0,1.337-5.348Zm-24.074,12.913a.947.947,0,1,1,.655-1.629l.011.012.014.013a.946.946,0,0,1-.68,1.6Zm7.277-7.23a.947.947,0,1,1,.947-.947A.948.948,0,0,1,164.023,321.288Zm7.483,7.226a.947.947,0,1,1,.947-.947A.948.948,0,0,1,171.506,328.514Zm9.314-9.12a.947.947,0,1,1,.947-.947A.948.948,0,0,1,180.82,319.394Z" transform="translate(-153.905 -315.605)"/>
    </g>
  </g>
  <g id="Group_306" data-name="Group 306" transform="translate(30.812 22.258)">
    <g id="Group_305" data-name="Group 305">
      <path id="Path_810" data-name="Path 810" d="M331.257,235h-5a.947.947,0,0,0,0,1.894h5a.947.947,0,0,0,0-1.894Z" transform="translate(-325.311 -235)"/>
    </g>
  </g>
  <g id="Group_308" data-name="Group 308" transform="translate(40.124 22.258)">
    <g id="Group_307" data-name="Group 307">
      <path id="Path_811" data-name="Path 811" d="M425.237,235.278a.946.946,0,1,0,.278.67A.954.954,0,0,0,425.237,235.278Z" transform="translate(-423.62 -235)"/>
    </g>
  </g>
  <g id="Group_310" data-name="Group 310" transform="translate(30.812 13.166)">
    <g id="Group_309" data-name="Group 309">
      <path id="Path_812" data-name="Path 812" d="M337.828,139h-11.57a.947.947,0,1,0,0,1.894h11.57a.947.947,0,0,0,0-1.894Z" transform="translate(-325.311 -139)"/>
    </g>
  </g>
  <g id="Group_312" data-name="Group 312" transform="translate(30.812 17.712)">
    <g id="Group_311" data-name="Group 311">
      <path id="Path_813" data-name="Path 813" d="M337.828,187h-11.57a.947.947,0,0,0,0,1.894h11.57a.947.947,0,1,0,0-1.894Z" transform="translate(-325.311 -187)"/>
    </g>
  </g>
</svg>
