<svg xmlns="http://www.w3.org/2000/svg" width="31.63" height="37.381" viewBox="0 0 31.63 37.381">
  <g id="android-logo" transform="translate(-42.544 0)">
    <g id="Group_214" data-name="Group 214" transform="translate(42.544 0)">
      <path id="Path_685" data-name="Path 685" d="M44.858,179.141a2.232,2.232,0,0,0-1.64.674,2.206,2.206,0,0,0-.674,1.617v9.66a2.3,2.3,0,0,0,2.314,2.314,2.2,2.2,0,0,0,1.629-.674,2.252,2.252,0,0,0,.663-1.64v-9.66a2.3,2.3,0,0,0-2.292-2.291Z" transform="translate(-42.544 -167.033)" fill="#fff"/>
      <path id="Path_686" data-name="Path 686" d="M138.151,3.437l1.6-2.942a.3.3,0,0,0-.112-.449.311.311,0,0,0-.449.134l-1.617,2.966a11.268,11.268,0,0,0-9.031,0L126.919.18a.312.312,0,0,0-.449-.134.3.3,0,0,0-.112.449l1.6,2.942a9.85,9.85,0,0,0-3.864,3.449,8.71,8.71,0,0,0-1.438,4.841H143.43a8.712,8.712,0,0,0-1.438-4.841A9.891,9.891,0,0,0,138.151,3.437Zm-9.222,4.28a.842.842,0,0,1-.618.259.8.8,0,0,1-.606-.259.9.9,0,0,1,0-1.235.807.807,0,0,1,.606-.258.873.873,0,0,1,.618,1.493Zm9.469,0a.806.806,0,0,1-.606.259.876.876,0,0,1,0-1.752.807.807,0,0,1,.606.258.9.9,0,0,1,0,1.235Z" transform="translate(-117.236 0)" fill="#fff"/>
      <path id="Path_687" data-name="Path 687" d="M123.971,200.412a2.453,2.453,0,0,0,2.471,2.471H128.1l.023,5.1a2.233,2.233,0,0,0,.674,1.64,2.206,2.206,0,0,0,1.617.674,2.3,2.3,0,0,0,2.314-2.314v-5.1h3.1v5.1a2.314,2.314,0,1,0,4.627,0v-5.1h1.685a2.454,2.454,0,0,0,2.448-2.471V185.45H123.971Z" transform="translate(-118.467 -172.915)" fill="#fff"/>
      <path id="Path_688" data-name="Path 688" d="M444.667,179.141a2.226,2.226,0,0,0-1.617.663,2.2,2.2,0,0,0-.674,1.629v9.66a2.231,2.231,0,0,0,.674,1.64,2.206,2.206,0,0,0,1.617.674,2.3,2.3,0,0,0,2.314-2.314v-9.66a2.2,2.2,0,0,0-.674-1.629A2.253,2.253,0,0,0,444.667,179.141Z" transform="translate(-415.351 -167.033)" fill="#fff"/>
    </g>
  </g>
</svg>
