<svg xmlns="http://www.w3.org/2000/svg" width="65.029" height="76.132" viewBox="0 0 65.029 76.132">
  <g id="apple" transform="translate(-37.336)">
    <g id="Group_34" data-name="Group 34" transform="translate(68.589)">
      <g id="Group_33" data-name="Group 33">
        <path id="Path_411" data-name="Path 411" d="M263.054,0a17.865,17.865,0,0,0-11.567,6.262c-2.522,3.069-4.6,7.627-3.788,12.057,4.435.138,9.017-2.522,11.672-5.962C261.855,9.155,263.734,4.625,263.054,0Z" transform="translate(-247.522)" fill="#fe9435"/>
      </g>
    </g>
    <g id="Group_36" data-name="Group 36" transform="translate(37.336 17.82)">
      <g id="Group_35" data-name="Group 35">
        <path id="Path_412" data-name="Path 412" d="M100.162,127.563c-3.9-4.887-9.374-7.723-14.546-7.723-6.828,0-9.716,3.269-14.46,3.269-4.891,0-8.608-3.259-14.513-3.259-5.8,0-11.976,3.545-15.892,9.607-5.505,8.536-4.563,24.586,4.359,38.256,3.193,4.891,7.456,10.392,13.033,10.44,4.963.048,6.362-3.183,13.085-3.217s8,3.259,12.952,3.207C89.76,178.1,94.257,172,97.45,167.113a54.855,54.855,0,0,0,4.915-9.231C89.456,152.967,87.386,134.61,100.162,127.563Z" transform="translate(-37.336 -119.84)"/>
      </g>
    </g>
  </g>
</svg>
