<svg id="Component_173_1" data-name="Component 173 – 1" xmlns="http://www.w3.org/2000/svg" width="27.114" height="26.114" viewBox="0 0 27.114 26.114">
  <path id="Path_608" data-name="Path 608" d="M24.731,0H2.383A2.343,2.343,0,0,0,0,2.3V18.719a2.343,2.343,0,0,0,2.383,2.3H9.538a6.407,6.407,0,0,1-1.432,3.3l-.226.272H6.143a.766.766,0,1,0,0,1.53H20.971a.766.766,0,1,0,0-1.53H19.235l-.226-.272a6.407,6.407,0,0,1-1.432-3.3h7.155a2.343,2.343,0,0,0,2.383-2.3V2.3A2.343,2.343,0,0,0,24.731,0ZM2.383,1.53H24.731a.781.781,0,0,1,.794.765V15.811H1.589V2.3A.781.781,0,0,1,2.383,1.53ZM17.259,24.584h-7.4a7.887,7.887,0,0,0,1.281-3.57h4.843A7.887,7.887,0,0,0,17.259,24.584Zm7.472-5.1H2.383a.781.781,0,0,1-.794-.765V17.341H25.525v1.377A.781.781,0,0,1,24.731,19.484Z" fill="#162f6a"/>
  <path id="Path_609" data-name="Path 609" d="M62.117,93.189h5.955a1.117,1.117,0,0,0,1.117-1.117V86.117A1.117,1.117,0,0,0,68.072,85H62.117A1.117,1.117,0,0,0,61,86.117v5.955A1.117,1.117,0,0,0,62.117,93.189Zm1.117-5.955h3.722v3.722H63.233Z" transform="translate(-56.459 -81.534)" fill="none" stroke="#162f6a" stroke-width="1"/>
  <path id="Path_611" data-name="Path 611" d="M342.117,93.189h5.955a1.117,1.117,0,0,0,1.117-1.117V86.117A1.117,1.117,0,0,0,348.072,85h-5.955A1.117,1.117,0,0,0,341,86.117v5.955A1.117,1.117,0,0,0,342.117,93.189Zm1.117-5.955h3.722v3.722h-3.722Z" transform="translate(-326.615 -81.534)" fill="none" stroke="#162f6a" stroke-width="1"/>
  <path id="Path_613" data-name="Path 613" d="M342.117,227.233h5.955a1.117,1.117,0,1,0,0-2.233h-5.955a1.117,1.117,0,1,0,0,2.233Z" transform="translate(-326.615 -212.176)" fill="#162f6a"/>
  <path id="Path_614" data-name="Path 614" d="M62.117,227.233h5.955a1.117,1.117,0,0,0,0-2.233H62.117a1.117,1.117,0,1,0,0,2.233Z" transform="translate(-56.459 -212.176)" fill="#162f6a"/>
</svg>
