<svg xmlns="http://www.w3.org/2000/svg" width="54.958" height="54.958" viewBox="0 0 54.958 54.958"><defs><style>.a{fill:#fff;}</style></defs><path class="a" d="M54.185,47.094V43.548h-2A19.552,19.552,0,0,0,37.343,29.787V25.82h1.773V20.5H37.343V16.956H33.8V15.183h3.546V13.041L40.205,14.4l.873,7.861,5.4-4.624.809,7.284,5.362-4.6,2.044.973.761-1.6L37.343,11.078V9.864H35.232L30.8,1H26.158L21.726,9.864H19.615v1.214L1.505,19.7l.761,1.6,2.044-.973,5.362,4.6.809-7.284,5.4,4.624.873-7.861,2.864-1.363v2.142H23.16v1.773H19.615V20.5H17.842V25.82h1.773v3.968A19.552,19.552,0,0,0,4.771,43.548h-2v3.546H1v8.864H55.958V47.094ZM42.09,15.3l2.823,1.344-2.441,2.092Zm6.586,6.1-.347-3.125L50.9,19.494Zm-42.614-1.9,2.567-1.222L8.282,21.4Zm8.425-.757-2.441-2.092L14.869,15.3ZM52.412,47.094H50.639V45.321h1.773ZM21.935,52.412H35.023l.886,1.773H21.049Zm.886-1.773.886-1.773H33.25l.886,1.773ZM9.864,45.321v1.773H8.091V45.321Zm1.773,0H13.41v1.773H11.637Zm3.546,0h1.773v1.773H15.183Zm17.728,1.773V45.321h1.773v1.773Zm-10.637,0V45.321h1.773v1.773Zm3.546-1.773h1.773v1.773H25.82Zm3.546,0h1.773v1.773H29.365Zm-8.7-1.773c.763-2,4.03-3.546,7.809-3.546s7.047,1.55,7.809,3.546Zm-1.941,1.773H20.5v1.773H18.728Zm17.728,0H38.23v1.773H36.457Zm3.546,0h1.773v1.773H40Zm3.546,0h1.773v1.773H43.548Zm3.546,0h1.773v1.773H47.094Zm-8.7-1.773c.763-2,4.03-3.546,7.809-3.546a13.275,13.275,0,0,1,2.735.293,17.863,17.863,0,0,1,1.4,3.252ZM27.593,2.773h1.773V9.864H27.593Zm3.546,2.868L33.25,9.864H31.138Zm-5.319,0V9.864H23.708Zm-4.432,6H35.57V13.41H21.388Zm3.546,3.546h7.091v1.773H24.933Zm-3.546,3.546H35.57V20.5H21.388Zm-1.773,3.546H37.343v1.773H19.615Zm1.773,3.546H35.57V29.5a19.794,19.794,0,0,0-2.209-.138H23.6a19.794,19.794,0,0,0-2.209.138ZM23.6,31.138h9.765A17.8,17.8,0,0,1,47.645,38.3c-.473-.043-.952-.072-1.438-.072-3.99,0-7.34,1.455-8.864,3.591-1.525-2.136-4.874-3.591-8.864-3.591s-7.34,1.455-8.864,3.591c-1.525-2.136-4.874-3.591-8.864-3.591-.486,0-.964.028-1.438.072A17.8,17.8,0,0,1,23.6,31.138ZM8.016,40.3A13.275,13.275,0,0,1,10.751,40c3.781,0,7.047,1.55,7.809,3.546H6.617a17.863,17.863,0,0,1,1.4-3.252Zm-3.47,5.025H6.319v1.773H4.546ZM2.773,48.867H21.726l-2.659,5.319H2.773Zm51.412,5.319H37.891l-2.659-5.319H54.185Z" transform="translate(-1 -1)"/></svg>