<svg xmlns="http://www.w3.org/2000/svg" width="17.989" height="17.093" viewBox="0 0 17.989 17.093">
  <g id="business-and-finance" transform="translate(0.1 0.101)">
    <path id="Path_650" data-name="Path 650" d="M17.736,102.085a1.513,1.513,0,0,0-1.819-1.167l-1.852.424v-.757A7.315,7.315,0,0,0,15.1,99.361a7.177,7.177,0,0,0,1.015-2.389,7.321,7.321,0,0,0,.014-3.108.347.347,0,0,0-.679.145,6.618,6.618,0,0,1-.013,2.811,6.486,6.486,0,0,1-.917,2.159,6.178,6.178,0,0,1-.454.6V95.731a.347.347,0,0,0-.347-.347H10.973V91.678a.347.347,0,0,0-.346-.347l-3.092-.01h0a.347.347,0,0,0-.347.347V93.6H4.441a.347.347,0,0,0-.347.347v3.437H3.321v-.471a.347.347,0,0,0-.347-.347H2.618a6.568,6.568,0,0,1,.283-3.4c.065-.178.138-.356.218-.528a.347.347,0,1,0-.629-.293c-.089.191-.17.387-.242.585a7.252,7.252,0,0,0-.335,3.64H.347A.347.347,0,0,0,0,96.908v6.1a.347.347,0,0,0,.347.347H2.974a.347.347,0,0,0,.347-.347v-.33H4.626l5.288,2.074a4.177,4.177,0,0,0,2.568.161l4.145-1.053a1.51,1.51,0,0,0,1.108-1.774Zm-4.365-6.007V101.5l-.928.212c-.1.023-.2.041-.3.055a3.523,3.523,0,0,1-1.164-.034h0v-.526a1.607,1.607,0,0,0,.214-1.352,1.559,1.559,0,0,0-.163-.364q-.024-.039-.05-.076h0V96.078h2.4ZM7.881,92.016l2.4.008v6.84l-1.34-.555-1.058-.438ZM4.788,94.289h2.4v3.294l-.43-.178a.347.347,0,0,0-.133-.026H4.788Zm-2.161,8.371H.694V97.255H2.627Zm13.83.526-4.145,1.053a3.488,3.488,0,0,1-2.144-.134l-5.349-2.1a.347.347,0,0,0-.127-.024H3.321V98.073H6.554L8.8,99l1.229.509a.868.868,0,0,1,.465,1.124.992.992,0,0,1-.139.244.9.9,0,0,1-.91.314l-.008,0-.06-.017-2.335-.9-.029-.011a.347.347,0,0,0-.249.648l2.321.893.06.022.771.3a6.371,6.371,0,0,0,.708.241,4.191,4.191,0,0,0,1.264.124,4.234,4.234,0,0,0,.712-.1l1.2-.274h0l2.273-.52a.819.819,0,0,1,.384,1.592Zm0,0" transform="translate(0 -88.151)" fill="#162f6a" stroke="#162f6a" stroke-width="0.2"/>
    <path id="Path_651" data-name="Path 651" d="M118.224,2.468a.346.346,0,0,0,.232-.089A6.521,6.521,0,0,1,123.275.708a6.509,6.509,0,0,1,1.892.412.347.347,0,0,0,.247-.649A7.2,7.2,0,0,0,123.32.016a7.216,7.216,0,0,0-5.329,1.848.347.347,0,0,0,.233.6Zm0,0" transform="translate(-113.786)" fill="#162f6a" stroke="#162f6a" stroke-width="0.2"/>
    <path id="Path_652" data-name="Path 652" d="M351.565,34.136a.347.347,0,0,0,.49-.034l2.855-3.287a.347.347,0,1,0-.524-.455l-2.855,3.287A.347.347,0,0,0,351.565,34.136Zm0,0" transform="translate(-339.249 -29.19)" fill="#162f6a" stroke="#162f6a" stroke-width="0.2"/>
    <path id="Path_653" data-name="Path 653" d="M404.383,99.738a.871.871,0,1,0,.871.871A.872.872,0,0,0,404.383,99.738Zm0,1.048a.177.177,0,1,1,.177-.177A.177.177,0,0,1,404.383,100.787Zm0,0" transform="translate(-389.508 -96.277)" fill="#162f6a"/>
    <path id="Path_654" data-name="Path 654" d="M348.852,29.008a.871.871,0,1,0-.871-.871A.872.872,0,0,0,348.852,29.008Zm0-1.049a.177.177,0,1,1-.177.177A.177.177,0,0,1,348.852,27.96Zm0,0" transform="translate(-335.904 -26.319)" fill="#162f6a"/>
    <path id="Path_655" data-name="Path 655" d="M91.607,81.3a.347.347,0,1,0,.128-.421A.35.35,0,0,0,91.607,81.3Zm0,0" transform="translate(-88.403 -78.021)" fill="#162f6a" stroke="#162f6a" stroke-width="0.2"/>
  </g>
</svg>
