<svg id="cloud-data" xmlns="http://www.w3.org/2000/svg" width="27.493" height="27.6" viewBox="0 0 27.493 27.6">
  <path id="Path_675" data-name="Path 675" d="M121.809,418.617H126.1a.809.809,0,1,0,0-1.617h-4.292a.809.809,0,1,0,0,1.617Z" transform="translate(-114.531 -394.521)" fill="#162f6a"/>
  <path id="Path_676" data-name="Path 676" d="M121.809,282.617H126.1a.809.809,0,1,0,0-1.617h-4.292a.809.809,0,1,0,0,1.617Z" transform="translate(-114.531 -265.852)" fill="#162f6a"/>
  <path id="Path_677" data-name="Path 677" d="M24.234,7.817q-.154,0-.307.011a5.555,5.555,0,0,0-5.5-3.888A7.768,7.768,0,0,0,11.727,0,7.773,7.773,0,0,0,4.3,5.707a5.553,5.553,0,0,0-.277,10.016V26.792a.809.809,0,0,0,.809.809H24.665a.809.809,0,0,0,.809-.809V16.148a4.258,4.258,0,0,0-1.24-8.332Zm-.377,18.167H5.636V20.218H23.857Zm0-7.388H5.636V12.884H23.857Zm1.617-4.188V12.075a.809.809,0,0,0-.809-.809H4.827a.809.809,0,0,0-.809.809V13.8A3.94,3.94,0,0,1,5.25,7.067a.808.808,0,0,0,.523-.593,6.148,6.148,0,0,1,5.955-4.857,6.153,6.153,0,0,1,5.5,3.523.809.809,0,0,0,.844.452,3.969,3.969,0,0,1,.557-.039,3.913,3.913,0,0,1,3.888,3.322.809.809,0,0,0,1.014.654,2.642,2.642,0,0,1,1.944,4.879Z" transform="translate(-1)" fill="#162f6a"/>
  <circle id="Ellipse_80" data-name="Ellipse 80" cx="0.802" cy="0.802" r="0.802" transform="translate(16.034 15.143)" fill="#162f6a"/>
  <circle id="Ellipse_81" data-name="Ellipse 81" cx="0.802" cy="0.802" r="0.802" transform="translate(19.419 15.143)" fill="#162f6a"/>
  <circle id="Ellipse_82" data-name="Ellipse 82" cx="0.802" cy="0.802" r="0.802" transform="translate(16.034 22.447)" fill="#162f6a"/>
  <circle id="Ellipse_83" data-name="Ellipse 83" cx="0.802" cy="0.802" r="0.802" transform="translate(19.419 22.447)" fill="#162f6a"/>
</svg>
