<svg xmlns="http://www.w3.org/2000/svg" width="16.079" height="12.623" viewBox="0 0 16.079 12.623"><defs><style>.a{fill:#fff;}</style></defs><path class="a" d="M13.4,59.214a5.526,5.526,0,0,0-10.872.944,3.014,3.014,0,0,0,.5,5.989H5.539v-1H3.027a2.01,2.01,0,1,1,0-4.019.5.5,0,0,0,.5-.5,4.522,4.522,0,0,1,8.958-.879.5.5,0,0,0,.427.4,2.512,2.512,0,0,1-.342,5h-2.01v1h2.01a3.517,3.517,0,0,0,.824-6.933Z" transform="translate(0 -55.032)"/><path class="a" d="M183.045,249.157l-2.01,2.01.708.708,1.156-1.151v4.818h1v-4.818l1.151,1.151.708-.708-2.01-2.01A.5.5,0,0,0,183.045,249.157Z" transform="translate(-175.35 -242.92)"/></svg>