<svg id="comment" xmlns="http://www.w3.org/2000/svg" width="15.176" height="13.962" viewBox="0 0 15.176 13.962">
  <path id="Path_656" data-name="Path 656" d="M13.09-1.332h-11A2.089,2.089,0,0,0,0,.754V7.488A2.089,2.089,0,0,0,2.08,9.574V12.63L6.471,9.574H13.09a2.089,2.089,0,0,0,2.086-2.086V.754A2.089,2.089,0,0,0,13.09-1.332Zm1.2,8.82a1.2,1.2,0,0,1-1.2,1.2h-6.9L2.969,10.928V8.685H2.087a1.2,1.2,0,0,1-1.2-1.2V.754a1.2,1.2,0,0,1,1.2-1.2h11a1.2,1.2,0,0,1,1.2,1.2Zm0,0" transform="translate(-0.001 1.332)" fill="#162f6a"/>
  <path id="Path_657" data-name="Path 657" d="M171.293,131.172h7.052v.889h-7.052Zm0,0" transform="translate(-167.231 -128.03)" fill="#162f6a"/>
  <path id="Path_658" data-name="Path 658" d="M171.293,211.172h7.052v.889h-7.052Zm0,0" transform="translate(-167.231 -206.133)" fill="#162f6a"/>
  <path id="Path_659" data-name="Path 659" d="M171.293,291.172h7.052v.889h-7.052Zm0,0" transform="translate(-167.231 -284.236)" fill="#162f6a"/>
</svg>
