<svg id="Component_174_1" data-name="Component 174 – 1" xmlns="http://www.w3.org/2000/svg" width="30.526" height="30.526" viewBox="0 0 30.526 30.526">
  <g id="Group_104" data-name="Group 104" transform="translate(19.111 4.36)">
    <g id="Group_103" data-name="Group 103" transform="translate(-1 -1)">
      <path id="Path_595" data-name="Path 595" d="M324.752,57.959a.754.754,0,1,0,.752.755v0A.751.751,0,0,0,324.752,57.959Z" transform="translate(-324 -57.959)" fill="#162f6a"/>
    </g>
  </g>
  <g id="Group_106" data-name="Group 106" transform="translate(9.673 2.633)">
    <g id="Group_105" data-name="Group 105" transform="translate(-2)">
      <path id="Path_596" data-name="Path 596" d="M200.716,35.495A43.841,43.841,0,0,0,193.752,35a.752.752,0,1,0,0,1.5,42.333,42.333,0,0,1,6.712.473.752.752,0,1,0,.251-1.484Z" transform="translate(-193 -35)" fill="#162f6a"/>
    </g>
  </g>
  <g id="Group_108" data-name="Group 108" transform="translate(19.981 19.981)">
    <g id="Group_107" data-name="Group 107">
      <path id="Path_597" data-name="Path 597" d="M338.972,335.179a.612.612,0,0,0-.612.612,2.569,2.569,0,1,1-2.4-2.563.612.612,0,0,0,.079-1.221,3.792,3.792,0,1,0,3.544,3.784A.612.612,0,0,0,338.972,335.179Z" transform="translate(-332 -331.999)" fill="#162f6a"/>
    </g>
  </g>
  <g id="Group_110" data-name="Group 110" transform="translate(23.647 20.469)">
    <g id="Group_109" data-name="Group 109" transform="translate(2)">
      <path id="Path_598" data-name="Path 598" d="M421.894,347.289l-.012-.012-.536.529.532-.532a.752.752,0,0,0-1.064,1.064l.011.011a.752.752,0,0,0,1.069-1.06Z" transform="translate(-420.594 -347.053)" fill="#162f6a"/>
    </g>
  </g>
  <g id="Group_112" data-name="Group 112">
    <g id="Group_111" data-name="Group 111">
      <path id="Path_599" data-name="Path 599" d="M30.074,21.929l-.866-.216-.419-1.01.459-.764a.6.6,0,0,0-.089-.729l-1.39-1.39a.6.6,0,0,0-.729-.089l-.764.459-1.01-.419-.216-.866a.6.6,0,0,0-.578-.452h-.267V4.054c0-1.227-1.312-2.27-3.795-3.016A30.1,30.1,0,0,0,12.1,0,30.1,30.1,0,0,0,3.795,1.038C1.312,1.784,0,2.827,0,4.054V26.472c0,1.227,1.312,2.27,3.795,3.016A30.1,30.1,0,0,0,12.1,30.526a37.128,37.128,0,0,0,3.859-.2.6.6,0,0,0-.124-1.186,35.941,35.941,0,0,1-3.734.189,28.9,28.9,0,0,1-7.965-.987c-2.174-.653-2.946-1.418-2.946-1.874V20.855a9.254,9.254,0,0,0,2.6,1.16A30.1,30.1,0,0,0,12.1,23.053c.914,0,1.824-.032,2.706-.095a.6.6,0,1,0-.085-1.189c-.854.061-1.735.092-2.621.092a28.9,28.9,0,0,1-7.965-.987C1.964,20.22,1.192,19.455,1.192,19V13.382a9.255,9.255,0,0,0,2.6,1.16A30.1,30.1,0,0,0,12.1,15.58a30.1,30.1,0,0,0,8.308-1.038,9.257,9.257,0,0,0,2.6-1.16v3.073h-.505a.6.6,0,0,0-.578.452l-.216.866-1.01.419-.764-.459a.6.6,0,0,0-.729.089l-1.39,1.39a.6.6,0,0,0-.089.729l.459.764-.419,1.01-.866.216a.6.6,0,0,0-.452.579v1.965a.6.6,0,0,0,.452.578l.866.216.419,1.01-.459.764a.6.6,0,0,0,.089.729l1.39,1.39a.6.6,0,0,0,.729.089l.764-.459,1.01.419.216.866a.6.6,0,0,0,.578.452h1.965a.6.6,0,0,0,.578-.452l.216-.866,1.01-.419.764.459a.6.6,0,0,0,.729-.089l1.39-1.39a.6.6,0,0,0,.089-.729l-.459-.764.419-1.01.866-.216a.6.6,0,0,0,.452-.578V22.508A.6.6,0,0,0,30.074,21.929ZM4.138,2.18A28.9,28.9,0,0,1,12.1,1.192a28.9,28.9,0,0,1,7.965.987c2.174.653,2.946,1.418,2.946,1.874s-.771,1.22-2.946,1.874a28.9,28.9,0,0,1-7.965.987,28.9,28.9,0,0,1-7.965-.987C1.964,5.274,1.192,4.51,1.192,4.054S1.964,2.833,4.138,2.18ZM20.068,13.4a28.9,28.9,0,0,1-7.965.987A28.9,28.9,0,0,1,4.138,13.4c-2.174-.653-2.946-1.418-2.946-1.874V5.909a9.255,9.255,0,0,0,2.6,1.16A30.1,30.1,0,0,0,12.1,8.107a30.1,30.1,0,0,0,8.308-1.038,9.257,9.257,0,0,0,2.6-1.16v5.617C23.014,11.983,22.242,12.747,20.068,13.4Zm9.265,10.607-.705.176a.6.6,0,0,0-.407.35L27.573,26.1a.6.6,0,0,0,.04.535l.374.622-.731.731-.622-.374a.6.6,0,0,0-.535-.04l-1.565.649a.6.6,0,0,0-.35.407l-.176.705H22.974l-.176-.705a.6.6,0,0,0-.35-.407l-1.565-.649a.6.6,0,0,0-.535.04l-.622.374-.731-.731.374-.622a.6.6,0,0,0,.04-.535l-.649-1.565a.6.6,0,0,0-.407-.35l-.705-.176V22.974l.705-.176a.6.6,0,0,0,.407-.35l.649-1.565a.6.6,0,0,0-.04-.535l-.374-.622.731-.731.622.374a.6.6,0,0,0,.535.04l1.565-.649a.6.6,0,0,0,.35-.407l.176-.705h1.033l.176.705a.6.6,0,0,0,.35.407l1.565.649a.6.6,0,0,0,.535-.04l.622-.374.731.731-.374.622a.6.6,0,0,0-.04.535l.649,1.565a.6.6,0,0,0,.407.35l.705.176Z" transform="translate(0)" fill="#162f6a"/>
    </g>
  </g>
</svg>
