<svg id="shuttle" xmlns="http://www.w3.org/2000/svg" width="43" height="43" viewBox="0 0 43 43">
  <path id="Path_632" data-name="Path 632" d="M42.949,3.21A3.342,3.342,0,0,0,39.79.051a33.193,33.193,0,0,0-16.64,3.33,32.668,32.668,0,0,0-9.539,7.91l-.1.123-6.3.486a3.324,3.324,0,0,0-2.533,1.49l-4.3,6.5a2.3,2.3,0,0,0,1.568,3.545l5.305.822c-.019.1-.038.206-.055.309a3.341,3.341,0,0,0,.937,2.906l7.39,7.39a3.349,3.349,0,0,0,2.363.981,3.293,3.293,0,0,0,.542-.045c.1-.017.206-.036.309-.055l.822,5.305a2.3,2.3,0,0,0,3.545,1.568l6.5-4.3a3.324,3.324,0,0,0,1.49-2.533l.486-6.3.123-.1a32.665,32.665,0,0,0,7.91-9.539A33.2,33.2,0,0,0,42.949,3.21ZM28.219,36.219,22,40.329l-.8-5.17a28.221,28.221,0,0,0,7.7-3.667l-.317,4.1a.821.821,0,0,1-.368.625ZM17.31,33.08,9.92,25.69a.817.817,0,0,1-.233-.709,21.672,21.672,0,0,1,.984-3.743L21.759,32.327a21.763,21.763,0,0,1-3.74.986.817.817,0,0,1-.709-.233Zm-9.9-18.667,4.1-.317a28.219,28.219,0,0,0-3.667,7.7L2.671,21l4.11-6.216A.821.821,0,0,1,7.406,14.413ZM30.095,27.455a28.884,28.884,0,0,1-5.832,3.814L11.731,18.736a29.383,29.383,0,0,1,3.814-5.831,30.065,30.065,0,0,1,8.762-7.286A30.644,30.644,0,0,1,39.653,2.566a.826.826,0,0,1,.781.781,30.641,30.641,0,0,1-3.053,15.345,30.065,30.065,0,0,1-7.286,8.762Z" transform="translate(0 0)"/>
  <path id="Path_633" data-name="Path 633" d="M283.11,101.086a7.381,7.381,0,1,0-5.223-2.16,7.366,7.366,0,0,0,5.223,2.16Zm-3.134-10.518a4.432,4.432,0,1,1-1.3,3.134A4.418,4.418,0,0,1,279.976,90.568Z" transform="translate(-254.225 -79.588)"/>
  <path id="Path_634" data-name="Path 634" d="M1.779,350.743a1.472,1.472,0,0,0,1.045-.433l4.824-4.824A1.477,1.477,0,0,0,5.558,343.4L.734,348.221a1.478,1.478,0,0,0,1.045,2.522Z" transform="translate(-0.272 -315.069)"/>
  <path id="Path_635" data-name="Path 635" d="M11.8,388.278a1.477,1.477,0,0,0-2.089,0L.433,397.552a1.477,1.477,0,1,0,2.089,2.089l9.274-9.274A1.477,1.477,0,0,0,11.8,388.278Z" transform="translate(0 -357.074)"/>
  <path id="Path_636" data-name="Path 636" d="M95.319,433.159,90.5,437.983a1.477,1.477,0,1,0,2.089,2.089l4.824-4.824a1.477,1.477,0,1,0-2.089-2.089Z" transform="translate(-82.737 -397.535)"/>
</svg>
