<svg xmlns="http://www.w3.org/2000/svg" width="26.456" height="48.495" viewBox="0 0 26.456 48.495">
  <g id="mobile" transform="translate(-0.001)">
    <path id="Path_734" data-name="Path 734" d="M22.691,0H3.841A3.8,3.8,0,0,0,.04,3.8v6.984a.955.955,0,1,0,1.911,0V7.308h22.63V40.2H1.951V18.46a.955.955,0,0,0-1.911,0V44.716A3.783,3.783,0,0,0,3.819,48.5H22.713a3.783,3.783,0,0,0,3.779-3.779V3.8a3.8,3.8,0,0,0-3.8-3.8Zm1.89,44.716a1.87,1.87,0,0,1-1.868,1.868H3.819a1.87,1.87,0,0,1-1.868-1.868V42.111h22.63Zm0-39.319H1.951V3.8a1.892,1.892,0,0,1,1.89-1.89H22.691a1.892,1.892,0,0,1,1.89,1.89Zm0,0" transform="translate(-0.036)"/>
    <path id="Path_735" data-name="Path 735" d="M55.462,98.166a.955.955,0,0,0-.955-.955H36.694a.955.955,0,0,0-.956.955v27.252a.955.955,0,0,0,.956.955H54.507a.955.955,0,0,0,.955-.955v-3.954a.955.955,0,0,0-1.911,0v3H49.457v-4.336l.72-1.433a2.2,2.2,0,0,0-.049-2.082L46.6,109.076c0-.009-.01-.016-.014-.025h5.3a.955.955,0,0,0,0-1.911H39.592a.955.955,0,0,0,0,1.911h5.3c0,.009-.01.016-.014.025l-3.524,7.537a2.205,2.205,0,0,0-.05,2.082l.691,1.375v4.393H37.649V99.122h15.9v14.985a.955.955,0,0,0,1.911,0Zm-7.916,26.278H43.9V120.8h3.646Zm-4.529-6.9a.918.918,0,0,0,.045-.084l1.721-3.68v2.854a.955.955,0,0,0,1.911,0V113.78l1.721,3.68a.917.917,0,0,0,.045.084.3.3,0,0,1,.01.293l-.528,1.051H43.535l-.528-1.051a.3.3,0,0,1,.011-.293Zm0,0" transform="translate(-32.353 -88.004)"/>
    <path id="Path_736" data-name="Path 736" d="M129.629,459.643a.956.956,0,0,0,1.77-.72l-.007-.017a.955.955,0,0,0-1.77.72Zm0,0" transform="translate(-117.28 -414.901)"/>
    <path id="Path_737" data-name="Path 737" d="M112.8,28.359h-4.531a.955.955,0,0,0,0,1.911H112.8a.955.955,0,0,0,0-1.911Zm0,0" transform="translate(-97.147 -25.673)"/>
    <path id="Path_738" data-name="Path 738" d="M.077,146.077a.955.955,0,1,0,1.772-.714l-.007-.017a.955.955,0,1,0-1.773.714Zm0,0" transform="translate(0 -131.037)"/>
    <path id="Path_739" data-name="Path 739" d="M223.867,304.36a.956.956,0,0,0-.525,1.245l.007.017a.955.955,0,1,0,1.77-.72l-.007-.017A.956.956,0,0,0,223.867,304.36Zm0,0" transform="translate(-202.123 -275.468)"/>
  </g>
</svg>
