<svg id="web-maintenance" xmlns="http://www.w3.org/2000/svg" width="48.495" height="48.495" viewBox="0 0 48.495 48.495">
  <path id="XMLID_294_" d="M45.654,7.577H43.38V2.842A2.845,2.845,0,0,0,40.539,0H7.956A2.845,2.845,0,0,0,5.115,2.842V7.577H2.842A2.845,2.845,0,0,0,0,10.419V37.7a2.845,2.845,0,0,0,2.842,2.842h16.67v2.273h-1.8a2.845,2.845,0,0,0-2.842,2.842v1.895a.947.947,0,0,0,.947.947H32.68a.947.947,0,0,0,.947-.947V45.653a2.845,2.845,0,0,0-2.842-2.842h-1.8V40.539h16.67A2.845,2.845,0,0,0,48.5,37.7V10.419A2.845,2.845,0,0,0,45.654,7.577Zm0,1.894a.948.948,0,0,1,.947.947V32.2H43.38V9.472ZM7.956,1.894H40.539a.948.948,0,0,1,.947.947V7.577H7.009V2.842A.948.948,0,0,1,7.956,1.894ZM2.842,9.472H5.115v7.1a.947.947,0,0,0,1.894,0v-7.1H41.486V32.2H36.655V29.082a.947.947,0,0,0-.947-.947H34.476a10.539,10.539,0,0,0-.889-2.144l.872-.872a.947.947,0,0,0,0-1.34L31.583,20.9a.947.947,0,0,0-1.34,0l-.872.872a10.531,10.531,0,0,0-2.144-.889V19.655a.947.947,0,0,0-.947-.947H22.214a.947.947,0,0,0-.947.947v1.232a10.538,10.538,0,0,0-2.144.889l-.872-.872a.947.947,0,0,0-1.34,0L14.036,23.78a.947.947,0,0,0,0,1.34l.872.872a10.536,10.536,0,0,0-.889,2.144H12.787a.947.947,0,0,0-.947.947V32.2H7.009V25.1a.947.947,0,1,0-1.894,0v7.1H1.894V10.419a.948.948,0,0,1,.947-.947Zm13.928,15.7-.724-.724,1.536-1.536.724.724a.947.947,0,0,0,1.185.125,8.676,8.676,0,0,1,2.921-1.211.947.947,0,0,0,.75-.926V20.6h2.172v1.023a.947.947,0,0,0,.75.926A8.675,8.675,0,0,1,29,23.762a.947.947,0,0,0,1.185-.125l.724-.724,1.536,1.536-.724.724a.947.947,0,0,0-.125,1.185,8.677,8.677,0,0,1,1.211,2.921.947.947,0,0,0,.926.75h1.023V32.2h-5.9a4.736,4.736,0,1,0-9.217,0h-5.9V30.029h1.023a.947.947,0,0,0,.926-.75,8.676,8.676,0,0,1,1.211-2.921A.947.947,0,0,0,16.769,25.173Zm4.636,5.942A2.842,2.842,0,1,1,26.87,32.2H21.625A2.826,2.826,0,0,1,21.405,31.116ZM31.732,45.653V46.6H16.763v-.948a.948.948,0,0,1,.947-.947H30.785a.948.948,0,0,1,.947.947Zm-4.643-2.842H21.406V40.539h5.683Zm18.565-4.167H2.842a.948.948,0,0,1-.947-.947V34.1H46.6v3.6A.948.948,0,0,1,45.654,38.644Z"/>
  <path id="XMLID_1617_" d="M276.922,41.844h9.955a.922.922,0,1,0,0-1.844h-9.955a.922.922,0,1,0,0,1.844Z" transform="translate(-249.625 -36.313)"/>
  <path id="XMLID_1618_" d="M152.922,41.844a.922.922,0,1,0-.652-.27A.929.929,0,0,0,152.922,41.844Z" transform="translate(-137.587 -36.313)"/>
  <path id="XMLID_1620_" d="M108.922,41.844a.922.922,0,1,0-.652-.27A.929.929,0,0,0,108.922,41.844Z" transform="translate(-97.76 -36.313)"/>
  <path id="XMLID_1623_" d="M196.922,41.844a.922.922,0,1,0-.652-.27A.929.929,0,0,0,196.922,41.844Z" transform="translate(-177.415 -36.313)"/>
  <path id="XMLID_1624_" d="M102.922,129.842h2.194a.922.922,0,0,0,0-1.844h-2.194a.922.922,0,1,0,0,1.844Z" transform="translate(-92.315 -115.861)"/>
  <path id="XMLID_1626_" d="M170.72,129.842h8.456a.922.922,0,0,0,0-1.844H170.72a.922.922,0,1,0,0,1.844Z" transform="translate(-153.596 -115.861)"/>
  <path id="XMLID_1627_" d="M102.922,177.84h5.346a.922.922,0,0,0,0-1.844h-5.346a.922.922,0,0,0,0,1.844Z" transform="translate(-92.292 -159.308)"/>
  <path id="XMLID_1628_" d="M306.458,129.842h7.786a.922.922,0,1,0,0-1.844h-7.786a.922.922,0,1,0,0,1.844Z" transform="translate(-276.398 -115.861)"/>
  <path id="XMLID_1633_" d="M328.792,176h-6.309a.922.922,0,0,0,0,1.844h6.309a.922.922,0,0,0,0-1.844Z" transform="translate(-290.934 -159.308)"/>
  <path id="XMLID_1635_" d="M54.922,211.834a.922.922,0,1,0-.652-.27A.929.929,0,0,0,54.922,211.834Z" transform="translate(-49.022 -190.079)"/>
</svg>
