<svg xmlns="http://www.w3.org/2000/svg" width="12.407" height="12.407" viewBox="0 0 12.407 12.407">
  <g id="dollar" transform="translate(0.15 0.15)">
    <path id="Path_660" data-name="Path 660" d="M6.054,12.107A6.054,6.054,0,0,1,1.773,1.773a6.054,6.054,0,0,1,8.561,8.561A6.014,6.014,0,0,1,6.054,12.107Zm0-11.351a5.3,5.3,0,1,0,5.3,5.3A5.3,5.3,0,0,0,6.054.757Z" fill="#162f6a" stroke="#162f6a" stroke-width="0.3"/>
    <path id="Path_661" data-name="Path 661" d="M185.7,99.405a.946.946,0,1,1,.946-.946.378.378,0,1,0,.757,0,1.705,1.705,0,0,0-1.324-1.66v-.421a.378.378,0,0,0-.757,0V96.8a1.7,1.7,0,0,0,.378,3.362.946.946,0,1,1-.946.946.378.378,0,0,0-.757,0,1.705,1.705,0,0,0,1.324,1.66v.421a.378.378,0,1,0,.757,0v-.421a1.7,1.7,0,0,0-.378-3.362Z" transform="translate(-179.648 -93.73)" fill="#162f6a" stroke="#162f6a" stroke-width="0.3"/>
  </g>
</svg>
