<svg id="email" xmlns="http://www.w3.org/2000/svg" width="18.299" height="14.224" viewBox="0 0 18.299 14.224">
  <g id="Group_3" data-name="Group 3">
    <path id="Path_1" data-name="Path 1" d="M16.691,61H1.608A1.628,1.628,0,0,0,0,62.641V73.583a1.628,1.628,0,0,0,1.608,1.641H16.691A1.628,1.628,0,0,0,18.3,73.583V62.641A1.628,1.628,0,0,0,16.691,61Zm-.222,1.094L9.184,69.528,1.836,62.094ZM1.072,73.356V62.863l5.164,5.224Zm.758.774L7,68.857l1.811,1.832a.529.529,0,0,0,.757,0l1.765-1.8,5.139,5.244Zm15.4-.774-5.139-5.244,5.139-5.244Z" transform="translate(0 -61)" fill="#162f6a"/>
  </g>
</svg>
