<svg id="Eternity" xmlns="http://www.w3.org/2000/svg" width="28.001" height="28.109" viewBox="0 0 28.001 28.109">
  <circle id="Ellipse_84" data-name="Ellipse 84" cx="5" cy="5" r="5" transform="translate(8.998 9.053)" fill="#162f6a"/>
  <path id="Path_678" data-name="Path 678" d="M29.251,23.3,32,22.61V19.391l-2.75-.688a1.307,1.307,0,0,1-.792-1.914l1.458-2.43-2.276-2.277-2.43,1.458A1.306,1.306,0,0,1,23.3,12.75L22.61,10H19.391L18.7,12.75a1.306,1.306,0,0,1-1.913.793l-2.43-1.458L12.084,14.36l1.458,2.43A1.307,1.307,0,0,1,12.75,18.7L10,19.391V22.61l2.75.688a1.307,1.307,0,0,1,.792,1.914L12.084,27.64l2.277,2.277,2.43-1.458a1.306,1.306,0,0,1,1.913.792L19.391,32H22.61l.688-2.75a1.306,1.306,0,0,1,1.913-.793l2.43,1.458,2.277-2.277L28.459,25.21a1.307,1.307,0,0,1,.792-1.913ZM21,27a6,6,0,1,1,6-6,6,6,0,0,1-6,6Z" transform="translate(-7.003 -6.948)" fill="#162f6a"/>
  <path id="Path_679" data-name="Path 679" d="M5.622,13.988A13,13,0,0,1,21.573,5.452a1.5,1.5,0,0,0,1.04,1.37.465.465,0,0,0,.12.025l4.115.265h.03a.5.5,0,0,0,.265-.925l-3.505-2.17a.358.358,0,0,0-.11-.05,1.489,1.489,0,0,0-1.655.53A14,14,0,0,0,6.3,25.638l.84-.55a12.925,12.925,0,0,1-1.52-11.1Z" transform="translate(-4.004 -3.895)" fill="#162f6a"/>
  <path id="Path_680" data-name="Path 680" d="M11.5,48.862c-.256-.271-.5-.557-.739-.85a.5.5,0,0,0-.783.624c.253.317.52.625.8.917a.5.5,0,0,0,.727-.69Z" transform="translate(-6.938 -25.858)" fill="#162f6a"/>
  <path id="Path_681" data-name="Path 681" d="M34.337,16.65,33.5,17.2A13,13,0,0,1,19.056,36.821a1.5,1.5,0,0,0-1.04-1.37.465.465,0,0,0-.12-.025l-4.115-.265a.506.506,0,0,0-.505.35.5.5,0,0,0,.21.575l3.505,2.17a.358.358,0,0,0,.11.05,1.477,1.477,0,0,0,.46.075,1.45,1.45,0,0,0,.685-.17,1.466,1.466,0,0,0,.515-.44A13.994,13.994,0,0,0,34.337,16.65Z" transform="translate(-8.628 -10.272)" fill="#162f6a"/>
  <path id="Path_682" data-name="Path 682" d="M50.708,13.231c.255.27.505.56.735.855a.5.5,0,0,0,.785-.625c-.255-.315-.52-.625-.8-.915a.5.5,0,1,0-.725.685Z" transform="translate(-27.274 -8.129)" fill="#162f6a"/>
</svg>
