<svg xmlns="http://www.w3.org/2000/svg" width="45.179" height="43.543" viewBox="0 0 45.179 43.543"><defs><style>.a{fill:#162f6a;}</style></defs><path class="a" d="M-1085.41,1181.543a23.18,23.18,0,0,1-8.792-1.711,22.584,22.584,0,0,1-7.18-4.666,21.681,21.681,0,0,1-4.841-6.92,20.961,20.961,0,0,1-1.776-8.475,20.961,20.961,0,0,1,1.775-8.474,21.678,21.678,0,0,1,4.841-6.92,22.58,22.58,0,0,1,7.18-4.666,23.174,23.174,0,0,1,8.793-1.712,23.178,23.178,0,0,1,8.792,1.711,22.583,22.583,0,0,1,7.18,4.666,21.677,21.677,0,0,1,4.841,6.92,20.962,20.962,0,0,1,1.777,8.475,20.956,20.956,0,0,1-1.775,8.473,21.678,21.678,0,0,1-4.841,6.92,22.58,22.58,0,0,1-7.18,4.666A23.183,23.183,0,0,1-1085.41,1181.543Zm-4.634-26.8v10.607l9.847-5.3-9.847-5.3Z" transform="translate(1108 -1138)"/></svg>