<svg xmlns="http://www.w3.org/2000/svg" width="44.55" height="54.318" viewBox="0 0 44.55 54.318"><defs><style>.a{fill:#fff;}</style></defs><path class="a" d="M88.446,26.833a.793.793,0,0,0,.793-.793V23.292c.013-.023.025-.047.036-.072l1.346-2.985a1.153,1.153,0,0,0-1.051-1.626h-.552V16.316a1.871,1.871,0,0,0-1.869-1.869h-.159V12.155a1.871,1.871,0,0,0-1.869-1.869h-.684V6.175a2.13,2.13,0,0,0-2.128-2.128H78.327V2.55a1.535,1.535,0,0,0-1.533-1.533H72.672L72.093.437A1.483,1.483,0,0,0,71.037,0H65.858A1.483,1.483,0,0,0,64.8.437l-.579.579H60.1A1.535,1.535,0,0,0,58.569,2.55v1.5H54.587a2.13,2.13,0,0,0-2.128,2.128v4.111h-.684a1.871,1.871,0,0,0-1.869,1.869v2.293h-.159a1.871,1.871,0,0,0-1.869,1.869v2.293h-.552a1.153,1.153,0,0,0-1.051,1.626l1.346,2.985a1.147,1.147,0,0,0,.258.361V41.027a.793.793,0,1,0,1.587,0v-1.56h9.1V52.732h-9.1V44.408a.793.793,0,1,0-1.587,0v8.323h-.614a.793.793,0,1,0,0,1.587H89.823a.793.793,0,0,0,0-1.587h-.584V29.421a.793.793,0,0,0-1.587,0V34.53H78.327V23.9h9.326V26.04a.793.793,0,0,0,.793.793ZM48.952,22.312,48,20.2H88.9l-.932,2.068q-.03.023-.058.049H48.952Zm.513,12.217V23.9h9.1V34.53ZM60.155,2.6h4.4a.794.794,0,0,0,.561-.232l.784-.784H71l.784.784a.793.793,0,0,0,.561.232h4.4V4.047H60.155Zm-6.11,3.572a.542.542,0,0,1,.541-.541H82.308a.542.542,0,0,1,.541.541v4.111h-7.1V8.61a1.445,1.445,0,0,0-1.443-1.443H62.588A1.445,1.445,0,0,0,61.145,8.61v1.676h-7.1V6.175Zm8.685,4.111V8.753H74.164v1.533ZM51.493,12.155a.282.282,0,0,1,.282-.282H85.12a.282.282,0,0,1,.282.282v2.293H51.493Zm-2.028,4.161a.282.282,0,0,1,.282-.282h37.4a.282.282,0,0,1,.282.282v2.293H49.465Zm0,19.8H61.742V37.88H49.465Zm10.691,3.35h1.587V52.731H60.155Zm15,0H76.74V52.731H75.153Zm3.173,13.265V39.467h9.326V52.731H78.327ZM87.652,37.88h-12.5V36.116h12.5ZM76.74,34.53H75.153v-.887a6.692,6.692,0,0,0-1-3.521.793.793,0,1,0-1.35.834,5.106,5.106,0,0,1,.762,2.687V52.731H63.329V33.643a5.118,5.118,0,0,1,7.216-4.669.793.793,0,1,0,.651-1.447,6.705,6.705,0,0,0-9.454,6.116v.887H60.155V23.9H76.74Z" transform="translate(-46.173)"/><path class="a" d="M93.619,243.71a3.23,3.23,0,1,0,3.23,3.23,3.234,3.234,0,0,0-3.23-3.23Zm0,4.874a1.644,1.644,0,1,1,1.644-1.644A1.646,1.646,0,0,1,93.619,248.584Z" transform="translate(-85.712 -217.931)"/><path class="a" d="M362.042,246.941a3.23,3.23,0,1,0,3.23-3.23A3.234,3.234,0,0,0,362.042,246.941Zm4.874,0a1.644,1.644,0,1,1-1.644-1.644A1.646,1.646,0,0,1,366.916,246.941Z" transform="translate(-328.63 -217.932)"/></svg>