<svg xmlns="http://www.w3.org/2000/svg" width="31.071" height="31.009" viewBox="0 0 31.071 31.009">
  <g id="global" transform="translate(0 -0.316)">
    <path id="Path_689" data-name="Path 689" d="M231.816,351.073c2.376-.338,4.459-2.817,5.77-6.48a28.2,28.2,0,0,0-5.77-.679Zm0,0" transform="translate(-215.725 -319.748)" fill="#fff"/>
    <path id="Path_690" data-name="Path 690" d="M279.983,363.239c.14-.041.28-.082.419-.127.117-.038.233-.078.348-.119.137-.047.273-.1.408-.147.116-.044.23-.091.345-.137l.4-.166c.114-.05.227-.1.341-.156s.256-.122.383-.186q.167-.085.333-.174.187-.1.371-.2c.111-.063.218-.126.326-.191l.359-.222c.107-.068.213-.137.318-.208s.233-.161.348-.243.206-.148.307-.222.225-.174.336-.263.2-.157.295-.238.217-.188.325-.283.189-.167.281-.253.209-.2.313-.3.18-.175.268-.266l.049-.052a18.661,18.661,0,0,0-3.8-1.464,13.779,13.779,0,0,1-3.549,5.763l.135-.033c.119-.033.235-.07.351-.1Zm0,0" transform="translate(-260.096 -332.496)" fill="#fff"/>
    <path id="Path_691" data-name="Path 691" d="M343.338,231.684H336.68a28.8,28.8,0,0,1-1.121,7.683,19.313,19.313,0,0,1,4.214,1.677,15.514,15.514,0,0,0,3.565-9.36Zm0,0" transform="translate(-312.267 -215.308)" fill="#fff"/>
    <path id="Path_692" data-name="Path 692" d="M231.816,116.351h7.212a27.779,27.779,0,0,0-1.093-7.409,29.25,29.25,0,0,1-6.118.73Zm0,0" transform="translate(-215.725 -101.086)" fill="#fff"/>
    <path id="Path_693" data-name="Path 693" d="M231.816.316V7.475a28.222,28.222,0,0,0,5.77-.679c-1.311-3.662-3.394-6.142-5.77-6.48Zm0,0" transform="translate(-215.725 0)" fill="#fff"/>
    <path id="Path_694" data-name="Path 694" d="M231.816,238.363a29.268,29.268,0,0,1,6.118.73,27.782,27.782,0,0,0,1.093-7.41h-7.212Zm0,0" transform="translate(-215.725 -215.307)" fill="#fff"/>
    <path id="Path_695" data-name="Path 695" d="M339.773,80.844a19.314,19.314,0,0,1-4.214,1.677,28.8,28.8,0,0,1,1.121,7.683h6.658A15.519,15.519,0,0,0,339.773,80.844Zm0,0" transform="translate(-312.266 -74.938)" fill="#fff"/>
    <path id="Path_696" data-name="Path 696" d="M286.815,11.094l-.048-.052c-.088-.091-.179-.178-.268-.266s-.206-.2-.312-.3-.187-.167-.281-.252-.215-.192-.326-.284-.194-.159-.292-.236-.225-.179-.339-.265-.2-.149-.3-.222-.233-.167-.351-.246-.209-.138-.315-.205-.24-.153-.362-.226c-.107-.064-.215-.128-.324-.189q-.186-.107-.374-.207c-.111-.056-.222-.116-.333-.172-.128-.065-.256-.127-.389-.188q-.167-.079-.338-.155c-.132-.058-.264-.111-.4-.166-.114-.047-.228-.093-.344-.137-.135-.052-.271-.1-.408-.147-.116-.041-.231-.081-.348-.119-.139-.045-.278-.086-.42-.127-.116-.034-.232-.068-.348-.1-.045-.012-.09-.022-.135-.033a13.781,13.781,0,0,1,3.549,5.763,18.635,18.635,0,0,0,3.809-1.466Zm0,0" transform="translate(-260.059 -6.031)" fill="#fff"/>
    <path id="Path_697" data-name="Path 697" d="M0,90.2H6.658a28.809,28.809,0,0,1,1.121-7.683,19.289,19.289,0,0,1-4.214-1.677A15.515,15.515,0,0,0,0,90.2Zm0,0" transform="translate(0 -74.938)" fill="#fff"/>
    <path id="Path_698" data-name="Path 698" d="M138.465,351.073v-7.159a28.225,28.225,0,0,0-5.77.679c1.31,3.662,3.394,6.142,5.77,6.48Zm0,0" transform="translate(-123.484 -319.748)" fill="#fff"/>
    <path id="Path_699" data-name="Path 699" d="M119.133,231.684h-7.212a27.771,27.771,0,0,0,1.093,7.409,29.23,29.23,0,0,1,6.118-.73Zm0,0" transform="translate(-104.152 -215.308)" fill="#fff"/>
    <path id="Path_700" data-name="Path 700" d="M138.465.316c-2.376.338-4.459,2.817-5.77,6.48a28.184,28.184,0,0,0,5.77.679Zm0,0" transform="translate(-123.484 0)" fill="#fff"/>
    <path id="Path_701" data-name="Path 701" d="M119.133,109.671a29.249,29.249,0,0,1-6.118-.73,27.769,27.769,0,0,0-1.093,7.409h7.212Zm0,0" transform="translate(-104.153 -101.085)" fill="#fff"/>
    <path id="Path_702" data-name="Path 702" d="M69.543,6.789l-.135.033c-.118.031-.234.066-.351.1-.139.041-.278.082-.418.126-.118.038-.234.079-.35.119-.136.048-.272.1-.406.147-.116.044-.23.091-.345.138l-.395.166c-.114.05-.227.1-.341.156s-.256.122-.383.186q-.167.085-.333.174-.187.1-.37.2-.167.093-.328.191c-.121.073-.24.148-.359.222s-.213.137-.318.208-.233.161-.348.243-.206.148-.307.222-.222.174-.336.263c-.1.079-.2.157-.295.239s-.217.187-.324.281-.191.167-.283.254-.208.2-.311.3-.181.176-.268.267c-.016.017-.031.035-.048.052A18.643,18.643,0,0,0,66,12.549a13.775,13.775,0,0,1,3.547-5.76Zm0,0" transform="translate(-57.874 -6.023)" fill="#fff"/>
    <path id="Path_703" data-name="Path 703" d="M62.542,359.344c.1.1.206.2.312.3s.187.167.282.252.215.192.326.284.194.158.292.236.222.18.34.266c.1.075.2.148.3.222s.233.166.351.246.209.138.315.206.24.153.362.226q.161.1.324.19.186.106.374.207c.111.056.222.116.333.172.128.065.257.127.389.188q.167.078.338.154c.132.058.264.111.4.167.114.047.228.093.344.137.135.052.271.1.408.147.116.04.231.081.348.119.139.045.278.086.42.127.116.034.232.068.348.1.045.012.091.022.136.033a13.783,13.783,0,0,1-3.549-5.763,18.645,18.645,0,0,0-3.8,1.465l.048.051c.083.09.173.177.264.266Zm0,0" transform="translate(-57.911 -332.449)" fill="#fff"/>
    <path id="Path_704" data-name="Path 704" d="M3.565,241.042a19.315,19.315,0,0,1,4.214-1.677,28.809,28.809,0,0,1-1.121-7.683H0A15.517,15.517,0,0,0,3.565,241.042Zm0,0" transform="translate(0 -215.307)" fill="#fff"/>
  </g>
</svg>
