<svg xmlns="http://www.w3.org/2000/svg" width="57.115" height="77.012" viewBox="0 0 57.115 77.012">
  <g id="java" transform="translate(-66.142 0)">
    <g id="Group_334" data-name="Group 334" transform="translate(83.81 0)">
      <path id="Path_884" data-name="Path 884" d="M194.113,14.269c-3.559,2.5-7.592,5.339-9.753,10.033-3.753,8.188,7.68,17.119,8.169,17.5a.631.631,0,0,0,.945-.791c-.041-.08-4.146-8.052-3.993-13.771.054-1.992,2.842-4.252,5.793-6.644,2.7-2.191,5.767-4.675,7.56-7.58,3.935-6.4-.439-12.683-.483-12.746a.631.631,0,0,0-1.132.5,13.433,13.433,0,0,1-1.507,8.484C198.737,11.018,196.594,12.524,194.113,14.269Z" transform="translate(-183.606 0)" fill="#db380e"/>
      <path id="Path_885" data-name="Path 885" d="M266.113,107.2a.631.631,0,0,0-.6-1.094c-.6.23-14.8,5.7-14.8,12.316a12.6,12.6,0,0,0,3.369,8.725,6.641,6.641,0,0,1,1.2,1.794c.447,1.465-.612,4.114-1.057,5.011a.631.631,0,0,0,.926.8c.244-.17,5.967-4.216,4.94-9.09a12.022,12.022,0,0,0-2.1-4.4c-1.245-1.851-2.143-3.188-.78-5.657C258.8,112.727,266.04,107.258,266.113,107.2Z" transform="translate(-240.613 -90.113)" fill="#db380e"/>
    </g>
    <g id="Group_335" data-name="Group 335" transform="translate(66.142 40.569)">
      <path id="Path_886" data-name="Path 886" d="M106.715,279.841a2.24,2.24,0,0,0,.332,2.091c1.539,2.137,6.991,3.314,15.353,3.314h0c1.133,0,2.329-.022,3.554-.066,13.368-.478,18.326-4.643,18.531-4.82a.631.631,0,0,0-.579-1.086c-4.708,1.285-13.5,1.742-19.6,1.742-6.823,0-10.3-.492-11.149-.854.437-.6,3.129-1.67,6.465-2.326a.631.631,0,0,0-.122-1.251C117.548,276.584,107.74,276.741,106.715,279.841Z" transform="translate(-100.506 -275.551)" fill="#73a1fb"/>
      <path id="Path_887" data-name="Path 887" d="M365.778,269.718a13.189,13.189,0,0,0-5.482,1.441.631.631,0,0,0,.3,1.188c.059,0,5.882.048,6.409,3.375.467,2.87-5.51,7.521-7.852,9.071a.631.631,0,0,0,.48,1.144c.556-.119,13.6-2.993,12.219-10.587C371.008,270.695,368.083,269.718,365.778,269.718Z" transform="translate(-314.837 -269.718)" fill="#73a1fb"/>
      <path id="Path_888" data-name="Path 888" d="M172.94,340.08a.632.632,0,0,0-.258-.633l-3.127-2.19a.633.633,0,0,0-.524-.093,61.522,61.522,0,0,1-8.051,1.4,55.877,55.877,0,0,1-6.1.323c-4.747,0-7.85-.558-8.3-.967-.06-.115-.041-.167-.03-.2a1.592,1.592,0,0,1,.806-.607.631.631,0,0,0-.367-1.206c-3.137.757-4.671,1.816-4.559,3.146.2,2.359,5.663,3.57,10.283,3.891.664.045,1.383.068,2.135.068h0c7.682,0,17.531-2.41,17.629-2.435A.629.629,0,0,0,172.94,340.08Z" transform="translate(-130.943 -325.936)" fill="#73a1fb"/>
      <path id="Path_889" data-name="Path 889" d="M161.771,390.868a.631.631,0,0,0-.362-1.16c-.42.011-4.114.178-4.372,2.529a2.445,2.445,0,0,0,.6,1.908c1.326,1.572,4.906,2.506,10.941,2.855.714.043,1.439.064,2.156.064a32.9,32.9,0,0,0,13.058-2.5.631.631,0,0,0,.059-1.11l-3.952-2.413a.635.635,0,0,0-.458-.079c-.025.005-2.534.526-6.321,1.04a20.369,20.369,0,0,1-2.667.147c-3.783,0-7.991-.618-8.8-1.023A.253.253,0,0,1,161.771,390.868Z" transform="translate(-143.351 -371.66)" fill="#73a1fb"/>
      <path id="Path_890" data-name="Path 890" d="M89.948,434.892c17.577-.015,27.01-3.141,28.827-5.108a2.176,2.176,0,0,0,.658-1.785,2.757,2.757,0,0,0-1.209-1.778.637.637,0,0,0-.824.112.624.624,0,0,0,0,.821c.111.143.175.381-.149.706-.727.679-8.054,2.738-20.254,3.357-1.671.087-3.424.131-5.21.131-10.924,0-18.918-1.5-19.967-2.368.4-.581,3.232-1.51,6.24-2.035a.631.631,0,0,0-.193-1.248c-.085.012-.373.029-.706.049-4.962.3-10.7.978-11,3.535a2.6,2.6,0,0,0,.688,2.1c1.34,1.506,5.192,3.508,23.1,3.508Z" transform="translate(-66.142 -402.232)" fill="#73a1fb"/>
      <path id="Path_891" data-name="Path 891" d="M184.175,456.248a.631.631,0,0,0-.727.143c-.026.028-2.668,2.791-10.614,4.414-3.042.609-8.752.919-16.971.919-8.234,0-16.07-.324-16.148-.327a.631.631,0,0,0-.173,1.245,93.99,93.99,0,0,0,19.521,1.943,90.987,90.987,0,0,0,15.575-1.3c9.23-1.618,9.876-6.195,9.9-6.389A.631.631,0,0,0,184.175,456.248Z" transform="translate(-128.089 -428.141)" fill="#73a1fb"/>
    </g>
  </g>
</svg>
