<svg xmlns="http://www.w3.org/2000/svg" width="311.472" height="114.514" viewBox="0 0 311.472 114.514"><defs><style>.a{fill:#fff;}.b{fill:#ec1c24;}</style></defs><path class="a" d="M-808.119,835.192c-.27-.678-.137-3.665-.137-5.827s-1.759-5.287-1.759-5.287-.27-15.856-.678-19.242-2.845-7.046-3.665-9.488-1.626-21.276-1.626-21.276,1.489-3.523.948-5.149-3.523-2.291-3.523-2.291l-3.115-2.982a21.479,21.479,0,0,1-1.086-3.665c-.27-1.626-.408-12.2-.948-13.144s-2.712-1.219-2.712-1.219.27-.815.811-3.253,1.374-5.557,1.086-7.046-1.626-6.235-2.291-7.184a1.951,1.951,0,0,0-2.034-.541s-2.442-1.086-3.793-.678-3.115,1.626-5.42,5.149-2.437,8.54-2.437,8.54l.678.811-.137,1.219a17.167,17.167,0,0,0-4.471.137c-2.034.408-3.253,2.845-4.064,4.471s0,0-2.167,3.931a40.68,40.68,0,0,0-3.665,10.166c0,.545,1.219.948,2.034,1.219s3.931,2.034,5.69,2.712a26.662,26.662,0,0,0,4.609,1.086l.678,2.034a5.236,5.236,0,0,1-.27,1.493c-.27.811-.678,2.712-.678,2.712a117.36,117.36,0,0,0-5.42,12.333c-1.626,4.879-4.334,13.959-4.334,13.959s-.541,1.086-2.167,5.69-2.291,16.534-2.442,17.345a14.993,14.993,0,0,1-1.219,2.442,16.992,16.992,0,0,0-.678,3.253,59.336,59.336,0,0,1-3.523,8.54,7.591,7.591,0,0,0-1.374,3.253c0,.962,2.437,1.493,3.931.948s3.39-2.845,3.39-2.845l.948-.133.916-5.269a8.123,8.123,0,0,0,.985-1.237c.541-.816-.27-5.827-.27-5.827s4.879-11.114,6.638-14.77a28.958,28.958,0,0,0,2.291-7.591,57.586,57.586,0,0,0,3.386-5.012c1.622-2.721,2.712-3.931,5.287-7.862a50.069,50.069,0,0,0,4.471-9.488l2.442-2.712s.27,1.9.811,4.064,3.8,11.792,5.017,14.5,3.253,6.909,3.253,6.909a12.883,12.883,0,0,0,.408,3.115c.408,1.374,5.557,17.212,5.557,17.212a60.228,60.228,0,0,0,.27,6.1,38.183,38.183,0,0,1-.137,7.046,36.18,36.18,0,0,0-.678,4.064c0,.678,1.943,1.031,4.247.353s2.8-1.833,2.937-2.795A6.917,6.917,0,0,0-808.119,835.192Zm-34.287-72.775a21.663,21.663,0,0,1-3.253-2.034,29.78,29.78,0,0,1-2.442-2.167s.541-1.086,1.9-3.253a21.757,21.757,0,0,1,2.712-3.523s.948,5.012,1.219,7.454a8.5,8.5,0,0,1-.133,3.523Z" transform="translate(1011.663 -726.83)"/><path class="b" d="M-798.1,885.846c0-4.545-4.027-8.246-8.7-8.246a8.727,8.727,0,0,0-7.966,5.166,8.727,8.727,0,0,0-7.972-5.166c-4.691,0-8.7,3-8.7,8.375,0,8.333,16.493,18.875,16.493,18.875S-798.1,893.36-798.1,885.846Z" transform="translate(994.34 -808.527)"/><path class="a" d="M-1187,906.42h14.307v5.351h-8.86V917h8.86v5.259h-8.86v12.974H-1187Z" transform="translate(1187 -824.144)"/><path class="a" d="M-1145.886,903.64a3.271,3.271,0,0,1,2.414,1.017,3.381,3.381,0,0,1,1.008,2.469,3.349,3.349,0,0,1-.994,2.442,3.235,3.235,0,0,1-2.382,1.008,3.28,3.28,0,0,1-2.433-1.026,3.441,3.441,0,0,1-1.008-2.5,3.289,3.289,0,0,1,.994-2.41A3.271,3.271,0,0,1-1145.886,903.64Zm-2.676,8.782h5.365v21.322h-5.351Z" transform="translate(1166.563 -822.637)"/><path class="a" d="M-1125.42,922.158h5.351v2.185a12.829,12.829,0,0,1,3.3-2.135,7.977,7.977,0,0,1,3.024-.6,7.331,7.331,0,0,1,5.383,2.213,7.6,7.6,0,0,1,1.86,5.566V943.48h-5.292v-9.323a23.483,23.483,0,0,0-.344-5.067,3.462,3.462,0,0,0-1.191-1.91,3.335,3.335,0,0,0-2.1-.655,3.944,3.944,0,0,0-2.785,1.086,5.8,5.8,0,0,0-1.613,3.005,24.232,24.232,0,0,0-.234,4.325v8.553h-5.351Z" transform="translate(1153.633 -832.373)"/><path class="a" d="M-1058.274,904.84h5.351v29.554h-5.351V932.14a10.487,10.487,0,0,1-3.143,2.144,8.8,8.8,0,0,1-3.418.655,9.492,9.492,0,0,1-7.147-3.207,11.178,11.178,0,0,1-3.015-7.967,11.455,11.455,0,0,1,2.918-8.1,9.291,9.291,0,0,1,7.087-3.156,9.01,9.01,0,0,1,3.6.724,9.833,9.833,0,0,1,3.111,2.176Zm-5.626,12.622a5.406,5.406,0,0,0-4.123,1.755,6.321,6.321,0,0,0-1.64,4.5,6.386,6.386,0,0,0,1.668,4.549,5.415,5.415,0,0,0,4.123,1.782,5.5,5.5,0,0,0,4.178-1.755,6.414,6.414,0,0,0,1.658-4.581,6.231,6.231,0,0,0-1.658-4.508,5.581,5.581,0,0,0-4.206-1.741Z" transform="translate(1126.312 -823.288)"/><path class="a" d="M-990.008,905.51h5.292l6.615,19.924,6.675-19.906h5.305l4.788,28.537h-5.25l-3.06-18.023-6.1,18h-4.788l-6.011-18.023-3.134,18.023h-5.3Z" transform="translate(1082.945 -823.651)"/><path class="a" d="M-893.443,933.14h-17.015a5.666,5.666,0,0,0,1.97,3.578,6.18,6.18,0,0,0,4.082,1.329,7.06,7.06,0,0,0,5.127-2.075l4.462,2.094a10.537,10.537,0,0,1-4,3.5,12.5,12.5,0,0,1-5.543,1.145,10.93,10.93,0,0,1-8.091-3.134,10.656,10.656,0,0,1-3.12-7.862,11.013,11.013,0,0,1,3.115-8.022,10.459,10.459,0,0,1,7.788-3.207,10.819,10.819,0,0,1,8.109,3.207,11.565,11.565,0,0,1,3.124,8.43Zm-5.3-4.169a5.309,5.309,0,0,0-2.071-2.872,6,6,0,0,0-3.587-1.1,6.341,6.341,0,0,0-3.885,1.242,6.927,6.927,0,0,0-1.942,2.749Z" transform="translate(1039.928 -831.764)"/><path class="a" d="M-733.14,906h14.147v5.291h-8.76v5.172h8.76v5.214h-8.76v12.828h-5.388Z" transform="translate(941.069 -823.916)"/><path class="a" d="M-695.7,921.579h4.536v2.639a5.667,5.667,0,0,1,1.956-2.382,4.719,4.719,0,0,1,2.676-.816,4.934,4.934,0,0,1,2.153.541l-1.649,4.554a3.664,3.664,0,0,0-1.53-.458,2.415,2.415,0,0,0-2.062,1.512q-.838,1.512-.843,5.928v9.552H-695.7Z" transform="translate(920.781 -832.055)"/><path class="a" d="M-645.341,933.652h-17a5.659,5.659,0,0,0,1.965,3.573,6.175,6.175,0,0,0,4.082,1.328,7.055,7.055,0,0,0,5.076-2.075l4.458,2.094a10.538,10.538,0,0,1-3.995,3.5,12.479,12.479,0,0,1-5.5,1.131,10.917,10.917,0,0,1-8.081-3.129,10.651,10.651,0,0,1-3.12-7.839,11,11,0,0,1,3.111-8.013,10.445,10.445,0,0,1,7.788-3.207,10.8,10.8,0,0,1,8.1,3.207,11.562,11.562,0,0,1,3.12,8.42Zm-5.291-4.169a5.305,5.305,0,0,0-2.066-2.868,5.988,5.988,0,0,0-3.583-1.1,6.332,6.332,0,0,0-3.885,1.242,6.924,6.924,0,0,0-1.942,2.749Z" transform="translate(905.479 -832.051)"/><path class="a" d="M-595.426,921.6h5.291v21.074h-5.291v-2.217a10.387,10.387,0,0,1-3.106,2.121,8.705,8.705,0,0,1-3.376.651,9.387,9.387,0,0,1-7.064-3.166,11.059,11.059,0,0,1-2.982-7.88,11.321,11.321,0,0,1,2.886-8,9.163,9.163,0,0,1,7-3.12,8.922,8.922,0,0,1,3.564.715,9.724,9.724,0,0,1,3.079,2.153Zm-5.557,4.343a5.346,5.346,0,0,0-4.077,1.736,6.253,6.253,0,0,0-1.622,4.448,6.318,6.318,0,0,0,1.654,4.494,5.346,5.346,0,0,0,4.064,1.764,5.456,5.456,0,0,0,4.123-1.736,6.345,6.345,0,0,0,1.64-4.545,6.162,6.162,0,0,0-1.64-4.458,5.521,5.521,0,0,0-4.141-1.7Z" transform="translate(875.406 -832.076)"/><path class="a" d="M-552.56,904.48h5.3v16.832l7.788-8.7h6.643l-9.085,10.106,10.171,11h-6.57l-8.947-9.726V933.7h-5.291Z" transform="translate(843.219 -823.093)"/></svg>