<svg id="Component_120_1" data-name="Component 120 – 1" xmlns="http://www.w3.org/2000/svg" width="28.67" height="30.437" viewBox="0 0 28.67 30.437">
  <path id="Path_587" data-name="Path 587" d="M145.508,457.853h1.2a.549.549,0,0,0,0-1.1h-1.2a.549.549,0,1,0,0,1.1Z" transform="translate(-137.451 -430.359)" fill="#162f6a"/>
  <path id="Path_588" data-name="Path 588" d="M46.72,12.9H44.672a8.8,8.8,0,0,0-.92-2.177L45.2,9.306a.845.845,0,0,0,0-1.21L43.1,6.031a.882.882,0,0,0-1.229,0L40.417,7.453a9.154,9.154,0,0,0-2.22-.9V4.541a.864.864,0,0,0-.87-.855H36.061V2.193A2.215,2.215,0,0,0,33.831,0H21.151A2.215,2.215,0,0,0,18.92,2.193V5.119a.454.454,0,0,0,.907,0V2.193a1.314,1.314,0,0,1,1.323-1.3h12.68a1.314,1.314,0,0,1,1.323,1.3V24.761H19.827V7.171a.454.454,0,0,0-.907,0V28.244a2.215,2.215,0,0,0,2.231,2.193h12.68a2.215,2.215,0,0,0,2.231-2.193V26.75h1.266a.864.864,0,0,0,.87-.855V23.887a9.153,9.153,0,0,0,2.22-.9l1.449,1.422a.882.882,0,0,0,1.229,0l2.1-2.065a.845.845,0,0,0,0-1.21l-1.447-1.42a8.8,8.8,0,0,0,.92-2.177H46.72a.864.864,0,0,0,.87-.855V13.759a.864.864,0,0,0-.87-.855ZM35.154,28.244a1.314,1.314,0,0,1-1.323,1.3H21.151a1.314,1.314,0,0,1-1.323-1.3V25.653H35.154Zm11.529-11.6H44.316a.452.452,0,0,0-.443.348,7.931,7.931,0,0,1-1.077,2.55.44.44,0,0,0,.062.555l1.673,1.642-2.051,2.013-1.674-1.643a.459.459,0,0,0-.563-.061,8.25,8.25,0,0,1-2.6,1.057.448.448,0,0,0-.355.435v2.321H36.061v-5.1A5.715,5.715,0,0,0,39.5,19.449a.441.441,0,0,0,.053-.629.459.459,0,0,0-.639-.052,4.8,4.8,0,0,1-2.848,1.1v-9.3a4.7,4.7,0,0,1,4.523,4.65,4.534,4.534,0,0,1-.51,2.1.443.443,0,0,0,.2.6.457.457,0,0,0,.61-.2,5.407,5.407,0,0,0,.608-2.505,5.6,5.6,0,0,0-5.43-5.543v-5.1H37.29V6.9a.448.448,0,0,0,.355.435,8.252,8.252,0,0,1,2.6,1.057.459.459,0,0,0,.563-.061l1.674-1.643L44.532,8.7l-1.673,1.642a.44.44,0,0,0-.062.555,7.929,7.929,0,0,1,1.077,2.55.452.452,0,0,0,.443.348h2.366v2.846Z" transform="translate(-18.92)" fill="#162f6a"/>
  <path id="Path_589" data-name="Path 589" d="M51.013,50.862H54.35a.73.73,0,0,0,.729-.729V46.8a.73.73,0,0,0-.729-.729H51.013a.73.73,0,0,0-.729.729v3.337A.73.73,0,0,0,51.013,50.862Zm.368-3.7h2.6v2.6h-2.6Z" transform="translate(-46.99 -42.699)" fill="#162f6a"/>
  <path id="Path_591" data-name="Path 591" d="M206.2,50.862h3.337a.73.73,0,0,0,.729-.729V46.8a.73.73,0,0,0-.729-.729H206.2a.73.73,0,0,0-.729.729v3.337A.73.73,0,0,0,206.2,50.862Zm.368-3.7h2.6v2.6h-2.6Z" transform="translate(-195.569 -42.699)" fill="#162f6a"/>
  <path id="Path_592" data-name="Path 592" d="M50.284,134.962a.73.73,0,0,0,.729.729H54.35a.73.73,0,0,0,.729-.729v-3.337a.73.73,0,0,0-.729-.729H51.013a.73.73,0,0,0-.729.729Zm1.1-2.969h2.6v2.6h-2.6Z" transform="translate(-46.99 -120.98)" fill="#162f6a"/>
  <path id="Path_673" data-name="Path 673" d="M50.284,134.962a.73.73,0,0,0,.729.729H54.35a.73.73,0,0,0,.729-.729v-3.337a.73.73,0,0,0-.729-.729H51.013a.73.73,0,0,0-.729.729Zm1.1-2.969h2.6v2.6h-2.6Z" transform="translate(-46.99 -114.432)" fill="#162f6a"/>
  <path id="Path_594" data-name="Path 594" d="M205.469,134.962a.73.73,0,0,0,.729.729h3.337a.73.73,0,0,0,.729-.729v-3.337a.73.73,0,0,0-.729-.729H206.2a.73.73,0,0,0-.729.729Zm1.1-2.969h2.6v2.6h-2.6Z" transform="translate(-195.568 -120.98)" fill="#162f6a"/>
  <path id="Path_674" data-name="Path 674" d="M205.469,134.962a.73.73,0,0,0,.729.729h3.337a.73.73,0,0,0,.729-.729v-3.337a.73.73,0,0,0-.729-.729H206.2a.73.73,0,0,0-.729.729Zm1.1-2.969h2.6v2.6h-2.6Z" transform="translate(-195.568 -114.432)" fill="#162f6a"/>
</svg>
