<svg xmlns="http://www.w3.org/2000/svg" width="49.227" height="49.227" viewBox="0 0 49.227 49.227"><defs><style>.a{fill:#fff;}</style></defs><path class="a" d="M64.406,60.3h-.82V57.843a.82.82,0,0,0-.82-.82h-.82V46.356a.82.82,0,0,0-.82-.82H58.663V38.152a.82.82,0,0,0-.82-.82h-4.1V35.691a.82.82,0,0,0-.434-.724l-2.027-1.081v-.656a10.681,10.681,0,0,0-9.538-10.606.822.822,0,0,0-.308-.06V20.923h4.1a.82.82,0,0,0,.82-.82V16.82a.82.82,0,0,0-.82-.82H40.613a.82.82,0,0,0-.82.82v5.774a10.68,10.68,0,0,0-9.845,10.634v.656l-2.027,1.081a.82.82,0,0,0-.434.724v1.641h-4.1a.82.82,0,0,0-.82.82v7.384H20.1a.82.82,0,0,0-.82.82V57.022h-.82a.82.82,0,0,0-.82.82V60.3h-.82a.82.82,0,0,0-.82.82v3.282a.82.82,0,0,0,.82.82H64.406a.82.82,0,0,0,.82-.82V61.124A.82.82,0,0,0,64.406,60.3ZM41.434,17.641h3.282v1.641H41.434ZM60.3,47.177v9.845H58.663V51.279a2.461,2.461,0,0,0-4.923,0v5.743H52.1V51.279a2.461,2.461,0,0,0-3.282-2.32V47.177Zm-3.282,4.1v5.743H55.381V51.279a.82.82,0,0,1,1.641,0Zm-6.564,0v5.743H48.818V51.279a.82.82,0,1,1,1.641,0ZM52.1,45.536V43.075a.82.82,0,0,1,1.641,0v2.461ZM49.635,33.009l-2.874-1.533a17.554,17.554,0,0,0-3.069-6.731A9.042,9.042,0,0,1,49.635,33.009Zm-8.681-8.8.144.006a15.916,15.916,0,0,1,3.686,6.2L41,28.4a.821.821,0,0,0-.772,0l-2.782,1.483a15.96,15.96,0,0,1,3.508-5.674Zm-2.357.22A17.6,17.6,0,0,0,35.4,30.976l-3.812,2.033A9.042,9.042,0,0,1,38.6,24.432Zm-9.47,11.751,11.486-6.126L52.1,36.183v1.149H29.127ZM24.2,38.972H57.022v6.564H55.381V43.075a2.461,2.461,0,0,0-4.923,0v2.461h-.82v-.82a.82.82,0,0,0-.516-.762l-8.2-3.282a.821.821,0,0,0-.609,0l-8.2,3.282a.82.82,0,0,0-.516.762v.82h-.82V43.075a2.461,2.461,0,0,0-4.923,0v2.461H24.2Zm16.409,9.845A3.285,3.285,0,0,0,37.332,52.1v4.923H34.05V47.177H47.177v9.845H43.9V52.1A3.285,3.285,0,0,0,40.613,48.818ZM42.254,52.1v4.923H38.972V52.1a1.641,1.641,0,1,1,3.282,0Zm-9.025-6.564v-.265l7.384-2.954L48,45.271v.265Zm-4.1-2.461v2.461H27.486V43.075a.82.82,0,0,1,1.641,0Zm-8.2,4.1H32.409v1.782a2.461,2.461,0,0,0-3.282,2.32v5.743H27.486V51.279a2.461,2.461,0,0,0-4.923,0v5.743H20.923Zm11.486,4.1v5.743H30.768V51.279a.82.82,0,1,1,1.641,0Zm-6.564,0v5.743H24.2V51.279a.82.82,0,0,1,1.641,0Zm-6.564,7.384H61.945V60.3H19.282Zm44.3,4.923H17.641V61.945H63.586Z" transform="translate(-16 -16)"/><path class="a" d="M234.461,168a2.461,2.461,0,1,0,2.461,2.461A2.461,2.461,0,0,0,234.461,168Zm0,3.282a.82.82,0,1,1,.82-.82A.82.82,0,0,1,234.461,171.282Z" transform="translate(-209.848 -152.412)"/></svg>