<svg xmlns="http://www.w3.org/2000/svg" width="12.344" height="12.344" viewBox="0 0 12.344 12.344"><defs><style>.a{fill:#162f6a;stroke:#162f6a;stroke-width:0.3px;}</style></defs><g transform="translate(0.15 0.15)"><path class="a" d="M8.656,12.044A3.355,3.355,0,0,1,7.5,11.838,12.275,12.275,0,0,1,3.047,9,12.275,12.275,0,0,1,.206,4.539,3.331,3.331,0,0,1,.036,2.9,3.416,3.416,0,0,1,1.792.4,3.354,3.354,0,0,1,3.4,0a.376.376,0,0,1,.368.3l.591,2.757a.376.376,0,0,1-.1.345L3.245,4.409A9.906,9.906,0,0,0,7.635,8.8L8.645,7.79a.377.377,0,0,1,.345-.1l2.757.591a.376.376,0,0,1,.3.368,3.353,3.353,0,0,1-.4,1.606,3.416,3.416,0,0,1-2.5,1.756A3.347,3.347,0,0,1,8.656,12.044ZM3.1.769A2.637,2.637,0,0,0,.914,4.282,11.415,11.415,0,0,0,7.762,11.13a2.637,2.637,0,0,0,3.513-2.183L9.032,8.467,7.978,9.521a.376.376,0,0,1-.426.075,10.657,10.657,0,0,1-5.1-5.1.376.376,0,0,1,.075-.426L3.577,3.012Z" transform="translate(0)"/></g></svg>