<svg xmlns="http://www.w3.org/2000/svg" width="32.523" height="37.179" viewBox="0 0 32.523 37.179">
  <g id="physics" transform="translate(-0.3)">
    <path id="Path_850" data-name="Path 850" d="M202.2,78.786c.88.563,1.725,1.153,2.532,1.761a28.927,28.927,0,0,0-1.388-5.247,28.292,28.292,0,0,0-4.693,1.461C199.838,77.361,201.027,78.042,202.2,78.786Zm0,0" transform="translate(-180.345 -68.466)" fill="#fff"/>
    <path id="Path_851" data-name="Path 851" d="M126.495,5.464c-.037-.074-.07-.15-.1-.227C124.825,1.906,122.728,0,120.622,0s-4.2,1.906-5.773,5.237a1.658,1.658,0,0,0-.1.227,31.567,31.567,0,0,1,5.873,1.988,31.575,31.575,0,0,1,5.873-1.988Zm0,0" transform="translate(-104.061)" fill="#fff"/>
    <path id="Path_852" data-name="Path 852" d="M266.6,70.61a2.375,2.375,0,0,0-.245.036,31.6,31.6,0,0,1,1.6,6.826,33.557,33.557,0,0,1,4.076,4.021c.281-.381.545-.772.79-1.162,1.96-3.113,2.433-5.918,1.307-7.679s-3.876-2.514-7.525-2.042Zm0,0" transform="translate(-241.903 -64.074)" fill="#fff"/>
    <path id="Path_853" data-name="Path 853" d="M99.332,76.762A28.035,28.035,0,0,0,94.639,75.3a28.9,28.9,0,0,0-1.389,5.247c.808-.608,1.661-1.2,2.532-1.761C96.953,78.042,98.142,77.361,99.332,76.762Zm0,0" transform="translate(-84.513 -68.466)" fill="#fff"/>
    <path id="Path_854" data-name="Path 854" d="M289.3,173.887a31.1,31.1,0,0,0-2.95-3.086c.072,1.007.109,2.042.109,3.086s-.036,2.07-.109,3.086A31.135,31.135,0,0,0,289.3,173.887Zm0,0" transform="translate(-260.088 -155.298)" fill="#fff"/>
    <path id="Path_855" data-name="Path 855" d="M161.773,185.16a1.961,1.961,0,1,1-1.961-1.961A1.961,1.961,0,0,1,161.773,185.16Zm0,0" transform="translate(-143.251 -166.571)" fill="#fff"/>
    <path id="Path_856" data-name="Path 856" d="M95.709,99.7a40.538,40.538,0,0,0-8.115,5.1,40.3,40.3,0,0,0,0,8.877,42.217,42.217,0,0,0,3.613,2.605,39.6,39.6,0,0,0,4.5,2.5,40.538,40.538,0,0,0,8.115-5.1,40.328,40.328,0,0,0,0-8.877,42.37,42.37,0,0,0-3.613-2.605,38.855,38.855,0,0,0-4.5-2.5Zm0,12.953a3.413,3.413,0,1,1,3.413-3.413A3.413,3.413,0,0,1,95.709,112.652Zm0,0" transform="translate(-79.148 -90.65)" fill="#fff"/>
    <path id="Path_857" data-name="Path 857" d="M198.648,280.285a28.042,28.042,0,0,0,4.693,1.462,28.945,28.945,0,0,0,1.388-5.247c-.808.608-1.661,1.2-2.532,1.761C201.026,279.005,199.837,279.686,198.648,280.285Zm0,0" transform="translate(-180.344 -251.402)" fill="#fff"/>
    <path id="Path_858" data-name="Path 858" d="M114.75,329.487a2.434,2.434,0,0,1,.1.227c1.57,3.332,3.667,5.238,5.773,5.238s4.2-1.906,5.773-5.238a1.7,1.7,0,0,0,.1-.227,31.549,31.549,0,0,1-5.873-1.988,31.54,31.54,0,0,1-5.873,1.988Zm0,0" transform="translate(-104.062 -297.773)" fill="#fff"/>
    <path id="Path_859" data-name="Path 859" d="M272.025,217.7a34.214,34.214,0,0,1-4.076,4.021,32.278,32.278,0,0,1-1.6,6.826c.082.009.163.027.245.037,3.649.472,6.39-.263,7.525-2.033s.653-4.566-1.307-7.679C272.57,218.471,272.306,218.089,272.025,217.7Zm0,0" transform="translate(-241.903 -197.939)" fill="#fff"/>
    <path id="Path_860" data-name="Path 860" d="M3,81.519A34.237,34.237,0,0,1,7.075,77.5a32.286,32.286,0,0,1,1.6-6.826c-.082-.009-.163-.027-.245-.036A16.549,16.549,0,0,0,6.367,70.5c-2.614,0-4.557.762-5.464,2.178C-.231,74.448.25,77.244,2.21,80.357c.245.39.508.772.79,1.162Zm0,0" transform="translate(0 -64.1)" fill="#fff"/>
    <path id="Path_861" data-name="Path 861" d="M3.041,217.7c-.282.381-.545.772-.79,1.162C.291,221.974-.181,224.779.944,226.54s3.876,2.514,7.525,2.033a2.385,2.385,0,0,0,.245-.036,31.625,31.625,0,0,1-1.6-6.826A31.641,31.641,0,0,1,3.041,217.7Zm0,0" transform="translate(-0.041 -197.939)" fill="#fff"/>
    <path id="Path_862" data-name="Path 862" d="M95.782,278.26c-.88-.563-1.725-1.153-2.532-1.761a28.914,28.914,0,0,0,1.389,5.247,28.289,28.289,0,0,0,4.693-1.462C98.142,279.686,96.953,279,95.782,278.26Zm0,0" transform="translate(-84.513 -251.402)" fill="#fff"/>
    <path id="Path_863" data-name="Path 863" d="M40.051,173.887A31.056,31.056,0,0,0,43,176.973c-.073-1.008-.109-2.042-.109-3.086s.036-2.07.109-3.086A31.016,31.016,0,0,0,40.051,173.887Zm0,0" transform="translate(-36.143 -155.298)" fill="#fff"/>
  </g>
</svg>
