<svg xmlns="http://www.w3.org/2000/svg" width="68" height="76.799" viewBox="0 0 68 76.799">
  <g id="physics_1_" data-name="physics (1)" transform="translate(-0.249 0)">
    <path id="Path_864" data-name="Path 864" d="M291.155,85.115c3.068,4.809.844,12.239-5.085,19.773a60.5,60.5,0,0,0-9.085-9.153,58.154,58.154,0,0,0-3.637-14.757c8.291-1.551,15-.259,17.808,4.137Zm0,0" transform="translate(-226.02 -66.497)" fill="#00efd1"/>
    <path id="Path_865" data-name="Path 865" d="M286.069,222.7c5.947,7.533,8.171,14.963,5.085,19.773-2.828,4.413-9.516,5.689-17.808,4.137a58.337,58.337,0,0,0,3.637-14.756,61.362,61.362,0,0,0,9.085-9.154Zm0,0" transform="translate(-226.019 -184.308)" fill="#00efd1"/>
    <path id="Path_866" data-name="Path 866" d="M294.445,169.6a61.356,61.356,0,0,1,9.085,9.153,60.539,60.539,0,0,1-9.085,9.154,78.625,78.625,0,0,0,0-18.307Zm0,0" transform="translate(-243.48 -140.365)" fill="#fedb41"/>
    <path id="Path_867" data-name="Path 867" d="M131.323,119.282a78.622,78.622,0,0,1,0,18.307,77.291,77.291,0,0,1-7.413,5.4,74.217,74.217,0,0,1-9.309,5.085,74.264,74.264,0,0,1-9.309-5.085,77.458,77.458,0,0,1-7.413-5.4,74.8,74.8,0,0,1-.534-9.154,78.442,78.442,0,0,1,.534-9.153,77.345,77.345,0,0,1,7.413-5.4A74.177,74.177,0,0,1,114.6,108.8a74.131,74.131,0,0,1,9.309,5.085A77.174,77.174,0,0,1,131.323,119.282ZM119.7,128.436a5.1,5.1,0,1,0-5.1,5.1A5.1,5.1,0,0,0,119.7,128.436Zm0,0" transform="translate(-80.358 -90.045)" fill="#00acea"/>
    <path id="Path_868" data-name="Path 868" d="M210.53,84a58.335,58.335,0,0,1,3.637,14.757,77.177,77.177,0,0,0-7.413-5.4,74.131,74.131,0,0,0-9.309-5.085A58,58,0,0,1,210.53,84Zm0,0" transform="translate(-163.202 -69.52)" fill="#fedb41"/>
    <path id="Path_869" data-name="Path 869" d="M214.167,275.8a58.148,58.148,0,0,1-3.637,14.756,57.225,57.225,0,0,1-13.085-4.292A77.455,77.455,0,0,0,214.167,275.8Zm0,0" transform="translate(-163.202 -228.257)" fill="#fedb41"/>
    <path id="Path_870" data-name="Path 870" d="M134.631,9.9c5.241,0,9.93,4.948,13.085,12.774a57.258,57.258,0,0,0-13.085,4.292,57.252,57.252,0,0,0-13.084-4.292C124.7,14.847,129.39,9.9,134.631,9.9Zm0,0" transform="translate(-100.387 -8.192)" fill="#00efd1"/>
    <path id="Path_871" data-name="Path 871" d="M147.716,340.792c-3.172,7.809-7.861,12.774-13.085,12.774s-9.929-4.947-13.084-12.774a57.222,57.222,0,0,0,13.084-4.292A57.223,57.223,0,0,0,147.716,340.792Zm0,0" transform="translate(-100.388 -278.492)" fill="#00efd1"/>
    <g id="Group_331" data-name="Group 331" transform="translate(17.522 14.498)">
      <path id="Path_872" data-name="Path 872" d="M178.053,198.2a5.1,5.1,0,1,1-5.1-5.1A5.1,5.1,0,0,1,178.053,198.2Zm0,0" transform="translate(-156.228 -174.311)" fill="#fedb41"/>
      <path id="Path_873" data-name="Path 873" d="M117.167,88.376a74.267,74.267,0,0,0-9.309,5.085,77.46,77.46,0,0,0-7.413,5.4A58.176,58.176,0,0,1,104.083,84.1,56.311,56.311,0,0,1,117.167,88.376Zm0,0" transform="translate(-100.445 -84.101)" fill="#fedb41"/>
      <path id="Path_874" data-name="Path 874" d="M107.858,281.179a74.182,74.182,0,0,0,9.309,5.085,57.221,57.221,0,0,1-13.084,4.292,58.365,58.365,0,0,1-3.638-14.756,74.413,74.413,0,0,0,7.413,5.378Zm0,0" transform="translate(-100.445 -242.754)" fill="#fedb41"/>
    </g>
    <path id="Path_875" data-name="Path 875" d="M29.449,80.978a58.363,58.363,0,0,0-3.638,14.757,60.5,60.5,0,0,0-9.085,9.153c-5.93-7.533-8.154-14.963-5.085-19.773,2.81-4.4,9.516-5.689,17.808-4.137Zm0,0" transform="translate(-8.29 -66.497)" fill="#00efd1"/>
    <path id="Path_876" data-name="Path 876" d="M25.813,231.854a58.176,58.176,0,0,0,3.638,14.756c-8.292,1.551-14.98.259-17.808-4.137-3.069-4.809-.844-12.24,5.1-19.773a60.357,60.357,0,0,0,9.067,9.154Zm0,0" transform="translate(-8.292 -184.309)" fill="#00efd1"/>
    <path id="Path_877" data-name="Path 877" d="M56.83,169.6a74.787,74.787,0,0,0-.534,9.153,78.463,78.463,0,0,0,.534,9.154,59.8,59.8,0,0,1-9.085-9.154A61.352,61.352,0,0,1,56.83,169.6Zm0,0" transform="translate(-39.309 -140.365)" fill="#fedb41"/>
    <path id="Path_878" data-name="Path 878" d="M66.583,17.7c-2.948-4.62-9.55-6.465-18.2-5.137C44.828,4.568,39.725,0,34.243,0S23.659,4.568,20.107,12.567c-8.654-1.327-15.256.517-18.2,5.137-3.259,5.1-1.655,12.6,4.378,20.686C.248,46.492-1.355,53.974,1.9,59.077c2.327,3.638,6.912,5.568,13,5.568a35,35,0,0,0,5.206-.413c3.551,8,8.654,12.567,14.136,12.567S44.828,72.23,48.379,64.232a35.009,35.009,0,0,0,5.207.413c6.085,0,10.67-1.914,13-5.568,3.258-5.1,1.655-12.6-4.378-20.686,6.05-8.1,7.654-15.584,4.378-20.686ZM53.689,15.566c4.81,0,8.326,1.362,10,3.982,2.327,3.638.931,9.551-3.706,16.05a62.9,62.9,0,0,0-7.4-7.258,62.1,62.1,0,0,0-2.9-12.5,33.239,33.239,0,0,1,4-.275ZM46.242,60.318A51.9,51.9,0,0,1,38.4,57.9c2.051-1.069,4.085-2.241,6.085-3.516,1.413-.9,2.793-1.844,4.12-2.827a53.948,53.948,0,0,1-2.362,8.757Zm-24,0a53.634,53.634,0,0,1-2.362-8.774c1.327.982,2.706,1.931,4.12,2.827q3,1.914,6.085,3.517a50.239,50.239,0,0,1-7.844,2.43Zm0-43.855a51.974,51.974,0,0,1,7.844,2.413q-3.078,1.6-6.085,3.516c-1.413.9-2.793,1.845-4.12,2.828a53.955,53.955,0,0,1,2.362-8.757ZM15.419,43.407a58.431,58.431,0,0,1-4.757-5.017,55.983,55.983,0,0,1,4.757-5.016q-.155,2.482-.155,5.016,0,2.508.155,5.017Zm10.447,8.068a74.712,74.712,0,0,1-6.706-4.827,76.328,76.328,0,0,1,0-16.515,75.443,75.443,0,0,1,15.084-9.464,75.406,75.406,0,0,1,15.084,9.464,76.524,76.524,0,0,1,.448,8.257,76.537,76.537,0,0,1-.448,8.258,73.891,73.891,0,0,1-6.706,4.827,73.03,73.03,0,0,1-8.378,4.637,74.579,74.579,0,0,1-8.378-4.637ZM46.242,16.463A53.954,53.954,0,0,1,48.6,25.22c-1.327-.982-2.706-1.931-4.12-2.828-2-1.275-4.034-2.448-6.085-3.516a51.973,51.973,0,0,1,7.844-2.413Zm6.827,16.911a58.422,58.422,0,0,1,4.757,5.016,53.556,53.556,0,0,1-4.757,5c.1-1.655.155-3.327.155-5S53.171,35.046,53.068,33.374ZM34.243,3.43c3.914,0,7.741,3.534,10.671,9.792A61.031,61.031,0,0,0,34.243,16.86a59.2,59.2,0,0,0-10.67-3.638C26.5,6.982,30.33,3.43,34.243,3.43ZM4.8,19.548c1.672-2.62,5.188-3.982,10-3.982a30.331,30.331,0,0,1,4,.275,62.051,62.051,0,0,0-2.9,12.5,62.892,62.892,0,0,0-7.4,7.258C3.869,29.1,2.473,23.186,4.8,19.548Zm0,37.684c-2.327-3.638-.931-9.55,3.706-16.05a62.842,62.842,0,0,0,7.4,7.258,62.05,62.05,0,0,0,2.9,12.5C11.954,61.835,6.9,60.525,4.8,57.233ZM34.243,73.351c-3.913,0-7.74-3.534-10.67-9.792a61.077,61.077,0,0,0,10.67-3.637,59.224,59.224,0,0,0,10.671,3.637c-2.931,6.24-6.757,9.792-10.671,9.792ZM63.687,57.233c-2.1,3.293-7.154,4.6-14,3.706a62.1,62.1,0,0,0,2.9-12.5,62.84,62.84,0,0,0,7.4-7.258c4.638,6.5,6.034,12.412,3.706,16.05Zm0,0" transform="translate(0)" fill="#083863"/>
    <path id="Path_879" data-name="Path 879" d="M164.754,183.1a6.826,6.826,0,1,0,6.844,6.826A6.827,6.827,0,0,0,164.754,183.1Zm0,10.205a3.379,3.379,0,1,1,3.4-3.379A3.379,3.379,0,0,1,164.754,193.307Zm0,0" transform="translate(-130.511 -151.538)" fill="#083863"/>
  </g>
</svg>
