<svg xmlns="http://www.w3.org/2000/svg" width="114" height="134.723" viewBox="0 0 114 134.723">
  <g id="Group_395" data-name="Group 395" transform="translate(-65.991 -49.501)">
    <g id="Group_369" data-name="Group 369" transform="translate(65.991 49.501)">
      <g id="Group_341" data-name="Group 341" transform="translate(0 67.258)">
        <path id="Path_893" data-name="Path 893" d="M176.03,182.546H69.953a3.959,3.959,0,0,1-3.759-5.2l14-42.335a17.987,17.987,0,0,1,17.077-12.341h51.449a17.987,17.987,0,0,1,17.077,12.341l14,42.335A3.959,3.959,0,0,1,176.03,182.546Z" transform="translate(-65.991 -122.669)" fill="#009add"/>
      </g>
      <g id="Group_342" data-name="Group 342" transform="translate(6.03 67.258)">
        <path id="Path_894" data-name="Path 894" d="M170.948,182.546H76.094c-2.413,0-4.118-2.64-3.361-5.2L85.247,135.01c2.178-7.366,8.333-12.341,15.271-12.341h46.006c6.937,0,13.093,4.975,15.271,12.341l12.514,42.335C175.067,179.906,173.361,182.546,170.948,182.546Z" transform="translate(-72.551 -122.669)" fill="#27c1e6"/>
      </g>
      <g id="Group_343" data-name="Group 343" transform="translate(40.092 67.258)">
        <path id="Path_895" data-name="Path 895" d="M126.514,139.576a16.907,16.907,0,0,0,16.907-16.907H109.606A16.909,16.909,0,0,0,126.514,139.576Z" transform="translate(-109.606 -122.669)" fill="#009add"/>
      </g>
      <g id="Group_344" data-name="Group 344" transform="translate(43.805 67.258)">
        <path id="Path_896" data-name="Path 896" d="M126.84,135.865a13.2,13.2,0,0,0,13.2-13.2H113.645A13.2,13.2,0,0,0,126.84,135.865Z" transform="translate(-113.645 -122.669)" fill="#e6e7e8"/>
      </g>
      <g id="Group_345" data-name="Group 345" transform="translate(43.805 67.258)">
        <path id="Path_897" data-name="Path 897" d="M126.84,133.081a13.2,13.2,0,0,1-12.9-10.412h-.294a13.2,13.2,0,1,0,26.393,0h-.294A13.2,13.2,0,0,1,126.84,133.081Z" transform="translate(-113.645 -122.669)" fill="#d1d3d4"/>
      </g>
      <g id="Group_368" data-name="Group 368" transform="translate(31.878)">
        <g id="Group_346" data-name="Group 346" transform="translate(2.14)">
          <path id="Path_898" data-name="Path 898" d="M145.76,95.315a2,2,0,0,0,1.877-1.336,22.942,22.942,0,0,0,1.325-7.708V73.033c0-12.462-9.69-23.075-22.144-23.517A22.982,22.982,0,0,0,103,72.483V86.272a22.919,22.919,0,0,0,1.326,7.708,2,2,0,0,0,1.877,1.336Z" transform="translate(-102.998 -49.501)" fill="#009add"/>
        </g>
        <g id="Group_347" data-name="Group 347" transform="translate(39.586 26.433)">
          <path id="Path_899" data-name="Path 899" d="M149.065,92.112h0a5.33,5.33,0,0,1-5.33-5.33v-3.2a5.329,5.329,0,0,1,5.33-5.329h0a5.329,5.329,0,0,1,5.329,5.329v3.2A5.328,5.328,0,0,1,149.065,92.112Z" transform="translate(-143.735 -78.256)" fill="#fff"/>
        </g>
        <g id="Group_348" data-name="Group 348" transform="translate(39.587 32.202)">
          <path id="Path_900" data-name="Path 900" d="M149.065,89.862a5.329,5.329,0,0,1-5.329-5.329v2.758a5.329,5.329,0,0,0,10.657,0V84.533A5.328,5.328,0,0,1,149.065,89.862Z" transform="translate(-143.736 -84.533)" fill="#d1d3d4"/>
        </g>
        <g id="Group_350" data-name="Group 350" transform="translate(0 26.433)">
          <g id="Group_349" data-name="Group 349">
            <path id="Path_901" data-name="Path 901" d="M106,92.112h0a5.329,5.329,0,0,1-5.329-5.33v-3.2A5.329,5.329,0,0,1,106,78.256h0a5.33,5.33,0,0,1,5.33,5.329v3.2A5.331,5.331,0,0,1,106,92.112Z" transform="translate(-100.67 -78.256)" fill="#fff"/>
          </g>
        </g>
        <g id="Group_351" data-name="Group 351" transform="translate(0 32.202)">
          <path id="Path_902" data-name="Path 902" d="M106,89.862a5.329,5.329,0,0,1-5.329-5.329v2.758a5.329,5.329,0,0,0,10.657,0V84.533A5.329,5.329,0,0,1,106,89.862Z" transform="translate(-100.67 -84.533)" fill="#d1d3d4"/>
        </g>
        <g id="Group_352" data-name="Group 352" transform="translate(16.958 56.702)">
          <rect id="Rectangle_227" data-name="Rectangle 227" width="16.33" height="10.556" fill="#e6e7e8"/>
        </g>
        <g id="Group_353" data-name="Group 353" transform="translate(16.958 56.702)">
          <path id="Path_903" data-name="Path 903" d="M119.118,114.788a19.845,19.845,0,0,0,16.33,0v-3.6h-16.33Z" transform="translate(-119.118 -111.185)" fill="#bcbec0"/>
        </g>
        <g id="Group_354" data-name="Group 354" transform="translate(5.328 7.629)">
          <path id="Path_904" data-name="Path 904" d="M126.261,109.264h0A19.794,19.794,0,0,1,106.466,89.47V77.594A19.793,19.793,0,0,1,126.26,57.8h0a19.793,19.793,0,0,1,19.794,19.794V89.47A19.792,19.792,0,0,1,126.261,109.264Z" transform="translate(-106.466 -57.8)" fill="#fff"/>
        </g>
        <g id="Group_355" data-name="Group 355" transform="translate(5.329 35.341)">
          <path id="Path_905" data-name="Path 905" d="M126.261,107.741a19.793,19.793,0,0,1-19.794-19.794v3.959a19.794,19.794,0,0,0,39.587,0V87.947A19.793,19.793,0,0,1,126.261,107.741Z" transform="translate(-106.467 -87.947)" fill="#e6e7e8"/>
        </g>
        <g id="Group_356" data-name="Group 356" transform="translate(2.141 2.62)">
          <path id="Path_906" data-name="Path 906" d="M120.985,57.012a26.074,26.074,0,0,0-.416-4.661A22.99,22.99,0,0,0,103,74.692V79.2C113.007,78.673,120.985,68.941,120.985,57.012Z" transform="translate(-102.999 -52.351)" fill="#e6e7e8"/>
        </g>
        <g id="Group_357" data-name="Group 357" transform="translate(6.266 2.027)">
          <path id="Path_907" data-name="Path 907" d="M126.294,51.706h0a22.955,22.955,0,0,0-18.807,9.771c3.46,11.219,15.618,19.506,30.085,19.506a36.292,36.292,0,0,0,11.7-1.91V74.688A22.981,22.981,0,0,0,126.294,51.706Z" transform="translate(-107.487 -51.706)" fill="#e6e7e8"/>
        </g>
        <g id="Group_358" data-name="Group 358" transform="translate(5.328 7.627)">
          <path id="Path_908" data-name="Path 908" d="M108.042,90.4a1.556,1.556,0,0,0,1.556-1.57l-.087-10.323a16.749,16.749,0,0,1,33.5,0l-.087,10.323a1.557,1.557,0,0,0,1.556,1.57h0a1.556,1.556,0,0,0,1.556-1.554l.019-11.252a19.794,19.794,0,1,0-39.587,0l.019,11.252a1.557,1.557,0,0,0,1.557,1.554Z" transform="translate(-106.466 -57.798)" fill="#009add"/>
        </g>
        <g id="Group_359" data-name="Group 359" transform="translate(2.141 0.641)">
          <path id="Path_909" data-name="Path 909" d="M120.985,54.859a26.073,26.073,0,0,0-.416-4.661A22.991,22.991,0,0,0,103,72.539v4.505C113.007,76.519,120.985,66.788,120.985,54.859Z" transform="translate(-102.999 -50.198)" fill="#009add"/>
        </g>
        <g id="Group_360" data-name="Group 360" transform="translate(2.141 0.641)">
          <path id="Path_910" data-name="Path 910" d="M104.452,73.992a22.992,22.992,0,0,1,16.374-22.017q-.1-.9-.258-1.777A22.991,22.991,0,0,0,103,72.539v4.505q.735-.039,1.453-.142V73.992Z" transform="translate(-102.999 -50.198)" fill="#1caee4"/>
        </g>
        <g id="Group_363" data-name="Group 363" transform="translate(15.41 31.463)">
          <g id="Group_361" data-name="Group 361">
            <path id="Path_911" data-name="Path 911" d="M121.229,85.626a1.9,1.9,0,1,1-1.9-1.9A1.9,1.9,0,0,1,121.229,85.626Z" transform="translate(-117.434 -83.729)" fill="#1caee4"/>
          </g>
          <g id="Group_362" data-name="Group 362" transform="translate(15.63)">
            <path id="Path_912" data-name="Path 912" d="M138.232,85.626a1.9,1.9,0,1,1-1.9-1.9A1.9,1.9,0,0,1,138.232,85.626Z" transform="translate(-134.437 -83.729)" fill="#1caee4"/>
          </g>
        </g>
        <g id="Group_364" data-name="Group 364" transform="translate(6.266 0.048)">
          <path id="Path_913" data-name="Path 913" d="M126.294,49.553h0a22.956,22.956,0,0,0-18.807,9.77c3.46,11.219,15.618,19.506,30.085,19.506a36.292,36.292,0,0,0,11.7-1.91V72.535A22.981,22.981,0,0,0,126.294,49.553Z" transform="translate(-107.487 -49.553)" fill="#1caee4"/>
        </g>
        <g id="Group_365" data-name="Group 365" transform="translate(6.266 0.048)">
          <path id="Path_914" data-name="Path 914" d="M126.294,49.553h0a22.956,22.956,0,0,0-18.807,9.77,22.9,22.9,0,0,0,.858,2.323,22.938,22.938,0,0,1,17.95-8.63h0A22.983,22.983,0,0,1,149.277,76V72.535A22.982,22.982,0,0,0,126.294,49.553Z" transform="translate(-107.487 -49.553)" fill="#27c1e6"/>
        </g>
        <g id="Group_366" data-name="Group 366" transform="translate(16.004 42.433)">
          <path id="Path_915" data-name="Path 915" d="M120.532,95.662a2.436,2.436,0,0,0-2.157,3.578,10.046,10.046,0,0,0,17.651,0,2.436,2.436,0,0,0-2.157-3.578Z" transform="translate(-118.081 -95.662)" fill="#bcbec0"/>
        </g>
        <g id="Group_367" data-name="Group 367" transform="translate(17.203 42.433)">
          <path id="Path_916" data-name="Path 916" d="M133.971,95.662H120.636a2.425,2.425,0,0,0-1.251.342,3.836,3.836,0,0,0,3.557,2.4h8.722a3.836,3.836,0,0,0,3.557-2.4A2.419,2.419,0,0,0,133.971,95.662Z" transform="translate(-119.385 -95.662)" fill="#e6e7e8"/>
        </g>
      </g>
    </g>
    <g id="Group_394" data-name="Group 394" transform="translate(85.19 134.449)">
      <g id="Group_372" data-name="Group 372" transform="translate(7.12 8.371)">
        <g id="Group_370" data-name="Group 370">
          <path id="Path_917" data-name="Path 917" d="M98,151.021h0a3.382,3.382,0,0,0-3.382,3.382v30.434h6.763V154.4A3.382,3.382,0,0,0,98,151.021Z" transform="translate(-94.623 -151.021)" fill="#009add"/>
        </g>
        <g id="Group_371" data-name="Group 371" transform="translate(54.598)">
          <path id="Path_918" data-name="Path 918" d="M157.4,151.021h0a3.382,3.382,0,0,0-3.382,3.382v30.434h6.763V154.4A3.381,3.381,0,0,0,157.4,151.021Z" transform="translate(-154.019 -151.021)" fill="#009add"/>
        </g>
      </g>
      <g id="Group_373" data-name="Group 373" transform="translate(0 0.001)">
        <path id="Path_919" data-name="Path 919" d="M158.771,184.1H90.585L86.9,146.45a4.132,4.132,0,0,1,4.113-4.535h67.338a4.132,4.132,0,0,1,4.113,4.535Z" transform="translate(-86.877 -141.915)" fill="#f7cb15"/>
      </g>
      <g id="Group_374" data-name="Group 374" transform="translate(0 0)">
        <path id="Path_920" data-name="Path 920" d="M87.171,149.254a4.132,4.132,0,0,1,3.838-2.6h67.338a4.132,4.132,0,0,1,3.838,2.6l.275-2.8a4.133,4.133,0,0,0-4.113-4.535H91.01a4.133,4.133,0,0,0-4.113,4.535Z" transform="translate(-86.877 -141.914)" fill="#fff335"/>
      </g>
      <g id="Group_375" data-name="Group 375" transform="translate(0.368 42.187)">
        <path id="Path_921" data-name="Path 921" d="M158.35,195.4H91.071a3.794,3.794,0,0,1-3.794-3.794h0a3.794,3.794,0,0,1,3.794-3.794h67.28a3.794,3.794,0,0,1,3.794,3.794h0A3.793,3.793,0,0,1,158.35,195.4Z" transform="translate(-87.277 -187.808)" fill="#f7cb15"/>
      </g>
      <g id="Group_376" data-name="Group 376" transform="translate(0.368 44.083)">
        <path id="Path_922" data-name="Path 922" d="M158.35,191.768H91.071a3.791,3.791,0,0,1-3.286-1.9,3.8,3.8,0,0,0,3.286,5.691h67.28a3.8,3.8,0,0,0,3.286-5.691A3.791,3.791,0,0,1,158.35,191.768Z" transform="translate(-87.277 -189.871)" fill="#e7ad27"/>
      </g>
      <g id="Group_377" data-name="Group 377" transform="translate(3.199 36.991)">
        <path id="Path_923" data-name="Path 923" d="M90.357,182.155l.509,5.2h68.186l.509-5.2Z" transform="translate(-90.357 -182.155)" fill="#e7ad27"/>
      </g>
      <g id="Group_381" data-name="Group 381" transform="translate(15.479 10.797)">
        <g id="Group_378" data-name="Group 378">
          <path id="Path_924" data-name="Path 924" d="M116.728,157.069c.021-.029.041-.058.062-.088a1.941,1.941,0,0,0,.108-.183c.017-.031.032-.062.047-.095.029-.063.055-.128.078-.193s.042-.131.059-.2.029-.134.04-.2a2.192,2.192,0,0,0,.019-.411c0-.068-.01-.137-.019-.205s-.023-.135-.04-.2-.036-.133-.059-.2-.049-.13-.078-.193c-.015-.032-.03-.063-.047-.095-.032-.062-.069-.123-.108-.183-.019-.029-.04-.059-.062-.088a2.162,2.162,0,0,0-.213-.248l-.016-.015c-.02-.02-.04-.04-.062-.058l-.033-.029-.046-.04-.04-.031-.044-.034-.039-.028-.047-.033-.039-.025-.049-.03-.039-.023-.051-.028-.04-.021-.051-.025-.041-.019-.053-.023-.04-.017-.053-.02-.043-.016-.052-.017-.043-.013-.056-.015-.041-.01-.06-.013-.038-.007-.063-.011-.036-.005-.07-.008-.029,0-.09-.006h-.036l-.073,0h-.044l-.055,0-.044,0-.056,0-.046,0-.053.006-.047.007-.052.009-.047.009-.051.011-.047.012-.051.014-.046.014-.049.016-.047.017-.049.018-.045.018-.049.021-.044.02-.048.024-.044.023-.046.026-.043.025-.046.029-.041.027-.044.031c-.014.009-.028.018-.04.029l-.037.028a2.169,2.169,0,0,0-.209.183l-9.139,9.14a2.143,2.143,0,0,0,0,3.031l9.139,9.139c.052.052.108.1.164.148h0l.08.063.026.018.057.04.032.02.054.034.034.019.052.029.037.019.053.027.036.017.061.027.03.013a1.91,1.91,0,0,0,.185.064l.03.008.063.017.038.009.059.013.037.007.059.01.039.006.058.006.039,0,.068,0,.028,0,.1,0h0a2.158,2.158,0,0,0,.308-.022c.068-.01.136-.023.2-.04l.1-.027a2,2,0,0,0,.2-.069,2.194,2.194,0,0,0,.373-.2,2.15,2.15,0,0,0,.336-.275h0a2.14,2.14,0,0,0,.162-.182,1.832,1.832,0,0,0,.112-.154,1.941,1.941,0,0,0,.108-.183c.023-.045.045-.09.064-.136a2.187,2.187,0,0,0,.119-.35c.008-.033.016-.067.022-.1.013-.068.023-.135.029-.2a2.139,2.139,0,0,0-.618-1.721l-7.624-7.624,7.624-7.624A2.431,2.431,0,0,0,116.728,157.069Z" transform="translate(-103.716 -153.66)" fill="#e7ad27"/>
        </g>
        <g id="Group_379" data-name="Group 379" transform="translate(31.216 0)">
          <path id="Path_925" data-name="Path 925" d="M150.476,163.426l-9.14-9.14c-.052-.052-.108-.1-.164-.148h0l-.083-.064-.02-.014-.065-.045-.031-.02-.056-.035-.037-.021-.052-.029-.04-.021-.051-.025-.041-.018-.051-.022-.042-.017-.051-.019-.046-.016-.051-.017-.045-.013-.052-.014-.046-.011-.051-.011-.046-.009-.053-.009-.046-.007-.054-.006-.045,0-.056,0-.044,0-.056,0h-.044l-.073,0h-.036l-.09.006-.029,0-.07.008-.036.005-.063.011-.038.007-.06.013-.041.01-.056.015-.043.013-.052.017-.043.016-.053.02-.04.017-.053.023-.042.019-.049.024-.041.021-.051.029-.039.023-.049.03-.039.025-.047.033-.039.028-.044.034-.04.031-.046.039-.033.029-.062.058-.016.015a2.16,2.16,0,0,0-.213.248c-.021.029-.041.058-.062.088a1.946,1.946,0,0,0-.108.183c-.017.031-.032.063-.047.095-.029.063-.055.128-.078.193s-.042.131-.059.2-.029.134-.04.2a2.154,2.154,0,0,0,0,.615c.01.068.023.135.04.2s.036.133.059.2a2.063,2.063,0,0,0,.078.193c.015.032.03.063.047.095.033.062.069.123.108.183.019.029.04.059.062.088a2.164,2.164,0,0,0,.213.248l7.624,7.624-7.624,7.624a2.142,2.142,0,0,0-.619,1.721c.006.068.017.136.029.2.006.034.014.067.022.1a2.1,2.1,0,0,0,.119.35c.02.046.041.091.064.136.033.063.069.123.108.183s.073.1.112.154a2.32,2.32,0,0,0,.162.182h0a2.2,2.2,0,0,0,.336.275,2.126,2.126,0,0,0,.569.265c.033.01.066.018.1.027.067.017.134.029.2.04a2.158,2.158,0,0,0,.308.022h0l.1,0,.029,0,.068,0,.039,0,.059-.006.039-.006.059-.01.037-.007.059-.013.038-.009.063-.017.03-.008c.062-.018.124-.04.186-.064l.03-.013.061-.027.036-.017.053-.027.037-.019.052-.029.034-.019.054-.034.032-.02c.019-.013.039-.026.057-.04l.026-.018c.027-.02.054-.04.08-.063h0c.056-.046.111-.1.164-.148l9.14-9.139a2.144,2.144,0,0,0,0-3.031Z" transform="translate(-137.676 -153.66)" fill="#e7ad27"/>
        </g>
        <g id="Group_380" data-name="Group 380" transform="translate(15.538 0.001)">
          <path id="Path_926" data-name="Path 926" d="M134.084,155.137c-.011-.032-.022-.065-.034-.1-.02-.054-.043-.107-.068-.159s-.04-.082-.062-.12c-.033-.06-.07-.119-.108-.176-.019-.029-.04-.056-.061-.085s-.063-.08-.1-.118l-.074-.079a2.127,2.127,0,0,0-.561-.412c-.036-.018-.072-.035-.108-.051l-.028-.012-.081-.033-.037-.013c-.024-.009-.049-.017-.073-.025l-.04-.012-.072-.019-.022-.006h0a2.145,2.145,0,0,0-2.42,1.11l-9.286,18.279a2.132,2.132,0,0,0-.17,1.481h0c0,.007,0,.015.006.022s.011.043.017.065.008.027.012.04l.022.066.013.036c.008.022.017.044.026.066l.015.037c.01.024.02.047.031.07l.013.029c.013.028.028.054.042.081l.008.016c.017.032.037.064.056.1l0,0c.018.03.038.059.058.088l.018.026c.016.021.03.042.046.063l.024.03.045.055.029.033.044.048.032.033.047.046.033.031.051.044.035.029.053.042.036.027.058.04.037.025.064.04.033.02q.05.029.1.055c.058.029.118.056.177.08a1.947,1.947,0,0,0,.241.08,2.033,2.033,0,0,0,.367.064c.041,0,.082.006.122.007h.062a2.17,2.17,0,0,0,.219-.011,2.339,2.339,0,0,0,.287-.049l.07-.018a2.2,2.2,0,0,0,.234-.08,2.062,2.062,0,0,0,.4-.215c.051-.034.1-.071.146-.109a2.131,2.131,0,0,0,.556-.69l9.286-18.279c.017-.033.032-.066.048-.1a2.119,2.119,0,0,0,.185-.825c0-.035,0-.069,0-.1A2.16,2.16,0,0,0,134.084,155.137Z" transform="translate(-120.619 -153.661)" fill="#e7ad27"/>
        </g>
      </g>
      <g id="Group_393" data-name="Group 393" transform="translate(15.48 8.957)">
        <g id="Group_392" data-name="Group 392">
          <g id="Group_388" data-name="Group 388">
            <g id="Group_383" data-name="Group 383" transform="translate(0 0.001)">
              <g id="Group_382" data-name="Group 382">
                <path id="Path_927" data-name="Path 927" d="M115,174.223a2.133,2.133,0,0,1-1.515-.628l-9.139-9.139a2.142,2.142,0,0,1,0-3.03l9.139-9.14a2.143,2.143,0,1,1,3.032,3.031l-7.624,7.624,7.624,7.624A2.142,2.142,0,0,1,115,174.223Z" transform="translate(-103.717 -151.659)" fill="#1caee4"/>
              </g>
            </g>
            <g id="Group_384" data-name="Group 384" transform="translate(2.47 0.001)">
              <path id="Path_928" data-name="Path 928" d="M109.107,162.942l7.624-7.624a2.143,2.143,0,0,0-2.867-3.179c.056.046.111.1.164.148a2.144,2.144,0,0,1,0,3.031l-7.624,7.624,7.624,7.624a2.143,2.143,0,0,1,0,3.031c-.052.052-.108.1-.164.148a2.143,2.143,0,0,0,2.866-3.179Z" transform="translate(-106.404 -151.659)" fill="#009add"/>
            </g>
            <g id="Group_386" data-name="Group 386" transform="translate(31.217)">
              <g id="Group_385" data-name="Group 385">
                <path id="Path_929" data-name="Path 929" d="M139.821,174.223a2.143,2.143,0,0,1-1.515-3.659l7.624-7.624-7.624-7.624a2.143,2.143,0,0,1,3.032-3.031l9.14,9.14a2.143,2.143,0,0,1,0,3.03l-9.14,9.139A2.131,2.131,0,0,1,139.821,174.223Z" transform="translate(-137.678 -151.658)" fill="#1caee4"/>
              </g>
            </g>
            <g id="Group_387" data-name="Group 387" transform="translate(31.218 0)">
              <path id="Path_930" data-name="Path 930" d="M141.009,173.6a2.143,2.143,0,0,1,0-3.031l7.624-7.624-7.624-7.624a2.144,2.144,0,0,1,0-3.031c.052-.052.108-.1.164-.148a2.143,2.143,0,0,0-2.867,3.179l7.624,7.624-7.624,7.624a2.143,2.143,0,0,0,2.866,3.179A1.9,1.9,0,0,1,141.009,173.6Z" transform="translate(-137.679 -151.658)" fill="#009add"/>
            </g>
          </g>
          <g id="Group_390" data-name="Group 390" transform="translate(15.535 0.001)">
            <g id="Group_389" data-name="Group 389">
              <path id="Path_931" data-name="Path 931" d="M122.759,174.224a2.143,2.143,0,0,1-1.908-3.113l9.286-18.279a2.143,2.143,0,0,1,3.822,1.94l-9.286,18.279A2.148,2.148,0,0,1,122.759,174.224Z" transform="translate(-120.618 -151.659)" fill="#1caee4"/>
            </g>
          </g>
          <g id="Group_391" data-name="Group 391" transform="translate(15.597 0.063)">
            <path id="Path_932" data-name="Path 932" d="M133.023,151.9a2.107,2.107,0,0,0-.461-.171,2.133,2.133,0,0,1-.171,1.481L123.1,171.486a2.141,2.141,0,0,1-2.419,1.111,2.142,2.142,0,0,0,3.991.461l9.286-18.279A2.142,2.142,0,0,0,133.023,151.9Z" transform="translate(-120.685 -151.726)" fill="#009add"/>
          </g>
        </g>
      </g>
    </g>
  </g>
</svg>
