<svg xmlns="http://www.w3.org/2000/svg" width="35.3" height="35" viewBox="0 0 35.3 35"><defs><style>.a{fill:#fff;}</style></defs><path class="a" d="M25.785,35a9.469,9.469,0,0,1-5.317-1.61A16.306,16.306,0,0,1,6.144,28.908a15.992,15.992,0,0,1-4.521-14.2A9.276,9.276,0,0,1,0,9.433,9.532,9.532,0,0,1,14.832,1.61,16.208,16.208,0,0,1,33.676,20.294,9.276,9.276,0,0,1,35.3,25.566,9.485,9.485,0,0,1,25.785,35ZM21.64,30.856a6.769,6.769,0,0,0,10.9-5.29,6.6,6.6,0,0,0-1.421-4.111,1.357,1.357,0,0,1-.26-1.127A13.473,13.473,0,0,0,14.8,4.4a1.388,1.388,0,0,1-1.137-.258,6.769,6.769,0,0,0-10.9,5.29,6.6,6.6,0,0,0,1.421,4.111,1.357,1.357,0,0,1,.26,1.127A13.473,13.473,0,0,0,20.5,30.6a1.388,1.388,0,0,1,1.137.258Zm2.813-9.323c0-3.692-4.707-4.82-5.761-5.141-2.183-.664-5.087-1.4-5.087-2.925,0-1.445,1.852-2.666,4.045-2.666a4.272,4.272,0,0,1,3.868,1.9,1.384,1.384,0,0,0,1.835.654,1.362,1.362,0,0,0,.659-1.82c-1.085-2.282-3.783-3.473-6.362-3.473-4.012,0-6.8,2.587-6.8,5.4,0,3.692,4.707,4.82,5.761,5.141,2.183.664,5.087,1.4,5.087,2.925,0,1.445-1.852,2.666-4.045,2.666a4.272,4.272,0,0,1-3.868-1.9,1.384,1.384,0,0,0-1.835-.654,1.362,1.362,0,0,0-.659,1.82c1.085,2.282,3.783,3.473,6.362,3.473,4.012,0,6.8-2.587,6.8-5.4Zm0,0" transform="translate(0)"/></svg>