<svg id="skype" xmlns="http://www.w3.org/2000/svg" width="15.3" height="15" viewBox="0 0 15.3 15">
  <path id="skype-2" data-name="skype" d="M11.176,15a4.138,4.138,0,0,1-2.3-.69,7.119,7.119,0,0,1-6.208-1.921A6.805,6.805,0,0,1,.7,6.3,3.944,3.944,0,0,1,0,4.043,4.089,4.089,0,0,1,4.124,0a4.137,4.137,0,0,1,2.3.69A6.986,6.986,0,0,1,14.6,8.7a3.944,3.944,0,0,1,.7,2.259A4.089,4.089,0,0,1,11.176,15Zm-1.8-1.776a2.937,2.937,0,0,0,1.8.6A2.9,2.9,0,0,0,14.1,10.957,2.807,2.807,0,0,0,13.488,9.2a.577.577,0,0,1-.113-.483A5.808,5.808,0,0,0,6.413,1.886a.607.607,0,0,1-.493-.11,2.937,2.937,0,0,0-1.8-.6A2.9,2.9,0,0,0,1.2,4.043,2.807,2.807,0,0,0,1.811,5.8a.577.577,0,0,1,.113.483,5.807,5.807,0,0,0,6.963,6.826.607.607,0,0,1,.493.11Zm1.219-4c0-1.582-2.04-2.066-2.5-2.2-.946-.285-2.2-.6-2.2-1.254,0-.619.8-1.143,1.753-1.143a1.858,1.858,0,0,1,1.676.816.6.6,0,0,0,.8.28.581.581,0,0,0,.286-.78A3.019,3.019,0,0,0,7.65,3.457C5.911,3.457,4.7,4.566,4.7,5.771c0,1.582,2.04,2.066,2.5,2.2.946.285,2.2.6,2.2,1.254,0,.619-.8,1.143-1.753,1.143a1.858,1.858,0,0,1-1.676-.816.6.6,0,0,0-.8-.28.581.581,0,0,0-.286.78A3.019,3.019,0,0,0,7.65,11.543c1.739,0,2.948-1.109,2.948-2.314Zm0,0" transform="translate(0)" fill="#162f6a"/>
</svg>
