<svg xmlns="http://www.w3.org/2000/svg" xmlns:xlink="http://www.w3.org/1999/xlink" width="192.031" height="44.862" viewBox="0 0 192.031 44.862"><defs><style>.a{fill:#fe9435;}.b{filter:url(#i);}.c{filter:url(#g);}.d{filter:url(#e);}.e{filter:url(#c);}.f{filter:url(#a);}</style><filter id="a" x="36" y="0" width="46.031" height="44.862" filterUnits="userSpaceOnUse"><feOffset dy="3" input="SourceAlpha"/><feGaussianBlur stdDeviation="3" result="b"/><feFlood flood-opacity="0.161"/><feComposite operator="in" in2="b"/><feComposite in="SourceGraphic"/></filter><filter id="c" x="0" y="0" width="46.031" height="44.862" filterUnits="userSpaceOnUse"><feOffset dy="3" input="SourceAlpha"/><feGaussianBlur stdDeviation="3" result="d"/><feFlood flood-opacity="0.161"/><feComposite operator="in" in2="d"/><feComposite in="SourceGraphic"/></filter><filter id="e" x="74" y="0" width="46.031" height="44.862" filterUnits="userSpaceOnUse"><feOffset dy="3" input="SourceAlpha"/><feGaussianBlur stdDeviation="3" result="f"/><feFlood flood-opacity="0.161"/><feComposite operator="in" in2="f"/><feComposite in="SourceGraphic"/></filter><filter id="g" x="110" y="0" width="46.031" height="44.862" filterUnits="userSpaceOnUse"><feOffset dy="3" input="SourceAlpha"/><feGaussianBlur stdDeviation="3" result="h"/><feFlood flood-opacity="0.161"/><feComposite operator="in" in2="h"/><feComposite in="SourceGraphic"/></filter><filter id="i" x="146" y="0" width="46.031" height="44.862" filterUnits="userSpaceOnUse"><feOffset dy="3" input="SourceAlpha"/><feGaussianBlur stdDeviation="3" result="j"/><feFlood flood-opacity="0.161"/><feComposite operator="in" in2="j"/><feComposite in="SourceGraphic"/></filter></defs><g transform="translate(9 6)"><g class="f" transform="matrix(1, 0, 0, 1, -9, -6)"><path class="a" d="M27.957,10.646a1.488,1.488,0,0,0-1.281-1.023l-8.092-.735L15.386,1.4a1.49,1.49,0,0,0-2.741,0l-3.2,7.487-8.093.735A1.492,1.492,0,0,0,.507,12.23l6.117,5.364-1.8,7.943a1.49,1.49,0,0,0,2.217,1.611l6.978-4.172,6.976,4.172a1.491,1.491,0,0,0,2.218-1.611l-1.8-7.943,6.117-5.364a1.492,1.492,0,0,0,.435-1.584ZM14.149,22.895" transform="translate(45 5.5)"/></g><g class="e" transform="matrix(1, 0, 0, 1, -9, -6)"><path class="a" d="M27.957,10.646a1.488,1.488,0,0,0-1.281-1.023l-8.092-.735L15.386,1.4a1.49,1.49,0,0,0-2.741,0l-3.2,7.487-8.093.735A1.492,1.492,0,0,0,.507,12.23l6.117,5.364-1.8,7.943a1.49,1.49,0,0,0,2.217,1.611l6.978-4.172,6.976,4.172a1.491,1.491,0,0,0,2.218-1.611l-1.8-7.943,6.117-5.364a1.492,1.492,0,0,0,.435-1.584ZM14.149,22.895" transform="translate(9 5.5)"/></g><g class="d" transform="matrix(1, 0, 0, 1, -9, -6)"><path class="a" d="M27.957,10.646a1.488,1.488,0,0,0-1.281-1.023l-8.092-.735L15.386,1.4a1.49,1.49,0,0,0-2.741,0l-3.2,7.487-8.093.735A1.492,1.492,0,0,0,.507,12.23l6.117,5.364-1.8,7.943a1.49,1.49,0,0,0,2.217,1.611l6.978-4.172,6.976,4.172a1.491,1.491,0,0,0,2.218-1.611l-1.8-7.943,6.117-5.364a1.492,1.492,0,0,0,.435-1.584ZM14.149,22.895" transform="translate(83 5.5)"/></g><g class="c" transform="matrix(1, 0, 0, 1, -9, -6)"><path class="a" d="M27.957,10.646a1.488,1.488,0,0,0-1.281-1.023l-8.092-.735L15.386,1.4a1.49,1.49,0,0,0-2.741,0l-3.2,7.487-8.093.735A1.492,1.492,0,0,0,.507,12.23l6.117,5.364-1.8,7.943a1.49,1.49,0,0,0,2.217,1.611l6.978-4.172,6.976,4.172a1.491,1.491,0,0,0,2.218-1.611l-1.8-7.943,6.117-5.364a1.492,1.492,0,0,0,.435-1.584ZM14.149,22.895" transform="translate(119 5.5)"/></g><g class="b" transform="matrix(1, 0, 0, 1, -9, -6)"><path class="a" d="M27.957,10.646a1.488,1.488,0,0,0-1.281-1.023l-8.092-.735L15.386,1.4a1.49,1.49,0,0,0-2.741,0l-3.2,7.487-8.093.735A1.492,1.492,0,0,0,.507,12.23l6.117,5.364-1.8,7.943a1.49,1.49,0,0,0,2.217,1.611l6.978-4.172,6.976,4.172a1.491,1.491,0,0,0,2.218-1.611l-1.8-7.943,6.117-5.364a1.492,1.492,0,0,0,.435-1.584ZM14.149,22.895" transform="translate(155 5.5)"/></g></g></svg>