<svg xmlns="http://www.w3.org/2000/svg" width="34.465" height="62.18" viewBox="0 0 34.465 62.18"><defs><style>.a{fill:#fff;}</style></defs><g transform="translate(0)"><path class="a" d="M142.438,42.4V39.791a1.21,1.21,0,0,0,1.316-.683l.6-1.292.558.258a1.214,1.214,0,0,0,1.613-.591l1.935-4.176a1.214,1.214,0,0,0-.591-1.613l-.558-.258.6-1.292a1.214,1.214,0,0,0-.591-1.613l-4.88-2.261V25.8a3.364,3.364,0,0,0-3.36-3.36h-.112a4.091,4.091,0,0,0,.551-2.043V17.5l1.8-5.5a1.214,1.214,0,0,0-2.308-.757l-.307.936a5.363,5.363,0,0,1-2.942-.633V9.5a1.214,1.214,0,0,0-2.429,0v2.043a5.363,5.363,0,0,1-2.942.633l-.307-.936A1.214,1.214,0,0,0,127.78,12l1.8,5.5v2.9a4.077,4.077,0,0,0,.458,1.873l-1.469-.436-6.6-11.651V8.97h.207a1.214,1.214,0,0,0,.225-2.407,3.955,3.955,0,0,0,.324-1.571V1.214A1.214,1.214,0,0,0,121.514,0H118.75a3.983,3.983,0,0,0-3.978,3.978V4.991a3.955,3.955,0,0,0,.324,1.571,1.214,1.214,0,0,0,.225,2.407h.171v4.015a1.214,1.214,0,0,0,1.214,1.214h.829v1.588a1.213,1.213,0,0,0,2.008.918l5.241,10.846-.335.933a1.214,1.214,0,0,0,.356,1.335l1.55,1.32c-.261.6-.478,1.266-.715,2l-.014.044a1.213,1.213,0,0,0-.059.375V46.082a1.211,1.211,0,0,0,.716,1.107v9.419a2.79,2.79,0,0,0-2.734,2.785v.358h-2.243a1.214,1.214,0,1,0,0,2.429h25.139a1.214,1.214,0,1,0,0-2.429h-1.989v-.358a2.79,2.79,0,0,0-2.734-2.785v-13.1A1.214,1.214,0,0,0,142.438,42.4Zm2.392-7.038-.557-.258h0l-.474-.219.914-1.972.474.219h0l.558.258Zm-5.752-10.495a.932.932,0,0,1,.931.931v1.95l-3.672,7.924a1.214,1.214,0,0,0,.591,1.613l3,1.391.081.037v2.744L128,44.519V40.91l2.052-.27a11.926,11.926,0,0,0,4.493-1.539,1.214,1.214,0,1,0-1.228-2.1,9.51,9.51,0,0,1-3.583,1.227L128,38.46V37.312A12.132,12.132,0,0,0,138.654,25.33v-.465h.424ZM136.64,50.36a1.214,1.214,0,0,0-1.214,1.214v5.033H134.12V53.87a1.214,1.214,0,0,0-2.429,0v2.736h-2.979V46.843l10.581-2.7V56.607h-1.439V51.574A1.214,1.214,0,0,0,136.64,50.36Zm-2.089-27.923a2.363,2.363,0,0,1-2.537-2.042V18.379h5.075v2.015A2.362,2.362,0,0,1,134.551,22.436Zm0-8.777a6.971,6.971,0,0,0,3.369.914l-.452,1.377h-5.835l-.452-1.377A6.973,6.973,0,0,0,134.551,13.659Zm-7.308,14.233h0l1.272-3.545,1.579.468a1.213,1.213,0,0,0,.345.05h5.786v.465A9.692,9.692,0,0,1,128,34.862V33.746a10.619,10.619,0,0,1,.905-2.25,1.215,1.215,0,0,0-.235-1.58l-1.646-1.4Zm-7.7-17.391V11.77h-1.622v-2.8h1.622Zm.756-5.51a1.549,1.549,0,1,1-3.1,0V3.978a1.551,1.551,0,0,1,1.549-1.549H120.3Zm5.634,19.356-5.018-10.386,0,0,.044-.026c.039-.022.077-.045.115-.07.02-.013.039-.028.058-.042s.051-.035.076-.055l5.215,9.2Zm16.094,35.046v.358h-16.05v-.358a.363.363,0,0,1,.358-.358h15.334A.363.363,0,0,1,142.027,59.393Zm-2.976-23.8,3.133-6.76,3.01,1.395-.091.2-.013,0-.048-.015c-.042-.014-.085-.026-.128-.037l-.054-.012c-.042-.009-.084-.017-.126-.023l-.052-.007q-.065-.008-.131-.011l-.048,0c-.045,0-.09,0-.135,0l-.043,0c-.046,0-.092.009-.138.016l-.04.005c-.047.008-.093.018-.139.029l-.036.008c-.057.015-.114.033-.17.053s-.115.045-.17.072-.091.047-.136.073l-.025.014q-.079.047-.152.1h0q-.075.055-.143.117c-.043.039-.085.081-.124.124l-.008.008c-.037.041-.071.084-.1.128l-.015.019c-.032.043-.061.088-.089.134l-.016.025c-.033.055-.063.112-.09.171l-.676,1.459-.676,1.459-.007.018c-.024.052-.045.1-.064.158-.007.021-.012.042-.019.063-.012.038-.024.077-.034.116s-.01.049-.014.073-.015.072-.02.108-.005.052-.008.077-.007.069-.009.1,0,.053,0,.08,0,.067,0,.1,0,.053.007.08.006.066.011.1.009.053.014.08.012.064.02.1.014.053.021.079.018.062.029.092.019.052.029.077.024.059.037.088.023.05.036.075.03.056.045.084.028.048.043.072.035.053.053.079.032.046.049.068.04.05.061.074.036.043.056.064.045.046.069.069.04.04.062.059.051.042.077.063.044.036.067.052.057.039.087.057.045.031.069.045l.01.006-.091.2-.327-.151h0Z" transform="translate(-114.107)"/></g><g transform="translate(21.319 46.77)"><g transform="translate(0)"><path class="a" d="M290.862,385.11a1.214,1.214,0,0,0-1.214,1.214v.058a1.214,1.214,0,1,0,2.429,0v-.058A1.214,1.214,0,0,0,290.862,385.11Z" transform="translate(-289.648 -385.11)"/></g></g></svg>