<svg id="statistics" xmlns="http://www.w3.org/2000/svg" width="26.078" height="26.078" viewBox="0 0 26.078 26.078">
  <path id="Path_683" data-name="Path 683" d="M32.3,9.971a2.3,2.3,0,0,0,2.074-3.3l2.578-2.616a2.3,2.3,0,0,0,3.075-.1l2.345,2.267a2.3,2.3,0,1,0,4.5.73l2.217-1.489a2.3,2.3,0,1,0-.669-1.4L46.359,5.454a2.3,2.3,0,0,0-3.06-.466L40.728,2.5a2.3,2.3,0,1,0-4.562.167L33.288,5.592A2.3,2.3,0,1,0,32.3,9.971Zm18.408-6.9a.767.767,0,1,1-.767.767A.768.768,0,0,1,50.709,3.068ZM44.573,6.136a.767.767,0,1,1-.767.767A.768.768,0,0,1,44.573,6.136Zm-6.136-4.6a.767.767,0,1,1-.767.767A.768.768,0,0,1,38.437,1.534ZM32.3,6.9a.767.767,0,1,1-.767.767A.768.768,0,0,1,32.3,6.9Z" transform="translate(-28.466)" fill="#162f6a"/>
  <path id="Path_684" data-name="Path 684" d="M24.544,166.874V152.3h-4.6v14.573H18.408V154.6h-4.6v12.272H12.272V150H7.67v16.874H6.136V156.136h-4.6v10.738H0v1.534H26.078v-1.534Zm-21.476,0v-9.2H4.6v9.2Zm6.136,0v-15.34h1.534v15.34Zm6.136,0V156.136h1.534v10.738Zm6.136,0V153.835H23.01v13.039Z" transform="translate(0 -142.33)" fill="#162f6a"/>
</svg>
