<svg xmlns="http://www.w3.org/2000/svg" width="11.482" height="13.703" viewBox="0 0 11.482 13.703"><defs><style>.a{fill:#162f6a;stroke:#162f6a;stroke-width:0.3px;}</style></defs><g transform="translate(0.15 0.15)"><path class="a" d="M90.26,6.456a3.124,3.124,0,0,0,2.283-.946,3.124,3.124,0,0,0,.946-2.282A3.124,3.124,0,0,0,92.542.946a3.227,3.227,0,0,0-4.565,0,3.124,3.124,0,0,0-.946,2.282,3.124,3.124,0,0,0,.946,2.283A3.125,3.125,0,0,0,90.26,6.456ZM88.533,1.5a2.442,2.442,0,0,1,3.454,0A2.334,2.334,0,0,1,92.7,3.228a2.334,2.334,0,0,1-.716,1.727,2.442,2.442,0,0,1-3.454,0,2.333,2.333,0,0,1-.716-1.727A2.334,2.334,0,0,1,88.533,1.5Zm0,0" transform="translate(-84.754)"/><path class="a" d="M11.155,251.148a7.972,7.972,0,0,0-.109-.847,6.674,6.674,0,0,0-.208-.852,4.207,4.207,0,0,0-.35-.794,2.994,2.994,0,0,0-.528-.688,2.327,2.327,0,0,0-.758-.476,2.62,2.62,0,0,0-.968-.175.983.983,0,0,0-.525.222c-.157.1-.341.221-.547.352a3.133,3.133,0,0,1-.707.312,2.746,2.746,0,0,1-1.73,0,3.123,3.123,0,0,1-.707-.311c-.2-.13-.387-.249-.547-.353a.982.982,0,0,0-.524-.223,2.617,2.617,0,0,0-.968.175,2.325,2.325,0,0,0-.758.476,2.994,2.994,0,0,0-.528.688,4.213,4.213,0,0,0-.35.794,6.688,6.688,0,0,0-.208.851,7.919,7.919,0,0,0-.109.847c-.018.256-.027.522-.027.791a2.225,2.225,0,0,0,.661,1.684,2.379,2.379,0,0,0,1.7.621H8.817a2.379,2.379,0,0,0,1.7-.621,2.225,2.225,0,0,0,.661-1.684c0-.27-.009-.536-.027-.792Zm-1.176,1.906a1.6,1.6,0,0,1-1.162.4H2.364a1.6,1.6,0,0,1-1.162-.4,1.453,1.453,0,0,1-.417-1.115c0-.251.008-.5.025-.737a7.143,7.143,0,0,1,.1-.763,5.9,5.9,0,0,1,.183-.751,3.43,3.43,0,0,1,.285-.646,2.219,2.219,0,0,1,.388-.508,1.544,1.544,0,0,1,.5-.314,1.807,1.807,0,0,1,.619-.119c.028.015.076.043.156.094.161.105.348.225.553.357a3.891,3.891,0,0,0,.888.4,3.531,3.531,0,0,0,2.213,0,3.9,3.9,0,0,0,.888-.4c.211-.135.391-.251.553-.356.079-.052.128-.08.156-.094a1.808,1.808,0,0,1,.619.119,1.546,1.546,0,0,1,.5.314,2.213,2.213,0,0,1,.388.508,3.419,3.419,0,0,1,.285.646,5.886,5.886,0,0,1,.183.751,7.2,7.2,0,0,1,.1.763h0c.017.237.025.485.025.737a1.453,1.453,0,0,1-.417,1.115Zm0,0" transform="translate(0 -240.842)"/></g></svg>