<svg xmlns="http://www.w3.org/2000/svg" width="48.308" height="48.308" viewBox="0 0 48.308 48.308"><defs><style>.a{fill:#fe9435;stroke:#fe9435;stroke-width:0.2px;}</style></defs><g transform="translate(0.1 0.1)"><path class="a" d="M17.6,27.214a1.813,1.813,0,0,0,.2.011H49.475a1.814,1.814,0,0,0,.2-.011v.813h1.6V17.8a1.806,1.806,0,0,0-1.8-1.8H17.8A1.806,1.806,0,0,0,16,17.8V30.432h1.6Zm0-9.41a.2.2,0,0,1,.2-.2H49.475a.2.2,0,0,1,.2.2v7.617a.2.2,0,0,1-.2.2H17.8a.2.2,0,0,1-.2-.2Z" transform="translate(-16 -16)"/><path class="a" d="M88.6,177.936a12.83,12.83,0,1,0-4.918,5.722l-.856-1.356a11.209,11.209,0,1,1,4.305-5.008Z" transform="translate(-59.203 -145.542)"/><path class="a" d="M163.207,46.414A3.207,3.207,0,1,0,160,43.207,3.207,3.207,0,0,0,163.207,46.414Zm0-4.811a1.6,1.6,0,1,1-1.6,1.6A1.6,1.6,0,0,1,163.207,41.6Z" transform="translate(-145.567 -37.594)"/><path class="a" d="M136,80h1.6v1.6H136Z" transform="translate(-123.973 -73.585)"/><path class="a" d="M136,48h1.6v1.6H136Z" transform="translate(-123.973 -44.792)"/><path class="a" d="M232,80h1.6v1.6H232Z" transform="translate(-210.352 -73.585)"/><path class="a" d="M232,48h1.6v1.6H232Z" transform="translate(-210.352 -44.792)"/><path class="a" d="M256.8,46.414h7.216a.8.8,0,0,0,.8-.8V40.8a.8.8,0,0,0-.8-.8H256.8a.8.8,0,0,0-.8.8v4.811A.8.8,0,0,0,256.8,46.414Zm.8-4.811h5.613v3.207H257.6Z" transform="translate(-231.946 -37.594)"/><path class="a" d="M50.806,52.811h2.405A2.809,2.809,0,0,0,56.018,50V48.8a.8.8,0,0,0-.8-.8H48.8a.8.8,0,0,0-.8.8V50A2.809,2.809,0,0,0,50.806,52.811ZM49.6,49.6h4.811V50a1.2,1.2,0,0,1-1.2,1.2H50.806A1.2,1.2,0,0,1,49.6,50Z" transform="translate(-44.793 -44.792)"/><path class="a" d="M296,144h4.009v1.6H296Z" transform="translate(-267.937 -131.171)"/><path class="a" d="M224,304h1.6v1.6H224Z" transform="translate(-203.153 -275.135)"/><path class="a" d="M200,336h1.6v1.6H200Z" transform="translate(-181.559 -303.928)"/><path class="a" d="M152,328h1.6v1.6H152Z" transform="translate(-138.369 -296.729)"/><path class="a" d="M105.622,192a9.622,9.622,0,1,0,9.622,9.622A9.622,9.622,0,0,0,105.622,192Zm0,1.6a8.033,8.033,0,0,1,7.685,5.728,8.588,8.588,0,0,0-1.834-.167,8.087,8.087,0,0,0-5.552,2.233,6.488,6.488,0,0,1-4.562,1.878,5.891,5.891,0,0,1-3.738-1.141q-.016-.255-.016-.514A8.027,8.027,0,0,1,105.622,193.6Zm0,16.036a8.032,8.032,0,0,1-7.585-5.418,7.6,7.6,0,0,0,3.234.659h.1a8.087,8.087,0,0,0,5.553-2.234,6.766,6.766,0,0,1,6.695-1.573q.018.271.019.547A8.027,8.027,0,0,1,105.622,209.64Z" transform="translate(-87.982 -174.36)"/><path class="a" d="M61.3,172.045H59.286a1.816,1.816,0,0,0,.011-.2V159.016a3.815,3.815,0,0,0-3.207-3.761V153.8a1.806,1.806,0,0,0-1.8-1.8H51.48a1.806,1.806,0,0,0-1.8,1.8v2.016l-1.1,2.191a4.837,4.837,0,0,0-.508,2.151v11.682a1.815,1.815,0,0,0,.011.2H44.464a2.809,2.809,0,0,0-2.806,2.806v2.405a2.8,2.8,0,0,0,.844,2,2.8,2.8,0,0,0-.844,2v2.405a2.79,2.79,0,0,0,.271,1.2h-13.1v-4.009a.8.8,0,0,0-.8-.8H20.009a.8.8,0,0,0-.8.8v4.009H17.8a.2.2,0,0,1-.2-.2V154.405H16v30.268a1.806,1.806,0,0,0,1.8,1.8h39.89v-1.6H44.464a1.2,1.2,0,0,1-1.2-1.2v-2.405a1.2,1.2,0,0,1,1.2-1.2H61.3a1.2,1.2,0,0,1,1.2,1.2v2.405a1.2,1.2,0,0,1-1.2,1.2h-2v1.6h2a2.809,2.809,0,0,0,2.806-2.806v-2.405a2.8,2.8,0,0,0-.844-2,2.8,2.8,0,0,0,.844-2v-2.405a2.809,2.809,0,0,0-2.806-2.806ZM20.811,184.874v-3.207h2.405v1.6h1.6v-1.6h2.405v3.207Zm28.865-19.243h8.018v3.207H49.676Zm8.018-6.615v1.8h-.4a1.2,1.2,0,0,1-1.2-1.2v-2.723a2.209,2.209,0,0,1,1.6,2.122ZM51.279,153.8a.2.2,0,0,1,.2-.2h2.806a.2.2,0,0,1,.2.2v1.4H51.279Zm-1.265,4.924.959-1.917h3.513v2.806a2.809,2.809,0,0,0,2.806,2.806h.4v1.6H49.676v-3.864A3.224,3.224,0,0,1,50.014,158.728Zm-.339,13.116v-1.4h8.018v1.4a.2.2,0,0,1-.2.2H49.876A.2.2,0,0,1,49.676,171.845Zm-5.212,6.615a1.2,1.2,0,0,1-1.2-1.2v-2.405a1.2,1.2,0,0,1,1.2-1.2H61.3a1.2,1.2,0,0,1,1.2,1.2v2.405a1.2,1.2,0,0,1-1.2,1.2Z" transform="translate(-16 -138.369)"/><path class="a" d="M384.417,20.312l1.608.879L386.9,22.8a.8.8,0,0,0,1.407,0l.879-1.608,1.608-.879a.8.8,0,0,0,0-1.407l-1.608-.879-.879-1.608a.8.8,0,0,0-1.407,0l-.879,1.608-1.608.879a.8.8,0,0,0,0,1.407ZM387,19.32a.8.8,0,0,0,.319-.319l.289-.528L387.9,19a.8.8,0,0,0,.319.319l.528.289-.528.289a.8.8,0,0,0-.319.319l-.289.528-.289-.528A.8.8,0,0,0,387,19.9l-.528-.289Z" transform="translate(-347.116 -16)"/><path class="a" d="M426.9,96.417l-.88,1.608-1.608.879a.8.8,0,0,0,0,1.407l1.608.879.88,1.608a.8.8,0,0,0,1.407,0l.88-1.608,1.608-.879a.8.8,0,0,0,0-1.407l-1.608-.879-.88-1.608a.8.8,0,0,0-1.407,0ZM427.319,99l.289-.528L427.9,99a.8.8,0,0,0,.319.319l.528.289-.528.289a.8.8,0,0,0-.319.319l-.289.528-.289-.528A.8.8,0,0,0,427,99.9l-.528-.289L427,99.32a.8.8,0,0,0,.319-.319Z" transform="translate(-383.107 -87.982)"/></g></svg>