<svg xmlns="http://www.w3.org/2000/svg" width="30.153" height="30.153" viewBox="0 0 30.153 30.153"><defs><style>.a{fill:#162f6a;}</style></defs><path class="a" d="M28.387,4.711H26.973V1.767A1.769,1.769,0,0,0,25.206,0H4.947A1.769,1.769,0,0,0,3.18,1.767V4.711H1.767A1.769,1.769,0,0,0,0,6.478V23.439a1.769,1.769,0,0,0,1.767,1.767H12.132V26.62h-1.12a1.769,1.769,0,0,0-1.767,1.767v1.178a.589.589,0,0,0,.589.589H20.32a.589.589,0,0,0,.589-.589V28.386a1.769,1.769,0,0,0-1.767-1.767h-1.12V25.206H28.387a1.769,1.769,0,0,0,1.767-1.767V6.478A1.769,1.769,0,0,0,28.387,4.711Zm0,1.178a.59.59,0,0,1,.589.589V20.024h-2V5.889ZM4.947,1.178H25.206a.59.59,0,0,1,.589.589V4.711H4.358V1.767A.59.59,0,0,1,4.947,1.178ZM1.767,5.889H3.18v4.416a.589.589,0,0,0,1.178,0V5.889H25.8V20.024h-3V18.083a.589.589,0,0,0-.589-.589h-.766a6.553,6.553,0,0,0-.553-1.333l.542-.542a.589.589,0,0,0,0-.833L19.638,13a.589.589,0,0,0-.833,0l-.542.542a6.548,6.548,0,0,0-1.333-.553v-.766a.589.589,0,0,0-.589-.589H13.812a.589.589,0,0,0-.589.589v.766a6.552,6.552,0,0,0-1.333.553L11.348,13a.589.589,0,0,0-.833,0L8.727,14.786a.589.589,0,0,0,0,.833l.542.542a6.551,6.551,0,0,0-.553,1.333H7.951a.589.589,0,0,0-.589.589v1.941h-3V15.606a.589.589,0,0,0-1.178,0v4.417h-2V6.478a.59.59,0,0,1,.589-.589Zm8.66,9.763-.45-.45.955-.955.45.45a.589.589,0,0,0,.737.078,5.394,5.394,0,0,1,1.816-.753.589.589,0,0,0,.466-.576V12.81h1.351v.636a.589.589,0,0,0,.466.576,5.394,5.394,0,0,1,1.816.753.589.589,0,0,0,.737-.078l.45-.45.955.955-.45.45a.589.589,0,0,0-.078.737,5.4,5.4,0,0,1,.753,1.816.589.589,0,0,0,.576.466h.636v1.352H17.942a2.945,2.945,0,1,0-5.731,0H8.54V18.672h.636a.589.589,0,0,0,.576-.466,5.394,5.394,0,0,1,.753-1.816.589.589,0,0,0-.078-.737Zm2.883,3.695a1.767,1.767,0,1,1,3.4.676H13.446A1.757,1.757,0,0,1,13.31,19.347Zm6.421,9.039v.589H10.423v-.589a.59.59,0,0,1,.589-.589h8.13A.59.59,0,0,1,19.731,28.386ZM16.843,26.62H13.31V25.206h3.534Zm11.543-2.591H1.767a.59.59,0,0,1-.589-.589V21.2h27.8v2.238A.59.59,0,0,1,28.387,24.028Z"/><path class="a" d="M276.745,41.49h8.048a.745.745,0,0,0,0-1.49h-8.048a.745.745,0,1,0,0,1.49Z" transform="translate(-261.183 -37.019)"/><path class="a" d="M152.745,41.49a.745.745,0,1,0-.527-.218A.751.751,0,0,0,152.745,41.49Z" transform="translate(-143.144 -37.019)"/><path class="a" d="M108.745,41.49a.745.745,0,1,0-.527-.218A.751.751,0,0,0,108.745,41.49Z" transform="translate(-101.708 -37.019)"/><path class="a" d="M196.745,41.49a.745.745,0,1,0-.527-.218A.751.751,0,0,0,196.745,41.49Z" transform="translate(-184.581 -37.019)"/><path class="a" d="M102.745,129.488h1.773a.745.745,0,1,0,0-1.49h-1.773a.745.745,0,1,0,0,1.49Z" transform="translate(-96.142 -120.541)"/><path class="a" d="M170.543,129.488h6.836a.745.745,0,1,0,0-1.49h-6.836a.745.745,0,1,0,0,1.49Z" transform="translate(-160.538 -120.541)"/><path class="a" d="M102.745,177.486h4.322a.745.745,0,0,0,0-1.49h-4.322a.745.745,0,1,0,0,1.49Z" transform="translate(-96.28 -165.743)"/><path class="a" d="M306.281,129.488h6.294a.745.745,0,0,0,0-1.49h-6.294a.745.745,0,0,0,0,1.49Z" transform="translate(-288.765 -120.541)"/><path class="a" d="M327.406,176h-5.1a.745.745,0,0,0,0,1.49h5.1a.745.745,0,0,0,0-1.49Z" transform="translate(-303.672 -165.743)"/><path class="a" d="M54.745,211.48a.745.745,0,1,0-.527-.218A.751.751,0,0,0,54.745,211.48Z" transform="translate(-49.976 -197.756)"/></svg>