<svg xmlns="http://www.w3.org/2000/svg" width="20.181" height="23.907" viewBox="0 0 20.181 23.907"><defs><style>.a{fill:#fff;}</style></defs><path class="a" d="M26.9,39.588a2.549,2.549,0,0,0-2.182-1.983,67.8,67.8,0,0,0-7.556-.279,67.826,67.826,0,0,0-7.558.279,2.549,2.549,0,0,0-2.18,1.983,21.608,21.608,0,0,0-.356,4.771,21.6,21.6,0,0,0,.352,4.77A2.549,2.549,0,0,0,9.6,51.112a67.808,67.808,0,0,0,7.557.28,67.759,67.759,0,0,0,7.557-.28A2.549,2.549,0,0,0,26.9,49.129a21.621,21.621,0,0,0,.353-4.77A21.636,21.636,0,0,0,26.9,39.588ZM12.823,40.773H11.363v7.762H10.006V40.773H8.572V39.5h4.251Zm3.685,7.762h-1.22V47.8a1.955,1.955,0,0,1-1.394.827.748.748,0,0,1-.786-.5,3.435,3.435,0,0,1-.108-1V41.8h1.219v4.955a3.8,3.8,0,0,0,.011.474c.029.189.122.285.285.285.245,0,.5-.189.771-.571V41.8h1.22v6.731Zm4.633-2.02a5.377,5.377,0,0,1-.123,1.356.966.966,0,0,1-.974.756,1.662,1.662,0,0,1-1.261-.745v.652H17.564V39.5h1.219v2.95a1.652,1.652,0,0,1,1.261-.73.965.965,0,0,1,.974.759,5.169,5.169,0,0,1,.123,1.353Zm4.6-1.123H23.305v1.193c0,.623.2.934.623.934a.524.524,0,0,0,.545-.489A7.673,7.673,0,0,0,24.5,46.2h1.244v.178c0,.393-.015.664-.026.786a1.738,1.738,0,0,1-.285.731,1.688,1.688,0,0,1-1.475.73,1.746,1.746,0,0,1-1.476-.689,2.607,2.607,0,0,1-.392-1.583V44a2.619,2.619,0,0,1,.377-1.586,1.734,1.734,0,0,1,1.461-.69,1.694,1.694,0,0,1,1.439.69A2.645,2.645,0,0,1,25.745,44v1.393Z" transform="translate(-7.067 -27.484)"/><path class="a" d="M69.269,58.163q-.611,0-.612.934v.623h1.219V59.1C69.876,58.474,69.672,58.163,69.269,58.163Z" transform="translate(-52.418 -42.828)"/><path class="a" d="M52.113,58.163a.874.874,0,0,0-.608.3v4.1a.87.87,0,0,0,.608.3c.352,0,.53-.3.53-.908V59.081C52.644,58.474,52.465,58.163,52.113,58.163Z" transform="translate(-39.789 -42.828)"/><path class="a" d="M53.873,15.715a1.98,1.98,0,0,0,1.408-.835v.742h1.233V8.82H55.281v5.2c-.273.386-.532.577-.779.577-.165,0-.262-.1-.289-.289a2.859,2.859,0,0,1-.015-.479V8.82H52.97V14.2a3.437,3.437,0,0,0,.109,1.011A.757.757,0,0,0,53.873,15.715Z" transform="translate(-40.867 -6.495)"/><path class="a" d="M19.069,5.431v3.7h1.367v-3.7L22.08,0H20.7l-.933,3.584L18.8,0H17.357c.288.846.588,1.7.876,2.543A22.484,22.484,0,0,1,19.069,5.431Z" transform="translate(-14.644)"/><path class="a" d="M37.134,15.486a1.68,1.68,0,0,0,1.438-.7,2.661,2.661,0,0,0,.383-1.6V10.808a2.666,2.666,0,0,0-.383-1.6,1.828,1.828,0,0,0-2.873,0,2.644,2.644,0,0,0-.386,1.6V13.19a2.637,2.637,0,0,0,.386,1.6A1.68,1.68,0,0,0,37.134,15.486Zm-.588-4.925c0-.629.191-.943.588-.943s.588.313.588.943v2.861c0,.629-.19.944-.588.944s-.588-.315-.588-.944Z" transform="translate(-27.866 -6.265)"/></svg>