<svg xmlns="http://www.w3.org/2000/svg" width="40.349" height="48.43" viewBox="0 0 40.349 48.43"><defs><style>.a{fill:#4caf50;}.b{fill:#fafafa;}</style></defs><path class="a" d="M45.753,170.787a3.026,3.026,0,0,0-3.026,3.026v14.122a3.026,3.026,0,0,0,6.052,0V173.813A3.026,3.026,0,0,0,45.753,170.787Z" transform="translate(-42.727 -154.636)"/><path class="a" d="M408.419,170.787a3.026,3.026,0,0,0-3.026,3.026v14.122a3.026,3.026,0,0,0,6.052,0V173.813A3.026,3.026,0,0,0,408.419,170.787Z" transform="translate(-371.097 -154.636)"/><path class="a" d="M151.26,170.787H129.069a1.009,1.009,0,0,0-1.009,1.009v16.14a5.044,5.044,0,0,0,4.035,4.943v7.162a3.026,3.026,0,1,0,6.052,0v-7.061h4.035v7.061a3.026,3.026,0,1,0,6.052,0v-7.162a5.044,5.044,0,0,0,4.035-4.943V171.8A1.009,1.009,0,0,0,151.26,170.787Z" transform="translate(-119.99 -154.636)"/><path class="a" d="M147.5,4.192l2.459-2.457a1.009,1.009,0,1,0-1.4-1.451l-.025.025-2.865,2.865a13.806,13.806,0,0,0-11,0L131.8.306a1.009,1.009,0,0,0-1.426,1.426l2.457,2.459a10.646,10.646,0,0,0-4.771,8.933,1.009,1.009,0,0,0,1.009,1.009h22.192a1.009,1.009,0,0,0,1.009-1.009A10.646,10.646,0,0,0,147.5,4.192Z" transform="translate(-119.989 0)"/><g transform="translate(14.122 8.081)"><circle class="b" cx="1.009" cy="1.009" r="1.009" transform="translate(0)"/><circle class="b" cx="1.009" cy="1.009" r="1.009" transform="translate(10.087)"/></g></svg>