<svg xmlns="http://www.w3.org/2000/svg" width="201" height="67" viewBox="0 0 201 67"><path d="M10,0H191a10,10,0,0,1,10,10V57a10,10,0,0,1-10,10H10A10,10,0,0,1,0,57V10A10,10,0,0,1,10,0Z" fill="#f52424"/><text transform="translate(122 25)" fill="#fff" font-size="14" font-family="Poppins-Medium, Poppins" font-weight="500"><tspan x="-56.665" y="0">Available on the</tspan></text><text transform="translate(124 49)" fill="#fff" font-size="24" font-family="Poppins-Medium, Poppins" font-weight="500"><tspan x="-58.692" y="0">App Store</tspan></text><g transform="translate(-21.336 13.155)"><g transform="translate(54.04)"><path d="M255.823,0a9.548,9.548,0,0,0-6.182,3.347,8.293,8.293,0,0,0-2.024,6.444A8.059,8.059,0,0,0,253.855,6.6,8.953,8.953,0,0,0,255.823,0Z" transform="translate(-247.522)" fill="#fff"/></g><g transform="translate(37.336 9.524)"><path d="M70.914,123.967a10.3,10.3,0,0,0-7.774-4.127c-3.649,0-5.193,1.747-7.729,1.747-2.614,0-4.6-1.742-7.757-1.742a10.554,10.554,0,0,0-8.494,5.135c-2.942,4.562-2.439,13.14,2.33,20.447,1.706,2.614,3.985,5.554,6.966,5.58,2.652.025,3.4-1.7,6.994-1.719s4.275,1.742,6.922,1.714c2.983-.023,5.386-3.281,7.093-5.895a29.318,29.318,0,0,0,2.627-4.934C65.192,137.545,64.086,127.734,70.914,123.967Z" transform="translate(-37.336 -119.84)" fill="#fff"/></g></g></svg>