<svg id="Component_123_1" data-name="Component 123 – 1" xmlns="http://www.w3.org/2000/svg" width="43" height="42" viewBox="0 0 43 42">
  <rect id="Rectangle_254" data-name="Rectangle 254" width="43" height="42" rx="8" fill="#e8ebf1"/>
  <g id="apple" transform="translate(-27.791 7.004)">
    <g id="Group_34" data-name="Group 34" transform="translate(48.827)">
      <g id="Group_33" data-name="Group 33">
        <path id="Path_411" data-name="Path 411" d="M253.233,0a6.569,6.569,0,0,0-4.253,2.3,5.705,5.705,0,0,0-1.393,4.433,5.544,5.544,0,0,0,4.292-2.192A6.159,6.159,0,0,0,253.233,0Z" transform="translate(-247.522)" fill="#fe9435"/>
      </g>
    </g>
    <g id="Group_36" data-name="Group 36" transform="translate(37.336 6.552)">
      <g id="Group_35" data-name="Group 35">
        <path id="Path_412" data-name="Path 412" d="M60.436,122.679a7.086,7.086,0,0,0-5.348-2.839c-2.511,0-3.573,1.2-5.317,1.2-1.8,0-3.165-1.2-5.336-1.2a7.261,7.261,0,0,0-5.843,3.532c-2.024,3.139-1.678,9.04,1.6,14.066,1.174,1.8,2.742,3.821,4.792,3.838,1.825.017,2.339-1.17,4.811-1.183s2.941,1.2,4.762,1.179c2.052-.016,3.706-2.257,4.879-4.055a20.169,20.169,0,0,0,1.807-3.394A6.171,6.171,0,0,1,60.436,122.679Z" transform="translate(-37.336 -119.84)"/>
      </g>
    </g>
  </g>
</svg>
