<svg xmlns="http://www.w3.org/2000/svg" width="42.789" height="50.095" viewBox="0 0 42.789 50.095"><defs><style>.a{fill:#fe9435;}</style></defs><g transform="translate(20.564)"><path class="a" d="M257.742,0a11.755,11.755,0,0,0-7.611,4.12c-1.659,2.019-3.025,5.019-2.492,7.934a9.921,9.921,0,0,0,7.68-3.923A11.022,11.022,0,0,0,257.742,0Z" transform="translate(-247.522)"/></g><g transform="translate(0 11.725)"><path d="M78.675,124.921A12.681,12.681,0,0,0,69.1,119.84c-4.493,0-6.393,2.151-9.515,2.151-3.219,0-5.664-2.145-9.549-2.145-3.817,0-7.881,2.333-10.457,6.321-3.622,5.617-3,16.177,2.868,25.173,2.1,3.219,4.906,6.838,8.576,6.869,3.266.031,4.186-2.095,8.61-2.117s5.263,2.145,8.522,2.11c3.673-.028,6.631-4.039,8.732-7.257a36.1,36.1,0,0,0,3.234-6.074C71.631,141.637,70.269,129.558,78.675,124.921Z" transform="translate(-37.336 -119.84)"/></g></svg>