<svg xmlns="http://www.w3.org/2000/svg" width="33.508" height="35.836" viewBox="0 0 33.508 35.836"><g transform="translate(-10.655 -2.5)"><g transform="translate(10.655 2.5)"><g transform="translate(1.641 0.357)"><path d="M36.5,27.572l-1.6,3.739,3.738-1.6,2.491-1.069,4.181-4.18v9.6a1.479,1.479,0,0,1-1.478,1.479H22.578a.428.428,0,0,1-.428-.428V5.428A.428.428,0,0,1,22.578,5H43.834a1.478,1.478,0,0,1,1.478,1.478V17.343l-7.74,7.739Z" transform="translate(-22.15 -5)" fill="#13bf6d"/><g transform="translate(1.467 20.525)"><path d="M52.7,157.575H35.1a.357.357,0,0,1,0-.714H52.342v-7.744a.357.357,0,1,1,.714,0v8.1A.357.357,0,0,1,52.7,157.575Zm-19.026,0h-.891a.357.357,0,0,1,0-.714h.891a.357.357,0,0,1,0,.714Z" transform="translate(-32.425 -148.76)" fill="#76ffba"/></g><g transform="translate(21.384 1.356)"><path d="M172.282,27.264a.357.357,0,0,1-.357-.357V14.857a.357.357,0,1,1,.714,0v12.05A.357.357,0,0,1,172.282,27.264Z" transform="translate(-171.925 -14.5)" fill="#76ffba"/></g><g transform="translate(3.54 30.538)"><path d="M51.859,223.475l-2.455-1.4-2.455,1.4v-4.584h4.911Z" transform="translate(-46.948 -218.891)" fill="#fc5d3d"/></g><g transform="translate(4.825 4.326)"><path d="M55.944,35.3H69.457v8.6H55.944Z" transform="translate(-55.944 -35.297)" fill="#efefef"/></g><g transform="translate(12.752 7.554)"><g transform="translate(13.178)"><path d="M208.89,61.928l-1.557,1.559-3.56-3.559,1.558-1.559a1.573,1.573,0,0,1,2.226,0L208.89,59.7A1.571,1.571,0,0,1,208.89,61.928Z" transform="translate(-203.773 -57.907)" fill="#fc5d3d"/></g><g transform="translate(0 1.794)"><g transform="translate(2.67 0.226)"><path d="M140.679,72.058l-2.769,2.769-7.74,7.739,3.558,3.558,4.181-4.18,6.329-6.326Z" transform="translate(-130.17 -72.058)" fill="#72c1e8"/></g><g transform="translate(6.104 1.712)"><path d="M154.331,93.411a.357.357,0,0,1,0-.5l.547-.547a.357.357,0,1,1,.5.5l-.547.547A.357.357,0,0,1,154.331,93.411Zm1.557-1.557a.357.357,0,0,1,0-.5l6.708-6.708-1.57-1.57a.357.357,0,0,1,.5-.5l1.823,1.823a.357.357,0,0,1,0,.5l-6.96,6.961A.357.357,0,0,1,155.888,91.854Z" transform="translate(-154.226 -82.461)" fill="#c5e5ff"/></g><g transform="translate(1.6 10.734)"><path d="M127.308,149.214l-2.491,1.069-2.137-2.137,1.069-2.491Z" transform="translate(-122.68 -145.656)" fill="#edaf85"/></g><g transform="translate(0 13.225)"><path d="M115.208,165.237l-3.738,1.6,1.6-3.739Z" transform="translate(-111.47 -163.1)" fill="#7a7380"/></g><g transform="translate(16.381)"><path d="M226.311,72.914a.357.357,0,0,1,0-.5l.722-.722a.113.113,0,0,0,0-.161l-.445-.445a.357.357,0,1,1,.5-.5l.444.445a.827.827,0,0,1,0,1.17l-.722.722a.356.356,0,0,1-.5,0Z" transform="translate(-226.206 -70.473)" fill="#ffcbc2"/></g></g></g></g><g transform="translate(0 0)"><path d="M75.684,55.119h7.265a.357.357,0,0,0,0-.714H75.684a.357.357,0,0,0,0,.714Z" transform="translate(-66.094 -46.994)"/><path d="M83.306,71.815a.357.357,0,0,0-.357-.357H75.684a.357.357,0,0,0,0,.714h7.265A.357.357,0,0,0,83.306,71.815Z" transform="translate(-66.094 -61.613)"/><path d="M43.6,11.955,42.263,10.62a1.929,1.929,0,0,0-2.731,0l-3.717,3.718v-10A1.838,1.838,0,0,0,33.981,2.5H12.724a.787.787,0,0,0-.785.785v3.54h-.927a.357.357,0,0,0,0,.714h.927V12.3h-.927a.357.357,0,0,0,0,.714h.927v4.758h-.927a.357.357,0,0,0,0,.714h.927v4.758h-.927a.357.357,0,0,0,0,.714h.927v4.758h-.927a.357.357,0,1,0,0,.714h.927v3.54a.787.787,0,0,0,.785.785H15.48v4.228a.357.357,0,0,0,.534.31l2.278-1.3,2.278,1.3a.357.357,0,0,0,.534-.31V33.752h3.382a.357.357,0,1,0,0-.714H12.724a.071.071,0,0,1-.071-.071v-3.54h.8a.357.357,0,0,0,0-.714h-.8V23.955h.8a.357.357,0,0,0,0-.714h-.8V18.483h.8a.357.357,0,0,0,0-.714h-.8V13.011h.8a.357.357,0,1,0,0-.714h-.8V7.539h.8a.357.357,0,0,0,0-.714h-.8V3.285a.071.071,0,0,1,.071-.071H33.981A1.125,1.125,0,0,1,35.1,4.335V15.051l-4.195,4.193a.358.358,0,0,0,0,.505.368.368,0,0,0,.505,0l6.815-6.815L39.5,14.21l-10,10-1.275-1.275,1.17-1.17a.359.359,0,0,0,0-.505.368.368,0,0,0-.505,0l-1.422,1.422a.449.449,0,0,0-.077.118l-2.668,6.225a.357.357,0,0,0,.469.469l6.218-2.667a.415.415,0,0,0,.123-.08L35.1,23.18v8.736a1.126,1.126,0,0,1-1.121,1.122H27.342a.357.357,0,0,0,0,.714h6.639a1.838,1.838,0,0,0,1.835-1.836v-9.45l6.223-6.223h0L43.6,14.684a1.927,1.927,0,0,0,0-2.729ZM20.391,37.364l-1.921-1.1a.357.357,0,0,0-.355,0l-1.921,1.1V33.752h4.2Zm5.337-8.874,1.042-2.434,1.391,1.392Zm3.14-1.346-1.8-1.8.766-1.783,2.813,2.813Zm2.41-1.15L30,24.719l10-10,1.276,1.276ZM43.092,14.179h0l-1.3,1.306-3.055-3.055,1.305-1.307a1.216,1.216,0,0,1,1.72,0l1.334,1.336A1.213,1.213,0,0,1,43.092,14.179Z" transform="translate(-10.655 -2.5)"/><circle cx="0.357" cy="0.357" r="0.357" transform="translate(9.628 12.931)"/><path d="M58.744,42.119H67.31a.357.357,0,0,0,.357-.357v-8.6a.355.355,0,0,0-.357-.357H53.8a.358.358,0,0,0-.357.357v8.6a.359.359,0,0,0,.357.357h2.092a.357.357,0,0,0,0-.714H54.154V33.514h12.8V41.4H58.744a.357.357,0,1,0,0,.714Z" transform="translate(-47.331 -28.474)"/><circle cx="0.357" cy="0.357" r="0.357" transform="translate(14.902 30.538)"/><path d="M144.8,126.246a.357.357,0,1,0,.505,0A.368.368,0,0,0,144.8,126.246Z" transform="translate(-125.561 -108.492)"/></g></g><g transform="translate(18.093 8.306)"><path d="M73.922,49.612h-.413a.357.357,0,1,1,0-.714h.413a.357.357,0,1,1,0,.714Zm-1.84,0H63.107a.357.357,0,0,1-.357-.357V43.524a.357.357,0,0,1,.714,0V48.9h8.618a.357.357,0,1,1,0,.714Z" transform="translate(-62.75 -43.167)" fill="#fff"/></g></g></svg>