<svg xmlns="http://www.w3.org/2000/svg" width="23.437" height="40" viewBox="0 0 23.437 40">
  <g id="Group_13975" data-name="Group 13975" transform="translate(-5915 475)">
    <g id="Group_13873" data-name="Group 13873" transform="translate(5932.188 -441.249)">
      <g id="Group_13872" data-name="Group 13872">
        <path id="Path_66260" data-name="Path 66260" d="M326.79,432.01a.779.779,0,1,0,.552.228.78.78,0,0,0-.552-.228Z" transform="translate(-326.01 -432.01)" fill="#fe9435"/>
      </g>
    </g>
    <g id="Group_13875" data-name="Group 13875" transform="translate(5915 -475)">
      <g id="Group_13874" data-name="Group 13874">
        <path id="Path_66261" data-name="Path 66261" d="M125.531,5.156h-4.718l.8-4.23A.781.781,0,0,0,120.844,0h-6.25a.781.781,0,0,0-.768.926l.8,4.23h-4.718A3.911,3.911,0,0,0,106,9.063V36.094A3.911,3.911,0,0,0,109.906,40h15.625a3.911,3.911,0,0,0,3.906-3.906V9.063a3.911,3.911,0,0,0-3.906-3.907ZM119.9,1.563l-.8,4.224h0l-.471,2.495H116.8l-1.268-6.719Zm7.974,34.531a2.346,2.346,0,0,1-2.344,2.344H109.906a2.346,2.346,0,0,1-2.344-2.344V9.063a2.346,2.346,0,0,1,2.344-2.344h5.013l.47,2.489a.781.781,0,0,0,.768.636h3.125a.781.781,0,0,0,.768-.636l.47-2.489h5.013a2.346,2.346,0,0,1,2.344,2.344Z" transform="translate(-106)" fill="#fe9435"/>
      </g>
    </g>
    <g id="Group_13877" data-name="Group 13877" transform="translate(5919.688 -441.25)">
      <g id="Group_13876" data-name="Group 13876">
        <path id="Path_66262" data-name="Path 66262" d="M176.156,432h-9.375a.781.781,0,1,0,0,1.563h9.375a.781.781,0,1,0,0-1.562Z" transform="translate(-166 -432)" fill="#fe9435"/>
      </g>
    </g>
    <g id="Group_13879" data-name="Group 13879" transform="translate(5919.688 -444.375)">
      <g id="Group_13878" data-name="Group 13878">
        <path id="Path_66263" data-name="Path 66263" d="M179.281,392h-12.5a.782.782,0,0,0,0,1.563h12.5a.781.781,0,1,0,0-1.562Z" transform="translate(-166 -392)" fill="#fe9435"/>
      </g>
    </g>
    <g id="Group_13881" data-name="Group 13881" transform="translate(5919.688 -462.031)">
      <g id="Group_13880" data-name="Group 13880">
        <path id="Path_66264" data-name="Path 66264" d="M177.9,173.031l-2.235-1.117c.023-.069.044-.138.062-.209l.562-2.248a2.782,2.782,0,0,0-2.7-3.457H172.47a2.782,2.782,0,0,0-2.7,3.457l.562,2.248c.018.071.039.14.062.208l-2.235,1.117A3.886,3.886,0,0,0,166,176.525v2.756a.781.781,0,0,0,.781.781h12.5a.781.781,0,0,0,.781-.781v-2.756a3.886,3.886,0,0,0-2.162-3.494Zm-5.434-5.468h1.123a1.22,1.22,0,0,1,1.183,1.516l-.562,2.247a1.22,1.22,0,0,1-2.367,0l-.562-2.248a1.22,1.22,0,0,1,1.189-1.515ZM178.5,178.5H167.563v-1.975a2.332,2.332,0,0,1,1.3-2.1l2.441-1.22a2.785,2.785,0,0,0,3.464,0l2.441,1.22a2.332,2.332,0,0,1,1.3,2.1Z" transform="translate(-166 -166)" fill="#fe9435"/>
      </g>
    </g>
  </g>
</svg>
