<svg xmlns="http://www.w3.org/2000/svg" width="228" height="67" viewBox="0 0 228 67"><rect width="228" height="67" rx="10" fill="#f52424"/><text transform="translate(99 25)" fill="#fff" font-size="14" font-family="Poppins-Medium, Poppins" font-weight="500"><tspan x="-32.095" y="0">GET IT ON</tspan></text><text transform="translate(139 49)" fill="#fff" font-size="24" font-family="Poppins-Medium, Poppins" font-weight="500"><tspan x="-72.324" y="0">Google play</tspan></text><g transform="translate(15.5 12.364)"><path d="M1.279,18.855A3.866,3.866,0,0,0,.5,21.2V55.667a3.874,3.874,0,0,0,.677,2.2L19.93,38.31Zm0,0" transform="translate(0 -17.299)" fill="#fff"/><path d="M53.417,19.22,59.5,12.874,38.115.527A3.853,3.853,0,0,0,35.129.144Zm0,0" transform="translate(-31.77)" fill="#fff"/><path d="M51.364,276.18,32.891,295.449a3.835,3.835,0,0,0,1.223.2,3.889,3.889,0,0,0,1.949-.528L57.6,282.686Zm0,0" transform="translate(-29.717 -253.378)" fill="#fff"/><path d="M290.267,175l-6.252-3.61-6.577,6.86,6.731,7.021,6.1-3.521a3.9,3.9,0,0,0,0-6.75Zm0,0" transform="translate(-254.073 -157.244)" fill="#fff"/></g></svg>