<svg xmlns="http://www.w3.org/2000/svg" width="24" height="40" viewBox="0 0 24 40">
  <g id="Group_13979" data-name="Group 13979" transform="translate(-6310 655)">
    <path id="Path_66275" data-name="Path 66275" d="M49,38.667V5.333A3.337,3.337,0,0,0,45.667,2H28.333A3.337,3.337,0,0,0,25,5.333V38.667A3.337,3.337,0,0,0,28.333,42H45.667A3.337,3.337,0,0,0,49,38.667Zm-20.667,2a2,2,0,0,1-2-2V5.333a2,2,0,0,1,2-2H45.667a2,2,0,0,1,2,2V38.667a2,2,0,0,1-2,2Z" transform="translate(6285 -657)" fill="#fe9435"/>
    <path id="Path_66276" data-name="Path 66276" d="M39,6h8V7.333H39Z" transform="translate(6280.333 -658.333)" fill="#fe9435"/>
    <path id="Path_66277" data-name="Path 66277" d="M35,6h1.333V7.333H35Z" transform="translate(6281.667 -658.333)" fill="#fe9435"/>
    <path id="Path_66278" data-name="Path 66278" d="M47.667,38.667v-28A.667.667,0,0,0,47,10H29.667a.667.667,0,0,0-.667.667v28a.667.667,0,0,0,.667.667H47A.667.667,0,0,0,47.667,38.667Zm-1.333-8V38h-16V11.333h16Z" transform="translate(6283.667 -659.667)" fill="#fe9435"/>
    <path id="Path_66281" data-name="Path 66281" d="M36,18.667A2.667,2.667,0,1,0,38.667,16,2.667,2.667,0,0,0,36,18.667Zm2.667-1.333a1.333,1.333,0,1,1-1.333,1.333,1.333,1.333,0,0,1,1.333-1.333Z" transform="translate(6281.333 -661.667)" fill="#fe9435"/>
    <path id="Path_66282" data-name="Path 66282" d="M47.333,36.667a2.667,2.667,0,1,0-2.667,2.667,2.667,2.667,0,0,0,2.667-2.667ZM44.667,38A1.333,1.333,0,1,1,46,36.667,1.333,1.333,0,0,1,44.667,38Z" transform="translate(6279.333 -667.667)" fill="#fe9435"/>
    <path id="Path_66283" data-name="Path 66283" d="M44,56a2,2,0,1,0-2,2A2,2,0,0,0,44,56Zm-2,.667A.667.667,0,1,1,42.667,56,.667.667,0,0,1,42,56.667Z" transform="translate(6280 -674.333)" fill="#fe9435"/>
    <path id="Path_66284" data-name="Path 66284" d="M45.665,21.327a2,2,0,0,0-2-2h-.706a6,6,0,1,0-10.627,4.43v7.57a2,2,0,0,0,2,2h.821a6,6,0,1,0,10.512-5.1ZM32.332,19.994a4.667,4.667,0,1,1,7.333,3.824v-.491a2.667,2.667,0,1,0-5.333,0v.491a4.662,4.662,0,0,1-2-3.824Zm6,3.333V24.46a4.618,4.618,0,0,1-2.667,0V23.327a1.333,1.333,0,0,1,2.667,0ZM35,31.994h-.667a.667.667,0,0,1-.667-.667V24.979A5.994,5.994,0,0,0,42.96,20.66h.706a.667.667,0,0,1,.667.667v5.681A6,6,0,0,0,35,31.994Zm7.333,4.467a4.618,4.618,0,0,1-2.667,0V35.327a1.333,1.333,0,0,1,2.667,0Zm1.333-.646v-.487a2.667,2.667,0,1,0-5.333,0v.491a4.667,4.667,0,1,1,5.333,0Z" transform="translate(6283.002 -660.994)" fill="#fe9435"/>
    <path id="Path_66285" data-name="Path 66285" d="M37,48h1.333v1.333H37Z" transform="translate(6281 -672.333)" fill="#fe9435"/>
    <path id="Path_66286" data-name="Path 66286" d="M33,48h1.333v1.333H33Z" transform="translate(6282.333 -672.333)" fill="#fe9435"/>
  </g>
</svg>
