<svg xmlns="http://www.w3.org/2000/svg" width="37.632" height="40" viewBox="0 0 37.632 40">
  <g id="Group_13982" data-name="Group 13982" transform="translate(-6303 383)">
    <path id="Path_66287" data-name="Path 66287" d="M276.469,250.731a.586.586,0,1,0-1.171.032l.009.312a.586.586,0,0,0,.585.57h.016a.586.586,0,0,0,.57-.6Zm0,0" transform="translate(6049.209 -613.618)" fill="#fe9435"/>
    <path id="Path_66288" data-name="Path 66288" d="M349.732,250.164h-.016a.586.586,0,0,0-.57.6l.009.312a.586.586,0,0,0,.585.57h.016a.586.586,0,0,0,.57-.6l-.009-.312A.586.586,0,0,0,349.732,250.164Zm0,0" transform="translate(5981.131 -613.62)" fill="#fe9435"/>
    <path id="Path_66289" data-name="Path 66289" d="M294.265,278.177a.586.586,0,0,0-.818.131,1.578,1.578,0,0,1-2.558,0,.586.586,0,0,0-.949.687,2.749,2.749,0,0,0,4.456,0A.586.586,0,0,0,294.265,278.177Zm0,0" transform="translate(6035.815 -639.342)" fill="#fe9435"/>
    <path id="Path_66290" data-name="Path 66290" d="M1.49,376.632a.586.586,0,0,0-.8.216A5.21,5.21,0,0,0,0,379.441v7.109a.586.586,0,0,0,1.172,0v-7.109a4.033,4.033,0,0,1,.535-2.009.586.586,0,0,0-.217-.8Zm0,0" transform="translate(6303 -730.136)" fill="#fe9435"/>
    <path id="Path_66291" data-name="Path 66291" d="M86.9,229.408a.586.586,0,0,0-.57.6l.009.336a.586.586,0,0,0,.585.57h.016a.586.586,0,0,0,.57-.6l-.009-.336a.587.587,0,0,0-.6-.57Zm0,0" transform="translate(6223.416 -594.485)" fill="#fe9435"/>
    <path id="Path_66292" data-name="Path 66292" d="M166.537,230.916h.016a.586.586,0,0,0,.569-.6l-.009-.336a.586.586,0,0,0-1.171.032l.009.336A.586.586,0,0,0,166.537,230.916Zm0,0" transform="translate(6150.022 -594.485)" fill="#fe9435"/>
    <path id="Path_66293" data-name="Path 66293" d="M106.837,260.413a.586.586,0,1,0-.949-.687,1.746,1.746,0,0,1-2.832,0,.586.586,0,1,0-.949.687,2.918,2.918,0,0,0,4.73,0Zm0,0" transform="translate(6208.973 -622.211)" fill="#fe9435"/>
    <path id="Path_66294" data-name="Path 66294" d="M48.781,423.922a.586.586,0,0,0-.586.586v5.709a.586.586,0,0,0,1.172,0v-5.709A.586.586,0,0,0,48.781,423.922Zm0,0" transform="translate(6258.57 -773.803)" fill="#fe9435"/>
    <path id="Path_66295" data-name="Path 66295" d="M201.941,423.922a.586.586,0,0,0-.586.586v5.709a.586.586,0,0,0,1.172,0v-5.709A.586.586,0,0,0,201.941,423.922Zm0,0" transform="translate(6117.375 -773.803)" fill="#fe9435"/>
    <path id="Path_66296" data-name="Path 66296" d="M43.066,0H31.185a1.559,1.559,0,0,0-1.557,1.557v2.48a.586.586,0,1,0,1.172,0V1.557a.386.386,0,0,1,.385-.385H43.066a.386.386,0,0,1,.385.385V9.332a.386.386,0,0,1-.385.385h-6.48a.586.586,0,0,0-.464.227l-.888,1.148a.385.385,0,0,1-.609,0l-.888-1.148a.586.586,0,0,0-.464-.227H31.185a.386.386,0,0,1-.385-.385V6.588a.586.586,0,0,0-1.172,0v1.78a8.889,8.889,0,0,0-3.493,1.865A9.545,9.545,0,0,0,8.1,16.1l.212,1.036a2.7,2.7,0,0,0,2.94,4.366,6.317,6.317,0,0,0,4.035,4.771V27.1H12.209a5.216,5.216,0,0,0-2.483.629.586.586,0,1,0,.559,1.03,4.042,4.042,0,0,1,1.924-.487H13.42V39.414a.586.586,0,0,0,1.172,0V28.269h.692v.441a2.161,2.161,0,0,0,4.323,0v-.441H20.3V39.414a.586.586,0,0,0,1.172,0V28.269h.99A4.041,4.041,0,0,1,26.5,32.305v7.109a.586.586,0,0,0,1.172,0V35.681a5.79,5.79,0,0,1,3.966,1,.586.586,0,0,0,.7,0,6.068,6.068,0,0,1,4.616-.914v3.644a.586.586,0,0,0,1.172,0V34.227a.586.586,0,1,0-1.172,0v.352a8.214,8.214,0,0,0-1.229-.1v-4.97a5.754,5.754,0,0,1,3.97,5.463v4.442a.586.586,0,1,0,1.172,0V34.972a6.888,6.888,0,0,0-1.777-4.623,3.449,3.449,0,0,0,.746-1.825L40,26.881a.586.586,0,1,0-1.166-.116l-.163,1.643a2.275,2.275,0,0,1-.438,1.135,6.883,6.883,0,0,0-4.194-1.487v-.693a5.9,5.9,0,0,0,3.733-4.4,2.543,2.543,0,0,0,1.432.077l-.116,1.173a.586.586,0,0,0,.525.641.538.538,0,0,0,.059,0,.586.586,0,0,0,.582-.528l.2-2a2.546,2.546,0,0,0,.313-3.156l.128-1.291a8.9,8.9,0,0,0-2.368-6.994h4.549a1.559,1.559,0,0,0,1.557-1.557V1.557A1.559,1.559,0,0,0,43.066,0ZM26.125,18.966a1.535,1.535,0,0,1-2.319,1.32l.349-2.793a1.537,1.537,0,0,1,1.97,1.473Zm-1.49,2.706a2.689,2.689,0,0,0,1.343-.383l.058.468a1.376,1.376,0,0,1-1.4-.02ZM10.958,8.891a8.372,8.372,0,0,1,14.688,6.973l-.115.564a2.658,2.658,0,0,0-1.224-.154l.122-.978H24.6a1.018,1.018,0,0,0,1.018-1.017V13.2a.586.586,0,0,0-1.172,0v.927a10.115,10.115,0,0,1-4.14-.67.573.573,0,0,0-.588-.017.587.587,0,0,0-.3.52v.163a8.447,8.447,0,0,1-3.881-.9.586.586,0,0,0-.908.49v.409a9.209,9.209,0,0,1-4.158-.974A.586.586,0,0,0,9.9,14.172c.132.073.279.148.443.224l.235,1.878a2.8,2.8,0,0,0-.282-.015,2.694,2.694,0,0,0-.942.169l-.115-.564a8.339,8.339,0,0,1,1.717-6.973ZM8.766,18.966a1.534,1.534,0,0,1,1.97-1.472l.349,2.792a1.519,1.519,0,0,1-.783.215A1.537,1.537,0,0,1,8.766,18.966Zm3.588,2.024-.767-6.142a12.87,12.87,0,0,0,3.172.449,1.021,1.021,0,0,0,.993-.688,11.506,11.506,0,0,0,3.794.687,1.023,1.023,0,0,0,.922-.525,12.548,12.548,0,0,0,2.788.471L23.035,17v.014l-.5,3.971a5.132,5.132,0,0,1-10.184,0Zm5.092,8.71a.991.991,0,0,1-.99-.99V26.577a6.186,6.186,0,0,0,1.979,0V28.71a.991.991,0,0,1-.99.99Zm2.161-2.6v-.824a6.327,6.327,0,0,0,3.847-4.015c.022.025.045.049.069.074l.5,5A5.183,5.183,0,0,0,22.46,27.1Zm5.647.816-.483-4.873a2.545,2.545,0,0,0,1.432-.076,5.9,5.9,0,0,0,3.733,4.4v.694a6.879,6.879,0,0,0-3.437.963,5.244,5.244,0,0,0-1.245-1.111Zm2.415,6.592v-2.2a5.177,5.177,0,0,0-.537-2.3,5.711,5.711,0,0,1,1.116-.5v4.975c-.2,0-.4.008-.579.022Zm6.878-5.247v5.3a6.5,6.5,0,0,0-2.563.941,6.5,6.5,0,0,0-2.563-.94v-5.3c.171-.018.343-.028.516-.031V29.6a2.05,2.05,0,0,0,4.1,0v-.365c.163,0,.34.01.51.027Zm-1.688.335a.876.876,0,0,1-1.751,0V27.665a5.823,5.823,0,0,0,1.751,0Zm-.876-3.034A4.725,4.725,0,0,1,27.3,22.427l-.283-2.267a2.7,2.7,0,0,0-.228-2.768,7.266,7.266,0,0,0,4.8-1.254,7.77,7.77,0,0,0,5.387,3.82l-.309,2.469a4.725,4.725,0,0,1-4.684,4.133Zm5.946-4.8.211-1.687a1.257,1.257,0,0,0,.472-.219,1.244,1.244,0,0,0,.436-.6,1.381,1.381,0,0,1-.438,2.692,1.365,1.365,0,0,1-.681-.186Zm1.789-3.99-.046.466a2.521,2.521,0,0,0-.446-.157l.165-1.243a.586.586,0,1,0-1.162-.154l-.29,2.18a.079.079,0,0,1-.031.054.08.08,0,0,1-.061.015c-4.383-.667-5.439-3.771-5.481-3.9a.586.586,0,0,0-.955-.257A6.01,6.01,0,0,1,26.77,16.22l.024-.116a9.525,9.525,0,0,0-.213-4.689A7.742,7.742,0,0,1,29.65,9.582a1.559,1.559,0,0,0,1.535,1.307h1.8l.712.92a1.557,1.557,0,0,0,2.463,0l.679-.878a7.742,7.742,0,0,1,2.879,6.836Zm0,0" transform="translate(6296 -383)" fill="#fe9435"/>
    <path id="Path_66297" data-name="Path 66297" d="M346.894,46.438a.586.586,0,0,0-.586.586v.531h-.531a.586.586,0,0,0,0,1.172h.531v.531a.586.586,0,0,0,1.172,0v-.531h.531a.586.586,0,0,0,0-1.172h-.531v-.531A.586.586,0,0,0,346.894,46.438Zm0,0" transform="translate(5984.777 -425.81)" fill="#fe9435"/>
    <path id="Path_66298" data-name="Path 66298" d="M401.723,36.577a.585.585,0,0,0-.575-.018l-.745.388a.586.586,0,0,0,.43,1.084V40.28h-.125a.586.586,0,0,0,0,1.172h1.423a.586.586,0,1,0,0-1.172h-.125v-3.2a.586.586,0,0,0-.283-.5Zm0,0" transform="translate(5934.168 -416.641)" fill="#fe9435"/>
  </g>
</svg>
