<svg xmlns="http://www.w3.org/2000/svg" width="30.622" height="40.005" viewBox="0 0 30.622 40.005">
  <g id="Group_13973" data-name="Group 13973" transform="translate(-5910.998 659.004)">
    <path id="Path_66248" data-name="Path 66248" d="M122.584,434.94h-2.135a.781.781,0,0,1,0-1.562h2.135a.781.781,0,1,1,0,1.563Z" transform="translate(5795.993 -1058.52)" fill="#fe9435"/>
    <path id="Path_66249" data-name="Path 66249" d="M197.694,434.94h-2.135a.781.781,0,0,1,0-1.562h2.135a.781.781,0,0,1,0,1.563Z" transform="translate(5726.75 -1058.52)" fill="#fe9435"/>
    <path id="Path_66250" data-name="Path 66250" d="M272.806,434.94H270.67a.781.781,0,0,1,0-1.562h2.135a.781.781,0,0,1,0,1.563Z" transform="translate(5657.507 -1058.52)" fill="#fe9435"/>
    <path id="Path_66251" data-name="Path 66251" d="M347.917,434.94h-2.135a.781.781,0,0,1,0-1.562h2.135a.781.781,0,0,1,0,1.563Z" transform="translate(5588.264 -1058.52)" fill="#fe9435"/>
    <path id="Path_66252" data-name="Path 66252" d="M246.607,493.591a.781.781,0,1,1,.766-.629.789.789,0,0,1-.766.629Z" transform="translate(5679.689 -1112.591)" fill="#fe9435"/>
    <path id="Path_66253" data-name="Path 66253" d="M89.874,385.478h-11a.781.781,0,0,1,0-1.562H89.093v-7.6H61.6v7.6H71.814a.781.781,0,0,1,0,1.563h-11a.781.781,0,0,1-.781-.781v-9.16a.781.781,0,0,1,.781-.781h29.06a.781.781,0,0,1,.781.781v9.16A.781.781,0,0,1,89.874,385.478Z" transform="translate(5850.965 -1004.478)" fill="#fe9435"/>
    <path id="Path_66254" data-name="Path 66254" d="M133.052,13.549a7.55,7.55,0,1,0-9.159,0,6.629,6.629,0,0,0-6.228,6.609v4.655a.781.781,0,0,0,.781.781H138.5a.781.781,0,0,0,.781-.781V20.158a6.629,6.629,0,0,0-6.228-6.609Zm-10.567-6a5.988,5.988,0,1,1,5.988,5.988,5.988,5.988,0,0,1-5.988-5.988ZM137.717,24.03h-18.49V20.158a5.063,5.063,0,0,1,5.058-5.058h8.374a5.063,5.063,0,0,1,5.058,5.058v3.874Z" transform="translate(5797.838 -659)" fill="#fe9435"/>
  </g>
</svg>
