<svg xmlns="http://www.w3.org/2000/svg" width="39.503" height="34.952" viewBox="0 0 39.503 34.952">
  <g id="Group_13977" data-name="Group 13977" transform="translate(-5909 290)">
    <g id="Group_13886" data-name="Group 13886" transform="translate(5909 -290)">
      <g id="Group_13885" data-name="Group 13885">
        <circle id="Ellipse_1905" data-name="Ellipse 1905" cx="2.716" cy="2.716" r="2.716" transform="translate(12.182 8.637)" fill="#fe9435"/>
        <path id="Path_66270" data-name="Path 66270" d="M37.188,45.347a8.362,8.362,0,0,0-4.677-2.225v-13.8a5.43,5.43,0,0,0-1.546-3.772A5.27,5.27,0,0,0,27.193,24H5.318a5.43,5.43,0,0,0-3.772,1.546A5.27,5.27,0,0,0,0,29.318V51.834a5.43,5.43,0,0,0,1.546,3.772,5.27,5.27,0,0,0,3.772,1.546H26.476a7.979,7.979,0,0,0,10.711-11.8ZM2,29.318a3.157,3.157,0,0,1,.981-2.3,3.309,3.309,0,0,1,2.338-.981H27.193a3.348,3.348,0,0,1,3.319,3.319V41.123L24.93,35.541a1.013,1.013,0,0,0-1.433,0l-8.411,8.448-5.7-5.733a1.013,1.013,0,0,0-1.433,0L2,44.291Zm3.28,25.91v-.075a3.309,3.309,0,0,1-2.338-.981A3.442,3.442,0,0,1,2,51.834V47.157l6.676-6.713,5.7,5.7a1.049,1.049,0,0,0,1.433,0L24.22,37.7l5.506,5.544-.339.113a3.5,3.5,0,0,0-.49.151c-.151.038-.3.113-.453.151a1.129,1.129,0,0,0-.3.151,3.5,3.5,0,0,0-.377.189l-.566.339c-.113.075-.189.113-.3.189-.075.038-.113.075-.189.113a4.55,4.55,0,0,0-.905.792,7.979,7.979,0,0,0-2.338,5.657,8.291,8.291,0,0,0,.189,1.659c.038.151.075.264.113.415.113.377.226.754.377,1.131v.038a6.918,6.918,0,0,0,.49.9Zm30.436,0a5.966,5.966,0,0,1-8.335.075c-.151-.151-.3-.339-.453-.49-.113-.113-.226-.264-.339-.377a3.582,3.582,0,0,1-.377-.641c-.075-.151-.151-.264-.226-.415a3.186,3.186,0,0,1-.189-.641c-.038-.151-.113-.339-.151-.49a6.242,6.242,0,0,1-.113-1.207,6.054,6.054,0,0,1,1.735-4.224,5.831,5.831,0,0,1,4.224-1.735,6.054,6.054,0,0,1,4.224,1.735,5.9,5.9,0,0,1,1.735,4.224,6.032,6.032,0,0,1-1.734,4.186Z" transform="translate(0 -24)" fill="#fe9435"/>
        <path id="Path_66271" data-name="Path 66271" d="M302.654,264.7a1.316,1.316,0,0,0-.339-.226,1.1,1.1,0,0,0-.339-.075H301.9a1.1,1.1,0,0,0-.339.075.891.891,0,0,0-.339.226l-2.338,2.338a1.013,1.013,0,0,0,1.433,1.433l.6-.6v4.149a1.019,1.019,0,0,0,2.037,0v-4.15l.6.6a1.013,1.013,0,1,0,1.433-1.433Z" transform="translate(-270.445 -241.733)" fill="#fe9435"/>
      </g>
    </g>
  </g>
</svg>
