<svg id="Component_125_1" data-name="Component 125 – 1" xmlns="http://www.w3.org/2000/svg" width="43" height="42" viewBox="0 0 43 42">
  <rect id="Rectangle_268" data-name="Rectangle 268" width="43" height="42" rx="8" fill="#e8ebf1"/>
  <g id="world-wide-web_1_" data-name="world-wide-web (1)" transform="translate(8.052 7.552)">
    <path id="Path_941" data-name="Path 941" d="M40.612,32.041c-3.247,6.808-8.242,8.279-11.867,8.279a12.7,12.7,0,0,1-10.291-5.363,12.855,12.855,0,0,1-1.576-11.678l.252-.52a12.565,12.565,0,0,1,21.906-2.4A12.855,12.855,0,0,1,40.612,32.041Z" transform="translate(-15.298 -14.212)" fill="#65b1fc"/>
    <path id="Path_942" data-name="Path 942" d="M267.867,32.041C264.62,38.849,259.625,40.32,256,40.32V15a12.7,12.7,0,0,1,10.291,5.363A12.855,12.855,0,0,1,267.867,32.041Z" transform="translate(-242.552 -14.212)" fill="#1689fc"/>
    <path id="Path_943" data-name="Path 943" d="M24.626,5.694A13.516,13.516,0,0,0,13.689,0,13.508,13.508,0,0,0,1.3,8.389l-.268.552A13.2,13.2,0,0,0,2.752,21.2,13.516,13.516,0,0,0,13.689,26.9a13.552,13.552,0,0,0,12.324-8.2l.236-.473A13.226,13.226,0,0,0,24.626,5.694ZM4.044,20.288A12.045,12.045,0,0,1,2.578,9.319l.2-.426a12.011,12.011,0,0,1,6.84-6.561,17.681,17.681,0,0,0-2.915,8.909.467.467,0,0,0-.032.158c-.41,5.279.788,10.375,3.042,13.227A12.029,12.029,0,0,1,4.044,20.288ZM12.9,25.178a4.26,4.26,0,0,1-1.623-1.156c-2.206-2.38-3.42-7.407-3.026-12.5v-.142c0-.047.016-.11.016-.158.457-4.9,2.38-8.767,4.633-9.508Zm1.576-.016V1.718c2.427.8,4.46,5.269,4.7,10.6.221,4.917-1.009,9.534-3.136,11.772A3.99,3.99,0,0,1,14.477,25.162ZM24.8,17.577c-1.765,3.719-4.255,6.01-7.139,7.034,2.112-2.663,3.309-7.412,3.089-12.361-.189-4.192-1.371-7.806-3.089-9.981A11.948,11.948,0,0,1,24.8,17.577Z" transform="translate(-0.241)" fill="#96ebe6"/>
    <path id="Path_944" data-name="Path 944" d="M266.937,5.694A13.516,13.516,0,0,0,256,0V26.9a13.552,13.552,0,0,0,12.324-8.2l.236-.473A13.226,13.226,0,0,0,266.937,5.694ZM256.788,25.162V1.718c2.427.8,4.46,5.269,4.7,10.6.221,4.917-1.009,9.534-3.136,11.772A3.99,3.99,0,0,1,256.788,25.162Zm10.322-7.585c-1.765,3.719-4.255,6.01-7.139,7.034,2.112-2.663,3.309-7.412,3.089-12.361-.189-4.192-1.371-7.806-3.089-9.981a11.948,11.948,0,0,1,7.139,15.308Z" transform="translate(-242.552)" fill="#00c8c8"/>
    <path id="Path_945" data-name="Path 945" d="M24.48,151H2.416A2.406,2.406,0,0,0,0,153.364v6.3a2.406,2.406,0,0,0,2.416,2.364H24.48a2.406,2.406,0,0,0,2.416-2.364v-6.3A2.406,2.406,0,0,0,24.48,151Z" transform="translate(0 -143.068)" fill="#0053bf"/>
    <path id="Path_946" data-name="Path 946" d="M269.448,153.364v6.3a2.406,2.406,0,0,1-2.416,2.364H256V151h11.032A2.406,2.406,0,0,1,269.448,153.364Z" transform="translate(-242.552 -143.068)" fill="#05377f"/>
    <path id="Path_947" data-name="Path 947" d="M188.783,212.117l-1.576,3.152a.79.79,0,0,1-1.418,0l-.867-1.733-.867,1.733a.827.827,0,0,1-1.418,0l-1.576-3.152a.789.789,0,0,1,1.418-.693l.867,1.734.867-1.734a.819.819,0,0,1,1.418,0l.867,1.734.867-1.734a.789.789,0,0,1,1.418.693Z" transform="translate(-171.474 -199.898)" fill="#e1f1fa"/>
    <path id="Path_948" data-name="Path 948" d="M336.082,215.738a.788.788,0,0,1-.7-.436l-.871-1.742-.871,1.742a.82.82,0,0,1-1.41,0l-1.51-3.02a.779.779,0,0,1,.54-1.267.867.867,0,0,1,.8.431l.871,1.742.871-1.742a.821.821,0,0,1,1.41,0l.871,1.742.871-1.742a.788.788,0,1,1,1.41.7l-1.576,3.152A.788.788,0,0,1,336.082,215.738Z" transform="translate(-313.178 -199.926)" fill="#bfe1ff"/>
    <path id="Path_949" data-name="Path 949" d="M38.137,211.012a.824.824,0,0,0-.756.434l-.871,1.742-.871-1.742a.8.8,0,0,0-1.41,0l-.871,1.742-.871-1.742a.788.788,0,1,0-1.41.7l1.576,3.152a.788.788,0,0,0,1.41,0l.871-1.742.871,1.742a.788.788,0,0,0,1.41,0l1.484-2.969a.8.8,0,0,0-.563-1.322Z" transform="translate(-29.366 -199.926)" fill="#e1f1fa"/>
    <path id="Path_950" data-name="Path 950" d="M259.861,212.117l-1.576,3.152a.79.79,0,0,1-1.418,0L256,213.535v-2.522a.8.8,0,0,1,.709.41l.867,1.734.867-1.734a.789.789,0,0,1,1.418.693Z" transform="translate(-242.552 -199.898)" fill="#bfe1ff"/>
  </g>
</svg>
