<svg xmlns="http://www.w3.org/2000/svg" width="46.883" height="46.882" viewBox="0 0 46.883 46.882"><defs><style>.a{fill:#65b1fc;}.b{fill:#1689fc;}.c{fill:#96ebe6;}.d{fill:#00c8c8;}.e{fill:#0053bf;}.f{fill:#05377f;}.g{fill:#e1f1fa;}.h{fill:#bfe1ff;}</style></defs><path class="a" d="M58.793,44.7C53.134,56.571,44.427,59.135,38.108,59.135A22.13,22.13,0,0,1,20.17,49.786a22.408,22.408,0,0,1-2.747-20.355l.44-.906a21.9,21.9,0,0,1,38.183-4.175A22.408,22.408,0,0,1,58.793,44.7Z" transform="translate(-14.667 -13.626)"/><path class="b" d="M276.685,44.7C271.026,56.571,262.318,59.135,256,59.135V15a22.13,22.13,0,0,1,17.938,9.349A22.408,22.408,0,0,1,276.685,44.7Z" transform="translate(-232.559 -13.626)"/><path class="c" d="M42.736,9.926A23.56,23.56,0,0,0,23.672,0,23.545,23.545,0,0,0,2.081,14.623l-.467.962C-.909,23.265.073,30.54,4.608,36.956a23.56,23.56,0,0,0,19.064,9.926A23.622,23.622,0,0,0,45.154,32.589l.412-.824C48.311,23.952,47.35,16.447,42.736,9.926ZM6.86,35.363A21,21,0,0,1,4.306,16.244l.357-.742A20.935,20.935,0,0,1,16.585,4.065C13.261,8.406,11.255,16.848,11.5,19.6a.813.813,0,0,0-.055.275c-.714,9.2,1.374,18.084,5.3,23.057A20.968,20.968,0,0,1,6.86,35.363ZM22.3,43.888a7.426,7.426,0,0,1-2.83-2.014c-3.846-4.148-5.961-12.911-5.274-21.784v-.247c0-.083.027-.192.027-.275.8-8.543,4.148-15.282,8.076-16.574Zm2.747-.027V2.994c4.23,1.4,7.774,9.184,8.186,18.469.385,8.571-1.758,16.619-5.467,20.52A6.954,6.954,0,0,1,25.046,43.86ZM43.038,30.638C39.962,37.121,35.622,41.113,30.595,42.9c3.681-4.642,5.769-12.92,5.384-21.546-.33-7.307-2.39-13.607-5.384-17.4A20.826,20.826,0,0,1,43.038,30.638Z" transform="translate(-0.23)"/><path class="d" d="M275.064,9.926A23.56,23.56,0,0,0,256,0V46.882a23.622,23.622,0,0,0,21.482-14.294l.412-.824C280.639,23.952,279.677,16.447,275.064,9.926ZM257.374,43.86V2.994c4.23,1.4,7.774,9.184,8.186,18.469.384,8.571-1.758,16.619-5.467,20.52A6.955,6.955,0,0,1,257.374,43.86Zm17.993-13.222c-3.077,6.483-7.417,10.475-12.444,12.261,3.681-4.642,5.769-12.92,5.384-21.546-.33-7.307-2.39-13.607-5.384-17.4a20.826,20.826,0,0,1,12.444,26.683Z" transform="translate(-232.559)"/><path class="e" d="M42.67,151H4.212A4.194,4.194,0,0,0,0,155.121v10.988a4.194,4.194,0,0,0,4.212,4.12H42.67a4.194,4.194,0,0,0,4.212-4.12V155.121A4.194,4.194,0,0,0,42.67,151Z" transform="translate(0 -137.173)"/><path class="f" d="M279.441,155.121v10.988a4.194,4.194,0,0,1-4.212,4.12H256V151h19.229A4.194,4.194,0,0,1,279.441,155.121Z" transform="translate(-232.559 -137.173)"/><path class="g" d="M194.58,212.961l-2.747,5.494a1.378,1.378,0,0,1-2.472,0l-1.511-3.022-1.511,3.022a1.441,1.441,0,0,1-2.472,0l-2.747-5.494a1.376,1.376,0,0,1,2.472-1.209l1.511,3.022,1.511-3.022a1.427,1.427,0,0,1,2.472,0l1.511,3.022,1.511-3.022a1.376,1.376,0,0,1,2.472,1.209Z" transform="translate(-164.408 -191.663)"/><path class="h" d="M340.2,219.251a1.374,1.374,0,0,1-1.229-.759l-1.518-3.037-1.518,3.037a1.43,1.43,0,0,1-2.457,0l-2.632-5.265a1.359,1.359,0,0,1,.942-2.209,1.512,1.512,0,0,1,1.4.751l1.518,3.037,1.518-3.037a1.43,1.43,0,0,1,2.457,0l1.518,3.037,1.518-3.037A1.374,1.374,0,0,1,344.174,213l-2.747,5.494A1.374,1.374,0,0,1,340.2,219.251Z" transform="translate(-300.275 -191.689)"/><path class="g" d="M43.445,211.013a1.437,1.437,0,0,0-1.317.757l-1.518,3.037-1.518-3.037a1.393,1.393,0,0,0-2.457,0l-1.518,3.037L33.6,211.769A1.374,1.374,0,1,0,31.14,213l2.747,5.494a1.374,1.374,0,0,0,2.457,0l1.518-3.037,1.518,3.037a1.374,1.374,0,0,0,2.457,0l2.587-5.175a1.389,1.389,0,0,0-.98-2.3Z" transform="translate(-28.156 -191.689)"/><path class="h" d="M262.73,212.961l-2.747,5.494a1.378,1.378,0,0,1-2.472,0L256,215.433v-4.4a1.386,1.386,0,0,1,1.236.714l1.511,3.022,1.511-3.022a1.376,1.376,0,0,1,2.472,1.209Z" transform="translate(-232.559 -191.663)"/></svg>