<svg xmlns="http://www.w3.org/2000/svg" width="48.167" height="48.893" viewBox="0 0 48.167 48.893"><defs><style>.a{fill:#fe9435;stroke:#fe9435;stroke-width:0.5px;}</style></defs><g transform="translate(0.312 0.312)"><g transform="translate(0 0)"><path class="a" d="M50.6,16.669a23.767,23.767,0,0,0-45.364,14.2l1.537-.481a22.157,22.157,0,1,1,2.556,5.439L7.977,36.7A23.85,23.85,0,0,0,27.964,47.529,23.759,23.759,0,0,0,50.6,16.669Z" transform="translate(-4.147 0)"/></g><g transform="translate(8.867 7.279)"><path class="a" d="M108.327,81.109l.462-1.543-8.051-2.415a.8.8,0,0,0-.8.2l-1.61,1.61a.805.805,0,0,0,.242,1.305l7.246,3.22.654-1.472L100.3,79.273l.441-.441Z" transform="translate(-98.092 -77.117)"/></g><g transform="translate(8.868 5.67)"><path class="a" d="M115.808,60.877a.8.8,0,0,0-.805-.805h0a6.589,6.589,0,0,0-4.69,1.943l-6.827,6.827-2.778-.695a.805.805,0,0,0-.765.212l-1.61,1.61a.8.8,0,0,0,.155,1.259l3.853,2.312,2.312,3.853a.8.8,0,0,0,.592.385.788.788,0,0,0,.1.006.811.811,0,0,0,.57-.235l1.61-1.61a.807.807,0,0,0,.212-.765l-.694-2.775,6.936-6.868A6.642,6.642,0,0,0,115.808,60.877Zm-10.229,10.7a.805.805,0,0,0-.215.767l.695,2.778-.559.559-1.885-3.142a.8.8,0,0,0-.276-.276L100.2,70.377l.559-.559,2.778.695a.805.805,0,0,0,.765-.212l7.149-7.149a4.98,4.98,0,0,1,2.684-1.4,4.964,4.964,0,0,1-1.308,2.646Z" transform="translate(-98.094 -60.072)"/></g><g transform="translate(18.595 12.687)"><path class="a" d="M207.48,142.559l-2.415-8.156-1.544.457,2.27,7.663-.489.432-2.684-6.227-1.479.638,3.124,7.246a.806.806,0,0,0,.564.467.825.825,0,0,0,.176.019.8.8,0,0,0,.532-.2l1.707-1.506A.806.806,0,0,0,207.48,142.559Z" transform="translate(-201.138 -134.403)"/></g><g transform="translate(0.039 19.638)"><g transform="translate(0)"><path class="a" d="M19.861,232.8c-5.734,2.717-10.232,3.068-12.338.963-3.65-3.65.314-14.256,9.221-24.671l-1.224-1.047C5.75,219.466,1.993,230.51,6.383,234.9a6.95,6.95,0,0,0,5.106,1.836,22.038,22.038,0,0,0,9.061-2.483Z" transform="translate(-4.565 -208.043)"/></g></g><g transform="translate(27.386 22.577)"><path class="a" d="M309.47,244.429a.805.805,0,0,0-.71-.425h-2.723l-2.193-4.385a.806.806,0,0,0-.721-.445h-8.051a.8.8,0,0,0-.805.805v6.441a.8.8,0,0,0,.805.805h2.415v8.856a.8.8,0,0,0,.805.805h4.026a.805.805,0,0,0,.57-.237l3.22-3.22a.8.8,0,0,0,.236-.569v-2.977l3.085-4.628A.805.805,0,0,0,309.47,244.429Zm-4.6,4.764a.809.809,0,0,0-.135.447v2.887l-2.749,2.749H299.1v-8.856a.8.8,0,0,0-.805-.805h-2.415v-4.831h6.749l2.193,4.385a.806.806,0,0,0,.721.445h1.717Z" transform="translate(-294.267 -239.173)"/></g><g transform="translate(28.996 8.89)"><path class="a" d="M325.481,106.256l-2.989-5.23a.805.805,0,0,0-.7-.406h-4.831a.806.806,0,0,0-.67.358l-1.371,2.057h-1.985V99.01h4.026a.8.8,0,0,0,.569-.236l2.985-2.985h3.692v-1.61h-4.026a.8.8,0,0,0-.569.236L316.629,97.4h-4.5a.8.8,0,0,0-.805.805v5.636a.8.8,0,0,0,.805.805h3.22a.806.806,0,0,0,.67-.358l1.371-2.057h3.933l2.989,5.23a.8.8,0,0,0,.7.406h3.22v-1.61Z" transform="translate(-311.327 -94.179)"/></g><g transform="translate(11.283 26.603)"><path class="a" d="M135.764,284.234h-4.5l-2.179-2.179a.8.8,0,0,0-.569-.236h-4.026a.8.8,0,0,0-.805.805v5.636a.8.8,0,0,0,.805.805h3.22v8.051a.805.805,0,0,0,1.288.644l3.22-2.415a.806.806,0,0,0,.322-.644v-2.029l3.724-2.978a.806.806,0,0,0,.3-.629V285.04A.805.805,0,0,0,135.764,284.234Zm-.805,4.444-3.724,2.978a.806.806,0,0,0-.3.629V294.3l-1.61,1.208V288.26a.8.8,0,0,0-.805-.805H125.3v-4.026h2.887l2.179,2.179a.8.8,0,0,0,.569.236h4.026Z" transform="translate(-123.687 -281.819)"/></g><g transform="translate(0.817 12.916)"><path class="a" d="M19.134,141.241l-2.415-4.026a.8.8,0,0,0-.69-.391h-.805v1.61h.349l1.857,3.1L15.459,143.5a.8.8,0,0,0-.236.569v2.415H12.808v1.61h3.22a.805.805,0,0,0,.805-.805V144.4l2.179-2.179A.806.806,0,0,0,19.134,141.241Z" transform="translate(-12.808 -136.825)"/></g><g transform="translate(14.949 0.839)"><path class="a" d="M172.541,8.889v.982l-2.611.653a.818.818,0,0,0-.251.111l-2.027,1.351L163.24,9.779l-.721,1.44,4.831,2.415a.805.805,0,0,0,.806-.051l2.3-1.533,3.086-.771a.805.805,0,0,0,.61-.781V8.889Z" transform="translate(-162.519 -8.889)"/></g></g></svg>