<svg xmlns="http://www.w3.org/2000/svg" width="30.982" height="48.068" viewBox="0 0 30.982 48.068"><defs><style>.a{fill:#fe9435;}</style></defs><path class="a" d="M120.573,0H92.408A1.408,1.408,0,0,0,91,1.408V46.66a1.408,1.408,0,0,0,1.408,1.408h28.165a1.408,1.408,0,0,0,1.408-1.408V1.408A1.408,1.408,0,0,0,120.573,0Zm-1.408,45.252H93.816V2.817h25.349Z" transform="translate(-91)"/><path class="a" d="M218.041,422h-5.633a1.408,1.408,0,1,0,0,2.817h5.633a1.408,1.408,0,0,0,0-2.817Z" transform="translate(-199.734 -382.381)"/><path class="a" d="M193.674,271H182.408a1.408,1.408,0,1,0,0,2.816h11.266a1.408,1.408,0,1,0,0-2.816Z" transform="translate(-172.551 -245.558)"/><path class="a" d="M193.674,331H182.408a1.408,1.408,0,1,0,0,2.816h11.266a1.408,1.408,0,1,0,0-2.816Z" transform="translate(-172.551 -299.924)"/><path class="a" d="M160.4,76.916a1.41,1.41,0,0,0,.917,0c4.752-1.638,9.4-5.861,9.4-11.283a5.631,5.631,0,0,0-9.858-3.722A5.631,5.631,0,0,0,151,65.633C151,71.077,155.677,75.289,160.4,76.916Zm-3.766-14.1a2.82,2.82,0,0,1,2.817,2.817,1.408,1.408,0,1,0,2.816,0,2.817,2.817,0,1,1,5.633,0c0,5.069-5.416,7.748-7.043,8.439-1.633-.687-7.039-3.346-7.039-8.439A2.82,2.82,0,0,1,156.633,62.817Z" transform="translate(-145.367 -54.367)"/></svg>