<svg xmlns="http://www.w3.org/2000/svg" width="65.196" height="49.32" viewBox="0 0 65.196 49.32"><defs><style>.a{fill:#fe9435;stroke:#fe9435;}</style></defs><g transform="translate(0.5 0.5)"><path class="a" d="M61.567,69.452H58.555v-2.5a3.6,3.6,0,0,0-3.6-3.6h-2.87a3.6,3.6,0,0,0-3.6,3.6v10.3H43.68V74.485a3.636,3.636,0,0,0-5.755-2.959,3.639,3.639,0,0,0-6.469-.2,3.631,3.631,0,0,0-5.252.877A3.637,3.637,0,0,0,20.2,74.968v2.283H15.707V74.6a.94.94,0,0,0-1.879,0V96.429a1.72,1.72,0,0,1-1.718,1.718H9.239a1.72,1.72,0,0,1-1.718-1.718V66.95a1.72,1.72,0,0,1,1.718-1.718h2.87a1.72,1.72,0,0,1,1.718,1.718v3.643a.94.94,0,1,0,1.879,0V66.95a3.6,3.6,0,0,0-3.6-3.6H9.239a3.6,3.6,0,0,0-3.6,3.6v2.5H2.63A2.633,2.633,0,0,0,0,72.082V91.3a2.633,2.633,0,0,0,2.63,2.63H5.641v2.5a3.6,3.6,0,0,0,3.6,3.6h2.87a3.6,3.6,0,0,0,3.6-3.6v-10.3h3.22v1.716a3.825,3.825,0,0,0,.869,2.424l2.918,3.548v16.916a.94.94,0,0,0,1.879,0V93.48a.94.94,0,0,0-.214-.6l-3.132-3.808a1.941,1.941,0,0,1-.441-1.23V86.128l17.772.109a.94.94,0,1,0,0-1.879H34.3a1.6,1.6,0,1,1,0-3.2h8.08a1.008,1.008,0,0,1,1.007,1.007v5.679a1.94,1.94,0,0,1-.441,1.23l-3.132,3.808a.94.94,0,0,0-.214.6v2.479a.94.94,0,1,0,1.879,0V93.816L44.4,90.268a3.826,3.826,0,0,0,.869-2.424V86.128h3.22v10.3a3.6,3.6,0,0,0,3.6,3.6h2.87a3.6,3.6,0,0,0,3.6-3.6v-2.5h3.011A2.633,2.633,0,0,0,64.2,91.3V72.082A2.632,2.632,0,0,0,61.567,69.452ZM2.63,92.047a.751.751,0,0,1-.75-.75V72.082a.751.751,0,0,1,.75-.75H5.641V92.047ZM40.04,72.725a1.762,1.762,0,0,1,1.76,1.76v3.5a1.759,1.759,0,0,1-.571,1.294h-2.38a1.759,1.759,0,0,1-.571-1.294v-3.5A1.763,1.763,0,0,1,40.04,72.725Zm-7.161.367a1.76,1.76,0,1,1,3.521,0v4.892a1.759,1.759,0,0,1-.571,1.294H34.3a3.475,3.475,0,0,0-.755.084,1.751,1.751,0,0,1-.668-1.378V73.092Zm-5.4,1.119a1.761,1.761,0,0,1,3.521,0v3.772a1.761,1.761,0,1,1-3.521,0Zm-5.4.757a1.76,1.76,0,0,1,3.521,0v3.016a1.76,1.76,0,1,1-3.521,0ZM15.707,79.13h4.678a3.637,3.637,0,0,0,6.155,1.291,3.626,3.626,0,0,0,4.784.542,3.473,3.473,0,0,0-.163,3.285H15.707Zm29.563,5.118V82.165a2.891,2.891,0,0,0-1.9-2.712q.07-.158.124-.322h5v5.118ZM62.317,91.3a.751.751,0,0,1-.75.75H58.555V89.332a.94.94,0,1,0-1.879,0v7.1a1.72,1.72,0,0,1-1.718,1.718h-2.87a1.72,1.72,0,0,1-1.718-1.718V66.95a1.72,1.72,0,0,1,1.718-1.718h2.87a1.72,1.72,0,0,1,1.718,1.718V85.327a.94.94,0,1,0,1.879,0v-14h3.011a.751.751,0,0,1,.75.75Z" transform="translate(0 -63.352)"/><path class="a" d="M317,348.04a.94.94,0,0,0-.94.94v10.77a.94.94,0,1,0,1.879,0V348.98A.94.94,0,0,0,317,348.04Z" transform="translate(-276.462 -312.369)"/></g></svg>