<svg xmlns="http://www.w3.org/2000/svg" width="56.854" height="49.336" viewBox="0 0 56.854 49.336"><defs><style>.a{fill:#fe9435;stroke:#fe9435;}</style></defs><g transform="translate(0.5 0.505)"><g transform="translate(16.435 16.094)"><g transform="translate(0 0)"><path class="a" d="M135.673,144.629h-4.689V139.94a1.713,1.713,0,0,0-1.7-1.724h-6.769a1.712,1.712,0,0,0-1.712,1.712v4.689h-4.678a1.712,1.712,0,0,0-1.724,1.7v6.769a1.712,1.712,0,0,0,1.712,1.712H120.8v4.678a1.712,1.712,0,0,0,1.7,1.724h6.758a1.712,1.712,0,0,0,1.712-1.712h0V154.8h4.689a1.712,1.712,0,0,0,1.724-1.7v-6.758A1.712,1.712,0,0,0,135.673,144.629Zm-.586,7.872h-5.252a1.149,1.149,0,0,0-1.149,1.149V158.9H123.1v-5.252a1.149,1.149,0,0,0-1.149-1.149H116.7v-5.574h5.252a1.149,1.149,0,0,0,1.149-1.149v-5.264h5.574v5.252a1.149,1.149,0,0,0,1.149,1.149h5.264Z" transform="translate(-114.4 -138.216)"/></g></g><g transform="translate(0 0)"><path class="a" d="M47.924,33.682h-9.47V29.636a3.344,3.344,0,0,0-3.235-3.451q-.141,0-.282,0H20.917A3.345,3.345,0,0,0,17.4,29.354q-.007.141,0,.282v4.022H7.93c-3.655,0-7.93,2.08-7.93,7.93v25c0,5.85,4.275,7.93,7.93,7.93H47.924c3.655,0,7.93-2.08,7.93-7.93V41.612C55.854,35.762,51.591,33.682,47.924,33.682ZM19.7,29.636a1.078,1.078,0,0,1,1.23-1.23h14.01c1.23,0,1.23.885,1.23,1.23v4.022H19.7ZM53.556,66.585c0,5.08-3.93,5.631-5.631,5.631H7.93c-1.689,0-5.631-.552-5.631-5.631V41.612c0-5.08,3.93-5.631,5.631-5.631H47.924c1.689,0,5.631.552,5.631,5.631V66.585Z" transform="translate(0 -26.184)"/></g></g></svg>