<svg xmlns="http://www.w3.org/2000/svg" width="40.936" height="48.676" viewBox="0 0 40.936 48.676"><defs><style>.a{fill:#fe9435;stroke:#fe9435;stroke-width:0.5px;}</style></defs><g transform="translate(0.25 0.25)"><path class="a" d="M81.565,20.121a3.8,3.8,0,0,0-1.3-2.863,3.8,3.8,0,0,0-2.5-6.667h-.817a3.134,3.134,0,0,0-1.271.268V3.6a3.606,3.606,0,0,0-3.6-3.6H56.226a3.606,3.606,0,0,0-3.6,3.6v7.539a6.7,6.7,0,0,0-3.714-2.1,2.02,2.02,0,0,0-2.381,1.967V22.556a11.825,11.825,0,0,1-.769,4.217A26.612,26.612,0,0,0,43.941,35.5l-2.627,3.542a.942.942,0,0,0-.185.561v7.633a.941.941,0,0,0,.941.941H56.84a.941.941,0,0,0,.72-.335l3.226-3.831c1.537-.177,7.02-1.017,10.039-4.233h1.246a3.606,3.606,0,0,0,3.6-3.6V35.109a3.134,3.134,0,0,0,1.271.268h.817a3.8,3.8,0,0,0,2.5-6.667,3.8,3.8,0,0,0,0-5.726,3.8,3.8,0,0,0,1.3-2.863Zm-4.621-7.648h.817a1.922,1.922,0,1,1,0,3.844h-.817a1.272,1.272,0,0,1-1.271-1.271v-1.3A1.272,1.272,0,0,1,76.944,12.473ZM65.92,1.882V2.09a1.763,1.763,0,1,1-3.526,0V1.882Zm7.871,34.293a1.722,1.722,0,0,1-1.72,1.72H56.226a1.722,1.722,0,0,1-1.72-1.72V31.223a.941.941,0,0,0-1.882,0v4.952h0a3.606,3.606,0,0,0,3.6,3.6H67.874a19.436,19.436,0,0,1-7.636,2.4.941.941,0,0,0-.646.332L56.4,46.294H43.011V39.913l2.625-3.538a.942.942,0,0,0,.185-.561,24.437,24.437,0,0,1,1.7-8.372,13.7,13.7,0,0,0,.892-4.886V11.013a.12.12,0,0,1,.136-.12,5.241,5.241,0,0,1,4.078,5.426v6.625a.941.941,0,0,0,1.882,0V3.6a1.722,1.722,0,0,1,1.72-1.72h4.286V2.09a3.645,3.645,0,1,0,7.289,0V1.882h4.269a1.722,1.722,0,0,1,1.72,1.72V36.175Zm5.892-4.6A1.924,1.924,0,0,1,77.761,33.5h-.817a1.272,1.272,0,0,1-1.271-1.271v-1.3a1.272,1.272,0,0,1,1.271-1.271h.817A1.924,1.924,0,0,1,79.683,31.573Zm0-5.726a1.924,1.924,0,0,1-1.922,1.922h-.817A1.272,1.272,0,0,1,75.673,26.5V25.2a1.272,1.272,0,0,1,1.271-1.271h.817A1.924,1.924,0,0,1,79.683,25.847Zm-2.739-3.8a1.272,1.272,0,0,1-1.271-1.271v-1.3A1.272,1.272,0,0,1,76.944,18.2h.817a1.922,1.922,0,1,1,0,3.844h-.817Z" transform="translate(-41.129)"/><path class="a" d="M235.007,286.549h-4.495a3.254,3.254,0,1,0,0,6.507h4.495a3.254,3.254,0,1,0,0-6.507Zm0,4.625h-4.495a1.372,1.372,0,1,1,0-2.744h4.495a1.372,1.372,0,1,1,0,2.744Z" transform="translate(-209.745 -259.587)"/><path class="a" d="M220.619,93.014a.941.941,0,0,0-.936-.842h-2.467v-.7a3.073,3.073,0,1,0-6.147,0v.7h-2.494a.941.941,0,0,0-.936.842l-.941,8.872a.941.941,0,0,0,.936,1.04h12.99a.941.941,0,0,0,.936-1.04Zm-7.668-1.537a1.192,1.192,0,1,1,2.383,0v.7h-2.383Zm-4.271,9.567.741-6.99h1.648v.936a.941.941,0,0,0,1.882,0v-.936h2.383v.936a.941.941,0,0,0,1.882,0v-.936h1.621l.741,6.99Z" transform="translate(-191.115 -80.085)"/><path class="a" d="M165.224,277.846a.941.941,0,1,0-.509,1.229A.949.949,0,0,0,165.224,277.846Z" transform="translate(-151.91 -251.178)"/></g></svg>