<svg xmlns="http://www.w3.org/2000/svg" width="49.65" height="48.832" viewBox="0 0 49.65 48.832"><defs><style>.a{fill:#fe9435;stroke:#fe9435;stroke-width:0.5px;}</style></defs><g transform="translate(0.25 0.251)"><path class="a" d="M61.874,70.693V31.373h1.638a.819.819,0,0,0,.819-.819V24.819A.819.819,0,0,0,63.44,24L35.589,26.461a.819.819,0,0,0-.748.816v3.277a.819.819,0,0,0,.819.819H37.3V44.48h1.638V31.373h21.3v39.32H54.867a3.059,3.059,0,0,0,.453-1.615,2.956,2.956,0,0,0-1.061-2.241c-.4-.4-.577-.6-.577-1.06,0-2.035-1.126-4.1-3.277-4.1s-3.277,2.06-3.277,4.1c0,.459-.177.657-.577,1.06a2.956,2.956,0,0,0-1.061,2.241,3.06,3.06,0,0,0,.453,1.615H37.3V60.044a.819.819,0,0,0-.819-.819H31.564a.819.819,0,0,0-.819.819V70.693H28.288V56.228l9.83-4.3,9.83,4.3v4.635h1.638V56.945l1.31.573a.819.819,0,0,0,1.148-.751v-4.1a.819.819,0,0,0-.491-.75L38.446,46.187a.819.819,0,0,0-.657,0L24.683,51.921a.819.819,0,0,0-.491.75v4.1a.819.819,0,0,0,1.148.75l1.31-.573V70.693H20.915V56.767h1.638V55.129H17.638V37.107H35.66V35.469H30.265l-3.037-3.037a.819.819,0,0,0-.579-.24H20.1a.819.819,0,0,0-.819.819v2.458H16.819a.819.819,0,0,0-.819.819v19.66a.819.819,0,0,0,.819.819h2.458V70.693H16v1.638H65.15V70.693ZM36.479,28.027l26.214-2.313v4.02H36.479ZM25.83,55.515V53.207l12.288-5.376,12.288,5.376v2.308l-.819-.358v-.027h-.063L38.446,50.283a.819.819,0,0,0-.657,0L26.712,55.129h-.063v.027ZM20.915,33.83H26.31l1.638,1.638H20.915ZM32.383,60.863H35.66v9.83H32.383Zm16.383,9.83a1.766,1.766,0,0,1-1.638-1.615c0-.476.179-.677.586-1.086a2.927,2.927,0,0,0,1.053-2.214c0-1.944,1.072-2.458,1.638-2.458,1.3,0,1.638,1.608,1.638,2.458A2.927,2.927,0,0,0,53.1,67.992c.406.41.586.61.586,1.086a1.766,1.766,0,0,1-1.638,1.615Z" transform="translate(-16 -24)"/><path class="a" d="M240.819,384a.819.819,0,0,0-.819.819v4.1a.819.819,0,0,0,.819.819h4.915a.819.819,0,0,0,.819-.819v-4.1a.819.819,0,0,0-.819-.819Zm4.1,4.1h-3.277v-2.458h3.277Z" transform="translate(-217.063 -347.137)"/><rect class="a" width="1.68" height="1.68" transform="translate(16.804 31.528)"/><path class="a" d="M57.011,177.83v-8.192h7.373V168H48.819a.819.819,0,0,0-.819.819v13.107a.819.819,0,0,0,.819.819h2.458v-1.638H49.638V169.638h5.734v8.192Z" transform="translate(-44.724 -153.255)"/><path class="a" d="M264.819,126.553h4.915a.819.819,0,0,0,.819-.819v-4.915a.819.819,0,0,0-.819-.819h-4.915a.819.819,0,0,0-.819.819v4.915A.819.819,0,0,0,264.819,126.553Zm.819-4.915h3.277v3.277h-3.277Z" transform="translate(-238.605 -110.17)"/><path class="a" d="M360.819,126.553h4.915a.819.819,0,0,0,.819-.819v-4.915a.819.819,0,0,0-.819-.819h-4.915a.819.819,0,0,0-.819.819v4.915A.819.819,0,0,0,360.819,126.553Zm.819-4.915h3.277v3.277h-3.277Z" transform="translate(-324.775 -110.17)"/><path class="a" d="M264,211.277h1.638v-1.638h3.277v4.1h1.638v-4.915a.819.819,0,0,0-.819-.819h-4.915a.819.819,0,0,0-.819.819Z" transform="translate(-238.605 -189.159)"/><path class="a" d="M360,213.734a.819.819,0,0,0,.819.819h4.915a.819.819,0,0,0,.819-.819v-4.915a.819.819,0,0,0-.819-.819h-4.915a.819.819,0,0,0-.819.819Zm1.638-4.1h3.277v3.277h-3.277Z" transform="translate(-324.775 -189.159)"/><path class="a" d="M384,300.915v1.638h3.277a.819.819,0,0,0,.819-.819v-4.915a.819.819,0,0,0-.819-.819H384v1.638h2.458v3.277Z" transform="translate(-346.318 -268.148)"/><rect class="a" width="1.68" height="1.68" transform="translate(6.722 34.888)"/></g></svg>