<svg xmlns="http://www.w3.org/2000/svg" width="55.263" height="48.331" viewBox="0 0 55.263 48.331"><defs><style>.a{fill:#fe9435;}</style></defs><path class="a" d="M50.176,0H25.9A5.093,5.093,0,0,0,20.81,5.087V20.662L16.3,18.42c-.152-.076-.307-.148-.463-.215a7.688,7.688,0,1,0-10.607.47A10.246,10.246,0,0,0,0,27.632v5.2a5.1,5.1,0,0,0,3.468,4.823v9.05a1.619,1.619,0,0,0,1.619,1.619h10.4a1.619,1.619,0,0,0,1.619-1.619V28.517l5.183,2.591a4.442,4.442,0,0,0,5.891-1.857h5.8l-6.147,16.9a1.619,1.619,0,0,0,3.043,1.107l6.549-18.01h1.135l6.616,18.015a1.619,1.619,0,0,0,3.04-1.116l-6.206-16.9h8.155a5.087,5.087,0,0,0,5.087-5.087V5.087A5.087,5.087,0,0,0,50.175,0ZM5.839,12.891a4.45,4.45,0,1,1,4.45,4.45,4.455,4.455,0,0,1-4.45-4.45ZM25.418,27.519l-.012.036a1.2,1.2,0,0,1-1.664.656c-3.079-1.54-7.527-3.763-7.527-3.763A1.62,1.62,0,0,0,13.873,25.9V45.089H6.706V36.3a1.619,1.619,0,0,0-1.619-1.619,1.851,1.851,0,0,1-1.849-1.849v-5.2a7.053,7.053,0,0,1,7.052-7.052H11.72a7.055,7.055,0,0,1,3.138.738s8.031,3.994,10.076,5.012a.971.971,0,0,1,.485,1.189Zm26.606-3.356a1.836,1.836,0,0,1-.541,1.308,1.861,1.861,0,0,1-1.308.541H28.538c0-.009-.005-.018-.008-.026l4.018-8.036a1.619,1.619,0,0,0-2.9-1.448l-3.427,6.854-2.177-1.084V5.087A1.851,1.851,0,0,1,25.9,3.238H50.175a1.86,1.86,0,0,1,1.309.542,1.834,1.834,0,0,1,.541,1.307Zm0,0" transform="translate(0.001)"/><path class="a" d="M276.027,64.266H258.685a1.619,1.619,0,1,0,0,3.238h17.342a1.619,1.619,0,1,0,0-3.238Zm0,0" transform="translate(-229.319 -57.329)"/><path class="a" d="M347.688,120.5h-8.671a1.619,1.619,0,0,0,0,3.238h8.671a1.619,1.619,0,1,0,0-3.238Zm0,0" transform="translate(-300.981 -107.494)"/><path class="a" d="M347.688,176.734h-8.671a1.619,1.619,0,0,0,0,3.238h8.671a1.619,1.619,0,1,0,0-3.238Zm0,0" transform="translate(-300.981 -157.658)"/></svg>