<svg xmlns="http://www.w3.org/2000/svg" width="48.998" height="48.705" viewBox="0 0 48.998 48.705"><defs><style>.a{fill:#fe9435;}</style></defs><path class="a" d="M38.427,35a9.427,9.427,0,1,0,9.427,9.427A9.437,9.437,0,0,0,38.427,35Zm0,17.282a7.856,7.856,0,1,1,7.856-7.856A7.864,7.864,0,0,1,38.427,52.282Z" transform="translate(-6.858 -8.291)"/><path class="a" d="M41,52.946v1.571a6.311,6.311,0,0,0,1.814-.266l-.452-1.5a4.734,4.734,0,0,1-1.361.2Z" transform="translate(-9.431 -12.097)"/><path class="a" d="M41,39v1.571a4.714,4.714,0,0,1,2.6,8.647l.867,1.31A6.285,6.285,0,0,0,41,39Z" transform="translate(-9.431 -9.149)"/><path class="a" d="M32.569,17.569a6.288,6.288,0,0,0-3.688-5.716,3.928,3.928,0,1,0-5.193,0A6.288,6.288,0,0,0,20,17.569V19.14H32.569ZM23.928,8.928a2.357,2.357,0,1,1,2.357,2.357A2.36,2.36,0,0,1,23.928,8.928Zm-2.357,8.641a4.713,4.713,0,1,1,9.427,0Z" transform="translate(-4.927 -1.858)"/><path class="a" d="M38,5h4.713V6.571H38Z" transform="translate(-8.788 -1.858)"/><path class="a" d="M38,9h4.713v1.571H38Z" transform="translate(-8.788 -2.715)"/><path class="a" d="M38,13h4.713v1.571H38Z" transform="translate(-8.788 -3.573)"/><path class="a" d="M38,17h4.713v1.571H38Z" transform="translate(-8.788 -4.431)"/><path class="a" d="M38,21h4.713v1.571H38Z" transform="translate(-8.788 -5.289)"/><path class="a" d="M0,0H1.571V4.713H0Z" transform="translate(40.335 10.42) rotate(-77.993)"/><path class="a" d="M0,0H1.571V4.713H0Z" transform="translate(39.682 13.495) rotate(-77.993)"/><path class="a" d="M0,0H1.571V4.713H0Z" transform="translate(39.027 16.568) rotate(-77.993)"/><path class="a" d="M0,0H1.571V4.713H0Z" transform="translate(38.375 19.642) rotate(-77.993)"/><path class="a" d="M0,0H1.571V4.713H0Z" transform="translate(37.716 22.712) rotate(-77.993)"/><path class="a" d="M49.811,8.437,37.881,5.9V1H12.743V5.9L.813,8.437,6.079,33.208H4.888a3.928,3.928,0,1,0,0,7.856H16.671V39.492h3.372a12.563,12.563,0,1,0,24.4-5.856Zm-1.865,1.21L43.391,31.082a12.639,12.639,0,0,0-5.51-5.231V7.508ZM36.31,2.571V25.2a12.358,12.358,0,0,0-1.571-.408V19.853H15.885V31.637H21.1a12.461,12.461,0,0,0-1.055,3.142H16.671V33.208H14.314V2.571ZM22,30.065H17.457V21.424H33.168v3.182c-.261-.016-.52-.04-.786-.04A12.561,12.561,0,0,0,22,30.065ZM10.9,33.208,9.671,27.435l3.072-.653v6.426Zm-1.55-13.93a4.682,4.682,0,0,1,2.973-2.043c.137-.029.28-.045.422-.06v4.79l-4.052.862a4.683,4.683,0,0,1,.657-3.548Zm.873-3.908a2.344,2.344,0,1,1,2.522-3.951v3.946a2.237,2.237,0,0,1-.749.333A2.345,2.345,0,0,1,10.221,15.369ZM2.678,9.647,12.743,7.508V9.676a3.859,3.859,0,0,0-2.056-.126,3.927,3.927,0,0,0-1.321,7.135c.064.042.133.072.2.11a6.268,6.268,0,0,0-2.41,6.354l.325,1.538,5.263-1.119v1.606l-4.936,1.05,1.484,6.983H7.685ZM15.1,39.492H4.888a2.357,2.357,0,0,1,0-4.713H15.1Zm1.571-1.571V36.35h3.182c-.016.261-.04.52-.04.786s.024.525.04.786ZM32.382,48.133a11,11,0,1,1,11-11A11.01,11.01,0,0,1,32.382,48.133Z" transform="translate(-0.813 -1)"/></svg>