<svg xmlns="http://www.w3.org/2000/svg" width="49.031" height="49.031" viewBox="0 0 49.031 49.031"><defs><style>.a{fill:#fe9435;stroke:#fe9435;stroke-width:0.7px;}</style></defs><g transform="translate(0.35 0.35)"><g transform="translate(8.056 29.804)"><path class="a" d="M120.357,317.489c-.047-.078-.1-.153-.145-.219a3.139,3.139,0,0,0-4.381-.723l-9.006,6.431H97.417a.805.805,0,1,1,0-1.611h5.236a2.822,2.822,0,0,0,2.819-2.819c0-.009,0-.083,0-.091a2.829,2.829,0,0,0-2.882-2.728H92.109a4.042,4.042,0,0,0-2.546.935l-3.939,3.278a.808.808,0,0,0-.29.619v9.666a.805.805,0,0,0,.805.805h19.986a5.652,5.652,0,0,0,3.589-1.3l9.765-8.069A3.166,3.166,0,0,0,120.357,317.489Zm-1.857,2.9-9.812,8.1a4.042,4.042,0,0,1-2.564.926H86.945v-8.483l3.65-3.038a2.423,2.423,0,0,1,1.522-.561h10.5a1.231,1.231,0,0,1,1.247,1.209,1.21,1.21,0,0,1-1.208,1.208H97.417a2.417,2.417,0,0,0,0,4.833h9.666a.816.816,0,0,0,.47-.15l9.217-6.582a1.529,1.529,0,0,1,2.139.358c.024.033.046.067.067.1A1.564,1.564,0,0,1,118.5,320.39Z" transform="translate(-85.334 -315.726)"/></g><g transform="translate(0 33.026)"><path class="a" d="M8.837,349.867H0v1.611H8.031v12.083H0v1.611H8.837a.805.805,0,0,0,.805-.806V350.672A.805.805,0,0,0,8.837,349.867Z" transform="translate(0 -349.867)"/></g><g transform="translate(1.611 40.276)"><path class="a" d="M19.484,426.667a2.417,2.417,0,1,0,2.417,2.417A2.42,2.42,0,0,0,19.484,426.667Zm0,3.222a.805.805,0,1,1,.805-.805A.806.806,0,0,1,19.484,429.889Z" transform="translate(-17.067 -426.667)"/></g><g transform="translate(0 24.971)"><path class="a" d="M47.526,264.533H.805a.805.805,0,0,0-.805.805,5.645,5.645,0,0,0,5.639,5.639H42.693a5.646,5.646,0,0,0,5.639-5.639A.8.8,0,0,0,47.526,264.533Zm-4.833,4.833H5.639a4.034,4.034,0,0,1-3.946-3.222H46.639A4.034,4.034,0,0,1,42.693,269.366Z" transform="translate(0 -264.533)"/></g><g transform="translate(3.222 4.028)"><path class="a" d="M55.077,42.667A20.968,20.968,0,0,0,34.133,63.611v.805a.805.805,0,0,0,.805.805H75.215a.8.8,0,0,0,.805-.805v-.805A20.967,20.967,0,0,0,55.077,42.667ZM35.744,63.611a19.333,19.333,0,1,1,38.665,0Z" transform="translate(-34.133 -42.667)"/></g><g transform="translate(9.365 13.216)"><path class="a" d="M100.76,140.006a18.007,18.007,0,0,0-1.551,2.015l1.343.89a16.465,16.465,0,0,1,1.413-1.835Z" transform="translate(-99.209 -140.006)"/></g><g transform="translate(12.038 7.25)"><path class="a" d="M139.658,76.8a17.658,17.658,0,0,0-12.127,4.811l1.1,1.174a16.05,16.05,0,0,1,11.024-4.373Z" transform="translate(-127.531 -76.8)"/></g><g transform="translate(21.749)"><rect class="a" width="4.833" height="1.611"/></g><g transform="translate(23.36 0.806)"><rect class="a" width="1.611" height="4.028"/></g></g></svg>