<svg xmlns="http://www.w3.org/2000/svg" width="42.241" height="47.999" viewBox="0 0 42.241 47.999"><defs><style>.a{fill:#fe9435;fill-rule:evenodd;}</style></defs><path class="a" d="M41.3,19.375H9.32l30.721-8.9a.938.938,0,0,0,.64-1.161l-1.608-5.55A5.248,5.248,0,0,0,34.054,0,5.194,5.194,0,0,0,32.61.206L3.766,8.561A5.229,5.229,0,0,0,.207,15.024l1.571,5.422V42.781A5.223,5.223,0,0,0,6.994,48H18.259a.937.937,0,1,0,0-1.875H6.995a3.346,3.346,0,0,1-3.342-3.342V30.024H40.366V42.781a3.346,3.346,0,0,1-3.342,3.342H25.759a.937.937,0,1,0,0,1.875H37.024a5.223,5.223,0,0,0,5.217-5.217V20.313a.937.937,0,0,0-.937-.937Zm-16.53,8.773,3.983-6.9h5.181l-3.983,6.9Zm-7.346,0,3.983-6.9h5.181l-3.983,6.9Zm-7.346,0,3.983-6.9h5.181l-3.983,6.9Zm3.485-12.136L6.9,9.606l5-1.448a.93.93,0,0,0,.123.145l6.67,6.406-5,1.448a.933.933,0,0,0-.123-.145Zm12.562-11.8,6.67,6.406-5,1.448a.913.913,0,0,0-.123-.145l-6.67-6.406,5-1.448A.93.93,0,0,0,26.129,4.215ZM19.073,6.26l6.67,6.406-5,1.448a.913.913,0,0,0-.123-.145l-6.67-6.406,5-1.448A.99.99,0,0,0,19.073,6.26ZM33.132,2.007a3.315,3.315,0,0,1,.922-.131,3.364,3.364,0,0,1,3.218,2.412l1.347,4.649-3.761,1.089a.953.953,0,0,0-.123-.145l-6.67-6.406ZM2.295,11.962a3.318,3.318,0,0,1,1.993-1.6l.551-.16a.953.953,0,0,0,.123.145l6.67,6.406-8.277,2.4L2.008,14.5a3.319,3.319,0,0,1,.287-2.54ZM3.652,21.25H11.9l-3.983,6.9H3.652Zm28.467,6.9,3.983-6.9h4.264v6.9Zm0,0" transform="translate(0)"/><path class="a" d="M206.178,350.084a.937.937,0,0,0-.469-.812l-8.236-4.755a.937.937,0,0,0-1.406.812v9.51a.937.937,0,0,0,1.406.811l8.236-4.755a.937.937,0,0,0,.469-.812Zm-8.236,3.131v-6.263l5.424,3.131Zm0,0" transform="translate(-177.686 -312.105)"/><path class="a" d="M225.71,492a.937.937,0,1,0,.937.937A.939.939,0,0,0,225.71,492Zm0,0" transform="translate(-203.701 -445.876)"/></svg>