<svg id="analytics_1_" data-name="analytics (1)" xmlns="http://www.w3.org/2000/svg" width="49.375" height="49.375" viewBox="0 0 49.375 49.375">
  <g id="Group_1325" data-name="Group 1325">
    <g id="Group_1324" data-name="Group 1324">
      <path id="Path_7311" data-name="Path 7311" d="M46.007,42.48a3.371,3.371,0,0,0,3.367-3.367V4.822A4.827,4.827,0,0,0,44.553,0H4.822A4.827,4.827,0,0,0,0,4.822V39.112A3.371,3.371,0,0,0,3.367,42.48H4.436v4.966H.964a.964.964,0,1,0,0,1.929H48.41a.964.964,0,1,0,0-1.929H44.939V42.48ZM1.929,4.822A2.9,2.9,0,0,1,4.822,1.929H44.553a2.9,2.9,0,0,1,2.893,2.893V6.943H2.026c-.033,0-.065,0-.1,0Zm8.679,42.624H6.365V38.767h4.243Zm10.8,0H17.165V28.1h4.243Zm10.8,0H27.966V36.259h4.243Zm11.765-22.71H37.8a.964.964,0,0,0-.964.964v4.87a.964.964,0,1,0,1.929,0V26.664H43.01V47.446H38.767V37.055a.964.964,0,1,0-1.929,0V47.446h-2.7V35.3a.964.964,0,0,0-.964-.964H27a.964.964,0,0,0-.964.964V47.446h-2.7V27.14a.964.964,0,0,0-.964-.964H16.2a.964.964,0,0,0-.964.964V47.446h-2.7V37.8a.964.964,0,0,0-.964-.964H5.4a.964.964,0,0,0-.964.964v2.749H3.367a1.44,1.44,0,0,1-1.439-1.439V8.867c.032,0,.064,0,.1,0h45.42v30.24a1.44,1.44,0,0,1-1.439,1.439H44.939V25.7A.964.964,0,0,0,43.974,24.735Z" fill="#5e6fb5"/>
    </g>
  </g>
  <g id="Group_1327" data-name="Group 1327" transform="translate(20.45 3.472)">
    <g id="Group_1326" data-name="Group 1326">
      <path id="Path_7312" data-name="Path 7312" d="M234.817,36H213.029a.964.964,0,0,0,0,1.929h21.788a.964.964,0,1,0,0-1.929Z" transform="translate(-212.065 -36)" fill="#5e6fb5"/>
    </g>
  </g>
  <g id="Group_1329" data-name="Group 1329" transform="translate(9.065 3.472)">
    <g id="Group_1328" data-name="Group 1328">
      <path id="Path_7313" data-name="Path 7313" d="M95.646,36.283a.964.964,0,1,0,.283.682A.972.972,0,0,0,95.646,36.283Z" transform="translate(-94 -36)" fill="#5e6fb5"/>
    </g>
  </g>
  <g id="Group_1331" data-name="Group 1331" transform="translate(5.207 3.472)">
    <g id="Group_1330" data-name="Group 1330">
      <path id="Path_7314" data-name="Path 7314" d="M55.646,36.283a.964.964,0,1,0,.283.682A.972.972,0,0,0,55.646,36.283Z" transform="translate(-54 -36)" fill="#5e6fb5"/>
    </g>
  </g>
  <g id="Group_1333" data-name="Group 1333" transform="translate(12.922 3.472)">
    <g id="Group_1332" data-name="Group 1332">
      <path id="Path_7315" data-name="Path 7315" d="M135.646,36.283a.964.964,0,1,0,.283.682A.97.97,0,0,0,135.646,36.283Z" transform="translate(-134 -36)" fill="#5e6fb5"/>
    </g>
  </g>
  <g id="Group_1335" data-name="Group 1335" transform="translate(36.838 33.042)">
    <g id="Group_1334" data-name="Group 1334">
      <path id="Path_7316" data-name="Path 7316" d="M383.646,342.923a.964.964,0,1,0,.283.682A.968.968,0,0,0,383.646,342.923Z" transform="translate(-382 -342.64)" fill="#5e6fb5"/>
    </g>
  </g>
  <g id="Group_1337" data-name="Group 1337" transform="translate(4.951 13.109)">
    <g id="Group_1336" data-name="Group 1336">
      <path id="Path_7317" data-name="Path 7317" d="M87.274,135.939a3.469,3.469,0,0,0-2.809,5.508l-6.406,6.406a3.463,3.463,0,0,0-3.2-.078l-6.689-6.689a3.472,3.472,0,1,0-5.991.149l-5.695,5.695a3.474,3.474,0,1,0,1.364,1.364l5.763-5.763a3.464,3.464,0,0,0,3.2-.081l6.623,6.623a3.472,3.472,0,1,0,5.995.144L86,142.639a3.471,3.471,0,1,0,1.274-6.7ZM54.808,151.513a1.543,1.543,0,1,1,1.543-1.543A1.545,1.545,0,0,1,54.808,151.513ZM65.13,140.954a1.543,1.543,0,1,1,1.543-1.543A1.545,1.545,0,0,1,65.13,140.954Zm11.254,11.482a1.543,1.543,0,1,1,1.543-1.543A1.545,1.545,0,0,1,76.384,152.435Zm10.89-11.482a1.543,1.543,0,1,1,1.543-1.543A1.545,1.545,0,0,1,87.274,140.954Z" transform="translate(-51.336 -135.939)" fill="#5e6fb5"/>
    </g>
  </g>
  <g id="Group_1339" data-name="Group 1339" transform="translate(12.658 12.153)">
    <g id="Group_1338" data-name="Group 1338">
      <path id="Path_7318" data-name="Path 7318" d="M132.906,126.3a.964.964,0,1,0,.283.682A.973.973,0,0,0,132.906,126.3Z" transform="translate(-131.26 -126.02)" fill="#5e6fb5"/>
    </g>
  </g>
  <g id="Group_1341" data-name="Group 1341" transform="translate(4.436 12.153)">
    <g id="Group_1340" data-name="Group 1340">
      <path id="Path_7319" data-name="Path 7319" d="M51.593,126.021H46.964a.964.964,0,0,0,0,1.929h4.629a.964.964,0,1,0,0-1.929Z" transform="translate(-46 -126.021)" fill="#5e6fb5"/>
    </g>
  </g>
  <g id="Group_1343" data-name="Group 1343" transform="translate(4.436 16.782)">
    <g id="Group_1342" data-name="Group 1342">
      <path id="Path_7320" data-name="Path 7320" d="M51.593,174.021H46.964a.964.964,0,0,0,0,1.929h4.629a.964.964,0,1,0,0-1.929Z" transform="translate(-46 -174.021)" fill="#5e6fb5"/>
    </g>
  </g>
</svg>
