<svg id="settings_1_" data-name="settings (1)" xmlns="http://www.w3.org/2000/svg" width="52.695" height="61.277" viewBox="0 0 52.695 61.277">
  <g id="Group_1308" data-name="Group 1308" transform="translate(0.917 0.917)">
    <rect id="Rectangle_413" data-name="Rectangle 413" width="34.149" height="59.445" rx="10" transform="translate(0 0)" fill="#009aee"/>
    <rect id="Rectangle_414" data-name="Rectangle 414" width="38.493" height="23.651" rx="3" transform="translate(28.899 10.437) rotate(90)" fill="#ebf7fe"/>
    <circle id="Ellipse_277" data-name="Ellipse 277" cx="2.112" cy="2.112" r="2.112" transform="translate(14.963 52.075)" fill="#6b77e8"/>
  </g>
  <path id="Path_7215" data-name="Path 7215" d="M85,51.362v-4.2l-3.632-.892a12.952,12.952,0,0,0-1.59-3.837l1.937-3.2-2.966-2.966-3.2,1.937a12.951,12.951,0,0,0-3.837-1.59l-.892-3.632h-4.2l-.892,3.632a12.951,12.951,0,0,0-3.837,1.59l-3.2-1.937-2.966,2.966,1.937,3.2a12.951,12.951,0,0,0-1.59,3.837l-3.632.892v4.2l3.632.892a12.952,12.952,0,0,0,1.59,3.837l-1.937,3.2,2.966,2.966,3.2-1.937a12.952,12.952,0,0,0,3.837,1.59l.892,3.632h4.2l.892-3.632a12.951,12.951,0,0,0,3.837-1.59l3.2,1.937,2.966-2.966-1.937-3.2a12.951,12.951,0,0,0,1.59-3.837ZM68.722,56.926a7.664,7.664,0,1,1,7.664-7.664A7.664,7.664,0,0,1,68.722,56.926Z" transform="translate(-33.229 -18.624)" fill="#fff"/>
  <g id="Group_1309" data-name="Group 1309">
    <path id="Path_7216" data-name="Path 7216" d="M16.759,36.415a.919.919,0,0,0,.919-.919V11.8a4.335,4.335,0,0,1,4.33-4.33h6.813a.919.919,0,0,0,0-1.837H22.008A6.174,6.174,0,0,0,15.84,11.8V35.5a.918.918,0,0,0,.919.919Z" transform="translate(-15.84 -5.63)"/>
    <path id="Path_7217" data-name="Path 7217" d="M16.759,82.124a.919.919,0,0,0,.919-.919V72.729a.919.919,0,1,0-1.837,0v8.477a.918.918,0,0,0,.919.919Z" transform="translate(-15.84 -37.072)"/>
    <path id="Path_7218" data-name="Path 7218" d="M50.4,107.866a3.03,3.03,0,1,0-3.03,3.03,3.03,3.03,0,0,0,3.03-3.03Zm-4.223,0a1.193,1.193,0,1,1,1.193,1.193A1.193,1.193,0,0,1,46.18,107.866Z" transform="translate(-29.382 -52.763)"/>
    <path id="Path_7219" data-name="Path 7219" d="M35.558,16.416a.919.919,0,0,0,.919.921H49.922a.919.919,0,0,0,0-1.837H36.477a.919.919,0,0,0-.919.916Z" transform="translate(-25.208 -10.319)"/>
    <path id="Path_7220" data-name="Path 7220" d="M67.837,33.277l-3.1-.761a13.79,13.79,0,0,0-1.273-3.071l1.654-2.729a.92.92,0,0,0-.136-1.126L62.01,22.621a.919.919,0,0,0-1.126-.136L58.155,24.14a13.793,13.793,0,0,0-3.071-1.271l-.758-3.1a.918.918,0,0,0-.892-.7H51.822V11.8A6.175,6.175,0,0,0,45.654,5.63H34.616a.919.919,0,0,0,0,1.837H45.654a4.336,4.336,0,0,1,4.33,4.33v7.269h-.751a.918.918,0,0,0-.892.7l-.761,3.1c-.341.1-.676.21-1.008.329V18.558a2.5,2.5,0,0,0-2.493-2.493h-20.5a2.5,2.5,0,0,0-2.493,2.493V53.9a2.5,2.5,0,0,0,2.493,2.493h20.5A2.5,2.5,0,0,0,46.573,53.9V49.339c.332.121.667.234,1.008.329l.762,3.1a.918.918,0,0,0,.892.7h.751v7.271a4.336,4.336,0,0,1-4.33,4.33H22.008a4.335,4.335,0,0,1-4.33-4.33V55.553a.919.919,0,1,0-1.837,0v5.186a6.174,6.174,0,0,0,6.168,6.168H45.654a6.175,6.175,0,0,0,6.168-6.168V53.47h1.612a.918.918,0,0,0,.892-.7l.761-3.1A13.794,13.794,0,0,0,58.158,48.4l2.729,1.655a.919.919,0,0,0,1.123-.137l2.969-2.969a.92.92,0,0,0,.136-1.126l-1.652-2.728a13.79,13.79,0,0,0,1.271-3.07l3.1-.762a.917.917,0,0,0,.7-.892v-4.2a.917.917,0,0,0-.7-.892ZM44.736,53.9a.657.657,0,0,1-.656.656h-20.5a.657.657,0,0,1-.656-.656V18.558a.656.656,0,0,1,.656-.656h20.5a.657.657,0,0,1,.656.656v5.463c-.075.04-.151.077-.225.118l-2.729-1.655a.92.92,0,0,0-1.125.136l-2.97,2.969a.92.92,0,0,0-.136,1.125L39.2,29.445a13.765,13.765,0,0,0-1.271,3.07l-3.1.762a.918.918,0,0,0-.7.892v4.2a.918.918,0,0,0,.7.892l3.1.761A13.765,13.765,0,0,0,39.2,43.092L37.55,45.822a.92.92,0,0,0,.136,1.126l2.97,2.968a.918.918,0,0,0,1.125.136L44.511,48.4c.073.042.15.078.225.118ZM66.7,37.648l-2.934.72a.918.918,0,0,0-.676.682,12,12,0,0,1-1.476,3.565.919.919,0,0,0,0,.96l1.566,2.584-1.951,1.949-2.584-1.566a.918.918,0,0,0-.96,0,12,12,0,0,1-3.565,1.477.916.916,0,0,0-.682.675l-.72,2.935H49.954l-.72-2.935a.916.916,0,0,0-.682-.675,12.012,12.012,0,0,1-3.565-1.477.918.918,0,0,0-.96,0l-2.584,1.566-1.949-1.951,1.565-2.584a.919.919,0,0,0,0-.96A11.983,11.983,0,0,1,39.58,39.05a.919.919,0,0,0-.675-.682l-2.935-.72V34.889l2.935-.72a.919.919,0,0,0,.675-.682,11.983,11.983,0,0,1,1.476-3.565.919.919,0,0,0,0-.96l-1.565-2.583,1.951-1.951L44.029,26a.918.918,0,0,0,.96,0,12.012,12.012,0,0,1,3.565-1.477.916.916,0,0,0,.682-.675l.72-2.935h2.759l.719,2.935a.916.916,0,0,0,.682.675,12,12,0,0,1,3.565,1.477.918.918,0,0,0,.96,0l2.584-1.566,1.951,1.951-1.566,2.584a.919.919,0,0,0,0,.96,12,12,0,0,1,1.476,3.565.918.918,0,0,0,.676.682l2.934.72Z" transform="translate(-15.84 -5.63)"/>
    <path id="Path_7221" data-name="Path 7221" d="M75.694,47.652a8.581,8.581,0,1,0,8.582,8.581A8.581,8.581,0,0,0,75.694,47.652Zm0,15.327a6.744,6.744,0,1,1,6.744-6.745,6.744,6.744,0,0,1-6.744,6.745Z" transform="translate(-40.2 -25.595)"/>
  </g>
</svg>
