<svg xmlns="http://www.w3.org/2000/svg" width="49.325" height="53.665" viewBox="0 0 49.325 53.665">
  <g id="light-bulb" transform="translate(-20.702)">
    <g id="Group_1358" data-name="Group 1358" transform="translate(20.702 0)">
      <g id="Group_1345" data-name="Group 1345" transform="translate(23.615)">
        <g id="Group_1344" data-name="Group 1344">
          <path id="Path_7321" data-name="Path 7321" d="M247.048,5.323A1.048,1.048,0,0,1,246,4.275V1.048a1.048,1.048,0,0,1,2.1,0V4.275A1.048,1.048,0,0,1,247.048,5.323Z" transform="translate(-246 0)" fill="#ae19bf"/>
        </g>
      </g>
      <g id="Group_1350" data-name="Group 1350" transform="translate(7.698 6.593)">
        <g id="Group_1347" data-name="Group 1347" transform="translate(0 0)">
          <g id="Group_1346" data-name="Group 1346">
            <path id="Path_7322" data-name="Path 7322" d="M97.478,67.276a1.045,1.045,0,0,1-.741-.307l-2.282-2.282a1.048,1.048,0,0,1,1.482-1.482l2.282,2.282a1.048,1.048,0,0,1-.741,1.789Z" transform="translate(-94.148 -62.898)" fill="#ae19bf"/>
          </g>
        </g>
        <g id="Group_1349" data-name="Group 1349" transform="translate(29.551)">
          <g id="Group_1348" data-name="Group 1348">
            <path id="Path_7323" data-name="Path 7323" d="M377.129,67.276a1.048,1.048,0,0,1-.741-1.789L378.67,63.2a1.048,1.048,0,0,1,1.482,1.482l-2.282,2.282A1.045,1.045,0,0,1,377.129,67.276Z" transform="translate(-376.081 -62.897)" fill="#ae19bf"/>
          </g>
        </g>
      </g>
      <g id="Group_1352" data-name="Group 1352" transform="translate(3.503 34.871)">
        <g id="Group_1351" data-name="Group 1351">
          <path id="Path_7324" data-name="Path 7324" d="M55.172,337.069a1.048,1.048,0,0,1-.741-1.789L56.713,333A1.048,1.048,0,1,1,58.2,334.48l-2.282,2.282A1.045,1.045,0,0,1,55.172,337.069Z" transform="translate(-54.124 -332.69)" fill="#ae19bf"/>
        </g>
      </g>
      <g id="Group_1354" data-name="Group 1354" transform="translate(41.444 34.871)">
        <g id="Group_1353" data-name="Group 1353">
          <path id="Path_7325" data-name="Path 7325" d="M419.436,337.069a1.045,1.045,0,0,1-.741-.307l-2.282-2.282A1.048,1.048,0,1,1,417.9,333l2.282,2.282a1.048,1.048,0,0,1-.741,1.789Z" transform="translate(-416.106 -332.69)" fill="#ae19bf"/>
        </g>
      </g>
      <g id="Group_1357" data-name="Group 1357" transform="translate(0 22.509)">
        <g id="Group_1355" data-name="Group 1355" transform="translate(44.002)">
          <path id="Path_7326" data-name="Path 7326" d="M444.785,216.847h-3.227a1.048,1.048,0,1,1,0-2.1h3.227a1.048,1.048,0,1,1,0,2.1Z" transform="translate(-440.51 -214.751)" fill="#ae19bf"/>
        </g>
        <g id="Group_1356" data-name="Group 1356">
          <path id="Path_7327" data-name="Path 7327" d="M24.977,216.847H21.75a1.048,1.048,0,1,1,0-2.1h3.227a1.048,1.048,0,1,1,0,2.1Z" transform="translate(-20.702 -214.751)" fill="#ae19bf"/>
        </g>
      </g>
    </g>
    <g id="Group_1365" data-name="Group 1365" transform="translate(27.304 6.708)">
      <g id="Group_1361" data-name="Group 1361" transform="translate(32.262 24.587)">
        <g id="Group_1360" data-name="Group 1360">
          <g id="Group_1359" data-name="Group 1359">
            <path id="Path_7328" data-name="Path 7328" d="M392.533,300.664a1.048,1.048,0,1,1,.582-1.919A1.051,1.051,0,0,1,392.533,300.664Z" transform="translate(-391.488 -298.568)" fill="#ae19bf"/>
          </g>
        </g>
      </g>
      <g id="Group_1364" data-name="Group 1364">
        <g id="Group_1363" data-name="Group 1363">
          <g id="Group_1362" data-name="Group 1362">
            <path id="Path_7329" data-name="Path 7329" d="M114.607,69.375a18.076,18.076,0,0,0-30.92,12.441,18.153,18.153,0,0,0,8.585,15.667,5.5,5.5,0,0,1,2.619,4.7v4.057a1.048,1.048,0,0,0,1.048,1.048h1.519V109.9a1.048,1.048,0,0,0,1.048,1.048h6.48a1.048,1.048,0,0,0,1.048-1.048v-2.618h1.519a1.048,1.048,0,0,0,1.048-1.048v-4.057a5.482,5.482,0,0,1,2.61-4.693,18.126,18.126,0,0,0,2.727-2.07,1.048,1.048,0,0,0-1.42-1.543,16.01,16.01,0,0,1-2.411,1.83,7.6,7.6,0,0,0-2.545,2.586V83.8a4.782,4.782,0,0,0-.774-2.611l-4.165-6.412a1.048,1.048,0,0,0-1.758,0L96.7,81.187a4.783,4.783,0,0,0-.773,2.611v14.5A7.629,7.629,0,0,0,93.376,95.7a16.136,16.136,0,0,1-7.593-13.858,16.015,16.015,0,0,1,16.2-15.75,16.03,16.03,0,0,1,15.723,15.963,16.225,16.225,0,0,1-.155,2.237,1.048,1.048,0,1,0,2.076.29,18.311,18.311,0,0,0,.175-2.527,17.955,17.955,0,0,0-5.2-12.681ZM98.46,82.329l.807-1.242h4.959l.807,1.242a2.689,2.689,0,0,1,.434,1.377,4.551,4.551,0,0,0-.935-.1,4.492,4.492,0,0,0-2.784.953,4.492,4.492,0,0,0-2.784-.953,4.55,4.55,0,0,0-.935.1A2.689,2.689,0,0,1,98.46,82.329Zm4.334,18.8v-14.7a2.438,2.438,0,0,1,2.673-.541v15.241ZM98.025,85.893a2.438,2.438,0,0,1,2.673.541v14.7H98.025Zm5.913,22.964H99.554v-1.57h4.384Zm2.567-3.666H96.987v-1.961h9.518Zm-4.759-27.92,1.118,1.721h-2.236Z" transform="translate(-83.685 -63.995)" fill="#ae19bf"/>
          </g>
        </g>
      </g>
    </g>
  </g>
</svg>
