<svg xmlns="http://www.w3.org/2000/svg" width="69" height="7.997" viewBox="0 0 69 7.997"><g transform="translate(0 -0.964)"><path d="M65.953,4.382a.912.912,0,0,1-1.262.1l-4.615-3.1c-.392-.268-.783-.6-1.176-.234L55.417,4.316a.862.862,0,0,1-1.262.1l-4.616-3.1c-.434-.267-.913-.534-1.3-.167L44.749,4.316a.862.862,0,0,1-1.262.1l-4.614-3.1c-.393-.267-.872-.534-1.307-.167L33.741,4.6a.917.917,0,0,1-.958-.114l-4.614-3.1c-.392-.268-.784-.6-1.177-.234L23.51,4.316a.862.862,0,0,1-1.262.1l-4.616-3.1c-.436-.267-.915-.534-1.306-.167L12.843,4.316a.862.862,0,0,1-1.262.1l-4.615-3.1c-.392-.267-.871-.534-1.307-.167L0,6.251V8.187l2.961-2.7c.391-.367.957-.067,1.306.167l4.615,3.1a.893.893,0,0,0,1.219-.1l3.527-3.171c.349-.333.958-.067,1.262.167l4.615,3.1a.911.911,0,0,0,1.262-.1L24.25,5.484c.391-.367.958-.067,1.306.167l4.616,3.1a.893.893,0,0,0,1.219-.1l3.677-3.272a1.287,1.287,0,0,1,1.106.267l4.616,3.1a.893.893,0,0,0,1.219-.1l3.526-3.171c.349-.333.958-.067,1.263.167l4.614,3.1a.912.912,0,0,0,1.263-.1l3.483-3.171c.391-.367.958-.067,1.3.167l4.616,3.1a.893.893,0,0,0,1.219-.1L69,3.581v-1.9Z" fill="#fff"/></g></svg>