<svg id="Component_150_1" data-name="Component 150 – 1" xmlns="http://www.w3.org/2000/svg" width="139.695" height="185" viewBox="0 0 139.695 185">
  <path id="Path_7309" data-name="Path 7309" d="M-3819.62,3711.95s4.589-4.031,8.73-4.031,7.833,4.031,7.833,4.031l53,54.352s4.276,3.431,4.276,7.045-4.276,7.41-4.276,7.41l-53,55.713a16.39,16.39,0,0,1-1.3,1.418c-1.327,1.31-3.841,3.327-6.541,3.327-4.141,0-8.735-4.745-8.735-4.745l-54.794-55.713s-4.238-3.893-4.238-7.507,4.238-6.948,4.238-6.948Z" transform="translate(3882.071 -3707.92)" fill="#16a7b0"/>
  <rect id="Rectangle_435" data-name="Rectangle 435" width="108" height="99" rx="15" transform="translate(16 86)" fill="#16a7b0"/>
  <path id="Path_7310" data-name="Path 7310" d="M-3816.6,3712.157s4.824-4.237,9.177-4.237,8.235,4.237,8.235,4.237l55.717,57.136s4.495,3.607,4.495,7.406-4.495,7.789-4.495,7.789l-55.717,58.567a17.256,17.256,0,0,1-1.371,1.49c-1.395,1.378-4.037,3.5-6.876,3.5-4.353,0-9.182-4.989-9.182-4.989l-57.6-58.567s-4.455-4.092-4.455-7.891,4.455-7.3,4.455-7.3Z" transform="translate(3878.667 -3699.334)" fill="#fff4eb"/>
</svg>
