<svg id="web-maintenance_2_" data-name="web-maintenance (2)" xmlns="http://www.w3.org/2000/svg" width="61.277" height="61.277" viewBox="0 0 61.277 61.277">
  <path id="XMLID_1045_" d="M166.976,466.784h21.309V464.39A2.394,2.394,0,0,0,185.892,462H169.37a2.394,2.394,0,0,0-2.394,2.394Z" transform="translate(-146.992 -406.704)" fill="#d3d7df"/>
  <path id="XMLID_1043_" d="M216,418h9.575v5.266H216Z" transform="translate(-190.149 -367.971)" fill="#bdaefa"/>
  <path id="XMLID_1041_" d="M45.095,90H66.49a2.394,2.394,0,0,1,2.394,2.394v34.468a2.394,2.394,0,0,1-2.394,2.394h-54.1A2.394,2.394,0,0,1,10,126.862V92.394A2.394,2.394,0,0,1,12.394,90h14.95" transform="translate(-8.803 -79.229)" fill="#bdaefa"/>
  <path id="XMLID_1040_" d="M66.49,358.136h-54.1A2.394,2.394,0,0,1,10,355.743V350H68.883v5.745A2.394,2.394,0,0,1,66.49,358.136Z" transform="translate(-8.803 -308.11)" fill="#fff"/>
  <path id="XMLID_1084_" d="M109.958,50.692H64v-38.3A2.394,2.394,0,0,1,66.394,10h41.17a2.394,2.394,0,0,1,2.394,2.394Z" transform="translate(-56.34 -8.803)" fill="#fff"/>
  <path id="XMLID_3080_" d="M161.473,224.565h2.49v-5.141h-2.49a12.188,12.188,0,0,0-1.7-4.093l1.761-1.761-3.634-3.634-1.761,1.761a12.193,12.193,0,0,0-4.093-1.7v-2.49h-5.139V210a12.187,12.187,0,0,0-4.093,1.7l-1.761-1.761-3.634,3.634,1.761,1.761a12.194,12.194,0,0,0-1.7,4.093H135v5.141h26.473Z" transform="translate(-118.843 -182.677)" fill="#bdaefa"/>
  <path id="XMLID_3079_" d="M224.821,295.863a4.788,4.788,0,1,0-8.079,0Z" transform="translate(-190.144 -253.977)" fill="#fff"/>
  <path id="XMLID_1083_" d="M107.564,10H66.394A2.394,2.394,0,0,0,64,12.394v7.181h45.958V12.394A2.394,2.394,0,0,0,107.564,10Z" transform="translate(-56.34 -8.803)" fill="#fff"/>
  <path id="XMLID_1082_" d="M109.958,19.575H64V12.394A2.394,2.394,0,0,1,66.394,10h41.17a2.394,2.394,0,0,1,2.394,2.394Z" transform="translate(-56.34 -8.803)" fill="#bdaefa"/>
  <path id="XMLID_88_" d="M67,90h45.24" transform="translate(-58.98 -79.229)" fill="#231f20"/>
  <path id="XMLID_294_" d="M57.687,9.575H54.814V3.59A3.6,3.6,0,0,0,51.224,0H10.053a3.6,3.6,0,0,0-3.59,3.59V9.575H3.59A3.6,3.6,0,0,0,0,13.165V47.633a3.6,3.6,0,0,0,3.59,3.59H24.654V54.1H22.378a3.6,3.6,0,0,0-3.59,3.59V60.08a1.2,1.2,0,0,0,1.2,1.2H41.293a1.2,1.2,0,0,0,1.2-1.2V57.686A3.6,3.6,0,0,0,38.9,54.1H36.623V51.223H57.687a3.6,3.6,0,0,0,3.59-3.59V13.165A3.6,3.6,0,0,0,57.687,9.575Zm0,2.394a1.2,1.2,0,0,1,1.2,1.2V40.692H54.814V11.968ZM10.053,2.394h41.17a1.2,1.2,0,0,1,1.2,1.2V9.575H8.856V3.59A1.2,1.2,0,0,1,10.053,2.394ZM3.59,11.968H6.463v8.975a1.2,1.2,0,1,0,2.394,0V11.968H52.421V40.692h-6.1V36.748a1.2,1.2,0,0,0-1.2-1.2H43.563a13.316,13.316,0,0,0-1.123-2.709l1.1-1.1a1.2,1.2,0,0,0,0-1.693l-3.634-3.634a1.2,1.2,0,0,0-1.693,0l-1.1,1.1A13.307,13.307,0,0,0,34.4,26.393V24.835a1.2,1.2,0,0,0-1.2-1.2H28.069a1.2,1.2,0,0,0-1.2,1.2v1.557a13.316,13.316,0,0,0-2.709,1.123l-1.1-1.1a1.2,1.2,0,0,0-1.693,0l-3.634,3.634a1.2,1.2,0,0,0,0,1.693l1.1,1.1a13.314,13.314,0,0,0-1.123,2.709H16.157a1.2,1.2,0,0,0-1.2,1.2v3.944h-6.1V31.714a1.2,1.2,0,0,0-2.394,0v8.977H2.394V13.165a1.2,1.2,0,0,1,1.2-1.2Zm17.6,19.84-.915-.915,1.941-1.941.915.915a1.2,1.2,0,0,0,1.5.158,10.962,10.962,0,0,1,3.691-1.53,1.2,1.2,0,0,0,.947-1.17V26.032h2.745v1.293a1.2,1.2,0,0,0,.947,1.17,10.962,10.962,0,0,1,3.691,1.53,1.2,1.2,0,0,0,1.5-.158l.915-.915L41,30.894l-.915.915a1.2,1.2,0,0,0-.158,1.5A10.964,10.964,0,0,1,41.46,37a1.2,1.2,0,0,0,1.17.947h1.292v2.747H36.462a5.985,5.985,0,1,0-11.647,0H17.354V37.944h1.293A1.2,1.2,0,0,0,19.817,37a10.962,10.962,0,0,1,1.53-3.691,1.2,1.2,0,0,0-.158-1.5Zm5.858,7.509a3.591,3.591,0,1,1,6.905,1.375H27.325A3.571,3.571,0,0,1,27.047,39.317ZM40.1,57.686v1.2H21.181v-1.2a1.2,1.2,0,0,1,1.2-1.2H38.9a1.2,1.2,0,0,1,1.2,1.2ZM34.229,54.1H27.048V51.223h7.181ZM57.687,48.83H3.59a1.2,1.2,0,0,1-1.2-1.2V43.085h56.49v4.548A1.2,1.2,0,0,1,57.687,48.83Z"/>
  <path id="XMLID_1617_" d="M277.2,42.394h12.926a1.2,1.2,0,0,0,0-2.394H277.2a1.2,1.2,0,0,0,0,2.394Z" transform="translate(-242.968 -35.213)"/>
  <path id="XMLID_1618_" d="M153.2,42.394a1.2,1.2,0,1,0-.846-.351A1.206,1.206,0,0,0,153.2,42.394Z" transform="translate(-133.808 -35.213)"/>
  <path id="XMLID_1620_" d="M109.2,42.394a1.2,1.2,0,1,0-.846-.351A1.206,1.206,0,0,0,109.2,42.394Z" transform="translate(-95.074 -35.213)"/>
  <path id="XMLID_1623_" d="M197.2,42.394a1.2,1.2,0,1,0-.846-.351A1.206,1.206,0,0,0,197.2,42.394Z" transform="translate(-172.542 -35.213)"/>
  <path id="XMLID_1624_" d="M103.2,130.392h2.848a1.2,1.2,0,1,0,0-2.394H103.2a1.2,1.2,0,1,0,0,2.394Z" transform="translate(-89.792 -112.679)"/>
  <path id="XMLID_1626_" d="M170.995,130.392h10.979a1.2,1.2,0,1,0,0-2.394H170.995a1.2,1.2,0,0,0,0,2.394Z" transform="translate(-149.476 -112.679)"/>
  <path id="XMLID_1627_" d="M103.2,178.39h6.942a1.2,1.2,0,0,0,0-2.394H103.2a1.2,1.2,0,1,0,0,2.394Z" transform="translate(-89.792 -154.933)"/>
  <path id="XMLID_1628_" d="M306.733,130.392h10.109a1.2,1.2,0,0,0,0-2.394H306.733a1.2,1.2,0,0,0,0,2.394Z" transform="translate(-268.969 -112.679)"/>
  <path id="XMLID_1633_" d="M330.949,176h-8.191a1.2,1.2,0,0,0,0,2.394h8.191a1.2,1.2,0,1,0,0-2.394Z" transform="translate(-283.076 -154.933)"/>
  <path id="XMLID_1635_" d="M55.2,212.384a1.2,1.2,0,1,0-.846-.351A1.206,1.206,0,0,0,55.2,212.384Z" transform="translate(-47.537 -184.858)"/>
</svg>
