<svg xmlns="http://www.w3.org/2000/svg" width="46.16" height="46.158" viewBox="0 0 46.16 46.158">
  <g id="idea" transform="translate(0 -0.012)">
    <g id="Group_1367" data-name="Group 1367" transform="translate(21.726 5.419)">
      <g id="Group_1366" data-name="Group 1366">
        <path id="Path_7330" data-name="Path 7330" d="M242.337,59.99a1.352,1.352,0,1,0,0,2.7,8.124,8.124,0,0,1,8.115,8.114,1.352,1.352,0,1,0,2.7,0A10.832,10.832,0,0,0,242.337,59.99Z" transform="translate(-240.985 -59.99)" fill="#fe9435"/>
      </g>
    </g>
    <g id="Group_1369" data-name="Group 1369" transform="translate(6.853 0.012)">
      <g id="Group_1368" data-name="Group 1368">
        <path id="Path_7331" data-name="Path 7331" d="M88.751.374A16.219,16.219,0,0,0,80.1,27a10.535,10.535,0,0,1,2.666,6.9v2.7a4.064,4.064,0,0,0,2.8,3.858,6.745,6.745,0,0,0,13.326,0,4.064,4.064,0,0,0,2.8-3.858v-2.7a10.676,10.676,0,0,1,2.745-6.993A16.23,16.23,0,0,0,88.751.374Zm3.486,43.091a4.138,4.138,0,0,1-3.825-2.8h7.651A4.138,4.138,0,0,1,92.237,43.465ZM99,36.613a1.354,1.354,0,0,1-1.352,1.352H86.828a1.354,1.354,0,0,1-1.352-1.352V35.261H99Zm3.415-11.481a13.561,13.561,0,0,0-3.341,7.424H85.4a13.365,13.365,0,0,0-3.275-7.349,13.523,13.523,0,1,1,20.288-.075Z" transform="translate(-76.01 -0.012)" fill="#fe9435"/>
      </g>
    </g>
    <g id="Group_1371" data-name="Group 1371" transform="translate(0 16.238)">
      <g id="Group_1370" data-name="Group 1370">
        <path id="Path_7332" data-name="Path 7332" d="M4.057,179.99h-2.7a1.352,1.352,0,1,0,0,2.7h2.7a1.352,1.352,0,1,0,0-2.7Z" transform="translate(0 -179.99)" fill="#fe9435"/>
      </g>
    </g>
    <g id="Group_1373" data-name="Group 1373" transform="translate(0.396 7.168)">
      <g id="Group_1372" data-name="Group 1372">
        <path id="Path_7333" data-name="Path 7333" d="M8.615,81.692,6.7,79.78A1.352,1.352,0,0,0,4.79,81.692L6.7,83.6a1.352,1.352,0,1,0,1.912-1.912Z" transform="translate(-4.394 -79.383)" fill="#fe9435"/>
      </g>
    </g>
    <g id="Group_1375" data-name="Group 1375" transform="translate(0.396 23.396)">
      <g id="Group_1374" data-name="Group 1374">
        <path id="Path_7334" data-name="Path 7334" d="M8.615,259.78a1.352,1.352,0,0,0-1.912,0L4.79,261.692A1.352,1.352,0,0,0,6.7,263.6l1.912-1.912A1.352,1.352,0,0,0,8.615,259.78Z" transform="translate(-4.393 -259.384)" fill="#fe9435"/>
      </g>
    </g>
    <g id="Group_1377" data-name="Group 1377" transform="translate(40.751 16.238)">
      <g id="Group_1376" data-name="Group 1376">
        <path id="Path_7335" data-name="Path 7335" d="M456.057,179.99h-2.7a1.352,1.352,0,0,0,0,2.7h2.7a1.352,1.352,0,1,0,0-2.7Z" transform="translate(-452 -179.99)" fill="#fe9435"/>
      </g>
    </g>
    <g id="Group_1379" data-name="Group 1379" transform="translate(41.147 7.168)">
      <g id="Group_1378" data-name="Group 1378">
        <path id="Path_7336" data-name="Path 7336" d="M460.615,79.78a1.352,1.352,0,0,0-1.913,0l-1.912,1.912A1.352,1.352,0,0,0,458.7,83.6l1.913-1.912A1.352,1.352,0,0,0,460.615,79.78Z" transform="translate(-456.393 -79.383)" fill="#fe9435"/>
      </g>
    </g>
    <g id="Group_1381" data-name="Group 1381" transform="translate(41.147 23.396)">
      <g id="Group_1380" data-name="Group 1380">
        <path id="Path_7337" data-name="Path 7337" d="M460.615,261.692,458.7,259.78a1.352,1.352,0,0,0-1.912,1.913L458.7,263.6a1.352,1.352,0,0,0,1.913-1.912Z" transform="translate(-456.393 -259.384)" fill="#fe9435"/>
      </g>
    </g>
  </g>
</svg>
