<svg xmlns="http://www.w3.org/2000/svg" width="60.828" height="60.828" viewBox="0 0 60.828 60.828">
  <g id="migrating" transform="translate(-2 -2)">
    <path id="Path_7265" data-name="Path 7265" d="M61.8,31.386a7.1,7.1,0,0,1-7.1,7.1H10.1a7.1,7.1,0,1,1,0-14.193h.852a10.132,10.132,0,0,1,17.539-9.935A13.17,13.17,0,1,1,51.9,24.29H54.7a7.1,7.1,0,0,1,7.1,7.1Z" transform="translate(0.014 0.014)" fill="#fff"/>
    <path id="Path_7266" data-name="Path 7266" d="M61.3,31.386a7.1,7.1,0,0,1-7.1,7.1H50.151a7.1,7.1,0,0,0,0-14.193H47.343A13.159,13.159,0,0,0,39.02,3.162,11.92,11.92,0,0,1,41.027,3,13.163,13.163,0,0,1,51.4,24.29h2.808a7.1,7.1,0,0,1,7.1,7.1Z" transform="translate(0.511 0.014)" fill="#71ead7"/>
    <path id="Path_7267" data-name="Path 7267" d="M41.5,37.028v22.3H26.29v1.014H20.207V59.331H5v-22.3A2.034,2.034,0,0,1,7.028,35H39.469A2.034,2.034,0,0,1,41.5,37.028Z" transform="translate(0.041 0.455)" fill="#71ead7"/>
    <path id="Path_7268" data-name="Path 7268" d="M41.11,37.028v22.3H35.028v-22.3A2.034,2.034,0,0,0,33,35h6.083A2.034,2.034,0,0,1,41.11,37.028Z" transform="translate(0.428 0.455)" fill="#37ac99"/>
    <path id="Path_7269" data-name="Path 7269" d="M33.317,47.11a3.041,3.041,0,0,1,0,6.083H13.041a3.041,3.041,0,1,1,0-6.083V46.1a5.069,5.069,0,0,1,5.069-5.069,5.541,5.541,0,0,1,3.041,1.014A5.935,5.935,0,0,1,26.221,39a6.067,6.067,0,0,1,5.728,8.11Z" transform="translate(0.11 0.51)" fill="#fff"/>
    <path id="Path_7270" data-name="Path 7270" d="M36.165,50.152a3.041,3.041,0,0,1-3.041,3.041H29.068a3.041,3.041,0,1,0,0-6.083H27.7a6.05,6.05,0,0,0-3.65-7.735A5.279,5.279,0,0,1,26.027,39a6.067,6.067,0,0,1,5.728,8.11h1.369a3.041,3.041,0,0,1,3.041,3.041Z" transform="translate(0.304 0.51)" fill="#37ac99"/>
    <path id="Path_7271" data-name="Path 7271" d="M49.221,37.138l-2.007.5.314.517.75,1.257-2.869,2.869-1.774-1.064-.5,2.007H39.083l-.5-2.007-1.774,1.064-2.869-2.869,1.064-1.774L33,37.138V33.083l2.007-.5-1.064-1.774,2.869-2.869,1.774,1.064.5-2.007h4.055l.5,2.007,1.774-1.064,2.869,2.869-1.064,1.774,2.007.5Z" transform="translate(0.428 0.345)" fill="#37ac99"/>
    <path id="Path_7272" data-name="Path 7272" d="M49.186,37.111l-2.007.5,1.064,1.774-2.869,2.869L43.6,41.186l-.5,2.007H39.048l-.5-2.007-1.774,1.064L35.55,41.024A12.656,12.656,0,0,0,44.117,36.1a12.214,12.214,0,0,0,2.311-7.127l1.815,1.815-1.064,1.774,2.007.5Z" transform="translate(0.463 0.372)" fill="#71ead7"/>
    <ellipse id="Ellipse_278" data-name="Ellipse 278" cx="3.5" cy="3" rx="3.5" ry="3" transform="translate(38 32)" fill="#fe9435"/>
    <path id="Path_7273" data-name="Path 7273" d="M43.429,57l-.466,2.6a2.028,2.028,0,0,1-1.946,1.46H5.533A2.028,2.028,0,0,1,3.586,59.6L3.12,57H20.233v1.014h6.083V57Z" transform="translate(0.015 0.759)" fill="#c6c5ca"/>
    <path id="Path_7274" data-name="Path 7274" d="M43,57l-.466,2.6a2.028,2.028,0,0,1-1.946,1.46H34.5a2.028,2.028,0,0,0,1.946-1.46l.466-2.6Z" transform="translate(0.448 0.759)" fill="#acabb1"/>
    <path id="Path_7275" data-name="Path 7275" d="M54.717,23.29h-.892A14.184,14.184,0,1,0,27.943,12.179,11.152,11.152,0,0,0,9.522,23.31,8.122,8.122,0,0,0,2,31.4a8.036,8.036,0,0,0,2.109,5.434,2.774,2.774,0,0,0-.081.649V56.745H3.135a1.014,1.014,0,0,0-.994,1.186l.466,2.6a.364.364,0,0,0,.02.112,3.063,3.063,0,0,0,2.92,2.19H41.031a3.063,3.063,0,0,0,2.92-2.19.364.364,0,0,0,.02-.112l.466-2.6a1.014,1.014,0,0,0-.994-1.186h-.892V44.579h1.014a1.014,1.014,0,0,0,.983-.77l.172-.679.6.365a1.014,1.014,0,0,0,1.237-.152l2.869-2.869a1.03,1.03,0,0,0,.264-.963h5.028a8.11,8.11,0,0,0,0-16.221ZM41.994,60.111a1.028,1.028,0,0,1-.963.689H5.548a1.028,1.028,0,0,1-.963-.689l-.233-1.338H19.235a1.014,1.014,0,0,0,1.014,1.014h6.083a1.014,1.014,0,0,0,1.014-1.014H42.227Zm-8.81-21.645.679.172-.365.6a1.014,1.014,0,0,0,.152,1.237l2.869,2.869a1.014,1.014,0,0,0,1.237.152l.6-.365.172.679a1.014,1.014,0,0,0,.983.77h1.014V56.745H26.331a1.014,1.014,0,0,0-1.014,1.014H21.262a1.014,1.014,0,0,0-1.014-1.014H6.055V37.483a1.079,1.079,0,0,1,.112-.456,1,1,0,0,1,.9-.558H32.414v1.014a1.014,1.014,0,0,0,.77.983Zm15.45-1.774L47.4,37a1.021,1.021,0,0,0-.689.6,1.033,1.033,0,0,0,.061.912l.659,1.095-1.744,1.744-1.095-.659a1.033,1.033,0,0,0-.912-.061,1.021,1.021,0,0,0-.6.689l-.3,1.237H40.3L40,41.315a1.021,1.021,0,0,0-.6-.689,1.033,1.033,0,0,0-.912.061l-1.095.659L35.648,39.6l.659-1.095a1.033,1.033,0,0,0,.061-.912,1.021,1.021,0,0,0-.689-.6l-1.237-.3V34.218l1.237-.3a1.021,1.021,0,0,0,.689-.6,1.033,1.033,0,0,0-.061-.912l-.659-1.095,1.744-1.744,1.095.649a1,1,0,0,0,.912.071A1.021,1.021,0,0,0,40,29.6l.3-1.237h2.474l.3,1.237a1.021,1.021,0,0,0,.6.689,1,1,0,0,0,.912-.071l1.095-.649,1.744,1.744L46.769,32.4a1.033,1.033,0,0,0-.061.912,1.021,1.021,0,0,0,.689.6l1.237.3Zm6.083.791H50.662V33.428a1.014,1.014,0,0,0-.77-.983l-.679-.172.365-.6a1.014,1.014,0,0,0-.152-1.237l-2.869-2.869a1.014,1.014,0,0,0-1.237-.152l-.6.365-.172-.679a1.014,1.014,0,0,0-.983-.77H39.51a1.014,1.014,0,0,0-.983.77l-.172.679-.6-.365a1.014,1.014,0,0,0-1.237.152l-2.869,2.869a1.014,1.014,0,0,0-.152,1.237l.365.6-.679.172a1.014,1.014,0,0,0-.77.983v1.014H7.069a3.029,3.029,0,0,0-1.815.608,6.073,6.073,0,0,1,4.856-9.732h.852a1.027,1.027,0,0,0,.852-.456,1.048,1.048,0,0,0,.081-.963,8.868,8.868,0,0,1-.77-3.65,9.124,9.124,0,0,1,16.555-5.292A1.011,1.011,0,0,0,29.5,14.51a12.157,12.157,0,0,1,24.2,1.683,11.981,11.981,0,0,1-2.6,7.482,1.014,1.014,0,0,0,.8,1.642h2.808a6.083,6.083,0,0,1,0,12.166Z" transform="translate(0 0)"/>
    <path id="Path_7276" data-name="Path 7276" d="M41,6V8.028a8.119,8.119,0,0,1,8.11,8.11h2.028A10.149,10.149,0,0,0,41,6Z" transform="translate(0.538 0.055)"/>
    <path id="Path_7277" data-name="Path 7277" d="M13,20.1h2.028A5.075,5.075,0,0,1,20.1,15.028V13A7.1,7.1,0,0,0,13,20.1Z" transform="translate(0.152 0.152)"/>
    <path id="Path_7278" data-name="Path 7278" d="M41.055,31a4.055,4.055,0,1,0,4.055,4.055A4.055,4.055,0,0,0,41.055,31Zm0,6.083a2.028,2.028,0,1,1,2.028-2.028A2.028,2.028,0,0,1,41.055,37.083Z" transform="translate(0.483 0.4)"/>
    <path id="Path_7279" data-name="Path 7279" d="M22,30h2.028v2.028H22Z" transform="translate(0.276 0.386)"/>
    <path id="Path_7280" data-name="Path 7280" d="M41.262,19H23.014A1.014,1.014,0,0,0,22,20.014v8.11h2.028v-7.1H40.248v3.041h2.028V20.014A1.014,1.014,0,0,0,41.262,19Z" transform="translate(0.276 0.235)"/>
    <path id="Path_7281" data-name="Path 7281" d="M33.331,46.11h-.075a6.8,6.8,0,0,0,.075-1.014,7.1,7.1,0,0,0-7.1-7.1,6.749,6.749,0,0,0-5.373,2.7,6.381,6.381,0,0,0-2.737-.677,6.089,6.089,0,0,0-6.083,6.083v.128a4.055,4.055,0,0,0,1.014,7.983H33.331a4.055,4.055,0,0,0,0-8.11Zm0,6.083H13.055a2.028,2.028,0,1,1,0-4.055,1.014,1.014,0,0,0,1.014-1.014V46.11a4.055,4.055,0,0,1,4.055-4.055,4.549,4.549,0,0,1,2.459.829,1.014,1.014,0,0,0,1.45-.3,4.909,4.909,0,0,1,4.2-2.553,5.055,5.055,0,0,1,4.773,6.759,1.014,1.014,0,0,0,.956,1.351h1.368a2.028,2.028,0,1,1,0,4.055Z" transform="translate(0.097 0.497)"/>
    <path id="Path_7282" data-name="Path 7282" d="M44,50h2.028v2.028H44Z" transform="translate(0.579 0.662)"/>
    <path id="Path_7283" data-name="Path 7283" d="M52.055,50.124H48v2.028h5.069a1.014,1.014,0,0,0,1.014-1.014V41H52.055Z" transform="translate(0.635 0.538)"/>
  </g>
</svg>
