<svg id="planning" xmlns="http://www.w3.org/2000/svg" width="50.349" height="50.349" viewBox="0 0 50.349 50.349">
  <g id="Group_1383" data-name="Group 1383">
    <g id="Group_1382" data-name="Group 1382">
      <path id="Path_7339" data-name="Path 7339" d="M47.4,32.707V4.425A4.43,4.43,0,0,0,42.973,0H10.424A4.43,4.43,0,0,0,6,4.425V6H4.425a4.425,4.425,0,0,0,0,8.85H6v5.9H4.425a4.425,4.425,0,0,0,0,8.85H6v5.9H4.425a4.425,4.425,0,1,0,0,8.85H6v1.475A4.549,4.549,0,0,0,7.271,48.98a4.334,4.334,0,0,0,3.152,1.369h29.6A10.39,10.39,0,0,0,47.4,32.707ZM4.425,11.9a1.475,1.475,0,1,1,0-2.95H7.474a1.475,1.475,0,1,1,0,2.95Zm0,14.751a1.475,1.475,0,0,1,0-2.95H7.474a1.475,1.475,0,0,1,0,2.95ZM7.474,41.4H4.425a1.475,1.475,0,1,1,0-2.95H7.474a1.475,1.475,0,1,1,0,2.95Zm2.95,6a1.567,1.567,0,0,1-1.475-1.573V44.1a4.424,4.424,0,0,0,0-8.343V29.346a4.424,4.424,0,0,0,0-8.343V14.6a4.424,4.424,0,0,0,0-8.343V4.425A1.477,1.477,0,0,1,10.424,2.95h32.55a1.477,1.477,0,0,1,1.475,1.475V30.6A10.323,10.323,0,0,0,29.7,39.925,10.441,10.441,0,0,0,32.833,47.4Zm29.6,0A7.425,7.425,0,1,1,47.4,39.925,7.433,7.433,0,0,1,40.023,47.4Z" fill="#f772a1"/>
    </g>
  </g>
  <g id="Group_1385" data-name="Group 1385" transform="translate(29.698 11.899)">
    <g id="Group_1384" data-name="Group 1384">
      <path id="Path_7340" data-name="Path 7340" d="M312.325,121h-8.85a1.475,1.475,0,1,0,0,2.95h8.85a1.475,1.475,0,0,0,0-2.95Z" transform="translate(-302 -121)" fill="#f772a1"/>
    </g>
  </g>
  <g id="Group_1387" data-name="Group 1387" transform="translate(29.698 23.699)">
    <g id="Group_1386" data-name="Group 1386">
      <path id="Path_7341" data-name="Path 7341" d="M312.325,241h-8.85a1.475,1.475,0,1,0,0,2.95h8.85a1.475,1.475,0,0,0,0-2.95Z" transform="translate(-302 -241)" fill="#f772a1"/>
    </g>
  </g>
  <g id="Group_1389" data-name="Group 1389" transform="translate(38.548 35.5)">
    <g id="Group_1388" data-name="Group 1388">
      <path id="Path_7342" data-name="Path 7342" d="M396.425,363.95H394.95v-1.475a1.475,1.475,0,0,0-2.95,0v2.95a1.475,1.475,0,0,0,1.475,1.475h2.95a1.475,1.475,0,1,0,0-2.95Z" transform="translate(-392 -361)" fill="#f772a1"/>
    </g>
  </g>
  <g id="Group_1391" data-name="Group 1391" transform="translate(14.434 8.949)">
    <g id="Group_1390" data-name="Group 1390">
      <path id="Path_7343" data-name="Path 7343" d="M158.566,91.432a1.475,1.475,0,0,0-2.086,0l-4.857,4.857L149.3,93.967a1.475,1.475,0,1,0-2.086,2.086l3.365,3.365a1.475,1.475,0,0,0,2.086,0l5.9-5.9A1.475,1.475,0,0,0,158.566,91.432Z" transform="translate(-146.783 -91)" fill="#f772a1"/>
    </g>
  </g>
  <g id="Group_1393" data-name="Group 1393" transform="translate(14.434 20.749)">
    <g id="Group_1392" data-name="Group 1392">
      <path id="Path_7344" data-name="Path 7344" d="M158.566,211.432a1.475,1.475,0,0,0-2.086,0l-4.857,4.857-2.322-2.322a1.475,1.475,0,1,0-2.086,2.086l3.365,3.365a1.475,1.475,0,0,0,2.086,0l5.9-5.9A1.475,1.475,0,0,0,158.566,211.432Z" transform="translate(-146.783 -211)" fill="#f772a1"/>
    </g>
  </g>
  <g id="Group_1395" data-name="Group 1395" transform="translate(14.434 32.55)">
    <g id="Group_1394" data-name="Group 1394">
      <path id="Path_7345" data-name="Path 7345" d="M158.566,331.432a1.475,1.475,0,0,0-2.086,0l-4.857,4.857-2.322-2.322a1.475,1.475,0,0,0-2.086,2.086l3.365,3.365a1.475,1.475,0,0,0,2.086,0l5.9-5.9A1.475,1.475,0,0,0,158.566,331.432Z" transform="translate(-146.783 -331)" fill="#f772a1"/>
    </g>
  </g>
</svg>
