<svg xmlns="http://www.w3.org/2000/svg" width="68.412" height="63.113" viewBox="0 0 68.412 63.113">
  <g id="web-plugin" transform="translate(0 -19.674)">
    <path id="Path_7222" data-name="Path 7222" d="M65.215,77.616V32.367a2.693,2.693,0,0,0-2.693-2.693H12.693A2.693,2.693,0,0,0,10,32.367V77.616Z" transform="translate(-8.653 -8.653)" fill="#fff"/>
    <path id="Path_7223" data-name="Path 7223" d="M50,149.674H68.854v19.8H50Z" transform="translate(-43.267 -112.493)" fill="#f772a1"/>
    <path id="Path_7224" data-name="Path 7224" d="M10,40.448v-8.08a2.693,2.693,0,0,1,2.693-2.693H62.521a2.693,2.693,0,0,1,2.693,2.693v8.08Z" transform="translate(-8.653 -8.653)" fill="#f772a1"/>
    <path id="Path_7225" data-name="Path 7225" d="M312.635,203.262l-1.62.754a2.7,2.7,0,0,1-3.683-1.559,9.86,9.86,0,0,1,0-6.566,2.7,2.7,0,0,1,3.683-1.559l1.62.754a1.347,1.347,0,0,0,1.915-1.221v-5.735a1.347,1.347,0,0,0-1.347-1.347h-7.61a1.347,1.347,0,0,1-1.22-1.917l.748-1.6a2.7,2.7,0,0,0-1.56-3.688,9.92,9.92,0,0,0-6.573,0,2.7,2.7,0,0,0-1.56,3.688l.748,1.6a1.347,1.347,0,0,1-1.22,1.917h-7.61A1.347,1.347,0,0,0,286,188.132v5.735a1.347,1.347,0,0,0,1.915,1.221l1.62-.754a2.7,2.7,0,0,1,3.683,1.559,9.86,9.86,0,0,1,0,6.566,2.7,2.7,0,0,1-3.683,1.559l-1.62-.754A1.347,1.347,0,0,0,286,204.483v5.735a1.347,1.347,0,0,0,1.347,1.347h7.61a1.347,1.347,0,0,1,1.22,1.917l-.748,1.6a2.7,2.7,0,0,0,1.56,3.688,9.92,9.92,0,0,0,6.573,0,2.7,2.7,0,0,0,1.56-3.688l-.748-1.6a1.347,1.347,0,0,1,1.22-1.917h7.61a1.347,1.347,0,0,0,1.347-1.347v-5.735a1.347,1.347,0,0,0-1.915-1.221Z" transform="translate(-247.484 -137.888)" fill="#f772a1"/>
    <path id="Path_7226" data-name="Path 7226" d="M8.08,26.408a1.347,1.347,0,1,1-1.347-1.347A1.347,1.347,0,0,1,8.08,26.408Zm6.06,0a1.347,1.347,0,1,1-1.347-1.347A1.347,1.347,0,0,1,14.14,26.408Zm6.06,0a1.347,1.347,0,1,1-1.347-1.347A1.347,1.347,0,0,1,20.2,26.408Zm8.754,41.209A1.347,1.347,0,1,0,30.3,68.963,1.348,1.348,0,0,0,28.954,67.616Zm-2.02-30.435v19.8a1.347,1.347,0,0,1-1.347,1.347H6.733a1.347,1.347,0,0,1-1.347-1.347v-19.8a1.347,1.347,0,0,1,1.347-1.347H25.587A1.347,1.347,0,0,1,26.934,37.181Zm-2.693,1.347H8.08v17.1h16.16Zm6.733.943H44.845a1.347,1.347,0,1,0,0-2.693H30.974a1.347,1.347,0,1,0,0,2.693Zm0,5.387H42.152a1.347,1.347,0,1,0,0-2.693H30.974a1.347,1.347,0,1,0,0,2.693ZM6.733,61.018a1.347,1.347,0,0,0,0,2.693H16.16a1.347,1.347,0,1,0,0-2.693Zm54.384-2.564a8.59,8.59,0,0,0,0,5.667,1.356,1.356,0,0,0,1.881.77l1.527-.711a2.686,2.686,0,0,1,3.887,2.415V72.33a2.693,2.693,0,0,1-2.693,2.693h-7.61l.747,1.6a4.018,4.018,0,0,1-2.332,5.53,11.272,11.272,0,0,1-7.466,0,4.032,4.032,0,0,1-2.333-5.528l.748-1.6h-7.61a2.7,2.7,0,0,1-2.693-2.693V70.31H35.014a1.347,1.347,0,1,1,0-2.693h2.155V66.595a2.687,2.687,0,0,1,3.886-2.416l1.528.711a1.356,1.356,0,0,0,1.881-.77,8.6,8.6,0,0,0,0-5.668,1.367,1.367,0,0,0-1.844-.787L41,58.421a2.693,2.693,0,0,1-3.831-2.5V50.244a2.693,2.693,0,0,1,2.693-2.693h7.61l-.748-1.6a4.047,4.047,0,0,1,2.333-5.529,11.155,11.155,0,0,1,6.157-.374V33.141H2.693V67.616H22.846a1.379,1.379,0,0,1,1.392,1.253,1.349,1.349,0,0,1-1.343,1.44H1.347A1.347,1.347,0,0,1,0,68.963V23.714a4.04,4.04,0,0,1,4.04-4.04H53.868a4.04,4.04,0,0,1,4.04,4.04V41.263a3.968,3.968,0,0,1,.948,4.689l-.747,1.6h7.61a2.693,2.693,0,0,1,2.693,2.693v5.674a2.693,2.693,0,0,1-3.83,2.5l-1.62-.755a1.368,1.368,0,0,0-1.845.788Zm-5.9-28.006V23.714a1.348,1.348,0,0,0-1.347-1.347H4.04a1.348,1.348,0,0,0-1.347,1.347v6.733Zm3.363,27.108A4.052,4.052,0,0,1,64.1,55.224l1.62.755V50.244h-7.61A2.694,2.694,0,0,1,55.67,46.41l.747-1.6a1.352,1.352,0,0,0-.788-1.846,8.675,8.675,0,0,0-5.678,0,1.348,1.348,0,0,0-.787,1.847l.748,1.6a2.7,2.7,0,0,1-2.44,3.834h-7.61v5.735l1.62-.755A4.051,4.051,0,0,1,47,57.555a11.164,11.164,0,0,1,0,7.464,4.05,4.05,0,0,1-5.521,2.33l-1.62-.754V72.33h7.61a2.693,2.693,0,0,1,2.44,3.834l-.748,1.6a1.341,1.341,0,0,0,.787,1.847,8.7,8.7,0,0,0,5.678,0,1.344,1.344,0,0,0,.788-1.846l-.747-1.6a2.692,2.692,0,0,1,2.439-3.834h7.61V66.594l-1.62.755a4.051,4.051,0,0,1-5.521-2.331A11.169,11.169,0,0,1,58.577,57.555Z"/>
  </g>
</svg>
