<svg xmlns="http://www.w3.org/2000/svg" width="50" height="46.774" viewBox="0 0 50 46.774">
  <g id="manufacture" transform="translate(0 1.168)">
    <path id="Path_7346" data-name="Path 7346" d="M.806,18.993H5.28a11.994,11.994,0,0,0,1.136,2.732L3.25,24.891a.807.807,0,0,0,0,1.141l3.421,3.422a.807.807,0,0,0,1.14,0l3.167-3.167a11.985,11.985,0,0,0,2.732,1.136V31.9a.806.806,0,0,0,.806.806h4.839a.806.806,0,0,0,.806-.806V27.423a11.986,11.986,0,0,0,2.732-1.136l3.167,3.167a.83.83,0,0,0,1.14,0l3.422-3.422a.807.807,0,0,0,0-1.141l-3.167-3.165a11.994,11.994,0,0,0,1.136-2.732h4.474a.806.806,0,0,0,.806-.806V13.348a.807.807,0,0,0-.806-.806H28.591a12,12,0,0,0-1.136-2.732l3.167-3.165a.807.807,0,0,0,0-1.141L27.2,2.081a.807.807,0,0,0-1.14,0L22.893,5.248a12.02,12.02,0,0,0-2.732-1.136V-.362a.807.807,0,0,0-.806-.806H14.516a.807.807,0,0,0-.806.806V4.113a12.02,12.02,0,0,0-2.732,1.136L7.811,2.081a.83.83,0,0,0-1.14,0L3.249,5.5a.807.807,0,0,0,0,1.141L6.416,9.809A12,12,0,0,0,5.28,12.542H.806A.807.807,0,0,0,0,13.348v4.839a.806.806,0,0,0,.806.806Zm.806-4.839h4.3a.806.806,0,0,0,.788-.634,10.376,10.376,0,0,1,1.413-3.4A.807.807,0,0,0,8,9.117L4.96,6.073,7.241,3.792l3.043,3.043a.807.807,0,0,0,1.006.109,10.392,10.392,0,0,1,3.4-1.413.807.807,0,0,0,.634-.788V.445h3.226v4.3a.807.807,0,0,0,.634.788,10.392,10.392,0,0,1,3.4,1.413.807.807,0,0,0,1.006-.109L26.63,3.792l2.281,2.282L25.868,9.116a.807.807,0,0,0-.109,1.006,10.373,10.373,0,0,1,1.412,3.4.807.807,0,0,0,.788.634h4.3v3.226h-4.3a.807.807,0,0,0-.788.634,10.363,10.363,0,0,1-1.412,3.4.807.807,0,0,0,.109,1.006l3.043,3.043L26.63,27.744,23.587,24.7a.807.807,0,0,0-1.006-.109A10.368,10.368,0,0,1,19.183,26a.807.807,0,0,0-.635.788v4.3H15.323v-4.3A.807.807,0,0,0,14.688,26a10.368,10.368,0,0,1-3.4-1.413.807.807,0,0,0-1.006.109L7.241,27.744,4.96,25.462,8,22.419a.807.807,0,0,0,.109-1.006,10.379,10.379,0,0,1-1.413-3.4.806.806,0,0,0-.788-.633h-4.3Zm0,0" transform="translate(0)" fill="#ab98f9"/>
    <path id="Path_7347" data-name="Path 7347" d="M136.452,141.735A6.452,6.452,0,1,0,130,135.284,6.451,6.451,0,0,0,136.452,141.735Zm0-11.29a4.839,4.839,0,1,1-4.839,4.839A4.839,4.839,0,0,1,136.452,130.445Zm0,0" transform="translate(-119.516 -119.516)" fill="#ab98f9"/>
    <path id="Path_7348" data-name="Path 7348" d="M108.871,116.574A8.871,8.871,0,1,0,100,107.7,8.871,8.871,0,0,0,108.871,116.574Zm0-16.129a7.258,7.258,0,1,1-7.258,7.258A7.258,7.258,0,0,1,108.871,100.445Zm0,0" transform="translate(-91.936 -91.936)" fill="#ab98f9"/>
    <path id="Path_7349" data-name="Path 7349" d="M45.968,293.348V286.9a.807.807,0,0,0-.806-.806H43.548v-6.452a.807.807,0,0,0-.806-.806H35.484a.807.807,0,0,0-.806.806v6.452H30.645a.807.807,0,0,0-.806.806v6.452H4.032A4.037,4.037,0,0,0,0,297.38v1.613a4.037,4.037,0,0,0,4.032,4.032H45.968A4.037,4.037,0,0,0,50,298.993V297.38A4.037,4.037,0,0,0,45.968,293.348Zm-1.613,0H38.71V287.7h5.645Zm-8.065-12.9h5.645v5.645H36.29ZM31.452,287.7H37.1v5.645H31.452Zm16.935,11.29a2.419,2.419,0,0,1-2.419,2.419H4.032a2.419,2.419,0,0,1-2.419-2.419V297.38a2.42,2.42,0,0,1,2.419-2.419H45.968a2.42,2.42,0,0,1,2.419,2.419Zm0,0" transform="translate(0 -257.419)" fill="#ab98f9"/>
    <path id="Path_7350" data-name="Path 7350" d="M282.419,488.832a2.419,2.419,0,1,0,2.419,2.419A2.42,2.42,0,0,0,282.419,488.832Zm0,3.226a.806.806,0,1,1,.806-.806A.806.806,0,0,1,282.419,492.058Zm0,0" transform="translate(-257.419 -450.484)" fill="#ab98f9"/>
    <path id="Path_7351" data-name="Path 7351" d="M182.419,488.832a2.419,2.419,0,1,0,2.419,2.419A2.42,2.42,0,0,0,182.419,488.832Zm0,3.226a.806.806,0,1,1,.806-.806A.806.806,0,0,1,182.419,492.058Zm0,0" transform="translate(-165.484 -450.484)" fill="#ab98f9"/>
    <path id="Path_7352" data-name="Path 7352" d="M382.419,488.832a2.419,2.419,0,1,0,2.419,2.419A2.42,2.42,0,0,0,382.419,488.832Zm0,3.226a.806.806,0,1,1,.806-.806A.806.806,0,0,1,382.419,492.058Zm0,0" transform="translate(-349.355 -450.484)" fill="#ab98f9"/>
    <path id="Path_7353" data-name="Path 7353" d="M82.419,488.832a2.419,2.419,0,1,0,2.419,2.419A2.42,2.42,0,0,0,82.419,488.832Zm0,3.226a.806.806,0,1,1,.806-.806A.806.806,0,0,1,82.419,492.058Zm0,0" transform="translate(-73.548 -450.484)" fill="#ab98f9"/>
    <path id="Path_7354" data-name="Path 7354" d="M482.419,488.832a2.419,2.419,0,1,0,2.419,2.419A2.42,2.42,0,0,0,482.419,488.832Zm0,3.226a.806.806,0,1,1,.806-.806A.806.806,0,0,1,482.419,492.058Zm0,0" transform="translate(-441.29 -450.484)" fill="#ab98f9"/>
  </g>
</svg>
