<svg xmlns="http://www.w3.org/2000/svg" xmlns:xlink="http://www.w3.org/1999/xlink" width="61.086" height="64.099" viewBox="0 0 61.086 64.099">
  <defs>
    <linearGradient id="linear-gradient" y1="0.5" x2="1" y2="0.5" gradientUnits="objectBoundingBox">
      <stop offset="0" stop-color="#d2deff" stop-opacity="0"/>
      <stop offset="1" stop-color="#b7c5ff"/>
    </linearGradient>
  </defs>
  <g id="atom" transform="translate(-12.034 0)">
    <g id="Group_1300" data-name="Group 1300" transform="translate(12.034 0)">
      <path id="Path_7204" data-name="Path 7204" d="M46.408.609C34.6,4.083,36.965,12.326,35.643,21.459c-1.649,11.4-8.775,5.554-16.963,11.71C4.526,43.811,14.808,67.3,32.385,63.734c9.333-1.894,11.241-8.775,15.047-16.128,4.924-9.511,13.09-6.918,20.415-13.127C82.7,21.887,63.165-4.318,46.408.609Z" transform="translate(-12.034 0)" fill="url(#linear-gradient)"/>
    </g>
    <g id="Group_1306" data-name="Group 1306" transform="translate(17.072 2.978)">
      <g id="Group_1301" data-name="Group 1301" transform="translate(0.524 3.005)" opacity="0.1">
        <path id="Path_7205" data-name="Path 7205" d="M100.88,75.729q1-1.113,1.854-2.234c3.544-4.676,4.575-8.845,2.9-11.739s-5.8-4.085-11.618-3.354c-.929.117-1.885.281-2.862.489-.309-.95-.644-1.86-1.008-2.722q-.115-.273-.233-.537a2.8,2.8,0,0,0-2.847-4.738c-1.706-2.032-3.625-3.11-5.634-3.11-3.342,0-6.436,2.978-8.714,8.385-.363.863-.7,1.773-1.008,2.722-.977-.208-1.933-.372-2.862-.489-5.822-.731-9.947.46-11.618,3.354s-.639,7.063,2.9,11.739q.848,1.119,1.854,2.234-.969,1.077-1.8,2.16a2.8,2.8,0,0,0-2.8,4.663c-1.186,2.789-1.257,5.245-.158,7.149,1.35,2.338,4.3,3.564,8.454,3.564a25.49,25.49,0,0,0,3.164-.21c.929-.117,1.885-.281,2.862-.489.309.95.644,1.86,1.008,2.722,2.277,5.407,5.372,8.385,8.714,8.385s6.436-2.978,8.714-8.385c.363-.863.7-1.773,1.008-2.722.977.208,1.933.372,2.862.489a25.47,25.47,0,0,0,3.164.21c4.152,0,7.1-1.227,8.454-3.564,1.671-2.894.639-7.063-2.9-11.739q-.848-1.119-1.854-2.234Zm-6.7-16.085a23.883,23.883,0,0,1,2.965-.2c3.673,0,6.309,1.022,7.413,2.934,1.383,2.395.355,6.169-2.818,10.357q-.786,1.036-1.711,2.071a51.406,51.406,0,0,0-6.809-5.881,51.4,51.4,0,0,0-1.689-8.837q1.356-.284,2.649-.447Zm-15.5,29.486a47.471,47.471,0,0,1-6.106,1.958A48.859,48.859,0,0,1,71.03,83.5c1.384.951,2.834,1.868,4.34,2.737q1.664.961,3.342,1.8a2.795,2.795,0,0,0-.038,1.09Zm5.486-1.09q1.675-.843,3.342-1.8c1.506-.869,2.956-1.786,4.34-2.737A48.873,48.873,0,0,1,90.3,91.089,47.483,47.483,0,0,1,84.2,89.131a2.788,2.788,0,0,0-.038-1.09Zm2.716-2.888q-1.628.94-3.268,1.764a2.8,2.8,0,0,0-4.345,0Q77.627,86.093,76,85.153c-1.806-1.043-3.53-2.152-5.15-3.309-.192-1.981-.291-4.029-.291-6.114s.1-4.133.291-6.114c1.62-1.157,3.344-2.267,5.15-3.309s3.629-1.981,5.441-2.805c1.812.825,3.635,1.763,5.441,2.805s3.53,2.152,5.15,3.309c.192,1.981.291,4.029.291,6.114s-.1,4.133-.291,6.114c-1.62,1.157-3.344,2.267-5.15,3.309ZM69.5,80.856a48.856,48.856,0,0,1-5.8-5.127A48.868,48.868,0,0,1,69.5,70.6c-.132,1.674-.2,3.388-.2,5.127S69.371,79.182,69.5,80.856ZM75.37,65.222c-1.506.869-2.956,1.786-4.34,2.737a48.873,48.873,0,0,1,1.539-7.589,48.856,48.856,0,0,1,7.342,2.462C78.394,63.554,76.876,64.352,75.37,65.222Zm7.593-2.39A48.856,48.856,0,0,1,90.3,60.369a48.86,48.86,0,0,1,1.539,7.589c-1.384-.951-2.834-1.868-4.34-2.737S84.479,63.554,82.963,62.831ZM93.37,70.6a48.868,48.868,0,0,1,5.8,5.127,48.867,48.867,0,0,1-5.8,5.127c.132-1.674.2-3.388.2-5.127S93.5,72.276,93.37,70.6ZM73.876,56.655c2.039-4.842,4.8-7.619,7.56-7.619,1.579,0,3.156.908,4.6,2.587A2.8,2.8,0,0,0,88.8,56.2q.1.223.2.452.5,1.2.937,2.517a51.409,51.409,0,0,0-8.5,2.956,51.4,51.4,0,0,0-8.5-2.956q.432-1.316.937-2.517ZM61.137,72.739c-3.173-4.187-4.2-7.962-2.818-10.357,1.1-1.913,3.74-2.934,7.413-2.934a23.882,23.882,0,0,1,2.965.2q1.29.162,2.649.447a51.4,51.4,0,0,0-1.689,8.837,51.4,51.4,0,0,0-6.809,5.881q-.924-1.032-1.711-2.07ZM68.7,91.814c-5.213.655-9-.343-10.378-2.738-.862-1.494-.787-3.525.162-5.858a2.8,2.8,0,0,0,2.8-4.687q.726-.942,1.566-1.882a51.4,51.4,0,0,0,6.809,5.881,51.4,51.4,0,0,0,1.689,8.837q-1.356.284-2.649.447ZM89,94.8c-2.039,4.842-4.8,7.619-7.56,7.619s-5.521-2.777-7.56-7.619q-.5-1.2-.937-2.517a48.921,48.921,0,0,0,6.209-2,2.8,2.8,0,0,0,4.578,0,48.942,48.942,0,0,0,6.209,2Q89.5,93.6,89,94.8Zm15.557-5.728c-1.383,2.395-5.165,3.393-10.378,2.738q-1.29-.162-2.649-.447a51.4,51.4,0,0,0,1.689-8.837,51.405,51.405,0,0,0,6.809-5.881q.924,1.033,1.711,2.071c3.173,4.187,4.2,7.962,2.818,10.356Z" transform="translate(-56.455 -47.784)" fill="#2626bc"/>
        <circle id="Ellipse_272" data-name="Ellipse 272" cx="5.945" cy="5.945" r="5.945" transform="translate(19.037 22.001)" fill="#2626bc"/>
      </g>
      <g id="Group_1302" data-name="Group 1302" transform="translate(19.561 22.001)">
        <circle id="Ellipse_273" data-name="Ellipse 273" cx="5.945" cy="5.945" r="5.945" fill="#6583fe"/>
        <path id="Path_7206" data-name="Path 7206" d="M243.324,219.074H241.8v-2.986a.133.133,0,0,0-.251-.061l-2.267,4.388a.133.133,0,0,0,.118.194h1.523v2.986a.133.133,0,0,0,.251.061l2.267-4.388A.133.133,0,0,0,243.324,219.074Z" transform="translate(-235.417 -213.896)" fill="#fff"/>
      </g>
      <circle id="Ellipse_274" data-name="Ellipse 274" cx="2.798" cy="2.798" r="2.798" transform="translate(29.39 2.905)" fill="#fff"/>
      <circle id="Ellipse_275" data-name="Ellipse 275" cx="2.798" cy="2.798" r="2.798" transform="translate(0.626 29.977)" fill="#fff"/>
      <g id="Group_1304" data-name="Group 1304">
        <circle id="Ellipse_276" data-name="Ellipse 276" cx="2.798" cy="2.798" r="2.798" transform="translate(22.707 38.097)" fill="#fff"/>
        <g id="Group_1303" data-name="Group 1303">
          <path id="Path_7207" data-name="Path 7207" d="M97.222,51.729q1-1.113,1.854-2.234c3.544-4.676,4.575-8.845,2.9-11.739s-5.8-4.085-11.618-3.354c-.928.117-1.884.281-2.86.488q-.453-1.393-.986-2.665a3.423,3.423,0,0,0-3.54-5.823,7.117,7.117,0,0,0-5.2-2.619c-3.342,0-6.436,2.978-8.714,8.385-.363.863-.7,1.773-1.008,2.722-.977-.208-1.933-.372-2.862-.489-5.822-.731-9.947.46-11.618,3.354s-.639,7.063,2.9,11.739q.848,1.119,1.854,2.235-.737.818-1.393,1.64a3.422,3.422,0,0,0-3.453,5.8c-.943,2.539-.916,4.791.086,6.527,1.316,2.28,4.153,3.511,8.2,3.562l.263,0a29.1,29.1,0,0,0,6.013-.7c.308.95.644,1.859,1.007,2.722,2.277,5.407,5.372,8.385,8.714,8.385s6.436-2.978,8.714-8.385c.363-.862.7-1.772,1.007-2.722a29.089,29.089,0,0,0,6.013.7l.263,0c4.051-.05,6.888-1.282,8.2-3.562,1.671-2.894.639-7.063-2.9-11.739-.565-.746-1.185-1.492-1.853-2.234Zm-6.7-16.085c5.213-.655,9,.343,10.378,2.738s.355,6.169-2.818,10.357q-.786,1.036-1.711,2.071a51.407,51.407,0,0,0-6.808-5.88,51.276,51.276,0,0,0-1.688-8.838q1.355-.284,2.647-.446Zm-16.1,29.71a47.37,47.37,0,0,1-5.511,1.734A48.87,48.87,0,0,1,67.372,59.5c1.384.951,2.834,1.868,4.34,2.737.912.527,1.843,1.033,2.772,1.512a3.416,3.416,0,0,0-.063,1.606Zm3.357-2.848a2.172,2.172,0,1,1-2.172,2.172,2.175,2.175,0,0,1,2.172-2.172Zm3.295,1.242c.928-.478,1.859-.985,2.772-1.512,1.506-.869,2.956-1.786,4.34-2.737a48.881,48.881,0,0,1-1.538,7.588,47.319,47.319,0,0,1-5.511-1.733,3.417,3.417,0,0,0-.062-1.606Zm2.146-2.6c-.89.514-1.8,1.008-2.7,1.474a3.421,3.421,0,0,0-5.478,0c-.906-.467-1.813-.961-2.7-1.474-1.806-1.043-3.53-2.152-5.15-3.309C67,55.862,66.9,53.814,66.9,51.729s.1-4.132.291-6.112c1.622-1.159,3.347-2.27,5.15-3.311s3.629-1.981,5.441-2.805c1.812.825,3.635,1.763,5.441,2.805s3.531,2.153,5.152,3.31c.191,1.979.289,4.026.289,6.113s-.1,4.133-.291,6.114c-1.62,1.157-3.344,2.267-5.15,3.309Zm-17.374-4.3a48.87,48.87,0,0,1-5.8-5.126,49.055,49.055,0,0,1,5.8-5.126c-.132,1.673-.2,3.387-.2,5.125S65.713,55.182,65.845,56.856Zm1.526-12.9a48.865,48.865,0,0,1,1.539-7.59,48.862,48.862,0,0,1,7.342,2.462c-1.516.723-3.034,1.521-4.54,2.39S68.757,43.007,67.372,43.959ZM79.3,38.831a48.861,48.861,0,0,1,7.343-2.462,48.71,48.71,0,0,1,1.538,7.59c-1.384-.952-2.835-1.868-4.341-2.738S80.821,39.554,79.3,38.831ZM89.712,46.6a48.863,48.863,0,0,1,5.8,5.126,48.868,48.868,0,0,1-5.8,5.127c.132-1.674.2-3.388.2-5.127s-.068-3.454-.2-5.126ZM86.634,29.488a2.173,2.173,0,1,1-2.173-2.172A2.175,2.175,0,0,1,86.634,29.488ZM70.218,32.655c2.039-4.842,4.8-7.619,7.56-7.619a5.853,5.853,0,0,1,4.183,2.115,3.422,3.422,0,0,0,3.43,5.632q.475,1.141.884,2.389a51.414,51.414,0,0,0-8.5,2.956,51.4,51.4,0,0,0-8.5-2.956q.432-1.316.937-2.517ZM57.479,48.739c-3.173-4.187-4.2-7.962-2.818-10.357s5.165-3.392,10.378-2.738q1.29.162,2.649.447A51.4,51.4,0,0,0,66,44.931a51.59,51.59,0,0,0-6.808,5.879q-.924-1.033-1.712-2.071ZM55.7,54.387a2.172,2.172,0,1,1-2.172,2.172A2.175,2.175,0,0,1,55.7,54.387Zm6.1,13.625c-4.53-.056-6.381-1.628-7.136-2.936a6.276,6.276,0,0,1-.067-5.276,3.423,3.423,0,0,0,3.418-5.762q.558-.695,1.18-1.388A51.4,51.4,0,0,0,66,58.53a51.4,51.4,0,0,0,1.689,8.838A27.249,27.249,0,0,1,61.8,68.012ZM85.339,70.8c-2.039,4.842-4.8,7.619-7.56,7.619s-5.521-2.777-7.56-7.619q-.5-1.2-.938-2.518a48.67,48.67,0,0,0,5.609-1.77,3.42,3.42,0,0,0,5.776,0,48.671,48.671,0,0,0,5.609,1.77Q85.844,69.6,85.339,70.8ZM100.9,65.076c-1.368,2.37-4.636,2.9-7.136,2.936a27.344,27.344,0,0,1-5.891-.644,51.405,51.405,0,0,0,1.689-8.837,51.407,51.407,0,0,0,6.809-5.881q.924,1.033,1.711,2.071C101.251,58.907,102.278,62.681,100.9,65.076Z" transform="translate(-52.273 -23.784)" fill="#2626bc"/>
          <path id="Path_7208" data-name="Path 7208" d="M212.331,197.4a.626.626,0,0,0-.427,1.177,5.32,5.32,0,1,1-3.7.024.626.626,0,1,0-.443-1.171,6.569,6.569,0,1,0,4.565-.03Z" transform="translate(-184.582 -175.628)" fill="#2626bc"/>
        </g>
      </g>
      <g id="Group_1305" data-name="Group 1305" transform="translate(7.37 2.436)">
        <path id="Path_7209" data-name="Path 7209" d="M112.08,47.245a.626.626,0,0,1-.443-1.069l.417-.417-.626-.4a.626.626,0,0,1-.107-.971l.969-.969a.626.626,0,0,1,.885.885l-.417.417.626.4a.626.626,0,0,1,.107.971l-.969.969A.624.624,0,0,1,112.08,47.245Z" transform="translate(-111.138 -43.239)" fill="#6583fe"/>
        <path id="Path_7210" data-name="Path 7210" d="M387.26,316.1a.626.626,0,0,1-.443-1.069l.417-.417-.626-.4a.626.626,0,0,1-.107-.971l.969-.969a.626.626,0,0,1,.885.885l-.417.417.626.4a.626.626,0,0,1,.107.971l-.969.969A.624.624,0,0,1,387.26,316.1Z" transform="translate(-351.867 -278.432)" fill="#6583fe"/>
        <path id="Path_7211" data-name="Path 7211" d="M117.772,152.278a.626.626,0,0,1-.626-.626.752.752,0,0,0-.751-.751.626.626,0,0,1,0-1.252.752.752,0,0,0,.751-.751.626.626,0,0,1,1.252,0,.752.752,0,0,0,.751.751.626.626,0,1,1,0,1.252.752.752,0,0,0-.751.751A.626.626,0,0,1,117.772,152.278Z" transform="translate(-115.189 -135.122)" fill="#6583fe"/>
        <path id="Path_7212" data-name="Path 7212" d="M139.216,421.111a.626.626,0,0,1-.626-.626.752.752,0,0,0-.751-.751.626.626,0,0,1,0-1.252.752.752,0,0,0,.751-.751.626.626,0,1,1,1.252,0,.752.752,0,0,0,.751.751.626.626,0,1,1,0,1.252.752.752,0,0,0-.751.751A.626.626,0,0,1,139.216,421.111Z" transform="translate(-133.949 -370.299)" fill="#6583fe"/>
        <path id="Path_7213" data-name="Path 7213" d="M441.847,248.409a.626.626,0,0,1-.626-.626.752.752,0,0,0-.751-.751.626.626,0,0,1,0-1.252.752.752,0,0,0,.751-.751.626.626,0,0,1,1.252,0,.752.752,0,0,0,.751.751.626.626,0,1,1,0,1.252.752.752,0,0,0-.751.751A.626.626,0,0,1,441.847,248.409Z" transform="translate(-398.692 -219.218)" fill="#6583fe"/>
      </g>
    </g>
  </g>
</svg>
