<svg xmlns="http://www.w3.org/2000/svg" width="45.067" height="50.727" viewBox="0 0 45.067 50.727">
  <g id="strategy" transform="translate(-28.6 0.25)">
    <path id="Path_7338" data-name="Path 7338" d="M71.68,18.933l-3.132-.471a17.609,17.609,0,0,0-2.4-5.789l1.883-2.549a2.028,2.028,0,0,0-.2-2.655L65.947,5.584a2.028,2.028,0,0,0-2.655-.2L60.744,7.268a17.607,17.607,0,0,0-5.789-2.4l-.471-3.132A2.028,2.028,0,0,0,52.466,0H49.8a2.028,2.028,0,0,0-2.018,1.737l-.471,3.132a17.608,17.608,0,0,0-5.789,2.4L38.974,5.386a2.028,2.028,0,0,0-2.655.2L34.434,7.469a2.028,2.028,0,0,0-.2,2.655l1.883,2.549a17.608,17.608,0,0,0-2.4,5.789l-3.132.471A2.028,2.028,0,0,0,28.85,20.95v2.666a2.028,2.028,0,0,0,1.737,2.018l3.132.471a17.608,17.608,0,0,0,2.4,5.789l-1.883,2.549a2.028,2.028,0,0,0,.2,2.655l1.885,1.885a2.028,2.028,0,0,0,2.655.2L41.523,37.3a17.828,17.828,0,0,0,2.327,1.258q-.162.247-.335.488a3.4,3.4,0,0,0-.64,1.991v.935a2.446,2.446,0,0,0-1.521,3.383,2.47,2.47,0,0,0-1.929,2.407V49.49a.737.737,0,0,0,.737.737H62.1a.737.737,0,0,0,.737-.737V47.761a2.47,2.47,0,0,0-1.929-2.407,2.446,2.446,0,0,0-1.52-3.383v-.935a3.4,3.4,0,0,0-.64-1.991q-.173-.241-.335-.488A17.8,17.8,0,0,0,60.743,37.3l2.549,1.883a2.028,2.028,0,0,0,2.655-.2L67.833,37.1a2.028,2.028,0,0,0,.2-2.655l-1.883-2.549a17.609,17.609,0,0,0,2.4-5.789l3.132-.471a2.028,2.028,0,0,0,1.737-2.018V20.95a2.028,2.028,0,0,0-1.737-2.018ZM61.366,47.761v.992H40.9v-.992a.993.993,0,0,1,.992-.992H60.374A.993.993,0,0,1,61.366,47.761Zm-1.7-3.442a.976.976,0,0,1-.975.975H43.574a.975.975,0,0,1,0-1.951H47a.737.737,0,1,0,0-1.474H44.35v-.833a1.934,1.934,0,0,1,.364-1.133,16.123,16.123,0,0,0,3.033-9.442v-.919H54.52v.919A16.123,16.123,0,0,0,57.553,39.9a1.934,1.934,0,0,1,.364,1.133v.833H49.949a.737.737,0,1,0,0,1.474h8.743A.976.976,0,0,1,59.668,44.319ZM51.133,21.792H45.3a.953.953,0,0,1-.952-.952V16.6a.017.017,0,0,1,.017-.017h1.888a.017.017,0,0,1,.017.017v1.636a1.415,1.415,0,0,0,1.413,1.413h.975a1.415,1.415,0,0,0,1.413-1.413V16.6a.017.017,0,0,1,.017-.017h2.086a.017.017,0,0,1,.017.017v1.636a1.415,1.415,0,0,0,1.413,1.413h.975a1.415,1.415,0,0,0,1.413-1.413V16.6a.017.017,0,0,1,.017-.017H57.9a.017.017,0,0,1,.017.017v4.239a.953.953,0,0,1-.952.952H54.082a.737.737,0,1,0,0,1.474h1.449a1,1,0,0,1,0,2H46.736a1,1,0,1,1,0-2h4.4a.737.737,0,0,0,0-1.474ZM54.52,26.74v1.328H47.747V26.74Zm17.422-3.124a.563.563,0,0,1-.482.56l-3.642.547a.737.737,0,0,0-.615.593A16.173,16.173,0,0,1,64.641,31.5a.737.737,0,0,0,.016.854l2.189,2.964a.563.563,0,0,1-.055.737L64.9,37.94a.563.563,0,0,1-.737.055L61.2,35.806a.737.737,0,0,0-.854-.016,16.328,16.328,0,0,1-2.688,1.486,14.614,14.614,0,0,1-.992-2.389A13.769,13.769,0,0,0,46.947,9.165a.737.737,0,1,0,.448,1.4,12.294,12.294,0,0,1,8.9,22.87,14.81,14.81,0,0,1-.3-2.978v-.919h.544a.737.737,0,0,0,0-1.474h-.544V26.7a2.471,2.471,0,0,0,1.738-3.556,2.43,2.43,0,0,0,1.658-2.3V16.6A1.493,1.493,0,0,0,57.9,15.109H56.012A1.493,1.493,0,0,0,54.52,16.6v1.575h-.852V16.6a1.493,1.493,0,0,0-1.491-1.491H50.09A1.493,1.493,0,0,0,48.6,16.6v1.575h-.852V16.6a1.493,1.493,0,0,0-1.491-1.491H44.367A1.493,1.493,0,0,0,42.876,16.6v4.239a2.43,2.43,0,0,0,1.658,2.3A2.471,2.471,0,0,0,46.272,26.7v1.372h-.544a.737.737,0,1,0,0,1.474h.544v.919a14.817,14.817,0,0,1-.3,2.978,12.293,12.293,0,0,1-1.112-21.729.737.737,0,1,0-.754-1.267,13.76,13.76,0,0,0-6.738,11.839,13.764,13.764,0,0,0,8.229,12.6,14.614,14.614,0,0,1-.992,2.389,16.332,16.332,0,0,1-2.688-1.486.737.737,0,0,0-.854.016L38.1,38a.562.562,0,0,1-.736-.055l-1.885-1.885a.563.563,0,0,1-.055-.736l2.189-2.964a.737.737,0,0,0,.015-.854,16.172,16.172,0,0,1-2.562-6.184.737.737,0,0,0-.615-.593l-3.642-.547a.563.563,0,0,1-.482-.56V20.95a.563.563,0,0,1,.482-.56l3.642-.548a.737.737,0,0,0,.615-.593,16.172,16.172,0,0,1,2.562-6.184.737.737,0,0,0-.015-.854L35.421,9.248a.563.563,0,0,1,.055-.737l1.885-1.885a.563.563,0,0,1,.737-.055l2.964,2.189a.737.737,0,0,0,.854.016A16.172,16.172,0,0,1,48.1,6.214a.737.737,0,0,0,.593-.615l.548-3.642a.563.563,0,0,1,.56-.482h2.666a.563.563,0,0,1,.56.482L53.574,5.6a.737.737,0,0,0,.593.615,16.172,16.172,0,0,1,6.184,2.562.737.737,0,0,0,.854-.016l2.964-2.189a.563.563,0,0,1,.737.055L66.79,8.512a.563.563,0,0,1,.055.737l-2.189,2.964a.737.737,0,0,0-.016.854A16.173,16.173,0,0,1,67.2,19.25a.737.737,0,0,0,.615.593l3.642.548a.563.563,0,0,1,.482.56v2.666Z" transform="translate(0 0)" fill="#19bf64" stroke="#19bf64" stroke-width="0.5"/>
  </g>
</svg>
