<svg xmlns="http://www.w3.org/2000/svg" width="49.308" height="50.368" viewBox="0 0 49.308 50.368">
  <g id="success" transform="translate(-0.297 0)">
    <path id="Path_7355" data-name="Path 7355" d="M.3,47.022l.653,1.47,23.43-9.715,4.082.49,1.469,4.49-1.959,1.878a2.353,2.353,0,0,0-.571,2.694l.816,2.041,13.551-5.306L41.033,43.1a2.308,2.308,0,0,0-2.286-1.551H36.053l-1.469-3.511,3.592-1.8A2.453,2.453,0,0,0,39.4,33.225l-4.653-12.49a2.515,2.515,0,0,0-3.184-1.47.08.08,0,0,0-.081.082l-3.429,1.469-.49-1.225,1.878-2.2a9.607,9.607,0,0,0,2.367-5.225l2.367-2.857A4.287,4.287,0,0,0,33.6,3.265a6.833,6.833,0,0,0-.979-.653,4.056,4.056,0,0,0-2.776-.245L29.6,1.632A2.361,2.361,0,0,0,26.5.163L9.277,6.367a2.389,2.389,0,0,0-1.469,3.1v.082l.408,1.061a4.523,4.523,0,0,0-2.368,5.551A4.643,4.643,0,0,0,9.6,19.184l3.837.408a10.631,10.631,0,0,0,5.306,2.041l2.694.245.49,1.225a2.431,2.431,0,0,0-1.143,1.633l-.572,2.776L.3,35.593l.572,1.551L12.3,32.572,15.073,40.9Zm39.1-3.428.163.489-10.45,4.163-.245-.49a1.132,1.132,0,0,1,.163-.9l2.776-2.612,3.51-1.143h3.265a.819.819,0,0,1,.816.49Zm-5.143-1.96-2.939.98-1.061-3.1a1.815,1.815,0,0,0,1.306-.245l1.388-.653Zm-2.2-21.062a.81.81,0,0,1,1.061.408l.653,1.714-4,1.306.49,1.551,4-1.306.979,2.612L31.4,28.164l.49,1.551,3.918-1.306.98,2.612-3.755,1.225.49,1.551,3.837-1.306.408,1.061a.721.721,0,0,1-.408.98L30.91,37.715a1.035,1.035,0,0,1-.49.082l-5.551-.653-3.021-9.061.572-3.021a.864.864,0,0,1,.49-.572ZM31.971,4.081a2.7,2.7,0,0,1,1.388,3.511,2.86,2.86,0,0,1-.408.653l-.98,1.225A12.2,12.2,0,0,0,31.482,7.1L30.42,3.918a3.262,3.262,0,0,1,1.551.163ZM7.481,15.755a2.812,2.812,0,0,1,1.388-3.511l1.143,2.776A11.827,11.827,0,0,0,11.644,17.8L9.93,17.633a2.731,2.731,0,0,1-2.449-1.877Zm11.592,4.327a8.921,8.921,0,0,1-7.511-5.633L9.44,9.061A.81.81,0,0,1,9.848,8L27.073,1.8a.9.9,0,0,1,.653,0,.837.837,0,0,1,.408.49l1.8,5.388a8.973,8.973,0,0,1-1.714,8.653l-2.531,2.939.735,1.959-2.939,1.225-.816-2.041ZM13.848,31.919l1.877-.735,2.041,6.2,1.551-.49L17.2,30.531l3.265-1.306,2.776,8.245-6.613,2.776Zm0,0" transform="translate(0 0)" fill="#16a7b0"/>
    <path id="Path_7356" data-name="Path 7356" d="M359.578,46.6v.816h1.633V46.6a4.042,4.042,0,0,1,4.082-4.082V40.89a4.042,4.042,0,0,1-4.082-4.082v-.816h-1.633v.816A4.042,4.042,0,0,1,355.5,40.89v1.633A4.042,4.042,0,0,1,359.578,46.6Zm.816-6.857a5.626,5.626,0,0,0,1.959,1.959,5.63,5.63,0,0,0-1.959,1.96,5.63,5.63,0,0,0-1.959-1.96A5.626,5.626,0,0,0,360.394,39.747Zm0,0" transform="translate(-318.953 -32.319)" fill="#16a7b0"/>
    <path id="Path_7357" data-name="Path 7357" d="M7.578,206.6v.816H9.211V206.6a4.042,4.042,0,0,1,4.082-4.082V200.89a4.042,4.042,0,0,1-4.082-4.082v-.816H7.578v.816A4.042,4.042,0,0,1,3.5,200.89v1.633A4.042,4.042,0,0,1,7.578,206.6Zm.816-6.857a5.626,5.626,0,0,0,1.959,1.959,5.63,5.63,0,0,0-1.959,1.96,5.63,5.63,0,0,0-1.959-1.96A5.626,5.626,0,0,0,8.394,199.747Zm0,0" transform="translate(-2.873 -175.992)" fill="#16a7b0"/>
    <path id="Path_7358" data-name="Path 7358" d="M393.21,196.808v-.816h-1.633v.816a4.042,4.042,0,0,1-4.082,4.082v1.633a4.042,4.042,0,0,1,4.082,4.082v.816h1.633V206.6a4.042,4.042,0,0,1,4.082-4.082V200.89A4.042,4.042,0,0,1,393.21,196.808Zm-.816,6.858a5.63,5.63,0,0,0-1.959-1.96,5.626,5.626,0,0,0,1.959-1.959,5.626,5.626,0,0,0,1.959,1.959A5.63,5.63,0,0,0,392.394,203.666Zm0,0" transform="translate(-347.688 -175.992)" fill="#16a7b0"/>
    <path id="Path_7359" data-name="Path 7359" d="M236.46,50.442l1.143,1.143c4.49-4.49.326-11.347.082-11.592l-1.388.9c.082,0,3.755,5.96.163,9.551Zm0,0" transform="translate(-211.917 -35.911)" fill="#16a7b0"/>
  </g>
</svg>
