<svg xmlns="http://www.w3.org/2000/svg" width="63.012" height="63" viewBox="0 0 63.012 63">
  <g id="support-services" transform="translate(0 -0.045)">
    <g id="Group_1320" data-name="Group 1320" transform="translate(0.923 0.968)">
      <g id="Group_1319" data-name="Group 1319">
        <g id="Group_1314" data-name="Group 1314" transform="translate(9.995 9.995)">
          <g id="Group_1313" data-name="Group 1313">
            <path id="Path_7285" data-name="Path 7285" d="M109.3,129.934a20.588,20.588,0,1,1,20.588-20.588A20.588,20.588,0,0,1,109.3,129.934Z" transform="translate(-88.711 -88.758)" fill="#fff"/>
          </g>
        </g>
        <path id="Path_7286" data-name="Path 7286" d="M227.353,88.758a20.682,20.682,0,0,0-4.02.394,20.592,20.592,0,0,1,0,40.389,20.589,20.589,0,1,0,4.02-40.783Z" transform="translate(-196.771 -78.763)" fill="#fce08a"/>
        <g id="Group_1316" data-name="Group 1316">
          <g id="Group_1315" data-name="Group 1315">
            <path id="Path_7287" data-name="Path 7287" d="M68.642,34.633a2.967,2.967,0,0,0-2.987-2.957H65.6a1.29,1.29,0,0,1-1.216-.948,27.142,27.142,0,0,0-2.957-6.8,2.975,2.975,0,0,1,.635-.925,2.971,2.971,0,0,0-.036-4.188l-4.8-4.763a2.955,2.955,0,0,0-4.188-.007q-.047.049-.1.1a1.221,1.221,0,0,1-1.491.159c-2.168-1.449-2.147-1.756-6.149-2.522a1.242,1.242,0,0,1-.957-1.211c0-.019,0-.037,0-.056h0a2.986,2.986,0,0,0-3-2.966l-6.78.024a2.948,2.948,0,0,0-2.937,2.988c0,.019,0,.038,0,.056a1.291,1.291,0,0,1-.948,1.217A27.142,27.142,0,0,0,24.549,14.4a1.271,1.271,0,0,1-1.492-.149q-.05-.046-.1-.094a2.955,2.955,0,0,0-4.188.036l-4.763,4.8A2.97,2.97,0,0,0,14,23.175l.038.038a1.311,1.311,0,0,1,.207,1.566,27.152,27.152,0,0,0-2.513,6.133,1.306,1.306,0,0,1-1.255.958h-.012a2.986,2.986,0,0,0-2.966,3l.024,6.75a2.977,2.977,0,0,0,2.987,2.966h.057a1.292,1.292,0,0,1,1.217.949,27.149,27.149,0,0,0,2.562,6.126,1.3,1.3,0,0,1-.193,1.548l-.047.048a2.97,2.97,0,0,0,.037,4.188l4.8,4.763a2.955,2.955,0,0,0,4.188.007q.047-.049.1-.1a1.271,1.271,0,0,1,1.49-.159c1.96,1.1,7.49,3.171,7.49,3.171l11.754-.046a81.393,81.393,0,0,0,7.655-3.218,1.273,1.273,0,0,1,1.495.15q.049.045.1.092a2.956,2.956,0,0,0,4.189-.036l4.763-4.8a2.97,2.97,0,0,0,.007-4.188,2.976,2.976,0,0,1-.641-.921,27.148,27.148,0,0,0,2.909-6.817,1.29,1.29,0,0,1,1.21-.956H65.7A2.977,2.977,0,0,0,68.665,41.4ZM38.083,58.718A20.588,20.588,0,1,1,58.671,38.13,20.588,20.588,0,0,1,38.083,58.718Z" transform="translate(-7.5 -7.547)" fill="#fec000"/>
          </g>
        </g>
        <g id="Group_1318" data-name="Group 1318" transform="translate(17.264 19.03)">
          <path id="Path_7288" data-name="Path 7288" d="M157.535,204.3h7.12a2.588,2.588,0,0,0,2.588-2.588v-9.356a14.76,14.76,0,0,1,3.554-9.579,13.325,13.325,0,0,0-2.55-20.366,1.5,1.5,0,0,0-2.3,1.271v9.278a3.007,3.007,0,0,1-3.007,3.007h-3.7a3.007,3.007,0,0,1-3.007-3.007v-9.278a1.5,1.5,0,0,0-2.3-1.271,13.308,13.308,0,0,0-6.166,11.237c0,5.619,3.232,8.608,4.137,9.762a14.483,14.483,0,0,1,3.033,8.94v9.362A2.588,2.588,0,0,0,157.535,204.3Z" transform="translate(-147.776 -162.174)" fill="#fff"/>
          <g id="Group_1317" data-name="Group 1317" transform="translate(9.084 0)">
            <path id="Path_7289" data-name="Path 7289" d="M232.977,162.411a1.5,1.5,0,0,0-2.3,1.271v9.278c0,.094,0,.186-.013.278,0,.136.007.273.007.41a13.283,13.283,0,0,1-3.617,9.129,14.727,14.727,0,0,0-3.613,9.545v6.594c0,4.307-.122,4.543-1.855,5.292a2.585,2.585,0,0,0,.675.092h7.12a2.588,2.588,0,0,0,2.588-2.588v-9.356a14.76,14.76,0,0,1,3.554-9.579,13.325,13.325,0,0,0-2.55-20.366Z" transform="translate(-221.589 -162.176)" fill="#fce08a"/>
          </g>
          <path id="Path_7290" data-name="Path 7290" d="M239.04,346.813a2.38,2.38,0,0,1-2.38-2.38V331.9a2.38,2.38,0,1,1,4.76,0v12.535A2.38,2.38,0,0,1,239.04,346.813Z" transform="translate(-225.721 -308.922)" fill="#fff"/>
        </g>
      </g>
    </g>
    <g id="Group_1322" data-name="Group 1322" transform="translate(0 0.045)">
      <g id="Group_1321" data-name="Group 1321" transform="translate(0 0)">
        <path id="Path_7291" data-name="Path 7291" d="M168.758,167.052a14.189,14.189,0,0,0-6.593-12.015,2.422,2.422,0,0,0-3.717,2.05v9.277a2.087,2.087,0,0,1-2.084,2.084h-3.7a2.087,2.087,0,0,1-2.084-2.084v-9.278a2.422,2.422,0,0,0-3.717-2.05,14.189,14.189,0,0,0-6.593,12.015,14.343,14.343,0,0,0,3.945,9.869,13.509,13.509,0,0,1,3.226,8.833v9.362a3.515,3.515,0,0,0,3.511,3.511h7.12a3.515,3.515,0,0,0,3.511-3.511V185.76a13.853,13.853,0,0,1,3.333-8.98A14.2,14.2,0,0,0,168.758,167.052Zm-9.017,18.708v9.356a1.667,1.667,0,0,1-1.665,1.665h-7.12a1.667,1.667,0,0,1-1.665-1.665v-9.362a15.362,15.362,0,0,0-3.673-10.038,12.486,12.486,0,0,1-3.5-8.665,12.352,12.352,0,0,1,5.74-10.459.55.55,0,0,1,.574-.017.571.571,0,0,1,.3.51v9.278a3.935,3.935,0,0,0,3.93,3.93h3.7a3.935,3.935,0,0,0,3.93-3.93v-9.277a.571.571,0,0,1,.3-.51.554.554,0,0,1,.574.017,12.4,12.4,0,0,1,2.344,18.988A15.7,15.7,0,0,0,159.742,185.761Z" transform="translate(-123.011 -135.627)"/>
        <path id="Path_7292" data-name="Path 7292" d="M62.988,28.052a3.889,3.889,0,0,0-3.914-3.877h-.039a.369.369,0,0,1-.342-.274,28.077,28.077,0,0,0-2.633-6.308.418.418,0,0,1,.068-.505l0,0a3.893,3.893,0,0,0-.034-5.5L51.3,6.822a3.878,3.878,0,0,0-5.5,0c-.186.191-.333.171-.743-.143a11.623,11.623,0,0,0-5.812-2.354c-.6-.021-.55-.386-.555-.4A3.916,3.916,0,0,0,34.78.045h-.014l-6.78.024A3.87,3.87,0,0,0,24.13,3.983a.368.368,0,0,1-.275.381,28.105,28.105,0,0,0-6.341,2.652.356.356,0,0,1-.474-.09,3.878,3.878,0,0,0-5.5.034l-4.763,4.8a3.894,3.894,0,0,0,0,5.5.391.391,0,0,1,.085.492,28.1,28.1,0,0,0-2.6,6.342.384.384,0,0,1-.37.278H3.883A3.916,3.916,0,0,0,0,28.291l.024,6.75a3.9,3.9,0,0,0,3.9,3.886h.053a.37.37,0,0,1,.343.275,28.108,28.108,0,0,0,2.649,6.334.38.38,0,0,1-.086.481,3.894,3.894,0,0,0,.034,5.5l4.8,4.763a3.878,3.878,0,0,0,5.5,0q.033-.034.067-.066a.35.35,0,0,1,.407-.028A35.1,35.1,0,0,0,21,57.711a.923.923,0,0,0,1.218-.523.95.95,0,0,0-.544-1.2,33.238,33.238,0,0,1-3.084-1.419,2.187,2.187,0,0,0-2.7.416,2.034,2.034,0,0,1-2.876-.018l-4.8-4.763a2.049,2.049,0,0,1,.023-2.938,2.233,2.233,0,0,0,.331-2.647A26.262,26.262,0,0,1,6.1,38.7a2.227,2.227,0,0,0-2.091-1.622H3.923A2.056,2.056,0,0,1,1.87,35.034l-.024-6.75a2.066,2.066,0,0,1,2.044-2.07h.016a2.236,2.236,0,0,0,2.141-1.638,26.262,26.262,0,0,1,2.427-5.925,2.245,2.245,0,0,0-.357-2.668l-.049-.049a2.048,2.048,0,0,1,.018-2.876l4.763-4.8a2.031,2.031,0,0,1,2.876-.038,2.187,2.187,0,0,0,2.7.4,26.259,26.259,0,0,1,5.924-2.478,2.226,2.226,0,0,0,1.622-2.174,2.024,2.024,0,0,1,2.017-2.053l6.78-.024h.007a2.067,2.067,0,0,1,2.063,2.05,2.246,2.246,0,0,0,2.1,2.238,10.156,10.156,0,0,1,5.171,2.142,2.2,2.2,0,0,0,3.01-.209A2.032,2.032,0,0,1,50,8.132l4.8,4.763a2.046,2.046,0,0,1,.038,2.876c-.929.91-1.25,1.739-.187,2.908a8.769,8.769,0,0,1,2.194,5.292,2.223,2.223,0,0,0,2.229,2.05h.03a2.047,2.047,0,0,1,2.044,2.091l.023,6.669a2.057,2.057,0,0,1-2.122,2.109,2.226,2.226,0,0,0-2.079,1.636,23.306,23.306,0,0,1-2.612,6.249c-.586.971-.186,1.571.591,2.393a2.08,2.08,0,0,1-.018,2.876l-4.764,4.8a2.033,2.033,0,0,1-2.876.037,2.188,2.188,0,0,0-2.7-.4,33.2,33.2,0,0,1-3.3,1.509.95.95,0,0,0-.553,1.182.923.923,0,0,0,.868.61,23.309,23.309,0,0,0,3.9-1.7.356.356,0,0,1,.475.089,3.879,3.879,0,0,0,5.5-.034l4.763-4.8a3.893,3.893,0,0,0,0-5.5l0,0a.428.428,0,0,1-.066-.515,28.087,28.087,0,0,0,2.584-6.316.369.369,0,0,1,.34-.276h.04a3.9,3.9,0,0,0,3.886-3.913Z" transform="translate(0 -0.045)"/>
        <path id="Path_7293" data-name="Path 7293" d="M83.057,102.769A19.665,19.665,0,1,1,112.378,119.9a.923.923,0,1,0,.908,1.608,21.511,21.511,0,1,0-21.125,0,.923.923,0,0,0,.908-1.607,19.712,19.712,0,0,1-10.011-17.136Z" transform="translate(-71.216 -71.263)"/>
        <path id="Path_7294" data-name="Path 7294" d="M232.463,322.017a3.307,3.307,0,0,0-3.3,3.3v12.535a3.3,3.3,0,1,0,6.606,0V325.32A3.307,3.307,0,0,0,232.463,322.017Zm1.457,15.839a1.457,1.457,0,1,1-2.914,0V325.32a1.457,1.457,0,0,1,2.914,0Z" transform="translate(-200.957 -282.392)"/>
      </g>
    </g>
  </g>
</svg>
