<svg xmlns="http://www.w3.org/2000/svg" width="61.225" height="61.277" viewBox="0 0 61.225 61.277">
  <g id="web-development_1_" data-name="web-development (1)" transform="translate(-0.001)">
    <path id="Path_7240" data-name="Path 7240" d="M285.165,44.789H262.648a3.391,3.391,0,0,0-3.391,3.391V60.917a3.391,3.391,0,0,0,3.391,3.391h8.01l-1.294,5.225a.741.741,0,0,0,1.171.766l7.8-5.991h6.832a3.391,3.391,0,0,0,3.391-3.391V48.18a3.392,3.392,0,0,0-3.392-3.391Zm0,0" transform="translate(-228.228 -39.429)" fill="#ccea7d"/>
    <path id="Path_7241" data-name="Path 7241" d="M344.532,209.066l-1,4.042a.741.741,0,0,0,1.171.766l7.8-5.991h-6.429Zm0,0" transform="translate(-302.395 -183.003)" fill="#fff"/>
    <path id="Path_7242" data-name="Path 7242" d="M428.448,44.789h-6.429a3.391,3.391,0,0,1,3.391,3.391V60.917a3.391,3.391,0,0,1-3.391,3.391h6.429a3.391,3.391,0,0,0,3.391-3.391V48.18A3.391,3.391,0,0,0,428.448,44.789Zm0,0" transform="translate(-371.51 -39.429)" fill="#b0f300"/>
    <path id="Path_7243" data-name="Path 7243" d="M54.8,252.375a7.706,7.706,0,0,0-4.715-6.5c-3.328-1.558-12.392-3.916-12.392-3.916a1.849,1.849,0,0,1-1.511-1.818v-5.181H26.325v5.181a1.849,1.849,0,0,1-1.511,1.818s-9.064,2.358-12.392,3.916a7.706,7.706,0,0,0-4.715,6.5l-.2,12.352a2.466,2.466,0,0,0,2.466,2.5H52.535a2.466,2.466,0,0,0,2.466-2.5Zm0,0" transform="translate(-6.603 -206.843)" fill="#fcc18b"/>
    <path id="Path_7244" data-name="Path 7244" d="M218.437,252.375a7.706,7.706,0,0,0-4.715-6.5c-3.328-1.558-12.392-3.916-12.392-3.916a1.849,1.849,0,0,1-1.511-1.818v-5.181h-6.429v8.288a1.848,1.848,0,0,0,1.511,1.817s9.064,2.358,12.392,3.916a7.7,7.7,0,0,1,4.715,6.5l.194,11.74h3.973a2.466,2.466,0,0,0,2.466-2.5Zm0,0" transform="translate(-170.244 -206.843)" fill="#eaab65"/>
    <path id="Path_7245" data-name="Path 7245" d="M96.331,125.367H95.038a2,2,0,0,0-1.969,2.407l.508,2.8c.394,2.073,2.758,1.126,2.758,1.126Zm0,0" transform="translate(-81.898 -110.363)" fill="#eaab65"/>
    <path id="Path_7246" data-name="Path 7246" d="M291.269,125.367h1.294a2,2,0,0,1,1.969,2.407l-.508,2.8c-.394,2.073-2.758,1.126-2.758,1.126Zm0,0" transform="translate(-256.405 -110.363)" fill="#fcc18b"/>
    <path id="Path_7247" data-name="Path 7247" d="M136.042,14.845a10.187,10.187,0,0,0-14.34,0,10.846,10.846,0,0,0-3.308,7.97l0,10.6c0,5.012,6.514,10.2,10.475,10.2s10.475-5.19,10.475-10.2l0-10.6a10.848,10.848,0,0,0-3.308-7.97Zm0,0" transform="translate(-104.224 -10.471)" fill="#fcc18b"/>
    <path id="Path_7248" data-name="Path 7248" d="M189.467,14.845a10.581,10.581,0,0,0-7.17-2.95,10.291,10.291,0,0,0-3.215.546,11.138,11.138,0,0,1,3.956,2.4,10.846,10.846,0,0,1,3.308,7.97l0,10.6c0,3.792-3.729,7.686-7.26,9.356a7.793,7.793,0,0,0,3.214.845c3.961,0,10.475-5.19,10.475-10.2l0-10.6a10.846,10.846,0,0,0-3.308-7.97Zm0,0" transform="translate(-157.648 -10.471)" fill="#eaab65"/>
    <path id="Path_7249" data-name="Path 7249" d="M120.324,7.5H107.36a6.039,6.039,0,0,0-6.039,6.039v8.334a4.169,4.169,0,0,1,2.732,1.02.354.354,0,0,0,.6-.254V16.108a2.669,2.669,0,0,1,2.669-2.669h2.426a2.755,2.755,0,0,1,1.745.623l.238.194a3.334,3.334,0,0,0,4.22,0l.238-.194a2.755,2.755,0,0,1,1.745-.623h2.425a2.67,2.67,0,0,1,2.67,2.669v6.532a.354.354,0,0,0,.6.254,4.167,4.167,0,0,1,2.732-1.02V13.54a6.04,6.04,0,0,0-6.039-6.04Zm0,0" transform="translate(-89.194 -6.602)" fill="#426175"/>
    <path id="Path_7250" data-name="Path 7250" d="M243.606,7.5h-2.242a9.109,9.109,0,0,1,1.854,5.938h.426a2.669,2.669,0,0,1,2.669,2.669v6.532a.354.354,0,0,0,.6.254,4.168,4.168,0,0,1,2.732-1.02V13.54a6.04,6.04,0,0,0-6.039-6.04Zm0,0" transform="translate(-212.476 -6.602)" fill="#2c4456"/>
    <path id="Path_7251" data-name="Path 7251" d="M50.082,304.754a73.291,73.291,0,0,0-8.72-2.91l-.628.238a26.77,26.77,0,0,1-18.962,0l-.628-.238a73.291,73.291,0,0,0-8.72,2.91,7.706,7.706,0,0,0-4.715,6.5L7.5,323.6a2.466,2.466,0,0,0,2.466,2.5H52.535A2.466,2.466,0,0,0,55,323.6l-.2-12.352a7.706,7.706,0,0,0-4.715-6.5Zm0,0" transform="translate(-6.603 -265.718)" fill="#b0f300"/>
    <path id="Path_7252" data-name="Path 7252" d="M84.274,323H53.6a1.778,1.778,0,0,1-1.774-1.652l-1.254-17.6a1.779,1.779,0,0,1,1.774-1.905H85.529a1.779,1.779,0,0,1,1.774,1.905l-1.255,17.6A1.778,1.778,0,0,1,84.274,323Zm0,0" transform="translate(-44.514 -265.719)" fill="#fff"/>
    <path id="Path_7253" data-name="Path 7253" d="M295.062,301.844h-6.476a1.779,1.779,0,0,1,1.774,1.905L288.987,323h4.82a1.778,1.778,0,0,0,1.774-1.652l1.255-17.6a1.778,1.778,0,0,0-1.774-1.905Zm0,0" transform="translate(-254.046 -265.719)" fill="#cdd6df"/>
    <path id="Path_7254" data-name="Path 7254" d="M84.528,481.732H49.9a1.548,1.548,0,0,1,0-3.1H84.528a1.548,1.548,0,0,1,0,3.1Zm0,0" transform="translate(-42.567 -421.353)" fill="#fff"/>
    <path id="Path_7255" data-name="Path 7255" d="M190.2,377.954a2.477,2.477,0,1,1-2.477-2.477A2.477,2.477,0,0,1,190.2,377.954Zm0,0" transform="translate(-163.071 -330.539)" fill="#fff"/>
    <path id="Path_7256" data-name="Path 7256" d="M340.5,111.091a.838.838,0,0,0-.754-.809.333.333,0,0,0-.21.056l-2.816,1.829a.733.733,0,0,0,0,1.242l2.816,1.829a.333.333,0,0,0,.21.056.838.838,0,0,0,.754-.809.508.508,0,0,0-.2-.432l-1.951-1.264,1.951-1.264a.509.509,0,0,0,.2-.432Zm0,0" transform="translate(-296.12 -97.083)"/>
    <path id="Path_7257" data-name="Path 7257" d="M384.971,85.367a.488.488,0,0,0-.466.277l-3.891,7.992a.5.5,0,0,0-.056.211.613.613,0,0,0,.621.587.556.556,0,0,0,.5-.277l3.9-7.993a.481.481,0,0,0,.044-.211.636.636,0,0,0-.654-.587Zm0,0" transform="translate(-335.012 -75.15)"/>
    <path id="Path_7258" data-name="Path 7258" d="M436.4,112.165l-2.815-1.829a.335.335,0,0,0-.211-.056.838.838,0,0,0-.754.809.508.508,0,0,0,.2.432l1.951,1.264-1.951,1.264a.508.508,0,0,0-.2.432.838.838,0,0,0,.754.809.335.335,0,0,0,.211-.056l2.815-1.829a.733.733,0,0,0,0-1.242Zm0,0" transform="translate(-380.84 -97.082)"/>
    <path id="Path_7259" data-name="Path 7259" d="M56.938,4.463H37.611A6.949,6.949,0,0,0,31.13,0H18.166A6.945,6.945,0,0,0,11.23,6.937v7.877a2.927,2.927,0,0,0-.942,2.757l.51,2.8a2.442,2.442,0,0,0,1.091,1.7,2.639,2.639,0,0,0,1.388.367v.5c0,2.528,1.475,5.315,4.047,7.645a16.523,16.523,0,0,0,1.5,1.209v1.5a.951.951,0,0,1-.777.935l-.062.014c-.015,0-1.556.406-3.571.977H7.831a2.676,2.676,0,0,0-2.669,2.866l.018.253A8.593,8.593,0,0,0,.207,45.479v.038L0,57.873a3.363,3.363,0,0,0,3.363,3.4H45.932a3.363,3.363,0,0,0,3.363-3.408l-.2-12.352c0-.013,0-.025,0-.038a8.637,8.637,0,0,0-5.23-7.257l-.177-.081,0-.047a2.676,2.676,0,0,0-2.669-2.866H34.883c-2.014-.571-3.555-.973-3.571-.977s-.041-.01-.062-.014a.951.951,0,0,1-.777-.935V31.8a16.609,16.609,0,0,0,1.5-1.209,13.113,13.113,0,0,0,3.477-4.813h5.832l-1.019,4.112a1.62,1.62,0,0,0,.693,1.765,1.619,1.619,0,0,0,1.9-.072l7.558-5.805h6.526a4.293,4.293,0,0,0,4.289-4.289V8.752a4.294,4.294,0,0,0-4.289-4.289Zm-20.915,11.9a3.873,3.873,0,0,1,.88-.184,1.158,1.158,0,0,1,.341,1.07l-.507,2.79c-.074.389-.223.482-.273.512a.876.876,0,0,1-.442.1Zm-23-9.428A5.148,5.148,0,0,1,18.166,1.8H31.13a5.148,5.148,0,0,1,5.142,5.142v7.521a5.224,5.224,0,0,0-1.537.517V9.505a3.571,3.571,0,0,0-3.567-3.567H28.741a3.667,3.667,0,0,0-2.314.825l-.237.194a2.437,2.437,0,0,1-3.084,0l-.238-.195a3.666,3.666,0,0,0-2.314-.825H18.129a3.571,3.571,0,0,0-3.567,3.567v5.469a5.222,5.222,0,0,0-1.537-.517Zm-.192,13.616c-.049-.03-.2-.123-.271-.5l-.508-2.8a1.16,1.16,0,0,1,.34-1.07,3.874,3.874,0,0,1,.881.183v4.288a.878.878,0,0,1-.442-.1ZM4.891,58.832a2.445,2.445,0,0,0,.088.65H3.365A1.568,1.568,0,0,1,1.8,57.9L2,45.566a6.589,6.589,0,0,1,3.32-5.246L6.417,55.7a2.654,2.654,0,0,0,.186.8,2.449,2.449,0,0,0-1.712,2.332ZM42.43,55.7l1.114-15.624A6.683,6.683,0,0,1,47.3,45.566l.2,12.329a1.568,1.568,0,0,1-1.568,1.587H44.318a2.446,2.446,0,0,0-2.038-3.074,2.642,2.642,0,0,0,.15-.712Zm.181,3.136a.651.651,0,0,1-.65.65H7.336a.65.65,0,0,1,0-1.3H41.961A.651.651,0,0,1,42.61,58.832ZM41.66,37.3a.871.871,0,0,1,.234.663l-1.255,17.6a.883.883,0,0,1-.878.818H9.086a.884.884,0,0,1-.878-.818l-1.254-17.6a.88.88,0,0,1,.878-.943H41.015a.873.873,0,0,1,.645.281ZM29.466,35.228H19.83a2.743,2.743,0,0,0,.789-1.926v-.4a9.1,9.1,0,0,0,4.029,1.144A9.1,9.1,0,0,0,28.677,32.9v.4a2.743,2.743,0,0,0,.789,1.926Zm1.3-5.968c-2,1.816-4.406,2.989-6.12,2.989s-4.115-1.173-6.12-2.989c-2.2-1.99-3.457-4.292-3.457-6.315l0-5.655H15.1a1.255,1.255,0,0,0,1.253-1.253V9.505a1.774,1.774,0,0,1,1.772-1.772h2.426a1.864,1.864,0,0,1,1.177.42l.238.195a4.231,4.231,0,0,0,5.356,0l.238-.194a1.865,1.865,0,0,1,1.177-.42h2.425a1.774,1.774,0,0,1,1.772,1.772v6.531a1.255,1.255,0,0,0,1.288,1.253v5.655c0,2.022-1.26,4.324-3.457,6.315Zm28.663-7.771a2.5,2.5,0,0,1-2.494,2.494H50.106a.9.9,0,0,0-.547.186l-7.446,5.719L43.3,25.1a.9.9,0,0,0-.871-1.114H35.941a6.936,6.936,0,0,0,.08-1.037v-.5a2.638,2.638,0,0,0,1.388-.367A2.445,2.445,0,0,0,38.5,20.368l.508-2.8a2.927,2.927,0,0,0-.942-2.757V6.937c0-.229-.011-.455-.033-.679h18.9a2.5,2.5,0,0,1,2.494,2.494Zm0,0"/>
    <path id="Path_7260" data-name="Path 7260" d="M181.117,374.725a3.374,3.374,0,1,0-3.374-3.374A3.378,3.378,0,0,0,181.117,374.725Zm0-4.954a1.579,1.579,0,1,1-1.579,1.579A1.581,1.581,0,0,1,181.117,369.772Zm0,0" transform="translate(-156.469 -323.936)"/>
  </g>
</svg>
