<svg id="Component_116_1" data-name="Component 116 – 1" xmlns="http://www.w3.org/2000/svg" width="47.301" height="47.302" viewBox="0 0 47.301 47.302">
  <g id="Component_114_1" data-name="Component 114 – 1" transform="translate(0 23.739)">
    <g id="Group_70" data-name="Group 70">
      <path id="Path_565" data-name="Path 565" d="M27.623,264.679v-6.8a.924.924,0,0,0-1.269-.857l-15.919,6.411H5.307a5.306,5.306,0,0,0,0,10.612h.611V279.6a.924.924,0,0,0,.924.924h3.772a.924.924,0,0,0,.924-.924v-5.1l14.817,5.959a.924.924,0,0,0,1.269-.857v-6.8a4.163,4.163,0,0,0,0-8.119ZM9.689,278.672H7.766v-4.624H9.689v4.624Zm0-6.472H5.307a3.458,3.458,0,1,1,0-6.917H9.69Zm16.086,6.028h0L11.538,272.5v-7.519l10.11-4.071v9.168a.924.924,0,0,0,1.848,0v-9.913l2.28-.918Zm1.848-7.366v-4.247a2.315,2.315,0,0,1,0,4.247Z" transform="translate(-0.001 -256.958)" fill="#162f6a"/>
    </g>
  </g>
  <g id="Component_115_1" data-name="Component 115 – 1" transform="translate(4.988)">
    <g id="Group_69" data-name="Group 69" transform="translate(16.657 39.713)">
      <g id="Group_68" data-name="Group 68">
        <path id="Path_564" data-name="Path 564" d="M235.878,430.13a.923.923,0,1,0,.271.653A.931.931,0,0,0,235.878,430.13Z" transform="translate(-234.301 -429.859)" fill="#fe9435"/>
      </g>
    </g>
    <g id="Group_73" data-name="Group 73" transform="translate(28.532 34.624)">
      <g id="Group_72" data-name="Group 72">
        <path id="Path_566" data-name="Path 566" d="M368.99,374.775h-5.231a.924.924,0,1,0,0,1.848h5.231a.924.924,0,1,0,0-1.848Z" transform="translate(-362.835 -374.775)" fill="#fe9435"/>
      </g>
    </g>
    <g id="Group_75" data-name="Group 75" transform="translate(27.016 27.584)">
      <g id="Group_74" data-name="Group 74">
        <path id="Path_567" data-name="Path 567" d="M349.8,298.841a.924.924,0,0,0-1.307,0l-1.8,1.8A.924.924,0,0,0,348,301.951l1.8-1.8A.924.924,0,0,0,349.8,298.841Z" transform="translate(-346.418 -298.57)" fill="#fe9435"/>
      </g>
    </g>
    <g id="Group_77" data-name="Group 77" transform="translate(27.023 39.714)">
      <g id="Group_76" data-name="Group 76">
        <path id="Path_568" data-name="Path 568" d="M349.941,432l-1.865-1.865a.924.924,0,0,0-1.307,1.307l1.865,1.865A.924.924,0,0,0,349.941,432Z" transform="translate(-346.499 -429.864)" fill="#fe9435"/>
      </g>
    </g>
    <g id="Group_79" data-name="Group 79">
      <g id="Group_78" data-name="Group 78">
        <path id="Path_569" data-name="Path 569" d="M92.618,0H75.435a3.7,3.7,0,0,0-3.7,3.7v.37H56.218A2.22,2.22,0,0,0,54,6.282v14.6A2.22,2.22,0,0,0,56.218,23.1h.955V25.93a.924.924,0,0,0,1.577.653L62.236,23.1H80.588a2.22,2.22,0,0,0,2.217-2.217V18.108h9.813a3.7,3.7,0,0,0,3.7-3.7V3.7A3.7,3.7,0,0,0,92.618,0ZM80.957,20.879a.37.37,0,0,1-.37.37H61.854a.924.924,0,0,0-.653.271l-2.18,2.18V22.173a.924.924,0,0,0-.924-.924H56.218a.37.37,0,0,1-.37-.37V6.282a.37.37,0,0,1,.37-.37H71.739v8.5a3.7,3.7,0,0,0,3.7,3.7h5.523Zm13.509-6.467a1.85,1.85,0,0,1-1.848,1.848H75.435a1.85,1.85,0,0,1-1.848-1.848V3.7a1.85,1.85,0,0,1,1.848-1.848H92.618A1.85,1.85,0,0,1,94.466,3.7Z" transform="translate(-54.001)" fill="#162f6a"/>
      </g>
    </g>
    <g id="Group_81" data-name="Group 81" transform="translate(26.028 4.479)">
      <g id="Group_80" data-name="Group 80">
        <path id="Path_570" data-name="Path 570" d="M343.445,52.26l-6.323-3.651a.924.924,0,0,0-1.386.8v7.3a.924.924,0,0,0,1.386.8l6.323-3.651a.924.924,0,0,0,0-1.6Zm-5.861,2.85v-4.1l3.551,2.05Z" transform="translate(-335.736 -48.486)" fill="#fe9435"/>
      </g>
    </g>
    <g id="Group_83" data-name="Group 83" transform="translate(4.667 9.701)">
      <g id="Group_82" data-name="Group 82">
        <path id="Path_571" data-name="Path 571" d="M114.674,105h-9.239a.924.924,0,1,0,0,1.848h9.239a.924.924,0,1,0,0-1.848Z" transform="translate(-104.512 -105)" fill="#fe9435"/>
      </g>
    </g>
    <g id="Group_85" data-name="Group 85" transform="translate(13.905 14.874)">
      <g id="Group_84" data-name="Group 84">
        <path id="Path_572" data-name="Path 572" d="M206.088,161.271a.923.923,0,1,0,.271.653A.93.93,0,0,0,206.088,161.271Z" transform="translate(-204.511 -161)" fill="#fe9435"/>
      </g>
    </g>
    <path id="Path_573" data-name="Path 573" d="M111.209,161h-5.773a.924.924,0,0,0,0,1.848h5.773a.924.924,0,1,0,0-1.848Z" transform="translate(-99.845 -146.126)" fill="#fe9435"/>
  </g>
</svg>
