<svg id="Component_119_1" data-name="Component 119 – 1" xmlns="http://www.w3.org/2000/svg" width="51.968" height="46.779" viewBox="0 0 51.968 46.779">
  <g id="Group_93" data-name="Group 93" transform="translate(21.227 20.717)">
    <g id="Group_92" data-name="Group 92" transform="translate(0 0)">
      <g id="Group_89" data-name="Group 89" transform="translate(0 3.472)">
        <g id="Group_88" data-name="Group 88">
          <path id="Path_574" data-name="Path 574" d="M213.885,273.39a4.758,4.758,0,1,1,4.758-4.758A4.763,4.763,0,0,1,213.885,273.39Zm0-7.485a2.728,2.728,0,1,0,2.728,2.728A2.731,2.731,0,0,0,213.885,265.905Z" transform="translate(-209.127 -263.875)" fill="#fe9435"/>
        </g>
      </g>
      <g id="Group_91" data-name="Group 91" transform="translate(9.89)">
        <g id="Group_90" data-name="Group 90">
          <path id="Path_575" data-name="Path 575" d="M307.579,231.69a1.015,1.015,0,1,1,1.015-1.015A1.023,1.023,0,0,1,307.579,231.69Z" transform="translate(-306.561 -229.665)" fill="#fe9435"/>
        </g>
      </g>
    </g>
  </g>
  <g id="Component_117_1" data-name="Component 117 – 1">
    <g id="Component_118_1" data-name="Component 118 – 1">
      <path id="Path_576" data-name="Path 576" d="M48.717,26.333a3.257,3.257,0,0,0-3.089,2.236H30.348a4.669,4.669,0,0,0-8.728,0H6.34a3.251,3.251,0,1,0,0,2.03h5.784a12.6,12.6,0,0,0-1.863,1.5,12.342,12.342,0,0,0-3.749,8.334,3.618,3.618,0,1,0,2.032.008A10.456,10.456,0,0,1,18.91,30.6h2.42a4.669,4.669,0,0,0,9.309,0h2.42a10.461,10.461,0,0,1,10.367,9.841,3.618,3.618,0,1,0,2.032,0A12.343,12.343,0,0,0,41.7,32.089,12.6,12.6,0,0,0,39.844,30.6h5.784a3.251,3.251,0,1,0,3.089-4.266ZM3.251,30.8a1.221,1.221,0,1,1,1.221-1.221A1.222,1.222,0,0,1,3.251,30.8Zm5.85,13.1a1.588,1.588,0,1,1-1.588-1.588A1.589,1.589,0,0,1,9.1,43.909ZM25.984,32.868a2.639,2.639,0,1,1,2.639-2.639A2.642,2.642,0,0,1,25.984,32.868ZM46.036,43.909a1.588,1.588,0,1,1-1.588-1.588A1.589,1.589,0,0,1,46.036,43.909Zm2.681-13.1a1.221,1.221,0,1,1,1.221-1.221A1.222,1.222,0,0,1,48.717,30.8Z" transform="translate(0 -25.56)" fill="#162f6a"/>
      <path id="Path_577" data-name="Path 577" d="M169.105,151.454a1.015,1.015,0,0,0-1.784.969l1.211,2.229a3.6,3.6,0,0,1,.032,3.378l-2.893,5.574H154.679l-2.893-5.574a3.6,3.6,0,0,1,.032-3.378l7.342-13.517v6.254a1.015,1.015,0,1,0,2.03,0v-6.254l2.049,3.771a1.015,1.015,0,1,0,1.784-.969l-2.848-5.243a1.015,1.015,0,0,0-.892-.531h-2.215a1.015,1.015,0,0,0-.892.531l-8.142,14.988a5.624,5.624,0,0,0-.05,5.282l2.408,4.639h-.282a1.015,1.015,0,0,0,0,2.03h.652l-1.654,6.619a1.015,1.015,0,0,0,.985,1.261h16.164a1.015,1.015,0,0,0,.985-1.261l-1.654-6.619h.653a1.015,1.015,0,1,0,0-2.03h-.282l2.408-4.639a5.624,5.624,0,0,0-.05-5.282Zm-2.148,20.03H153.393l1.462-5.85H165.5Z" transform="translate(-134.191 -126.735)" fill="#162f6a"/>
    </g>
  </g>
</svg>
