<svg xmlns="http://www.w3.org/2000/svg" width="47.196" height="47.196" viewBox="0 0 47.196 47.196"><defs><style>.a{fill:#162f6a;}.b{fill:#fe9435;}</style></defs><path class="a" d="M44.431,7.374H42.219V2.765A2.769,2.769,0,0,0,39.453,0H7.743A2.769,2.769,0,0,0,4.978,2.765V7.374H2.765A2.769,2.769,0,0,0,0,10.14V36.688a2.769,2.769,0,0,0,2.765,2.765H18.989v2.212H17.235A2.769,2.769,0,0,0,14.47,44.43v1.844a.922.922,0,0,0,.922.922H31.8a.922.922,0,0,0,.922-.922V44.43a2.769,2.769,0,0,0-2.765-2.765H28.207V39.453H44.431A2.769,2.769,0,0,0,47.2,36.688V10.14A2.769,2.769,0,0,0,44.431,7.374Zm0,1.844a.923.923,0,0,1,.922.922v21.2H42.219V9.218ZM7.743,1.844h31.71a.923.923,0,0,1,.922.922V7.374H6.821V2.765A.923.923,0,0,1,7.743,1.844ZM2.765,9.218H4.978v6.913a.922.922,0,0,0,1.844,0V9.218H40.375V31.341h-4.7V28.3a.922.922,0,0,0-.922-.922h-1.2a10.257,10.257,0,0,0-.865-2.087l.849-.848a.922.922,0,0,0,0-1.3l-2.8-2.8a.922.922,0,0,0-1.3,0l-.848.849a10.249,10.249,0,0,0-2.087-.865v-1.2a.922.922,0,0,0-.922-.922H21.619a.922.922,0,0,0-.922.922v1.2a10.256,10.256,0,0,0-2.087.865l-.848-.849a.922.922,0,0,0-1.3,0l-2.8,2.8a.922.922,0,0,0,0,1.3l.849.848a10.254,10.254,0,0,0-.865,2.087h-1.2a.922.922,0,0,0-.922.922v3.038h-4.7V24.427a.922.922,0,1,0-1.844,0v6.914H1.844V10.14a.923.923,0,0,1,.922-.922ZM16.32,24.5l-.7-.7L17.11,22.3l.7.7a.922.922,0,0,0,1.153.122,8.443,8.443,0,0,1,2.843-1.178.922.922,0,0,0,.73-.9v-1h2.114v1a.922.922,0,0,0,.73.9,8.443,8.443,0,0,1,2.843,1.178A.922.922,0,0,0,29.381,23l.7-.7,1.495,1.495-.7.7a.922.922,0,0,0-.122,1.153A8.445,8.445,0,0,1,31.933,28.5a.922.922,0,0,0,.9.73h1v2.116H28.083a4.61,4.61,0,1,0-8.97,0H13.366V29.225h1a.922.922,0,0,0,.9-.73,8.443,8.443,0,0,1,1.178-2.843A.922.922,0,0,0,16.32,24.5Zm4.512,5.783a2.766,2.766,0,1,1,5.318,1.059h-5.1A2.75,2.75,0,0,1,20.832,30.282ZM30.883,44.43v.922H16.314V44.43a.923.923,0,0,1,.922-.922H29.961a.923.923,0,0,1,.922.922Zm-4.519-2.765H20.833V39.453h5.531Zm18.067-4.056H2.765a.923.923,0,0,1-.922-.922v-3.5H45.353v3.5A.923.923,0,0,1,44.431,37.609Z"/><path class="b" d="M276.922,41.844h9.955a.922.922,0,1,0,0-1.844h-9.955a.922.922,0,1,0,0,1.844Z" transform="translate(-250.559 -36.313)"/><path class="b" d="M152.922,41.844a.922.922,0,1,0-.652-.27A.929.929,0,0,0,152.922,41.844Z" transform="translate(-137.988 -36.313)"/><path class="b" d="M108.922,41.844a.922.922,0,1,0-.652-.27A.929.929,0,0,0,108.922,41.844Z" transform="translate(-98.045 -36.313)"/><path class="b" d="M196.922,41.844a.922.922,0,1,0-.652-.27A.929.929,0,0,0,196.922,41.844Z" transform="translate(-177.933 -36.313)"/><path class="b" d="M102.922,129.842h2.194a.922.922,0,0,0,0-1.844h-2.194a.922.922,0,1,0,0,1.844Z" transform="translate(-92.598 -116.199)"/><path class="b" d="M170.72,129.842h8.456a.922.922,0,0,0,0-1.844H170.72a.922.922,0,1,0,0,1.844Z" transform="translate(-154.146 -116.199)"/><path class="b" d="M102.922,177.84h5.346a.922.922,0,0,0,0-1.844h-5.346a.922.922,0,0,0,0,1.844Z" transform="translate(-92.598 -159.773)"/><path class="b" d="M306.458,129.842h7.786a.922.922,0,1,0,0-1.844h-7.786a.922.922,0,1,0,0,1.844Z" transform="translate(-277.372 -116.199)"/><path class="b" d="M328.792,176h-6.309a.922.922,0,0,0,0,1.844h6.309a.922.922,0,0,0,0-1.844Z" transform="translate(-291.92 -159.773)"/><path class="b" d="M54.922,211.834a.922.922,0,1,0-.652-.27A.929.929,0,0,0,54.922,211.834Z" transform="translate(-49.022 -190.633)"/></svg>