<svg xmlns="http://www.w3.org/2000/svg" width="39.681" height="40.024" viewBox="0 0 39.681 40.024">
  <g id="Group_13983" data-name="Group 13983" transform="translate(-6302 288.003)">
    <path id="Path_66299" data-name="Path 66299" d="M21.015,148.9a6.409,6.409,0,1,0-8.044,6.2v2H10.646a2.472,2.472,0,0,0-2.479,2.05,2.957,2.957,0,0,1-.142.377,2.9,2.9,0,0,1-1.517.5H5.886V158.89a.484.484,0,0,0-.486-.49H.984a.484.484,0,0,0-.484.484V170.19a.484.484,0,0,0,.484.484H5.4a.484.484,0,0,0,.484-.484v-.95H6.42a6.394,6.394,0,0,1,3.371.961,7.043,7.043,0,0,0,3.882.8h3.6a1.711,1.711,0,0,0,1.41-2.683,1.713,1.713,0,0,0,.334-2.738,1.754,1.754,0,0,0,.021-2.505,1.635,1.635,0,0,0-.742-2.783,2.808,2.808,0,0,0,1.4-2.663v-.048a.484.484,0,0,0-.484-.484h-2.97v-2a6.435,6.435,0,0,0,4.773-6.2Zm-5.741,11.344H13.939v-4.969a6.437,6.437,0,0,0,1.336,0ZM9.165,148.9a5.441,5.441,0,1,1,2.012,4.225A5.441,5.441,0,0,1,9.165,148.9ZM4.918,169.71H1.468V159.372h3.45Zm13.667-7.823a.672.672,0,0,1-.671.671H16.851a.473.473,0,0,0-.07,0H16.1a.484.484,0,0,0,0,.968h1.7a.789.789,0,0,1,0,1.578H16.1a.484.484,0,1,0,0,.968h1.739a.751.751,0,1,1,0,1.5H15.328a.484.484,0,0,0,0,.968h1.944a.745.745,0,1,1,0,1.49h-3.6a6.26,6.26,0,0,1-3.371-.654,7.359,7.359,0,0,0-3.882-1.106H5.886v-7.283h.622a3.862,3.862,0,0,0,2.065-.666,1.483,1.483,0,0,0,.513-.87c.271-.813.541-1.388,1.56-1.388h2.325v1.678a.484.484,0,0,0-.945.189,1.435,1.435,0,0,0,1.428,1.281h4.46A.672.672,0,0,1,18.585,161.887Zm.109-3.818a1.508,1.508,0,0,1-1.488,1.5h-.964v-1.5Zm0,0" transform="translate(6301.5 -419.004)" fill="#fe9435"/>
    <path id="Path_66300" data-name="Path 66300" d="M258.135,15.909h-4.419a.484.484,0,0,0-.484.484V17.53h-.622a2.9,2.9,0,0,1-1.518-.5,2.973,2.973,0,0,1-.142-.377,2.471,2.471,0,0,0-2.479-2.05h-2.325v-2a6.409,6.409,0,1,0-3.271,0v2h-2.967a.484.484,0,0,0-.484.484v.047a2.808,2.808,0,0,0,1.4,2.663,1.635,1.635,0,0,0-.742,2.783,1.753,1.753,0,0,0,.021,2.5,1.713,1.713,0,0,0,.334,2.738,1.711,1.711,0,0,0,1.41,2.683h3.6a7.045,7.045,0,0,0,3.882-.8,6.388,6.388,0,0,1,3.371-.961h.536v.95a.484.484,0,0,0,.484.484h4.418a.484.484,0,0,0,.484-.484v-11.3a.484.484,0,0,0-.487-.484Zm-13.623-3.091a6.477,6.477,0,0,0,.668-.035v4.969h-1.336V12.783a6.482,6.482,0,0,0,.669.035Zm-5.441-6.409a5.441,5.441,0,1,1,2.012,4.225,5.441,5.441,0,0,1-2.012-4.225Zm3.8,9.164v1.5h-.964a1.508,1.508,0,0,1-1.488-1.5ZM252.7,25.78a7.358,7.358,0,0,0-3.882,1.107,6.26,6.26,0,0,1-3.371.653h-3.6a.745.745,0,1,1,0-1.49h1.943a.484.484,0,0,0,0-.968h-2.506a.751.751,0,1,1,0-1.5h1.738a.484.484,0,0,0,0-.968h-1.7a.789.789,0,1,1,0-1.578h1.7a.484.484,0,0,0,0-.968h-.685a.475.475,0,0,0-.07,0H241.2a.671.671,0,1,1,0-1.342h4.46a1.435,1.435,0,0,0,1.428-1.281.484.484,0,0,0-.945-.189V15.573h2.325c1.019,0,1.29.576,1.561,1.388a1.484,1.484,0,0,0,.512.87,3.863,3.863,0,0,0,2.066.666h.622V25.78Zm4.954,1.434H254.2V16.876h3.451Zm0,0" transform="translate(6083.059 -288)" fill="#fe9435"/>
    <path id="Path_66301" data-name="Path 66301" d="M140.7,199.334l3.352-3.352a.484.484,0,1,0-.684-.685l-3.009,3.01-1.334-1.334a.484.484,0,1,0-.684.684l1.676,1.676a.484.484,0,0,0,.683,0Zm0,0" transform="translate(6174.915 -467.416)" fill="#fe9435"/>
    <path id="Path_66302" data-name="Path 66302" d="M293.614,56.187a.484.484,0,0,0,.684-.684l-1.4-1.4,1.4-1.4a.484.484,0,0,0-.684-.684l-1.4,1.4-1.4-1.4a.484.484,0,1,0-.684.684l1.4,1.4-1.4,1.4a.484.484,0,1,0,.684.684l1.4-1.4Zm0,0" transform="translate(6035.353 -335.698)" fill="#fe9435"/>
  </g>
</svg>
