<svg xmlns="http://www.w3.org/2000/svg" width="39.45" height="34.673" viewBox="0 0 39.45 34.673">
  <g id="portfolio" transform="translate(0 -31)">
    <path id="Path_933" data-name="Path 933" d="M149.447,37.865a.927.927,0,0,1-.347.069,1.166,1.166,0,0,1-1.109-.786l-1.271-3.837h-12.2l-1.271,3.837a1.145,1.145,0,0,1-1.456.717,1.13,1.13,0,0,1-.74-1.456l1.549-4.623A1.124,1.124,0,0,1,133.682,31h13.869a1.124,1.124,0,0,1,1.086.786l1.549,4.623A1.13,1.13,0,0,1,149.447,37.865Z" transform="translate(-120.891 0)" fill="#08469c"/>
    <path id="Path_934" data-name="Path 934" d="M262.1,33.312H256V31h6.935a1.124,1.124,0,0,1,1.086.786l1.549,4.623a1.13,1.13,0,0,1-.74,1.456.927.927,0,0,1-.347.069,1.166,1.166,0,0,1-1.109-.786Z" transform="translate(-236.275 0)" fill="#063e8b"/>
    <path id="Path_935" data-name="Path 935" d="M52.139,219.656v15.6a3.463,3.463,0,0,1-3.467,3.467h-30.2A3.463,3.463,0,0,1,15,235.259v-15.6a1.144,1.144,0,0,1,1.156-1.156H50.983A1.144,1.144,0,0,1,52.139,219.656Z" transform="translate(-13.844 -173.053)" fill="#08469c"/>
    <path id="Path_936" data-name="Path 936" d="M274.569,219.656v15.6a3.463,3.463,0,0,1-3.467,3.467H256V218.5h17.414A1.144,1.144,0,0,1,274.569,219.656Z" transform="translate(-236.275 -173.053)" fill="#063e8b"/>
    <path id="Path_937" data-name="Path 937" d="M39.45,94.467V101.4a1.183,1.183,0,0,1-.647,1.04l-13.946,6.935H14.594L.647,102.442A1.183,1.183,0,0,1,0,101.4V94.467A3.463,3.463,0,0,1,3.467,91H35.983A3.463,3.463,0,0,1,39.45,94.467Z" transform="translate(0 -55.377)" fill="#0a4eaf"/>
    <path id="Path_938" data-name="Path 938" d="M275.725,94.467V101.4a1.183,1.183,0,0,1-.647,1.04l-13.946,6.935H256V91h16.258A3.463,3.463,0,0,1,275.725,94.467Z" transform="translate(-236.275 -55.377)" fill="#08469c"/>
    <path id="Path_939" data-name="Path 939" d="M189.09,271h-4.623a3.467,3.467,0,1,0,0,6.935h4.623a3.467,3.467,0,1,0,0-6.935Z" transform="translate(-167.054 -221.508)" fill="#fedb41"/>
    <path id="Path_940" data-name="Path 940" d="M261.779,274.467a3.463,3.463,0,0,1-3.467,3.467H256V271h2.312A3.463,3.463,0,0,1,261.779,274.467Z" transform="translate(-236.275 -221.508)" fill="#fcbf29"/>
  </g>
</svg>
