<svg xmlns="http://www.w3.org/2000/svg" width="40" height="40" viewBox="0 0 40 40">
  <g id="Group_13981" data-name="Group 13981" transform="translate(-6301 478)">
    <g id="XMLID_2536_" transform="translate(6301 -478)">
      <g id="XMLID_2539_">
        <path id="XMLID_2552_" d="M39.219,0H19.844a.781.781,0,0,0-.781.781V11.1L15.879,7.743a.781.781,0,0,0-1.133,0l-5.105,5.38A.782.782,0,1,0,10.774,14.2l4.539-4.783,3.75,3.952V24.844a.781.781,0,0,0,.781.781h6.864L22.031,30.3l-2.885-2.885a.782.782,0,0,0-.552-.229H12.031a.781.781,0,0,0-.552.229L8.594,30.3,1.872,23.579,5.935,19.3A.783.783,0,0,0,4.8,18.222L.215,23.056A.782.782,0,0,0,0,23.594V39.219A.781.781,0,0,0,.781,40H29.844a.781.781,0,0,0,.781-.781V25.625h8.594A.781.781,0,0,0,40,24.844V.781A.781.781,0,0,0,39.219,0ZM12.355,28.75H18.27l9.687,9.688H2.667ZM1.562,37.333V25.48l5.926,5.926Zm27.5,0-5.926-5.926,5.781-5.781h.145Zm9.375-13.27H20.625V1.562H38.438Z" fill="#fe9435"/>
        <path id="XMLID_2548_" d="M319.956,62.994a.781.781,0,0,0,1.1,0l3.338-3.338a4.557,4.557,0,1,0-7.781,0Zm-2.233-6.98A1.8,1.8,0,0,1,319,55.492a1.779,1.779,0,0,1,1.052.341.782.782,0,0,0,.922,0,1.794,1.794,0,0,1,2.325,2.719l-2.786,2.786-2.786-2.786a1.8,1.8,0,0,1,0-2.538Z" transform="translate(-290.977 -49.707)" fill="#fe9435"/>
        <path id="XMLID_2542_" d="M300.448,203.689h10.677a.781.781,0,0,0,0-1.562H300.448a.782.782,0,0,0,0,1.563Z" transform="translate(-276.255 -186.336)" fill="#fe9435"/>
        <path id="XMLID_2541_" d="M300.448,247.69h10.677a.781.781,0,0,0,0-1.562H300.448a.782.782,0,0,0,0,1.563Z" transform="translate(-276.255 -226.898)" fill="#fe9435"/>
        <path id="XMLID_2540_" d="M90.462,199.053a.782.782,0,1,0-.553-.229A.782.782,0,0,0,90.462,199.053Z" transform="translate(-82.674 -182.061)" fill="#fe9435"/>
      </g>
    </g>
  </g>
</svg>
