<svg xmlns="http://www.w3.org/2000/svg" width="34.988" height="40" viewBox="0 0 34.988 40">
  <g id="Group_13974" data-name="Group 13974" transform="translate(-5909.005 564)">
    <g id="Group_13866" data-name="Group 13866" transform="translate(5928.338 -541.005)">
      <path id="Path_66255" data-name="Path 66255" d="M287.359,311.342a3.094,3.094,0,0,1-2.492-1.269.717.717,0,0,0-.579-.307h-2.246a1.134,1.134,0,0,1-.982-1.7l.763-1.322a5.125,5.125,0,0,0,.686-2.559v-.407l-1.5-.27a1.805,1.805,0,0,1,.64-3.553l.854.154v-.921a4.851,4.851,0,1,1,9.7,0v.921l.854-.154a1.805,1.805,0,1,1,.641,3.553l-1.5.27v.407a5.126,5.126,0,0,0,.686,2.559l.763,1.322a1.134,1.134,0,0,1-.982,1.7h-2.247a.717.717,0,0,0-.579.307,3.094,3.094,0,0,1-2.48,1.269Zm-5.251-2.749h2.179a1.9,1.9,0,0,1,1.527.789,1.91,1.91,0,0,0,3.089,0,1.9,1.9,0,0,1,1.527-.789h2.179l-.729-1.263a6.3,6.3,0,0,1-.843-3.146v-.9a.586.586,0,0,1,.482-.577l1.977-.357a.632.632,0,0,0-.224-1.244l-1.545.279a.586.586,0,0,1-.691-.577v-1.623a3.678,3.678,0,0,0-7.357,0v1.623a.586.586,0,0,1-.691.577l-1.545-.279a.632.632,0,1,0-.224,1.244l1.977.357a.586.586,0,0,1,.482.577v.9a6.3,6.3,0,0,1-.843,3.146Z" transform="translate(-279.528 -294.337)" fill="#fe9435"/>
    </g>
    <g id="Group_13867" data-name="Group 13867" transform="translate(5914.782 -564)">
      <path id="Path_66256" data-name="Path 66256" d="M112.021,18.248H108.8a.822.822,0,0,1-.821-.821v-2.67a.587.587,0,0,1,1.173,0v2.319h2.521V11.07a.744.744,0,0,1,.743-.743h1.228V7.806h-1.228a.744.744,0,0,1-.743-.743V6.24a2.55,2.55,0,0,1,2.547-2.547h.556V1.173h-.556a5.073,5.073,0,0,0-5.067,5.068v.823a.744.744,0,0,1-.743.743h-1.228v2.521h1.228a.744.744,0,0,1,.743.743V11.8a.587.587,0,0,1-1.173,0v-.3h-1.15a.822.822,0,0,1-.821-.821V7.454a.822.822,0,0,1,.821-.821h1.15V6.24A6.247,6.247,0,0,1,114.216,0h.907a.822.822,0,0,1,.821.821V4.045a.822.822,0,0,1-.821.821h-.908a1.375,1.375,0,0,0-1.374,1.374v.393h1.15a.822.822,0,0,1,.821.821v3.224a.822.822,0,0,1-.821.821h-1.15v5.927a.822.822,0,0,1-.821.821Z" transform="translate(-106.005)" fill="#fe9435"/>
    </g>
    <g id="Group_13868" data-name="Group 13868" transform="translate(5925.807 -558.279)">
      <path id="Path_66257" data-name="Path 66257" d="M259.344,88.725h-8.936a3.284,3.284,0,0,1-3.281-3.281V76.509a3.284,3.284,0,0,1,3.281-3.281h.981a.586.586,0,0,1,0,1.173h-.981a2.11,2.11,0,0,0-2.108,2.108v8.936a2.11,2.11,0,0,0,2.108,2.108h8.936a2.11,2.11,0,0,0,2.108-2.108V76.509a2.11,2.11,0,0,0-2.108-2.108h-5a.587.587,0,0,1,0-1.173h5a3.284,3.284,0,0,1,3.281,3.281v8.936a3.284,3.284,0,0,1-3.281,3.28Z" transform="translate(-247.127 -73.228)" fill="#fe9435"/>
    </g>
    <g id="Group_13869" data-name="Group 13869" transform="translate(5930.124 -553.963)">
      <path id="Path_66258" data-name="Path 66258" d="M305.807,135.341a3.432,3.432,0,1,1,3.432-3.432A3.432,3.432,0,0,1,305.807,135.341Zm0-5.692a2.259,2.259,0,1,0,2.259,2.259A2.259,2.259,0,0,0,305.807,129.649Z" transform="translate(-302.375 -128.476)" fill="#fe9435"/>
    </g>
    <g id="Group_13870" data-name="Group 13870" transform="translate(5936.752 -555.384)">
      <circle id="Ellipse_1904" data-name="Ellipse 1904" cx="0.829" cy="0.829" r="0.829" transform="translate(0 0)" fill="#fe9435"/>
    </g>
    <g id="Group_13871" data-name="Group 13871" transform="translate(5909 -543.383)">
      <path id="Path_66259" data-name="Path 66259" d="M43.391,277.684a7.623,7.623,0,0,1-7.3-5.469,4.4,4.4,0,0,1-2.139-2.5,3.234,3.234,0,0,1-1.673-.682.743.743,0,0,1,.149-1.255l.091-.042a3.238,3.238,0,0,1-.408-.624.743.743,0,0,1,.665-1.074h1.576a4.409,4.409,0,0,1,8.117,1.476,6.356,6.356,0,0,0,3.313-1.819,6.456,6.456,0,0,0,.811-1.026.817.817,0,0,1,.728-.377.826.826,0,0,1,.695.446,7.583,7.583,0,0,1,.756,2.322.586.586,0,0,1-1.159.179,6.423,6.423,0,0,0-.39-1.421,7.608,7.608,0,0,1-5.113,2.944.665.665,0,0,1-.746-.626,3.236,3.236,0,0,0-6.1-1.324.741.741,0,0,1-.658.4h-.963a1.975,1.975,0,0,0,.161.128.664.664,0,0,1-.1,1.139,2.089,2.089,0,0,0,.571.081h0a.742.742,0,0,1,.717.56,3.229,3.229,0,0,0,1.742,2.113.823.823,0,0,1,.441.529,6.44,6.44,0,0,0,11.477,2.028,7.6,7.6,0,0,1-2.361.113.7.7,0,0,1-.43-1.186h0A6.448,6.448,0,0,0,47.435,270a.587.587,0,0,1,1.128.322,7.605,7.605,0,0,1-1.21,2.443,6.418,6.418,0,0,0,1.8-.326.821.821,0,0,1,.99,1.159,7.594,7.594,0,0,1-6.747,4.086Z" transform="translate(-31.994 -263.896)" fill="#fe9435"/>
    </g>
  </g>
</svg>
