<svg xmlns="http://www.w3.org/2000/svg" width="39.999" height="40" viewBox="0 0 39.999 40">
  <g id="Group_13976" data-name="Group 13976" transform="translate(-5907.001 386)">
    <g id="Group_13883" data-name="Group 13883" transform="translate(5907 -386)">
      <g id="Group_13882" data-name="Group 13882">
        <path id="Path_66265" data-name="Path 66265" d="M211.226,336a3.217,3.217,0,0,0-1.935,5.793v4.53h3.871v-4.53A3.217,3.217,0,0,0,211.226,336Zm.966,4.891-.321.186v3.955h-1.29v-3.955l-.321-.186a1.915,1.915,0,0,1-.97-1.665,1.936,1.936,0,0,1,3.871,0,1.915,1.915,0,0,1-.969,1.665Z" transform="translate(-191.226 -308.903)" fill="#fe9435"/>
        <path id="Path_66266" data-name="Path 66266" d="M67.226,104a3.226,3.226,0,1,0,3.226,3.226A3.226,3.226,0,0,0,67.226,104Zm0,5.161a1.935,1.935,0,1,1,1.935-1.935,1.935,1.935,0,0,1-1.935,1.935Z" transform="translate(-58.839 -95.613)" fill="#fe9435"/>
        <path id="Path_66267" data-name="Path 66267" d="M355.226,110.452A3.226,3.226,0,1,0,352,107.226,3.226,3.226,0,0,0,355.226,110.452Zm0-5.161a1.935,1.935,0,1,1-1.935,1.935,1.935,1.935,0,0,1,1.935-1.935Z" transform="translate(-323.613 -95.613)" fill="#fe9435"/>
        <path id="Path_66268" data-name="Path 66268" d="M211.226,104a3.226,3.226,0,1,0,3.226,3.226A3.226,3.226,0,0,0,211.226,104Zm0,5.161a1.935,1.935,0,1,1,1.935-1.935,1.935,1.935,0,0,1-1.935,1.935Z" transform="translate(-191.226 -95.613)" fill="#fe9435"/>
        <path id="Path_66269" data-name="Path 66269" d="M28.387,23.226A11.613,11.613,0,0,0,28.387,0H11.613A11.608,11.608,0,0,0,2.581,18.9v8.138a1.989,1.989,0,0,0,3.455,1.344L10.8,23.2c.279.02.554.03.818.03H12.9v1.56a3.228,3.228,0,0,0-1.935,2.952v9.032A3.229,3.229,0,0,0,14.194,40H25.806a3.229,3.229,0,0,0,3.226-3.226V27.742A3.228,3.228,0,0,0,27.1,24.79V23.226Zm-.645,4.516v9.032a1.938,1.938,0,0,1-1.935,1.935H14.194a1.938,1.938,0,0,1-1.935-1.935V27.742a1.938,1.938,0,0,1,1.935-1.935H25.806a1.938,1.938,0,0,1,1.936,1.935ZM20,18.065a4.522,4.522,0,0,0-4.516,4.516v1.935h-1.29V22.581a5.806,5.806,0,1,1,11.613,0v1.935h-1.29V22.581A4.522,4.522,0,0,0,20,18.065Zm3.226,5.161v1.29H16.774v-1.29Zm-6.386-1.29a3.226,3.226,0,0,1,6.321,0Zm10.225,0a7.093,7.093,0,0,0-14.128,0H11.613c-.329,0-.661-.017-1.017-.052l-.32-.032L5.085,27.515a.7.7,0,0,1-1.214-.472V18.437l-.152-.18A10.317,10.317,0,0,1,11.613,1.29H28.387a10.323,10.323,0,1,1,0,20.646Z" fill="#fe9435"/>
      </g>
    </g>
  </g>
</svg>
