<svg xmlns="http://www.w3.org/2000/svg" width="40" height="40" viewBox="0 0 40 40">
  <g id="Group_13984" data-name="Group 13984" transform="translate(-6302 199)">
    <g id="XMLID_1_" transform="translate(6302 -199)">
      <circle id="Ellipse_1910" data-name="Ellipse 1910" cx="0.817" cy="0.817" r="0.817" transform="translate(33.35 5.85)" fill="#fe9435"/>
      <circle id="Ellipse_1911" data-name="Ellipse 1911" cx="0.817" cy="0.817" r="0.817" transform="translate(29.183 5.85)" fill="#fe9435"/>
      <path id="Path_66303" data-name="Path 66303" d="M22.333,30a.867.867,0,0,1-.4.717.807.807,0,0,1-.433.117.908.908,0,0,1-.367-.083L14,27.186V25.319l6.667,3.333V14.686L14,18.019V16.153l7.133-3.567a.806.806,0,0,1,.8.033.867.867,0,0,1,.4.717Z" transform="translate(9.333 8.331)" fill="#fe9435"/>
      <circle id="Ellipse_1912" data-name="Ellipse 1912" cx="0.817" cy="0.817" r="0.817" transform="translate(25.017 5.85)" fill="#fe9435"/>
      <path id="Path_66304" data-name="Path 66304" d="M13.083,20.467a.843.843,0,0,1,1.117-.383l.467.233v1.867l-1.2-.6a.841.841,0,0,1-.467-.75.908.908,0,0,1,.083-.367Z" transform="translate(8.667 13.333)" fill="#fe9435"/>
      <path id="Path_66305" data-name="Path 66305" d="M14.2,23.083a.843.843,0,0,0-1.117.383.908.908,0,0,0-.083.367V15.5a.908.908,0,0,0,.083.367.843.843,0,0,0,1.117.383l.467-.233v7.3Z" transform="translate(8.667 10.333)" fill="#fe9435"/>
      <path id="Path_66306" data-name="Path 66306" d="M13.083,16.407A.908.908,0,0,1,13,16.04a.841.841,0,0,1,.467-.75l1.2-.6v1.867l-.467.233A.843.843,0,0,1,13.083,16.407Z" transform="translate(8.667 9.793)" fill="#fe9435"/>
      <path id="Path_66307" data-name="Path 66307" d="M17,17.5V13.333H14.5a2.5,2.5,0,0,1-2.5-2.5V2.5A2.5,2.5,0,0,1,14.5,0h15A2.5,2.5,0,0,1,32,2.5v8.333a2.5,2.5,0,0,1-2.5,2.5H23.567L18.4,18.117a.924.924,0,0,1-.567.217.746.746,0,0,1-.333-.067A.842.842,0,0,1,17,17.5Zm13.333-15a.847.847,0,0,0-.833-.833h-15a.847.847,0,0,0-.833.833v8.333a.836.836,0,0,0,.833.833h3.333a.825.825,0,0,1,.833.833v3.1l4.017-3.717a.855.855,0,0,1,.567-.217H29.5a.836.836,0,0,0,.833-.833Z" transform="translate(8)" fill="#fe9435"/>
      <path id="Path_66308" data-name="Path 66308" d="M0,15.333A3.343,3.343,0,0,1,3.333,12H20a3.343,3.343,0,0,1,3.333,3.333v1.15l-1.2.6a.841.841,0,0,0-.467.75v-2.5A1.672,1.672,0,0,0,20,13.667H3.333a1.672,1.672,0,0,0-1.667,1.667V28.667a1.672,1.672,0,0,0,1.667,1.667H20a1.672,1.672,0,0,0,1.667-1.667v-2.5a.841.841,0,0,0,.467.75l1.2.6v1.15A3.343,3.343,0,0,1,20,32H3.333A3.343,3.343,0,0,1,0,28.667Z" transform="translate(0 8)" fill="#fe9435"/>
    </g>
  </g>
</svg>
