<svg id="_2357309_black_white_circle_gradient_high_quality_long_shadow_icon" data-name="2357309_black white_circle_gradient_high quality_long shadow_icon" xmlns="http://www.w3.org/2000/svg" width="35.589" height="35.589" viewBox="0 0 35.589 35.589">
  <path id="Website_1_" d="M232.213,214.419a17.794,17.794,0,1,0,17.794,17.794A17.794,17.794,0,0,0,232.213,214.419Zm13.41,10.315a15.163,15.163,0,0,1,1.442,3.586h-5.982a21.421,21.421,0,0,0-.977-3.586Zm-6.182,10.037-1.676-5.108,1.069-.473,1.192,3.977.923-2.54h1.177l.923,2.54,1.192-3.977,1.069.473-1.676,5.108-1.053.465-1.044-3.485-1.044,3.485Zm.125,1.335a19.846,19.846,0,0,1-1.054,3.57h-5.554v-3.57Zm3.5-14.746a15.537,15.537,0,0,1,1.605,1.884h-5.181a20.555,20.555,0,0,0-4.261-6.085A15.24,15.24,0,0,1,243.066,221.36Zm-10.108-4.244a19.149,19.149,0,0,1,4.874,6.128h-4.874Zm0,7.618h5.547a19.839,19.839,0,0,1,1.061,3.586h-6.608Zm-1.49-7.6v6.109h-4.852A19.148,19.148,0,0,1,231.468,217.135Zm-6.585,11.185a19.851,19.851,0,0,1,1.06-3.586h5.525v3.586Zm1.779,1.343-1.676,5.108-1.053.465-1.044-3.485-1.044,3.485-1.053-.465-1.676-5.108,1.069-.473,1.192,3.977.923-2.54h1.177l.923,2.54,1.192-3.977Zm-5.3-8.3a15.24,15.24,0,0,1,7.864-4.206,20.555,20.555,0,0,0-4.266,6.09h-5.2A15.544,15.544,0,0,1,221.36,221.36Zm-2.557,3.374h5.539a21.409,21.409,0,0,0-.977,3.586h-6A15.159,15.159,0,0,1,218.8,224.734Zm-.009,14.942a15.162,15.162,0,0,1-1.433-3.569h6a21.41,21.41,0,0,0,.971,3.569Zm2.566,3.39a15.542,15.542,0,0,1-1.617-1.9h5.207a20.554,20.554,0,0,0,4.274,6.106A15.239,15.239,0,0,1,221.36,243.066Zm10.108,4.225a19.149,19.149,0,0,1-4.86-6.126h4.86Zm0-7.616h-5.532a19.843,19.843,0,0,1-1.054-3.569h6.585Zm.736-7.925-1.044,3.485-1.053-.465-1.676-5.108,1.069-.473,1.192,3.977.923-2.54h1.177l.923,2.54,1.192-3.977,1.069.473-1.676,5.108-1.053.465Zm.754,15.559v-6.144h4.882A19.147,19.147,0,0,1,232.958,247.31Zm10.108-4.244a15.24,15.24,0,0,1-7.837,4.2,20.558,20.558,0,0,0,4.268-6.1h5.185A15.536,15.536,0,0,1,243.066,243.066Zm2.566-3.39h-5.52a21.408,21.408,0,0,0,.971-3.569h5.982A15.165,15.165,0,0,1,245.632,239.676Z" transform="translate(-214.419 -214.419)"/>
</svg>
