<svg xmlns="http://www.w3.org/2000/svg" width="51.145" height="51.09" viewBox="0 0 51.145 51.09"><defs><style>.a{fill:#fff;}</style></defs><path class="a" d="M45.651,33.386a5.5,5.5,0,0,0-5.285,4h-5.3V31.533h5.415a10.668,10.668,0,0,0,3.1-20.876A12.194,12.194,0,0,0,31.764,1.428a12.063,12.063,0,0,0-6.106,1.635A10.672,10.672,0,0,0,7.8,10.589a10.668,10.668,0,0,0,2.865,20.943h5.415v5.849h-5.3a5.494,5.494,0,1,0,0,3h6.8a1.5,1.5,0,0,0,1.5-1.5V31.533h4.995v9.055a5.494,5.494,0,1,0,3,0V31.533h4.995V38.88a1.5,1.5,0,0,0,1.5,1.5h6.8a5.494,5.494,0,1,0,5.285-6.993ZM5.494,41.378a2.5,2.5,0,1,1,2.5-2.5A2.5,2.5,0,0,1,5.494,41.378Zm22.576,4.5a2.5,2.5,0,1,1-2.5-2.5A2.5,2.5,0,0,1,28.07,45.873Zm-17.4-17.337a7.671,7.671,0,0,1-1.117-15.26,1.5,1.5,0,0,0,1.275-1.621c-.022-.234-.033-.473-.033-.711A7.673,7.673,0,0,1,24.3,5.965a1.5,1.5,0,0,0,2.032.235,9.066,9.066,0,0,1,5.43-1.775,9.2,9.2,0,0,1,9.057,7.695A1.5,1.5,0,0,0,42,13.347a7.671,7.671,0,0,1-1.525,15.189H10.667ZM45.651,41.378a2.5,2.5,0,1,1,2.5-2.5A2.5,2.5,0,0,1,45.651,41.378Z" transform="translate(0 -0.277)"/></svg>