<svg xmlns="http://www.w3.org/2000/svg" width="51.971" height="51.919" viewBox="0 0 51.971 51.919"><defs><style>.a{fill:#fff;stroke:#fff;}</style></defs><g transform="translate(0.506 0.513)"><path class="a" d="M49,15.141a.727.727,0,0,1-.628-.359,17.265,17.265,0,0,0-1.164-1.724.727.727,0,1,1,1.157-.882,18.745,18.745,0,0,1,1.263,1.869.727.727,0,0,1-.626,1.1Z" transform="translate(-14.308 -4.705)"/><path class="a" d="M20.992,39.971A18.979,18.979,0,1,1,25.016,2.439a.727.727,0,1,1-.308,1.421,17.521,17.521,0,1,0,5.279,32.16,17.747,17.747,0,0,0,3.395-2.654,18.05,18.05,0,0,0,2.656-3.391A17.409,17.409,0,0,0,38.06,17.047a.727.727,0,1,1,1.417-.329,18.86,18.86,0,0,1-2.192,14.011A19.478,19.478,0,0,1,34.411,34.4a19.153,19.153,0,0,1-3.675,2.873A18.934,18.934,0,0,1,20.992,39.971Z" transform="translate(-2.03 -2.011)"/><path class="a" d="M42.117,7.971a.722.722,0,0,1-.436-.145,16.544,16.544,0,0,0-1.746-1.15.727.727,0,1,1,.72-1.263,17.922,17.922,0,0,1,1.9,1.251.727.727,0,0,1-.436,1.309Z" transform="translate(-12.259 -2.91)"/><path class="a" d="M58.091,63.267a5.186,5.186,0,0,1-3.665-1.522L40.186,47.505a.727.727,0,1,1,1.029-1.029L55.454,60.716a3.724,3.724,0,1,0,5.266-5.267L46.481,41.211a.727.727,0,1,1,1.029-1.029L61.748,54.421a5.185,5.185,0,0,1-3.658,8.846Z" transform="translate(-12.374 -12.36)"/><path class="a" d="M35.739,31.121a.727.727,0,0,1-.472-1.282l4.19-3.564-4.19-3.564a.728.728,0,0,1,.946-1.108l4.841,4.119a.727.727,0,0,1,0,1.108L36.212,30.95A.727.727,0,0,1,35.739,31.121Z" transform="translate(-11.022 -7.306)"/><path class="a" d="M18.091,31.12a.727.727,0,0,1-.471-.173l-4.841-4.119a.727.727,0,0,1,0-1.108L17.62,21.6a.728.728,0,1,1,.946,1.108l-4.19,3.564,4.19,3.564a.727.727,0,0,1-.472,1.282Z" transform="translate(-4.89 -7.305)"/><path class="a" d="M23.2,34.211a.736.736,0,0,1-.253-.046.727.727,0,0,1-.428-.935l6.723-18.124a.727.727,0,1,1,1.364.506L23.883,33.738A.727.727,0,0,1,23.2,34.211Z" transform="translate(-7.603 -5.452)"/></g></svg>