<svg xmlns="http://www.w3.org/2000/svg" width="50.802" height="50.81" viewBox="0 0 50.802 50.81"><path d="M1.527,35.924H25.942l1.129.652c-.027.288-.04.565-.04.836s.013.549.04.836L24.905,39.5a1.488,1.488,0,0,0-.545,2.033l2.977,5.157a1.488,1.488,0,0,0,2.033.545l2.2-1.27a10.321,10.321,0,0,0,1.415.822v2.535a1.489,1.489,0,0,0,1.489,1.489h5.954a1.489,1.489,0,0,0,1.489-1.489V46.786a10.329,10.329,0,0,0,1.427-.83l2.3,1.289a1.489,1.489,0,0,0,2.016-.555l2.977-5.157A1.488,1.488,0,0,0,50.1,39.5l-2.166-1.25c.027-.288.04-.566.04-.836s-.013-.549-.04-.836l2.166-1.25a1.488,1.488,0,0,0,.545-2.033l-2.977-5.157a1.489,1.489,0,0,0-2.016-.555l-2.3,1.289a10.328,10.328,0,0,0-1.427-.83V25.5a1.489,1.489,0,0,0-1.489-1.489H38.94V1.489A1.489,1.489,0,0,0,37.451,0H1.528A1.489,1.489,0,0,0,.039,1.489V34.435A1.488,1.488,0,0,0,1.527,35.924Zm38.4-5.492a7.389,7.389,0,0,1,2.321,1.348,1.488,1.488,0,0,0,1.693.167L45.82,30.9l1.5,2.6L45.574,34.5a1.488,1.488,0,0,0-.719,1.56,6.65,6.65,0,0,1,0,2.706,1.489,1.489,0,0,0,.719,1.56l1.745,1.008-1.5,2.6-1.878-1.05a1.489,1.489,0,0,0-1.693.167,7.387,7.387,0,0,1-2.321,1.348,1.489,1.489,0,0,0-.989,1.4v2.037H35.963V45.795a1.489,1.489,0,0,0-.989-1.4,7.388,7.388,0,0,1-2.321-1.347,1.488,1.488,0,0,0-1.71-.157l-1.771,1.023-1.489-2.578,1.745-1.008a1.489,1.489,0,0,0,.719-1.56,6.65,6.65,0,0,1,0-2.706,1.488,1.488,0,0,0-.719-1.56l-1.745-1.008,1.489-2.578,1.771,1.023a1.489,1.489,0,0,0,1.71-.157,7.389,7.389,0,0,1,2.321-1.348,1.488,1.488,0,0,0,.989-1.4V26.992H38.94V29.03A1.488,1.488,0,0,0,39.929,30.432Zm-5.454-6.416A1.489,1.489,0,0,0,32.986,25.5v2.535a10.322,10.322,0,0,0-1.415.822l-2.2-1.27a1.488,1.488,0,0,0-2.033.545L24.56,32.947H3.016V8.931H35.963V24.015ZM35.963,5.954H32.986V2.977h2.977ZM30.008,2.977V5.954H3.016V2.977Z" transform="translate(-0.039)" fill="#fff"/><path d="M170.966,151.072a1.489,1.489,0,0,0-1.88.948l-2.977,9.031a1.489,1.489,0,1,0,2.827.932l2.977-9.031A1.489,1.489,0,0,0,170.966,151.072Z" transform="translate(-149.56 -136.012)" fill="#fff"/><path d="M68.463,160.32l-4.447-3.281,4.46-3.363a1.489,1.489,0,0,0-1.793-2.377l-6.053,4.565a1.489,1.489,0,0,0,.013,2.386l6.053,4.466a1.489,1.489,0,1,0,1.767-2.4Z" transform="translate(-54.083 -136.014)" fill="#fff"/><path d="M250.386,155.872l-5.954-4.565a1.489,1.489,0,0,0-1.811,2.363l4.4,3.37-4.384,3.288a1.489,1.489,0,0,0,1.786,2.382l5.954-4.466a1.488,1.488,0,0,0,.012-2.372Z" transform="translate(-218.021 -136.015)" fill="#fff"/><path d="M332.038,336.466A4.466,4.466,0,1,0,336.5,332,4.471,4.471,0,0,0,332.038,336.466Zm5.954,0a1.489,1.489,0,1,1-1.489-1.489A1.49,1.49,0,0,1,337.992,336.466Z" transform="translate(-299.091 -299.053)" fill="#fff"/></svg>