<svg xmlns="http://www.w3.org/2000/svg" width="50.431" height="50.432" viewBox="0 0 50.431 50.432"><defs><style>.a{fill:#fff;}</style></defs><path class="a" d="M50.372,3.765A3.92,3.92,0,0,0,46.666.059,38.929,38.929,0,0,0,27.151,3.965a38.313,38.313,0,0,0-11.188,9.277l-.119.145-7.385.571a3.9,3.9,0,0,0-2.971,1.748L.449,23.327a2.7,2.7,0,0,0,1.839,4.158l6.222.964c-.022.121-.044.242-.064.363a3.918,3.918,0,0,0,1.1,3.408l8.667,8.667a3.928,3.928,0,0,0,2.772,1.151,3.862,3.862,0,0,0,.636-.053c.121-.02.242-.042.363-.064l.964,6.222A2.7,2.7,0,0,0,27.1,49.982l7.621-5.039a3.9,3.9,0,0,0,1.748-2.971l.571-7.385.145-.119A38.309,38.309,0,0,0,46.466,23.28,38.932,38.932,0,0,0,50.372,3.765ZM33.1,42.478l-7.29,4.82-.939-6.064a33.1,33.1,0,0,0,9.032-4.3l-.372,4.811a.962.962,0,0,1-.432.734ZM20.3,38.8,11.634,30.13a.958.958,0,0,1-.273-.831,25.417,25.417,0,0,1,1.154-4.389l13,13a25.524,25.524,0,0,1-4.387,1.156A.958.958,0,0,1,20.3,38.8ZM8.686,16.9l4.811-.372a33.1,33.1,0,0,0-4.3,9.032l-6.064-.939,4.82-7.29A.963.963,0,0,1,8.686,16.9ZM35.3,32.2a33.875,33.875,0,0,1-6.84,4.473l-14.7-14.7a34.461,34.461,0,0,1,4.473-6.839A35.26,35.26,0,0,1,28.508,6.59a35.939,35.939,0,0,1,18-3.58.969.969,0,0,1,.916.916,35.937,35.937,0,0,1-3.58,18A35.26,35.26,0,0,1,35.3,32.2Z" transform="translate(0)"/><path class="a" d="M283.11,101.086a7.381,7.381,0,1,0-5.223-2.16,7.366,7.366,0,0,0,5.223,2.16Zm-3.134-10.518a4.432,4.432,0,1,1-1.3,3.134A4.418,4.418,0,0,1,279.976,90.568Z" transform="translate(-248.565 -77.816)"/><path class="a" d="M1.779,350.743a1.472,1.472,0,0,0,1.045-.433l4.824-4.824A1.477,1.477,0,0,0,5.558,343.4L.734,348.221a1.478,1.478,0,0,0,1.045,2.522Z" transform="translate(-0.272 -309.183)"/><path class="a" d="M11.8,388.278a1.477,1.477,0,0,0-2.089,0L.433,397.552a1.477,1.477,0,1,0,2.089,2.089l9.274-9.274A1.477,1.477,0,0,0,11.8,388.278Z" transform="translate(0 -349.643)"/><path class="a" d="M95.319,433.159,90.5,437.983a1.477,1.477,0,1,0,2.089,2.089l4.824-4.824a1.477,1.477,0,1,0-2.089-2.089Z" transform="translate(-81.191 -390.104)"/></svg>