<svg xmlns="http://www.w3.org/2000/svg" width="50.719" height="50.521" viewBox="0 0 50.719 50.521"><defs><style>.a{fill:#fff;}</style></defs><path class="a" d="M46.261,1H4.458A4.463,4.463,0,0,0,0,5.458V47.063A4.463,4.463,0,0,0,4.458,51.52h41.8a4.463,4.463,0,0,0,4.458-4.458V5.458A4.463,4.463,0,0,0,46.261,1ZM4.458,3.972h41.8a1.488,1.488,0,0,1,1.486,1.486v7.429H2.972V5.458A1.488,1.488,0,0,1,4.458,3.972Zm41.8,44.577H4.458a1.488,1.488,0,0,1-1.486-1.486v-31.2H47.747v31.2A1.488,1.488,0,0,1,46.261,48.549Z" transform="translate(0 -1)"/><path class="a" d="M206.983,196.117a1.486,1.486,0,0,0-1.951.78l-8.915,20.8a1.486,1.486,0,0,0,2.731,1.171l8.915-20.8A1.486,1.486,0,0,0,206.983,196.117Z" transform="translate(-176.58 -176.68)"/><path class="a" d="M86.079,241.557a1.486,1.486,0,0,0-2.088-.232l-7.429,5.944a1.486,1.486,0,0,0,0,2.321l7.429,5.944a1.486,1.486,0,1,0,1.856-2.32l-5.979-4.783,5.979-4.783A1.486,1.486,0,0,0,86.079,241.557Z" transform="translate(-68.475 -217.225)"/><path class="a" d="M340.843,247.268l-7.43-5.944a1.486,1.486,0,1,0-1.856,2.32l5.979,4.783-5.979,4.783a1.486,1.486,0,1,0,1.856,2.321l7.43-5.944A1.486,1.486,0,0,0,340.843,247.268Z" transform="translate(-298.21 -217.225)"/><circle class="a" cx="1.627" cy="1.627" r="1.627" transform="translate(5.977 5.779)"/><circle class="a" cx="1.627" cy="1.627" r="1.627" transform="translate(11.671 5.779)"/><ellipse class="a" cx="1.22" cy="1.627" rx="1.22" ry="1.627" transform="translate(18.18 5.779)"/><path class="a" d="M332.486,63.972H341.4a1.486,1.486,0,0,0,0-2.972h-8.915a1.486,1.486,0,1,0,0,2.972Z" transform="translate(-298.211 -55.057)"/></svg>